<svg width="35" height="36" viewBox="0 0 35 36" fill="none" xmlns="http://www.w3.org/2000/svg">
<path fill-rule="evenodd" clip-rule="evenodd" d="M26.2165 14.2471C26.5811 14.3819 26.8736 14.5202 27.1798 14.5963C28.0055 14.7968 28.7934 15.101 29.5778 15.4295C29.9528 15.585 30.3416 15.7337 30.7372 15.8236C32.1134 16.1382 33.4277 16.5911 34.6009 17.407C34.7144 17.4865 34.8624 17.5211 35 17.5764C34.9656 18.0016 34.742 18.2402 34.3842 18.3716C34.0263 18.4995 33.672 18.6516 33.3038 18.7311C32.0997 18.987 30.9402 19.3845 29.7774 19.7752C29.0342 20.0276 28.2979 20.3042 27.5032 20.5877C27.5307 20.7398 27.5342 20.8781 27.5789 21.0025C27.9057 21.8807 28.2395 22.7519 28.6523 23.5954C29.1512 24.6188 29.6225 25.6663 30.0079 26.7415C30.2521 27.4226 30.3209 28.1659 30.4517 28.885C30.5136 29.2273 30.5308 29.5799 30.5927 29.9256C30.6753 30.3889 30.7716 30.8487 30.6994 31.3224C30.6512 31.6508 30.3554 31.7822 30.1283 31.5575C28.7796 30.2403 27.2073 29.2204 25.666 28.1625C25.4251 27.9965 25.2222 27.7822 24.9985 27.5955C24.4343 27.1322 23.8666 26.6689 23.2989 26.2126C23.237 26.1642 23.1407 26.1573 22.9996 26.1123C22.9136 26.2886 22.8104 26.458 22.7485 26.6378C22.4388 27.5194 22.1704 28.4217 21.823 29.2895C21.4514 30.216 21.0798 31.1391 20.7633 32.0864C20.691 32.3077 20.5913 32.5255 20.4674 32.7191C20.1646 33.1927 19.9376 33.7009 19.7896 34.2368C19.6692 34.6793 19.4731 35.0423 19.0603 35.2774C18.9433 35.3431 18.8745 35.4952 18.7747 35.5955C18.6336 35.7372 18.4857 35.8686 18.3446 36C18.0763 35.8513 17.8664 35.7165 17.7838 35.4434C17.6806 35.108 17.5292 34.7865 17.4501 34.4442C17.1095 33.0164 16.8136 31.5817 16.4524 30.1607C16.2631 29.4209 16.1909 28.6638 16.0636 27.9135C15.9673 27.3362 15.9088 26.7519 15.8262 26.1711C15.809 26.0605 15.7574 25.9567 15.6989 25.7873C15.5131 25.8911 15.3549 25.9533 15.231 26.0535C13.6553 27.3189 12.0864 28.5911 10.5107 29.853C10.3077 30.0155 10.0703 30.1365 9.85009 30.2748C9.50604 30.4926 9.15856 30.7035 8.82139 30.9282C8.43262 31.191 8.04728 31.4295 7.53809 31.3155C7.3179 31.267 7.07707 31.2912 6.84655 31.2774C6.81903 31.274 6.79495 31.2498 6.76742 31.229C6.64701 30.9559 6.7571 30.7035 6.88784 30.4823C7.20436 29.9464 7.32822 29.3414 7.56906 28.7778C7.8787 28.0656 8.04384 27.2981 8.37757 26.5998C8.62872 26.0708 8.90396 25.5557 9.1792 25.0371C9.24801 24.9092 9.33402 24.7847 9.43379 24.6845C10.0531 24.0656 10.3696 23.2774 10.6792 22.4857C10.7412 22.3301 10.7412 22.1503 10.779 21.9463C10.6208 21.8772 10.4969 21.7942 10.3627 21.7666C9.04502 21.5004 7.74108 21.1788 6.44746 20.8124C5.94171 20.6672 5.42564 20.5393 4.90956 20.477C3.37855 20.3007 1.95419 19.8029 0.591762 19.1045C0.412858 19.0112 0.227072 18.9316 0 18.821C0.0756906 18.6827 0.110095 18.5064 0.206429 18.458C1.45532 17.8184 2.69734 17.1546 4.05977 16.7916C4.51047 16.6706 4.97837 16.6084 5.44284 16.5669C6.9016 16.4424 8.3294 16.1382 9.76752 15.872C9.96363 15.834 10.146 15.7406 10.373 15.6576C10.3008 15.4018 10.2629 15.1702 10.1701 14.9627C9.60582 13.7078 9.00718 12.4701 8.46358 11.2047C7.7686 9.59365 7.09427 7.96875 6.44402 6.33694C6.20663 5.74575 6.06212 5.11999 5.88322 4.53918C6.00708 4.2626 6.18598 4.20037 6.39585 4.3352C6.90848 4.67055 7.40391 5.04048 7.92342 5.36891C9.88106 6.61352 11.5944 8.1831 13.4798 9.52105C13.8858 9.808 14.2745 10.1088 14.6048 10.4856C14.6771 10.5686 14.7906 10.6101 14.911 10.6861C15.692 9.34127 16.3457 7.9895 16.7827 6.50634C17.2024 5.08196 17.8182 3.7129 18.5958 2.43026C18.6852 2.2816 18.8229 2.13294 18.8435 1.97045C18.9467 1.24098 19.4181 0.698191 19.7621 0.0274875C19.941 0.0240303 20.1578 -0.0347427 20.3264 0.0309447C20.4605 0.0828032 20.5775 0.269494 20.636 0.425069C20.8734 1.01971 21.1624 1.60053 21.1762 2.26777C21.1796 2.49941 21.2518 2.73104 21.3172 2.95576C21.8023 4.60486 21.8642 6.30928 21.9915 8.00678C22.0122 8.30065 22.0122 8.59451 22.0535 8.88492C22.1188 9.33782 22.2117 9.79071 22.3081 10.3335C22.4698 10.1987 22.5833 10.1226 22.6762 10.0258C23.1269 9.56254 23.6017 9.13384 24.1384 8.76737C24.4274 8.57031 24.6889 8.33176 24.9572 8.10358C25.3391 7.78552 25.6866 7.42942 26.1545 7.22199C26.3369 7.13902 26.4951 6.99381 26.6568 6.87281C27.3381 6.37151 28.0089 5.84601 28.7074 5.37237C29.017 5.16148 29.3783 5.01973 29.7361 4.90219C30.0664 4.79155 30.4207 4.7639 30.7613 4.67747C30.9196 4.63944 31.0744 4.62906 31.1398 4.77773C31.1914 4.89527 31.1639 5.05085 31.157 5.19259C31.1535 5.24791 31.1157 5.30323 31.0916 5.35508C30.5893 6.31619 30.0836 7.27731 29.5812 8.23842C29.5124 8.36633 29.4539 8.50117 29.3955 8.636C29.0824 9.36893 28.6798 10.0431 28.2532 10.7138C27.6236 11.706 27.0456 12.7259 26.4504 13.7389C26.3713 13.8599 26.3265 13.9982 26.2165 14.2471Z" fill="#231F20"/>
</svg>
