<svg width="80" height="83" viewBox="0 0 80 83" fill="none" xmlns="http://www.w3.org/2000/svg">
<path fill-rule="evenodd" clip-rule="evenodd" d="M60.9749 70.5646C59.4838 69.7586 58.5309 68.5894 57.5339 67.4823C55.2841 64.9846 53.0343 62.478 50.4933 60.1662C50.308 60.246 50.061 60.2814 49.9022 60.4231C49.2228 61.0165 48.3846 61.3265 47.617 61.7605C46.9642 62.1325 46.2495 62.0528 45.5613 62.0705C44.4408 62.0971 43.3909 62.4603 42.2527 62.4514C42.1733 63.0714 42.0057 63.5851 42.0498 64.0811C42.1822 65.5426 41.891 66.9686 41.891 68.4212C41.891 69.6346 41.7234 70.848 41.6263 72.0615C41.5646 72.8498 41.5822 73.6646 41.4057 74.4263C41.2116 75.2943 41.2293 76.1181 41.2999 76.9949C41.3881 78.1552 41.3263 79.3421 40.9205 80.467C40.6381 81.2464 40.2941 82.0081 39.95 82.761C39.8353 83.0178 39.4471 83.071 39.2088 82.9115C38.8912 82.699 38.6354 82.4332 38.6001 82.017C38.5912 81.8752 38.5736 81.7335 38.5824 81.5918C38.7589 79.7052 38.3001 77.8629 38.2736 75.9852C38.2736 75.7106 38.1854 75.4361 38.1413 75.1526C38.0619 74.5946 37.956 74.0455 37.9119 73.4875C37.8501 72.646 37.8325 71.8046 37.7972 70.9632C37.7795 70.6355 37.709 70.2989 37.7531 69.98C38.0442 67.7746 37.6384 65.5957 37.5413 63.408C37.5237 63.0448 37.5413 62.6728 37.5413 62.2388C37.259 62.2034 37.0384 62.1325 36.8178 62.1414C35.662 62.1945 34.6033 61.8845 33.6063 61.3354C33.1122 61.0697 32.6182 60.7951 32.1682 60.4762C31.48 59.9891 30.7565 59.5817 29.9448 59.3159C28.5685 58.8731 27.5362 57.9165 26.5216 56.9422C26.2922 56.7208 26.0804 56.4728 25.8245 56.1982C25.004 56.8094 24.2276 57.4028 23.4335 57.9697C22.7101 58.4834 21.9778 58.9794 21.2367 59.4754C20.5838 59.9182 19.9397 60.3965 19.2515 60.7685C18.3516 61.2557 17.3987 61.6454 16.4811 62.0971C15.3959 62.6285 14.3195 63.1865 13.2343 63.7357C13.0226 63.842 11.7432 64.0811 11.5227 64.0103C11.3992 63.9748 11.3021 63.842 11.1962 63.7534C11.4344 62.9031 11.9109 62.2477 12.5373 61.6454C13.6931 60.556 14.7695 59.3868 15.9341 58.3062C17.8928 56.4994 19.8868 54.7368 21.8631 52.9476C22.2072 52.6376 22.5336 52.3099 22.8512 52.0088C21.7396 49.5996 21.0073 47.155 20.6191 44.5598C19.6309 44.4447 18.6604 44.3296 17.6899 44.2321C16.8076 44.1436 15.9165 44.1436 15.0783 43.7981C14.9548 43.745 14.8048 43.7184 14.6724 43.7184C12.6167 43.7184 10.5963 43.2135 8.53172 43.3907C8.20527 43.4173 7.86118 43.4438 7.55238 43.3553C6.39658 43.0098 5.24079 43.2401 4.08499 43.2933C3.52915 43.3198 2.96449 43.3641 2.40864 43.3818C1.27932 43.4261 0.529372 42.8593 0 41.699C0.379384 41.5041 0.758767 41.3004 1.13815 41.0967C1.07639 41.017 1.00581 40.9372 0.944047 40.8664C2.24101 40.769 3.54679 40.6627 4.84376 40.5652C6.14954 40.4767 7.45533 40.459 8.75229 40.3084C10.0934 40.149 11.4433 40.0781 12.7843 40.0072C14.0813 39.9364 15.4224 39.9541 16.6664 39.6264C17.9457 39.2898 19.2868 39.7061 20.5749 39.1392C20.6102 38.5989 20.6543 38.0941 20.6632 37.5804C20.6896 36.6326 20.9631 35.7558 21.2455 34.8523C21.9513 32.6026 23.1071 30.5655 24.1658 28.484C24.457 27.9172 24.9687 27.4654 25.401 26.9694C25.6393 26.6949 25.9128 26.438 26.2039 26.1457C25.7893 25.5789 25.3746 25.074 25.0217 24.5337C23.9717 22.9306 22.9042 21.3363 21.9248 19.6888C21.1308 18.3602 20.8484 16.8457 20.5485 15.3488C20.7249 15.2336 20.8484 15.1628 21.0514 15.0388C22.1631 15.7562 23.0012 16.8368 23.9982 17.7137C25.0393 18.6348 25.9304 19.742 26.8745 20.7694C27.7832 21.7614 28.6832 22.7623 29.6272 23.7986C29.9713 23.6746 30.2801 23.586 30.5624 23.4531C31.1977 23.1608 31.8329 22.8685 32.4417 22.5231C34.3651 21.4337 36.4649 21.1148 38.6177 20.9554C38.7501 20.9465 38.8736 20.9022 39.0677 20.858C39.0941 20.486 39.1559 20.114 39.1383 19.7508C39.0765 18.5285 39.1294 17.3239 39.3059 16.1105C39.4382 15.1894 39.3941 14.2416 39.5 13.3116C39.7294 11.2213 40.0117 9.13988 40.2588 7.04958C40.3117 6.58901 40.3558 6.11072 40.3117 5.65014C40.1705 4.26842 40.5146 2.96641 40.8323 1.64669C40.947 1.15068 41.2293 0.946967 41.8028 0.964681C41.8557 1.17725 41.9439 1.38983 41.9439 1.6024C41.9439 2.58555 42.0675 3.55099 42.3674 4.48985C42.438 4.71128 42.438 4.95042 42.4733 5.18071C42.5792 5.91586 42.7027 6.65101 42.7998 7.39501C42.9321 8.44902 42.9674 9.51188 42.9409 10.5836C42.9233 11.5136 42.9586 12.4702 43.1968 13.3648C43.6291 14.9768 43.5232 16.5976 43.5673 18.2185C43.5938 19.1928 43.4526 20.176 43.6732 21.23C44.0879 21.2831 44.4937 21.3628 44.9084 21.3805C46.4965 21.4425 48.0582 21.6905 49.611 22.0094C50.061 22.098 50.5021 22.2751 50.908 22.4965C52.0108 23.0988 53.0696 23.7631 53.9607 24.6931C54.6577 25.4283 55.4782 26.0394 56.2811 26.7214C57.3575 26.0483 58.3015 25.3043 59.2544 24.5691C60.4367 23.6568 61.6366 22.7623 62.8277 21.8765C63.013 21.7348 63.2247 21.6197 63.4365 21.54C64.6893 21.0705 65.8627 20.3797 67.3009 20.0962C67.442 20.3708 67.6008 20.6808 67.7685 21.0174C67.345 21.5754 66.9921 22.1245 66.5598 22.6028C65.651 23.6037 64.7069 24.578 63.7805 25.5611C62.5718 26.8543 61.3631 28.1474 60.1543 29.4495C60.0308 29.5823 59.9338 29.7417 59.872 29.8215C60.1632 31.0792 60.4367 32.2483 60.719 33.4263C60.8072 33.7895 60.869 34.1703 61.0366 34.4981C61.7689 35.9152 61.9542 37.4209 61.8395 38.9887C61.8219 39.2544 61.866 39.529 61.8836 39.8832C63.1188 40.0958 64.3187 40.2287 65.5186 40.3527C66.8156 40.4855 68.1126 40.6095 69.4184 40.7247C70.0713 40.7778 70.7241 40.8575 71.377 40.831C73.0181 40.7778 74.6327 40.9372 76.2561 41.1232C76.9002 41.1941 77.5266 41.3801 78.1618 41.5484C78.7706 41.7078 79.1323 42.0887 79 42.8504C78.9471 42.877 78.8412 43.001 78.7265 43.001C77.6589 43.0364 76.6355 43.4173 75.5503 43.2933C75.1444 43.249 74.7121 43.3198 74.2974 43.3818C73.2034 43.5413 72.1182 43.745 71.0241 43.9044C70.7506 43.9487 70.4683 43.8867 70.186 43.8956C69.6301 43.9221 69.0831 43.9398 68.5625 44.2056C67.795 44.5864 66.9303 44.5421 66.0921 44.551C64.6981 44.5598 63.3041 44.6396 61.9101 44.9407C61.8219 45.171 61.6983 45.3747 61.6631 45.5961C61.3895 47.5713 60.5867 49.3516 59.6779 51.0965C59.2897 51.8405 58.7427 52.4782 58.1427 53.0805C56.9869 54.2319 55.8664 55.4276 54.7283 56.6056C54.6665 56.6676 54.6401 56.7651 54.543 56.9422C54.6401 57.1282 54.7724 57.3585 54.8959 57.5976C55.7517 59.2539 56.6075 60.9102 57.4634 62.5754C58.0457 63.7003 58.5839 64.8517 59.3956 65.8171C60.2779 66.8711 60.7014 68.182 61.3984 69.3423C61.5219 69.546 61.4778 69.8826 61.4248 70.1394C61.3454 70.3166 61.1337 70.414 60.9749 70.5646ZM48.2699 30.5743C48.7552 30.4946 48.9317 30.0872 49.1169 29.724C49.4522 29.0774 49.9286 28.608 50.5904 28.3157C50.7227 28.5992 50.8992 28.8649 50.9697 29.1572C51.0491 29.476 51.0491 29.8126 51.0933 30.282C51.7814 29.7949 52.3637 29.3697 52.9372 28.9712C52.8667 28.7852 52.8578 28.67 52.7961 28.6169C51.8167 27.7666 50.9433 26.7834 49.761 26.19C49.6022 26.1103 49.4963 25.942 49.364 25.818C49.1169 25.7117 48.8522 25.6231 48.614 25.4903C47.4053 24.8348 46.1172 24.4894 44.7673 24.3477C44.4673 24.3123 44.1497 24.392 43.8938 24.4186C43.6909 24.8791 43.7879 25.2334 43.885 25.5966C44.132 26.5709 44.4496 27.5452 44.3085 28.5814C44.2908 28.732 44.4761 28.9092 44.6173 29.166C44.7849 28.5283 44.882 28.0234 45.0496 27.5452C45.1643 27.1997 45.3672 26.8809 45.5525 26.562C45.7466 26.2343 46.0466 26.2254 46.4524 26.3494C46.3818 26.748 46.3113 27.1023 46.276 27.4566C46.2319 27.8463 46.2936 28.2094 46.6818 28.422H46.673C46.6024 28.5106 46.5054 28.5992 46.4612 28.6966C46.3907 28.8472 46.3642 29.0243 46.3201 29.1837C46.3201 29.2457 46.3289 29.3077 46.3289 29.3697C46.3377 29.2989 46.3466 29.2369 46.3554 29.166C46.7259 29.2103 46.7789 28.8649 46.9112 28.6612C47.3259 28.0057 47.7406 27.3326 48.1023 26.6417C48.3846 26.0926 48.7905 25.8003 49.3904 25.818C49.214 26.5089 48.7993 27.1909 49.3022 27.926C49.3551 27.9969 49.2846 28.2094 49.2052 28.3157C48.7905 28.856 48.7023 29.5115 48.517 30.1315C48.464 30.2997 48.3405 30.4415 48.2611 30.6009C48.3052 30.6629 48.3493 30.716 48.3935 30.778C48.3582 30.7869 48.3141 30.7869 48.2788 30.7957C48.2611 30.716 48.2611 30.6452 48.2699 30.5743ZM36.5179 53.7005C36.3502 53.6828 36.1032 53.5942 36.0414 53.665C35.7944 53.9396 35.565 54.2408 35.3974 54.5685C35.1327 55.0822 34.7621 55.4719 34.2504 55.7908C34.1445 55.6136 34.0475 55.4631 33.9328 55.2771C33.774 55.3302 33.6063 55.4099 33.4299 55.4365C33.2711 55.4631 33.0946 55.4453 32.8476 55.4453C32.9711 55.0291 33.1034 54.7279 33.1475 54.4179C33.174 54.2142 33.1652 53.9396 32.7417 53.8865C32.2741 54.7633 31.6212 55.4542 30.386 55.3656C30.5183 55.0733 30.5977 54.8608 30.7036 54.6659C30.8359 54.4179 30.9683 54.1699 31.1359 53.9485C31.4182 53.5765 31.727 53.2222 32.0094 52.859C32.1241 52.7085 32.2035 52.549 31.9653 52.3542C31.8241 52.425 31.6388 52.4782 31.5153 52.5933C31.2241 52.8768 31.03 53.1336 30.483 53.0805C29.936 53.0273 29.0537 53.8422 28.6126 54.4179C29.0184 54.9848 29.5478 55.5251 30.1919 55.6756C31.0389 55.8705 31.5771 56.3488 32.0623 56.9865C32.23 57.2079 32.4241 57.4382 32.6623 57.5622C33.474 58.0139 34.3122 58.4214 35.1415 58.8465C35.3003 58.9262 35.4679 58.9794 35.7326 59.0945C35.7503 58.5631 35.7767 58.1645 35.7591 57.7571C35.7062 56.3399 35.962 54.9848 36.4738 53.6562C36.4738 53.479 36.4738 53.3019 36.4738 53.1248C36.4208 53.1336 36.3767 53.1425 36.3238 53.1513C36.3944 53.3462 36.4561 53.5233 36.5179 53.7005ZM28.0391 29.4229C27.4744 30.2023 26.9892 30.7692 26.6186 31.4158C25.6216 33.1606 24.7482 34.9675 24.1041 36.8806C23.8923 37.5095 23.8394 38.1384 23.9541 38.8558C24.9952 38.6964 25.9304 38.4129 26.7951 37.8992C26.7157 37.7309 26.6892 37.6335 26.6363 37.5715C26.4421 37.3235 26.0981 37.1552 26.2216 36.7478C26.3716 36.2872 26.8039 36.1721 27.1833 36.0215C27.298 35.9772 27.4568 36.0304 27.5979 36.0481C28.242 36.1189 28.8773 36.1809 29.5302 36.2518C29.3449 35.6495 29.1684 35.0383 28.4538 34.7461C28.1714 34.6309 27.9244 34.3563 27.7391 34.0995C27.5715 33.8603 27.5715 33.5592 27.9067 33.3998C29.1508 33.5061 30.1389 34.2058 31.2153 34.9321C31.2859 34.1172 30.9595 33.5769 30.4477 33.1429C29.8831 32.6646 29.4066 32.08 28.692 31.7789C28.3214 31.6195 28.1714 31.274 28.2508 30.8489C28.4538 30.7957 28.6567 30.7337 28.9567 30.654C28.6567 30.2555 28.4096 29.9277 28.0391 29.4229ZM54.3136 38.8381C54.3312 38.9355 54.3489 39.0329 54.3665 39.1304C55.143 39.1747 55.9282 39.2367 56.7046 39.2632C57.5163 39.2898 58.3192 39.5555 59.2456 39.4758C59.1397 39.1127 59.0603 38.8558 58.9985 38.5901C58.8927 38.1384 58.7339 37.6867 58.7162 37.2261C58.6809 36.5352 58.8044 35.8178 58.0369 35.3926C57.9663 35.3572 58.0369 35.1181 57.9839 35.0029C57.7016 34.3386 57.4722 33.6301 56.7487 33.1872C56.2635 33.4706 55.8753 33.8072 55.5312 34.2412C55.9017 34.4715 56.2282 33.7098 56.5281 34.3032C56.4223 35.0649 55.937 35.5255 55.3371 35.9241C54.1636 36.6858 53.0255 37.5007 51.7285 38.0498C51.5256 38.1384 51.305 38.2624 51.5079 38.6521C53.1578 38.3244 54.843 38.0587 56.3958 36.9072C56.3958 37.2172 56.4664 37.4564 56.387 37.5184C56.0429 37.8195 55.6635 38.1029 55.2753 38.3421C54.9753 38.5547 54.6312 38.6787 54.3136 38.8381ZM52.7961 53.9042C54.9489 52.4516 58.0104 47.2347 57.8869 45.1887C56.2458 45.0736 55.5047 45.1887 54.7547 45.6936C55.0988 46.1453 55.4165 46.5704 56.087 46.5439C56.4576 46.5261 56.6428 46.8184 56.6164 47.279C56.0605 47.4119 55.4959 47.5536 54.94 47.6953C54.9665 47.961 54.993 48.1913 55.0106 48.395C54.7195 48.705 54.4459 48.9884 54.093 49.3693C54.4283 49.5022 54.6401 49.5642 54.8253 49.6793C54.9312 49.7413 55.0371 49.883 55.0371 49.9893C55.0371 50.0956 54.9224 50.2285 54.8253 50.3082C54.543 50.5385 54.1989 50.5119 53.8901 50.3967C53.2813 50.1753 52.6902 49.9096 52.0814 49.6882C51.905 49.6262 51.6932 49.6439 51.3844 49.6173C51.8432 50.5296 52.7696 50.7687 53.2196 51.557C52.8667 52.0176 52.5137 52.4693 52.1255 52.9742C52.3285 53.2576 52.5402 53.5499 52.7961 53.9042ZM25.5069 50.007C26.6274 49.1567 27.4215 48.2799 28.5508 47.2701C27.8009 47.4561 27.3597 47.5979 26.9186 47.6599C26.6715 47.6953 26.3451 47.7219 26.2657 47.341C26.4333 46.5704 27.3685 46.9513 27.6509 46.4199C27.6244 46.0567 27.5891 45.729 27.5627 45.4101C26.7951 45.4367 26.8039 45.4013 25.9216 45.1001C25.3216 44.8964 24.7129 44.6307 24.0335 44.8787C24.007 45.0381 23.9453 45.1798 23.9806 45.295C24.4746 46.7919 24.8276 48.333 25.5069 50.007ZM45.526 56.6056C45.1466 56.9511 44.882 57.1991 44.5643 57.4825C44.282 57.1548 44.0261 56.8448 43.7614 56.5259C43.5585 56.8536 43.3732 57.1459 43.1438 57.5179C42.9321 57.1814 42.7909 56.9599 42.5615 56.5879C42.5262 57.6685 42.4733 58.5985 42.6057 59.5108C44.5026 59.6259 45.6584 59.2274 46.5318 58.1734C46.223 57.6951 45.9054 57.1902 45.526 56.6056ZM35.0974 29.476C34.9121 28.236 33.9592 27.7932 33.5004 26.8189C33.8357 26.872 34.0386 26.8454 34.1533 26.934C34.621 27.3149 35.0533 27.74 35.4944 28.1474C35.6532 28.2892 35.7415 28.546 36.1032 28.422C36.1208 28.0766 36.1385 27.7134 36.165 27.3503C36.1914 26.934 36.2091 26.5177 36.2708 26.1014C36.3238 25.7649 36.4296 25.4371 36.5179 25.0917C34.8415 25.0386 33.6063 25.7649 32.4241 26.8366C33.2711 27.678 34.0916 28.484 35.0974 29.476ZM48.3582 57.4294C47.7935 56.7651 47.37 55.9325 46.4877 55.3833C46.3995 56.1716 46.6201 56.7828 46.9112 57.3585C47.0259 57.5888 47.2553 57.8191 47.4847 57.9076C47.8111 58.0139 48.1023 57.8279 48.3582 57.4294ZM37.4443 59.3779C37.3384 58.5365 37.259 57.8545 37.1708 57.1636C37.1619 57.1194 37.1443 57.0662 37.109 57.0396C37.0825 57.0219 37.0296 57.0308 36.8884 57.0219C36.412 57.7748 36.3061 58.5631 36.7296 59.4488C36.9502 59.4311 37.1266 59.4134 37.4443 59.3779ZM37.9207 26.5C38.353 25.6409 38.5118 24.8083 38.2207 24.5514C38.0354 24.5691 37.7795 24.6046 37.4707 24.6311C37.4884 25.3397 37.1972 26.0306 37.9207 26.5ZM53.246 47.093C53.7754 47.713 53.7754 47.713 54.2871 47.3853C53.8989 47.279 53.5725 47.1904 53.246 47.093ZM47.7582 32.6469C47.5729 32.5318 47.4935 32.452 47.4494 32.4609C47.3788 32.4875 47.3082 32.576 47.2994 32.6469C47.2906 32.7089 47.3612 32.7886 47.3876 32.8595C47.5023 32.7975 47.617 32.7266 47.7582 32.6469Z" fill="#231F20"/>
<path fill-rule="evenodd" clip-rule="evenodd" d="M46.6554 28.4221C46.5583 28.1918 46.4701 27.9615 46.373 27.7312C46.5054 27.7843 46.6377 28.2626 46.6466 28.4221C46.6554 28.4221 46.6554 28.4221 46.6554 28.4221Z" fill="white"/>
</svg>
