<svg width="100" height="65" viewBox="0 0 100 65" fill="none" xmlns="http://www.w3.org/2000/svg">
<path fill-rule="evenodd" clip-rule="evenodd" d="M23.4262 33.665C22.3181 33.7329 21.2101 33.812 20.102 33.8686C19.1749 33.9138 18.2364 33.9138 17.3093 33.9364C16.5405 33.959 15.7603 34.0042 14.9914 34.0268C13.9399 34.0608 12.8884 34.0834 11.8369 34.1286C11.1246 34.1625 10.4236 34.2643 9.71125 34.2982C9.29291 34.3208 8.87456 34.2643 8.30923 34.2417C8.64843 33.9251 8.91979 33.8007 9.21376 33.7555C10.1635 33.6198 11.1133 33.4502 12.063 33.3937C14.2565 33.2693 16.4613 33.2241 18.6548 33.1223C20.2603 33.0432 21.8659 32.9414 23.4714 32.8397C24.5229 32.7718 25.5744 32.6927 26.626 32.6135C26.7616 32.6022 26.9086 32.5796 27.0443 32.5231C26.185 32.3648 25.3144 32.4326 24.4438 32.4213C23.0191 32.3987 21.5945 32.3648 20.1699 32.3535C19.0505 32.3422 17.9425 32.3422 16.8231 32.3648C14.6183 32.3874 12.4248 32.5118 10.2314 32.6474C8.32054 32.7605 6.39841 32.7831 4.47629 32.7944C3.26648 32.8057 2.05667 32.704 0.858166 32.6587C0.586807 32.6474 0.394594 32.557 0.202382 32.3761C0.0553957 32.2404 -0.0463639 32.1047 0.0214758 31.9012C0.100622 31.6864 0.247608 31.5281 0.485047 31.4942C0.5755 31.4829 0.67726 31.4829 0.756406 31.5168C1.57048 31.7655 2.41848 31.6751 3.25517 31.709C4.36322 31.7655 5.48257 31.8334 6.59062 31.7768C8.75019 31.6638 10.9211 31.709 13.0806 31.5168C14.8445 31.3585 16.597 31.4376 18.3608 31.3811C19.695 31.3359 21.0292 31.3811 22.3521 31.4942C22.8722 31.5394 23.4036 31.4829 23.935 31.4602C24.6134 31.4376 25.2918 31.4037 25.9702 31.415C27.4853 31.4263 29.0003 31.4716 30.5267 31.4942C30.5833 31.4942 30.6511 31.4942 30.7076 31.5055C31.126 31.5507 31.3295 31.9012 31.1712 32.3195C31.1147 32.4552 31.0355 32.5796 30.9225 32.7718C31.2164 32.7718 31.42 32.7718 31.6348 32.7718C31.9514 32.7718 32.1549 32.9414 32.268 33.2241C32.3471 33.4163 32.2453 33.6198 32.0418 33.6424C30.3798 33.8573 28.729 34.0721 27.0669 34.2982C24.9187 34.5809 22.7704 34.8862 20.6221 35.1801C19.9211 35.2706 19.2088 35.3497 18.5078 35.4289C16.8797 35.5985 15.2402 35.7794 13.612 35.9151C11.6108 36.096 9.59818 36.1977 7.58561 36.1638C7.18987 36.1638 6.80545 36.0394 6.3871 35.9716C6.44364 35.8811 6.46625 35.8133 6.50017 35.8133C7.73259 35.655 8.95371 35.4854 10.1974 35.4289C11.4299 35.3723 12.6736 35.248 13.906 35.1349C15.2289 34.9992 16.5518 34.8409 17.8746 34.6939C19.7289 34.4452 21.5945 34.1965 23.4262 33.665ZM23.788 33.6537C24.0707 33.6877 24.1498 33.699 24.2176 33.699C24.2516 33.699 24.2742 33.6424 24.2968 33.6198C24.2742 33.6085 24.2403 33.5859 24.2176 33.5859C24.1498 33.5972 24.082 33.6085 23.788 33.6537Z" fill="#231F20"/>
<path fill-rule="evenodd" clip-rule="evenodd" d="M73.6497 30.1035C73.7966 30.0583 73.9436 29.9905 74.0906 29.9905C77.0643 29.9566 80.0266 29.6513 83.0002 29.4365C84.4814 29.3234 85.9626 29.1764 87.4437 29.0294C87.8734 28.9842 88.2917 28.9616 88.6875 28.9955C88.7779 29.2216 88.6648 29.2669 88.5518 29.3121C87.8734 29.6513 87.1271 29.7304 86.3922 29.8096C84.945 29.9679 83.4864 30.0583 82.0392 30.1827C81.3947 30.2392 80.7389 30.3071 80.0944 30.3636C78.3645 30.488 76.6346 30.6123 74.9047 30.7367C74.7238 30.748 74.5429 30.7819 74.3733 30.9063C75.0178 30.9289 75.6509 30.9742 76.2954 30.9742C77.8783 30.9629 79.4613 30.9402 81.0442 30.9176C81.4738 30.9063 81.9148 30.8611 82.3444 30.8385C82.5932 30.8272 82.8419 30.7819 83.0794 30.7933C84.8432 30.8837 86.607 30.7367 88.3709 30.6576C90.3495 30.5671 92.3395 30.5445 94.3182 30.5558C95.528 30.5558 96.7378 30.6576 97.9476 30.7028C98.4451 30.7141 98.9426 30.6802 99.4288 30.6915C99.7906 30.6915 100.051 31.042 99.9941 31.3925C99.9489 31.6412 99.734 31.8561 99.4853 31.8561C99.18 31.8561 98.8634 31.8335 98.5581 31.8222C97.5971 31.7656 96.636 31.6978 95.675 31.6526C94.68 31.6073 93.6963 31.5734 92.7013 31.5508C92.2717 31.5395 91.842 31.6073 91.4011 31.6299C91.0619 31.6526 90.7227 31.6865 90.3835 31.6639C88.7666 31.596 87.1611 31.7769 85.5555 31.8222C84.7867 31.8448 84.0065 31.8448 83.2377 31.8561C82.955 31.8561 82.6723 31.8335 82.401 31.8674C81.0103 32.0257 79.6309 32.037 78.2288 31.9578C77.5504 31.9239 76.872 32.0257 76.1936 32.0031C74.0793 31.9126 71.9876 32.184 69.8845 32.2631C69.7602 32.2631 69.6358 32.2857 69.5114 32.2857C69.3079 32.2857 69.0931 32.184 69.0931 31.9918C69.0931 31.4377 68.7426 31.0194 68.6182 30.5219C68.5843 30.4088 68.573 30.2845 68.5391 30.1149C68.6974 30.0357 68.8556 29.9226 69.0139 29.8887C70.0428 29.6852 71.0831 29.4817 72.1233 29.3234C73.627 29.1086 75.1308 28.905 76.6459 28.7354C78.2515 28.5545 79.857 28.4189 81.4625 28.2719C82.9098 28.1362 84.3683 28.0118 85.8156 27.8875C85.9965 27.8761 86.2 27.8535 86.2791 28.1475C86.1209 28.2153 85.9739 28.3284 85.8043 28.351C84.5492 28.5545 83.2942 28.7694 82.0392 28.9277C80.8972 29.0746 79.7552 29.1425 78.6133 29.2782C77.0756 29.4591 75.5379 29.6739 74.0002 29.8661C73.8193 29.8887 73.7288 29.9792 73.6723 30.1375C73.2539 30.0357 73.2539 30.0357 72.8808 30.2053C73.1295 30.1488 73.3896 30.1262 73.6497 30.1035ZM71.1848 30.9968C71.1848 31.0194 71.1848 31.0533 71.1848 31.0759C71.3092 31.0872 71.4336 31.0872 71.5579 31.0985C71.5579 31.0646 71.5579 31.0307 71.5579 30.9968C71.4336 30.9968 71.3092 30.9968 71.1848 30.9968Z" fill="#231F20"/>
<path fill-rule="evenodd" clip-rule="evenodd" d="M34.7333 43.2305C34.8803 43.3322 35.0951 43.3888 35.1742 43.5244C35.3552 43.841 35.5134 44.135 35.8526 44.3498C36.124 44.5307 35.977 44.8586 35.9205 45.1413C36.0901 45.1978 36.2823 45.2204 36.4067 45.3335C36.531 45.4466 36.5876 45.6501 36.6893 45.8197C36.825 45.8423 36.9946 45.8197 37.119 45.8875C37.4356 46.0684 37.7069 46.2041 38.1253 46.1476C38.521 46.091 38.7132 46.5094 38.4984 46.8599C37.9218 47.7757 37.4808 48.7707 37.0059 49.7431C36.5763 50.6363 36.0562 51.4843 35.5587 52.3436C35.2986 52.7959 35.1856 52.8524 34.6655 53.0446C34.6541 52.9881 34.6089 52.9202 34.6202 52.875C34.7898 52.4454 34.9481 52.0044 35.1403 51.5861C35.6604 50.4893 36.1918 49.4152 36.712 48.3184C36.7911 48.1602 36.8137 47.9906 36.7685 47.7757C36.6441 47.934 36.5084 48.0923 36.3841 48.2619C35.7396 49.1664 35.1064 50.0936 34.4393 50.9868C34.1453 51.3825 33.7835 51.7331 33.4443 52.0949C33.3426 52.2079 33.2069 52.2871 33.0712 52.3549C33.0034 52.4001 32.9016 52.4001 32.7433 52.4341C32.7886 52.2192 32.7772 52.027 32.8564 51.88C33.0373 51.5521 33.2634 51.2582 33.4669 50.9529C34.2358 49.7883 35.0046 48.6237 35.7735 47.4591C35.8187 47.38 35.8413 47.2895 35.8753 47.2104C35.7283 47.0634 35.6378 47.1991 35.5587 47.2782C34.6655 48.0923 33.7835 48.9064 32.9016 49.7431C32.6981 49.9353 32.5059 50.1501 32.3815 50.3876C32.0423 50.9868 31.5448 51.4617 31.1152 51.9818C30.9569 52.174 30.7647 52.2418 30.5385 52.1853C30.3689 52.1401 30.1541 52.0722 30.075 51.9479C29.9393 51.733 29.9732 51.4052 30.1654 51.2695C30.8551 50.7946 31.1717 50.0371 31.6918 49.4265C32.2458 48.7707 32.8451 48.1489 33.5574 47.6287C34.1567 47.1991 34.6654 46.6451 35.1969 46.1137C35.3325 45.978 35.3891 45.7632 35.5361 45.4805C35.3438 45.5483 35.2534 45.5596 35.1969 45.6049C34.2923 46.3624 33.4104 47.1313 32.4946 47.8888C31.9745 48.3184 31.4091 48.7142 30.889 49.1551C30.482 49.4943 30.0297 49.63 29.4418 49.483C29.5662 49.3587 29.6566 49.2456 29.7584 49.1551C30.5272 48.4767 31.3187 47.821 32.0649 47.1313C32.6981 46.5433 33.2634 45.8875 33.9871 45.4013C34.281 45.1978 34.5185 44.8925 34.7785 44.6325C34.575 44.4629 34.4506 44.5873 34.3376 44.6777C33.5122 45.3222 32.6868 45.9893 31.8501 46.6225C31.2282 47.086 30.6064 47.5496 29.9506 47.9679C29.1478 48.4767 28.3111 48.9177 27.2822 48.9516C27.384 48.6011 27.7345 48.6237 27.9154 48.4428C28.1076 48.2506 28.3677 48.1149 28.5938 47.9566C28.8538 47.7757 29.1026 47.6061 29.3626 47.4252C29.5888 47.2669 29.8149 47.0973 30.0297 46.9277C30.2559 46.7581 30.482 46.5998 30.6968 46.4302C30.923 46.2606 31.1378 46.091 31.3526 45.9101C31.5674 45.7405 31.7936 45.5709 32.0197 45.4013C32.2345 45.2317 32.4494 45.0508 32.6755 44.8699C32.9129 44.6777 33.1617 44.4855 33.3991 44.282C33.6139 44.1124 33.8401 43.9428 34.0549 43.7619C34.2697 43.6036 34.4845 43.434 34.7333 43.2305Z" fill="#231F20"/>
<path fill-rule="evenodd" clip-rule="evenodd" d="M79.2016 39.8612C77.6865 39.8838 76.1827 39.7481 74.6789 39.7255C73.1639 39.7142 71.6601 39.4428 70.1224 39.6124C70.5294 39.6916 70.9364 39.782 71.3435 39.8499C72.9264 40.1099 74.5206 40.37 76.1036 40.6413C76.3749 40.6865 76.6576 40.7431 76.9176 40.8448C78.3423 41.4102 79.8687 41.5345 81.3385 41.885C81.9039 42.0207 82.4805 42.1677 83.0458 42.3034C83.2494 42.3486 83.3963 42.4391 83.419 42.6539C83.4529 42.9366 83.2267 43.2532 82.9893 43.2984C82.9328 43.3097 82.8649 43.321 82.8084 43.3097C82.1865 43.1401 81.5421 43.1627 80.9202 42.8913C80.2531 42.5974 79.4843 42.5295 78.7719 42.3373C78.2066 42.1903 77.63 42.066 77.0872 41.8511C76.3523 41.5685 75.5609 41.5911 74.8146 41.4441C74.2719 41.3423 73.7066 41.2971 73.1752 41.1614C72.0332 40.8788 70.8686 40.7092 69.6927 40.6187C68.9917 40.5622 68.2907 40.336 67.5784 40.4265C67.3523 40.4491 67.1148 40.3473 67.047 40.1325C66.9113 39.7029 66.5495 39.3524 66.5947 38.7983C66.7417 38.7531 66.9113 38.6627 67.0809 38.6514C68.7203 38.6061 70.3598 38.6627 71.9993 38.7757C74.2606 38.934 76.4993 39.1828 78.738 39.488C78.9415 39.488 79.179 39.4767 79.2016 39.8612Z" fill="#231F20"/>
<path fill-rule="evenodd" clip-rule="evenodd" d="M68.1098 25.8071C68.0419 25.7392 67.9628 25.6827 67.9289 25.6036C67.7593 25.287 67.7932 25.0382 68.0645 24.8799C68.4377 24.6651 68.8221 24.4503 69.2404 24.3259C71.2869 23.6814 73.1977 22.7317 75.1538 21.8724C75.4365 21.748 75.7191 21.6123 76.0018 21.4993C77.3473 20.9565 78.6928 20.3912 80.0609 19.8937C80.7958 19.6224 81.4855 19.2945 82.1639 18.91C82.5709 18.6839 82.8875 18.7404 83.0458 19.0231C83.2267 19.351 83.0797 19.7015 82.6275 19.8824C81.429 20.3799 80.2079 20.8435 79.0094 21.3523C77.042 22.1777 75.086 23.037 73.1073 23.851C71.9992 24.3146 70.8573 24.733 69.7379 25.1852C69.3196 25.3548 68.8447 25.434 68.449 25.8749C68.6412 25.8523 68.7655 25.8523 68.8673 25.8184C70.2241 25.3887 71.5922 24.9704 72.949 24.5294C74.7128 23.9528 76.5219 23.5231 78.3423 23.1274C78.6702 23.0596 78.738 23.0596 79.3033 23.1953C78.8737 23.5345 78.4101 23.6362 77.9578 23.7832C76.2731 24.3146 74.5885 24.8347 72.9038 25.3661C71.7279 25.7392 70.552 26.1463 69.3761 26.542C69.1387 26.6212 68.9012 26.689 68.6638 26.7455C68.2341 26.8586 68.1324 26.8134 67.9402 26.5533C67.714 26.2367 67.9402 26.0332 68.1098 25.8071Z" fill="#231F20"/>
<path fill-rule="evenodd" clip-rule="evenodd" d="M29.8367 24.3032C29.8028 24.2241 29.7915 24.0997 29.735 24.0771C29.4523 23.9414 29.1697 23.8057 28.8757 23.7379C27.9372 23.5005 27.0666 23.0934 26.1847 22.7316C25.8681 22.5959 25.5515 22.4603 25.2349 22.3698C23.7538 21.9854 22.3857 21.3409 21.0063 20.6964C20.5879 20.5042 20.147 20.3459 19.7173 20.165C19.559 20.0972 19.4007 19.9841 19.2764 19.8597C19.1294 19.7128 19.1407 19.3962 19.2651 19.2605C19.412 19.1248 19.5816 19.0909 19.7738 19.1813C20.3618 19.4527 20.961 19.7014 21.5603 19.9728C22.1482 20.2442 22.7362 20.5268 23.3241 20.7982C23.6068 20.9226 23.9008 21.0356 24.1834 21.1374C24.9975 21.4314 25.8229 21.7027 26.637 21.9967C27.745 22.3924 28.8531 22.7882 29.9611 23.1839C30.6282 23.4213 31.3066 23.6588 31.9624 23.9188C32.3694 24.0771 32.426 24.2467 32.3016 24.699C32.2337 24.9364 32.2451 25.1852 32.1998 25.4226C32.1659 25.5583 32.0868 25.6826 32.0189 25.8409C30.99 25.5696 29.995 25.3435 29.034 25.0495C26.9649 24.4276 24.8957 23.7718 22.8379 23.1047C22.103 22.8673 21.3794 22.5846 20.6558 22.3246C20.3844 22.2228 20.147 22.0985 20.0678 21.7932C20.4975 21.7253 20.8706 21.7479 21.4698 21.9175C22.8153 22.2907 24.1495 22.6525 25.495 23.0369C26.9536 23.4552 28.4008 23.8962 29.8594 24.3259C29.882 24.3145 29.9046 24.2919 29.9272 24.2919C29.9498 24.2919 29.9724 24.3032 29.995 24.3145C29.9385 24.3032 29.8933 24.3032 29.8367 24.3032Z" fill="#231F20"/>
<path fill-rule="evenodd" clip-rule="evenodd" d="M42.8625 58.4264C42.7834 57.6915 43.0774 57.0018 43.1452 56.2781C43.213 55.5658 43.3261 54.8648 43.3713 54.1525C43.4166 53.4289 43.6766 52.7166 43.4957 51.846C43.3261 52.4 43.1904 52.8409 43.0548 53.2706C42.7495 54.3447 42.3877 55.3962 41.8902 56.4025C41.8223 56.5495 41.7545 56.6852 41.5171 56.6626C41.4492 56.2103 41.5284 55.7693 41.6527 55.3284C41.958 54.1977 42.2407 53.0558 42.5233 51.9138C42.5686 51.7103 42.5799 51.4954 42.6364 51.0658C42.2181 51.7103 42.0145 52.2191 41.8449 52.7392C41.4153 54.0281 40.9969 55.3171 40.5447 56.606C40.4203 56.9565 40.2733 57.2957 40.0924 57.6123C39.9567 57.8611 39.6175 57.8045 39.4932 57.5558C39.3688 57.2844 39.4027 57.0131 39.4932 56.7417C39.7306 55.9729 39.9907 55.2153 40.2281 54.4465C40.3072 54.209 40.3864 53.9829 40.4429 53.7342C40.7482 52.2982 41.3927 50.9866 41.9467 49.6525C41.9919 49.5394 42.0598 49.4263 42.1615 49.3585C42.252 49.2907 42.4442 49.2115 42.4894 49.2567C42.8399 49.562 43.1678 49.3924 43.507 49.2454C43.6766 49.1776 43.9028 49.3359 43.8914 49.5394C43.8914 49.7203 43.8349 49.9012 43.801 50.116C44.0045 50.0595 44.1967 49.9804 44.3889 49.9691C44.6603 49.9464 44.8638 50.1839 44.8186 50.4439C44.502 52.4339 44.208 54.4239 43.8575 56.4025C43.7558 57.0018 43.5183 57.5897 43.3261 58.1777C43.2809 58.3133 43.1678 58.4942 42.8625 58.4264Z" fill="#231F20"/>
<path fill-rule="evenodd" clip-rule="evenodd" d="M4.74805 29.7641C5.06463 29.6171 5.39252 29.6171 5.72042 29.6284C7.9139 29.6849 10.1187 29.7528 12.3122 29.8206C12.4931 29.8206 12.6966 29.798 12.8662 29.8658C13.4428 30.0694 13.9969 30.1033 14.5848 29.8885C14.8562 29.7867 15.1954 29.8319 15.512 29.8545C19.4467 30.1598 23.3814 30.0354 27.3161 30.0467C28.4015 30.0581 29.4869 30.0694 30.5611 30.1146C30.8324 30.1259 31.1038 30.2163 31.3525 30.3181C31.5447 30.3973 31.6239 30.6686 31.5334 30.8834C31.4882 30.9852 31.3751 31.0643 31.2847 31.1322C31.2395 31.1661 31.1603 31.1661 31.1038 31.1435C29.7244 30.8156 28.3224 30.9739 26.9316 30.9287C24.4555 30.8608 21.9793 30.8269 19.5032 30.7591C19.0057 30.7478 18.5195 30.6799 18.022 30.6347C17.5924 30.6008 17.174 30.4877 16.767 30.7817C16.6426 30.8721 16.4052 30.8382 16.2243 30.8608C14.8222 30.9965 13.4428 30.8947 12.0521 30.7251C10.831 30.5782 9.58728 30.499 8.35486 30.4651C7.12244 30.4312 5.91263 30.2842 4.74805 29.7641Z" fill="#231F20"/>
<path fill-rule="evenodd" clip-rule="evenodd" d="M51.3757 59.7946C51.3079 59.6024 51.2061 59.4102 51.1835 59.2067C51.0591 58.0082 50.9574 56.7984 50.833 55.5999C50.7765 54.9893 50.686 54.3674 50.5277 53.7569C50.4938 53.9265 50.4486 54.1074 50.426 54.277C50.2224 56.1313 50.2564 57.9969 50.3355 59.8511C50.3694 60.5861 50.4033 61.3323 50.4373 62.0672C50.4486 62.3725 50.5503 62.6778 50.5956 62.9831C50.686 63.5597 50.5842 63.7293 49.9737 64.0459C49.6232 63.9215 49.431 63.6954 49.4197 63.2884C49.3971 62.2029 49.3405 61.1288 49.284 60.0434C49.2501 59.4215 49.1935 58.8109 49.1822 58.1891C49.1709 57.081 49.1483 55.9617 49.2953 54.8536C49.4197 53.9378 49.4084 52.9993 49.4649 52.0722C49.4875 51.6651 49.5553 51.2694 49.8267 50.8624C50.1546 50.7493 50.5277 50.6249 50.9574 50.4893C51.0591 50.7041 51.1722 50.8511 51.1948 51.0094C51.2853 51.6538 51.3192 52.2983 51.4096 52.9428C51.6471 54.6388 51.7036 56.3348 51.681 58.0421C51.6697 58.63 51.5905 59.2067 51.5453 59.7946C51.5001 59.7946 51.4436 59.7946 51.3757 59.7946Z" fill="#231F20"/>
<path fill-rule="evenodd" clip-rule="evenodd" d="M38.5322 6.89096C38.6339 6.73267 38.6679 6.64221 38.7244 6.58568C39.0184 6.30302 39.301 6.31432 39.4932 6.6196C39.6063 6.80051 39.6968 7.00403 39.7759 7.20755C40.2847 8.47389 40.8613 9.70631 41.5058 10.9048C42.0033 11.832 42.4443 12.7817 42.9078 13.7202C42.9644 13.8332 43.0096 13.9463 43.0435 14.0707C43.1001 14.2968 42.9644 14.5342 42.7382 14.5568C42.5008 14.5795 42.2521 14.5568 41.992 14.5568C41.7206 14.7943 41.5058 15.0656 41.3701 15.4275C41.2684 15.6988 40.9744 15.7214 40.7596 15.5292C40.6465 15.4275 40.5335 15.3144 40.4317 15.2013C39.6855 14.2516 38.9392 13.3018 38.2156 12.3294C37.7973 11.7867 37.5372 11.1649 37.3789 10.5204C37.6163 10.2829 37.7407 10.4412 37.8538 10.5882C38.5096 11.4136 39.1654 12.2277 39.8211 13.0531C39.9342 13.2001 40.0699 13.3244 40.2847 13.4036C40.2056 13.2227 40.1264 13.0531 40.0247 12.8722C39.9342 12.7139 39.8324 12.5556 39.7307 12.3973C39.4932 12.0355 39.2219 11.6963 39.0184 11.3118C38.7131 10.7465 38.4417 10.1586 38.1704 9.58194C38.1478 9.54802 38.2043 9.46887 38.2382 9.38972C38.9505 9.78546 39.301 10.5091 39.7759 11.097C40.2621 11.685 40.7031 12.3068 41.1327 12.9513C41.3249 12.7591 41.1892 12.6573 41.144 12.5556C40.6917 11.6397 40.2395 10.7239 39.7759 9.80807C39.6741 9.61586 39.5385 9.43495 39.4819 9.23143C39.301 8.40605 38.9505 7.6485 38.5322 6.89096Z" fill="#231F20"/>
<path fill-rule="evenodd" clip-rule="evenodd" d="M31.0465 29.685C30.4811 29.6059 29.995 29.5041 29.5088 29.4815C26.8517 29.3232 24.1947 29.0745 21.5263 29.0745C20.2826 29.0745 19.0502 29.1197 17.8064 29.0971C16.8114 29.0744 15.8278 29.0292 14.8441 28.9162C14.0526 28.8257 13.2612 28.6561 12.481 28.4865C12.2436 28.4413 11.9948 28.3395 11.8026 28.2038C11.6782 28.1134 11.6443 27.9099 11.5312 27.6837C11.7461 27.6837 11.8591 27.6724 11.9722 27.6837C12.2775 27.7177 12.5828 27.7968 12.888 27.7742C13.883 27.7063 14.8667 27.8646 15.8504 27.9664C15.9069 27.9777 15.9748 28.0003 16.0313 28.0003C17.6707 27.7855 19.2989 28.2265 20.9384 28.1473C21.7637 28.1021 22.6004 28.2717 23.4371 28.3169C25.2914 28.4074 27.1457 28.4752 29.0113 28.5657C29.5314 28.5883 30.0628 28.6561 30.5829 28.7013C30.809 28.7126 31.0126 28.7579 31.1369 28.9727C31.2387 29.131 31.2274 29.2101 31.0465 29.685Z" fill="#231F20"/>
<path fill-rule="evenodd" clip-rule="evenodd" d="M19.5025 25.9879C19.3442 25.7505 19.2877 25.6826 19.2424 25.6148C19.2877 25.5922 19.3442 25.5356 19.3781 25.5356C21.0063 25.7391 22.5779 26.2027 24.1834 26.5193C25.6081 26.802 27.0101 27.1638 28.4686 27.2316C29.4862 27.2768 30.4925 27.4464 31.5101 27.5595C31.6232 27.5708 31.7476 27.6274 31.8493 27.6952C32.0302 27.8083 32.0755 28.0683 31.985 28.2831C31.9172 28.4527 31.7702 28.498 31.6119 28.4867C31.3971 28.4753 31.1822 28.4414 30.9674 28.4188C30.6282 28.3849 30.289 28.3171 29.9498 28.3397C28.2877 28.4188 26.7048 28.0344 25.1106 27.6387C24.3304 27.4464 23.5277 27.3673 22.7362 27.2429C20.9045 26.949 19.0502 26.8472 17.2072 26.6098C16.4384 26.508 15.6809 26.3949 14.912 26.2593C14.7763 26.2366 14.618 26.1349 14.5276 26.0331C14.4032 25.8974 14.3128 25.7052 14.4597 25.5356C14.5502 25.4339 14.7085 25.3208 14.8329 25.3208C15.206 25.3434 15.5678 25.3886 15.9296 25.4791C17.049 25.7278 18.1909 25.7391 19.5025 25.9879Z" fill="#231F20"/>
<path fill-rule="evenodd" clip-rule="evenodd" d="M68.2793 32.6247C69.0029 32.6247 69.6474 32.6133 70.2919 32.6247C71.6261 32.6473 72.9602 32.6812 74.2944 32.7038C74.8258 32.7151 75.3459 32.6812 75.8773 32.6925C77.4829 32.7264 79.0997 32.7829 80.7053 32.8282C82.503 32.8847 84.3008 32.9299 86.0985 32.9865C86.4038 32.9978 86.7204 33.043 87.0257 33.0656C87.2066 33.0769 87.4101 33.1335 87.5797 33.0882C88.2694 32.896 88.9365 33.1787 89.6149 33.1674C89.694 33.1674 89.7732 33.3031 89.9089 33.4387C89.6714 33.5066 89.5244 33.5744 89.3888 33.5744C88.145 33.6083 86.9126 33.6536 85.6689 33.6423C82.944 33.6083 80.2078 33.5405 77.4829 33.484C76.0017 33.45 74.5092 33.4161 73.0281 33.4048C72.2253 33.3935 71.4112 33.45 70.6085 33.4613C70.111 33.4727 69.6135 33.4727 69.1273 33.4613C69.0029 33.4613 68.8785 33.4274 68.7655 33.4048C68.3924 33.3257 68.3924 33.3257 68.2793 32.6247Z" fill="#231F20"/>
<path fill-rule="evenodd" clip-rule="evenodd" d="M70.5183 42.2125C70.4731 42.3482 70.5296 42.45 70.6653 42.5065C71.6942 42.9475 72.7118 43.3771 73.7407 43.8181C74.0686 43.965 74.4191 44.1007 74.7356 44.5304C74.4304 44.4965 74.2495 44.5191 74.1025 44.4625C71.8977 43.6372 69.6251 43.0153 67.3411 42.4274C66.9228 42.3256 66.4818 42.303 66.0635 42.2464L66.0974 42.2804C66.0861 42.156 66.0296 42.0316 66.0522 41.9186C66.0974 41.6811 66.2331 41.4663 66.2444 41.2288C66.2557 40.9914 66.0748 40.7653 66.267 40.46C66.3687 40.46 66.527 40.4261 66.6627 40.4487C68.7092 40.9123 70.7444 41.4098 72.7457 42.0655C73.6276 42.3595 74.4982 42.6535 75.3688 42.9588C75.7645 43.0944 76.1829 43.1962 76.4769 43.4902C76.4203 43.7163 76.2847 43.6937 76.1716 43.6711C75.1766 43.4449 74.1816 43.2414 73.1979 42.9814C72.2821 42.7552 71.4002 42.4613 70.5183 42.2125C70.3826 42.2012 70.2469 42.2012 70.1225 42.2012V42.2125C70.2582 42.2125 70.3826 42.2125 70.5183 42.2125ZM69.2632 41.9864L69.2519 42.0316L69.3198 42.0203L69.2632 41.9864Z" fill="#231F20"/>
<path fill-rule="evenodd" clip-rule="evenodd" d="M49.2623 5.12707C49.2849 4.04163 49.2962 2.9562 49.3527 1.88207C49.3753 1.39588 49.4771 0.898393 49.5676 0.412208C49.6128 0.174769 49.7711 0.0390899 50.0198 0.00517003C50.2573 -0.0287498 50.4721 0.10693 50.4947 0.333062C50.5173 0.513968 50.506 0.706181 50.4947 0.887087C50.4382 2.20996 50.3477 3.54414 50.3364 4.86702C50.3138 6.11075 50.4269 7.34317 50.4156 8.57559C50.4156 9.57057 50.4947 10.5542 50.6078 11.5379C50.6417 11.8093 50.6191 12.0919 50.5625 12.3633C50.506 12.6347 50.4156 12.906 50.0537 12.9399C49.7937 12.9626 49.6128 12.8269 49.4884 12.4425C49.4206 12.205 49.3753 11.9563 49.3527 11.7188C49.2736 10.4864 49.2171 9.24268 49.1605 8.01026C49.1492 7.85197 49.1379 7.70498 49.1492 7.54669C49.1831 6.74392 49.2284 5.94115 49.2623 5.13838C49.2736 5.12707 49.2623 5.12707 49.2623 5.12707Z" fill="#231F20"/>
<path fill-rule="evenodd" clip-rule="evenodd" d="M17.8176 42.9251C18.3942 42.7781 18.9595 42.6312 19.5249 42.4842C19.7962 42.405 20.0563 42.3146 20.3163 42.2241C20.9608 41.998 21.5827 41.7492 22.2385 41.5457C23.5953 41.1161 24.9181 40.6073 26.2297 40.0419C26.8516 39.7706 27.5074 39.5671 28.1292 39.307C29.3051 38.8321 30.4697 38.3459 31.6456 37.8711C31.7247 37.8371 31.8265 37.8258 31.9282 37.8032C32.2674 38.018 32.3466 38.3007 32.177 38.6625C30.4584 39.3183 28.7624 39.9628 27.0664 40.6299C26.0601 41.0256 25.0764 41.4666 24.0701 41.8736C23.844 41.9641 23.6066 42.0432 23.3691 42.1224C22.5437 42.3711 21.7184 42.5972 20.9156 42.959C20.1015 43.3209 19.2309 43.5357 18.3716 43.807C17.9646 43.9314 17.7158 43.7392 17.7158 43.3095C17.7271 43.1739 17.7837 43.0608 17.8176 42.9251Z" fill="#231F20"/>
<path fill-rule="evenodd" clip-rule="evenodd" d="M33.9749 21.6574C32.1772 20.5154 30.3794 19.3847 28.593 18.2088C28.005 17.8244 27.4623 17.3608 26.9083 16.9199C26.8291 16.8634 26.8178 16.7164 26.75 16.5355C27.0892 16.5242 27.2701 16.7164 27.4849 16.7842C27.7224 16.8634 27.9259 16.999 28.152 17.1008C28.3442 17.1912 28.5478 17.2817 28.74 17.3722C28.9548 17.4852 29.1583 17.6322 29.3844 17.7453C29.588 17.847 29.7802 18.0166 30.142 18.0166C29.4297 17.3835 28.7174 16.8747 28.2538 16.1171C28.4912 15.9475 28.6721 16.038 28.8643 16.1623C29.7915 16.7729 30.7186 17.3948 31.6571 17.9827C32.392 18.435 33.1495 18.8646 33.9184 19.2604C34.348 19.4865 34.8229 19.6335 35.2752 19.8144C35.196 20.4702 35.0378 20.6058 34.5176 20.4928C34.2802 20.4476 34.0541 20.3684 33.7714 20.391C34.0089 20.5719 34.2576 20.7528 34.495 20.9337C34.5176 21.5556 34.5176 21.5556 33.9975 21.6461L33.9749 21.6574ZM33.0252 20.0405C33.0817 20.0518 33.1382 20.0631 33.1948 20.0518C33.2287 20.0518 33.2513 20.0066 33.2739 19.9953C33.24 19.9953 33.2061 19.9953 33.1835 19.9953C33.1269 20.0066 33.0591 20.0292 33.0026 20.0405C32.9913 20.0179 32.9686 20.0066 32.9573 19.984C32.9913 19.984 33.0252 19.984 33.0591 19.984C33.0365 20.0066 33.0252 20.0179 33.0252 20.0405Z" fill="#231F20"/>
<path fill-rule="evenodd" clip-rule="evenodd" d="M14.0986 39.1825C14.5396 39.0694 14.9805 38.9338 15.4328 38.832C17.1288 38.4589 18.8135 38.0632 20.5095 37.724C22.5786 37.3056 24.6477 36.9438 26.7168 36.5255C28.2658 36.2089 29.8035 35.8584 31.3525 35.5192C31.5674 35.4739 31.7822 35.4287 31.9857 35.4287C32.2005 35.4287 32.3136 35.5757 32.3701 35.7679C32.4154 35.9601 32.3362 36.1297 32.1101 36.1863C31.3865 36.3672 30.6628 36.5368 29.9392 36.7064C26.7055 37.4413 23.4379 37.9727 20.1703 38.5606C19.4354 38.6963 18.7117 38.8546 17.9768 38.9564C17.2758 39.0581 16.5635 39.1599 15.8512 39.1825C15.2858 39.1938 14.6979 39.1712 14.0986 39.1825Z" fill="#231F20"/>
<path fill-rule="evenodd" clip-rule="evenodd" d="M31.4538 35.1688C29.7804 35.214 28.2201 35.5871 26.6372 35.8811C24.602 36.2655 22.5442 36.5595 20.4977 36.8987C19.3105 37.1022 18.1233 37.317 16.9248 37.5205C16.5856 37.5771 16.2577 37.6562 15.9185 37.6788C15.4549 37.7128 14.9914 37.6901 14.5391 37.8145C14.3243 37.871 14.0755 37.7806 13.7363 37.7467C16.2125 37.0004 18.6208 36.4916 21.0404 36.0168C23.2 35.5984 25.3595 35.214 27.5078 34.807C28.141 34.6826 28.7741 34.4904 29.4073 34.3773C29.8596 34.2982 30.3231 34.2529 30.7867 34.2529C31.3973 34.2642 31.4651 34.366 31.4538 35.1688Z" fill="#231F20"/>
<path fill-rule="evenodd" clip-rule="evenodd" d="M64.1865 44.8697C64.4126 45.1185 64.6388 45.3785 64.8649 45.6273C65.2719 46.0908 65.679 46.5544 66.086 47.0293C67.0923 48.2165 68.189 49.3019 69.3423 50.3421C69.5006 50.4891 69.6815 50.6248 69.8059 50.7944C69.9076 50.9414 70.0094 51.1336 69.9981 51.3032C69.9981 51.4615 69.8963 51.665 69.772 51.7668C69.6137 51.9024 69.4215 51.8233 69.2745 51.6763C68.6978 51.111 68.1212 50.5457 67.5559 49.9803C67.1149 49.5507 66.6853 49.1097 66.2443 48.6688C66.0408 48.8836 66.5157 49.2228 66.086 49.3698C66.0295 49.3585 65.9616 49.3698 65.9164 49.3358C64.7971 48.3974 63.836 47.312 62.841 46.2491C62.7958 46.2039 62.7619 46.1587 62.7166 46.1021C62.5696 45.8986 62.5923 45.6725 62.7845 45.5255C63.0219 45.3446 63.2933 45.2315 63.429 44.9036C63.5307 44.6549 63.8134 44.6323 64.0847 44.734C64.1073 44.7906 64.1413 44.8358 64.1865 44.8697Z" fill="#231F20"/>
<path fill-rule="evenodd" clip-rule="evenodd" d="M44.4002 13.8447C44.3436 14.0369 44.3323 14.2065 44.2645 14.3309C44.0836 14.6361 43.6652 14.6361 43.5183 14.3196C43.3713 14.0143 43.2582 13.6977 43.1451 13.3698C42.7607 12.2278 42.3876 11.0859 42.0145 9.93259C41.7996 9.25419 41.6527 8.55318 41.777 7.82955C41.7883 7.75041 41.8449 7.67126 41.924 7.51297C42.0597 7.70518 42.218 7.81825 42.2519 7.97654C42.625 9.64992 43.3713 11.1876 43.8688 12.8158C43.9479 13.0758 43.9818 13.3698 44.3323 13.5846C44.2871 13.3133 44.2645 13.1097 44.208 12.9175C43.6087 10.9615 43.0886 8.99414 42.7268 6.98156C42.625 6.42753 42.6476 5.87351 42.6476 5.3534C42.9077 5.16119 43.0434 5.25164 43.1112 5.46647C43.2695 5.99788 43.4165 6.5406 43.5522 7.08332C43.7783 7.98785 43.9592 8.89238 44.208 9.7856C44.5132 10.8597 44.8864 11.9112 45.2256 12.9628C45.2369 12.9967 45.2482 13.0193 45.2595 13.0532C45.3612 13.2907 45.4178 13.5281 45.2369 13.7542C45.022 14.0256 44.7394 13.9577 44.4002 13.8447Z" fill="#231F20"/>
<path fill-rule="evenodd" clip-rule="evenodd" d="M71.6937 15.4161C71.2188 16.0606 70.563 16.4563 69.9977 16.9425C69.3871 17.4626 68.7427 17.9601 68.1321 18.4689C67.5442 18.9664 66.9562 19.4752 66.21 20.131C66.5266 20.0518 66.651 20.0405 66.7527 19.984C67.9173 19.2265 69.0706 18.4463 70.2465 17.7114C70.8796 17.327 71.558 17.0104 72.2138 16.6825C72.3043 16.6372 72.4399 16.6712 72.6661 16.6599C72.5078 16.8634 72.4399 17.0104 72.3382 17.0895C71.8633 17.44 71.3884 17.7905 70.9022 18.1071C69.6359 18.9438 68.3696 19.7805 67.1937 20.7302C67.0467 20.8433 66.8884 21.0129 66.7301 21.0242C66.2552 21.0694 65.9386 21.3182 65.656 21.6687C65.5316 21.827 65.3507 21.8948 65.1585 21.7818C64.921 21.6461 64.8419 21.3634 64.955 21.0694C64.9889 20.9903 65.0454 20.9112 65.0906 20.8433C64.955 20.6285 64.8306 20.425 64.6836 20.1875C65.5994 19.4413 66.4813 18.7064 67.3859 18.0054C68.2452 17.3496 69.1271 16.7051 70.0203 16.1058C70.4726 15.8006 70.9927 15.5744 71.4902 15.3257C71.4902 15.3144 71.5693 15.3709 71.6937 15.4161Z" fill="#231F20"/>
<path fill-rule="evenodd" clip-rule="evenodd" d="M64.1869 44.8701C64.1417 44.8248 64.0964 44.7796 64.0625 44.7344C64.1756 44.3839 64.2434 44.0221 64.6278 43.8299C64.7635 43.762 64.8314 43.5359 64.9444 43.355C65.2158 43.3776 65.4871 43.4002 65.7585 43.4115L65.7133 43.3889C65.849 43.649 66.109 43.5359 66.3125 43.6037L66.2786 43.5811C67.1944 43.9316 68.1103 44.2934 69.0261 44.6439C69.6593 44.8814 70.3151 45.0736 70.9369 45.3449C71.5927 45.6276 72.2146 45.9668 72.8364 46.306C72.9608 46.3738 73.0173 46.5321 73.1869 46.747C72.9043 46.7017 72.7234 46.7017 72.5651 46.6565C70.6543 46.046 68.7434 45.4241 66.8439 44.8135C66.6404 44.7457 66.4256 44.7118 66.2108 44.6665C66.1881 44.6665 66.1542 44.6665 66.1316 44.6665C66.1655 44.6665 66.1881 44.6779 66.2221 44.6779C66.1316 44.9379 66.3691 44.9718 66.5047 45.0623C67.658 45.8198 68.8226 46.5774 69.9759 47.3349C70.3603 47.5837 70.7108 47.8663 70.9256 48.2507C70.7786 48.4769 70.6317 48.4317 70.496 48.3525C69.908 48.0246 69.3088 47.6967 68.7208 47.3688C67.2962 46.5774 65.8716 45.7746 64.4469 44.9831C64.3678 44.9153 64.2773 44.904 64.1869 44.8701Z" fill="#231F20"/>
<path fill-rule="evenodd" clip-rule="evenodd" d="M37.8647 55.5998C37.9212 54.944 38.2604 54.39 38.5544 53.8246C38.8371 53.2706 39.1763 52.7505 39.4137 52.1852C39.6625 51.5972 40.0243 51.0658 40.0921 50.3874C40.0017 50.5231 39.8886 50.6475 39.8094 50.7944C39.2893 51.6424 38.7918 52.4904 38.2604 53.3271C38.0004 53.7455 37.9778 53.7342 37.3333 53.9264C37.3333 53.8698 37.3107 53.802 37.3333 53.7568C37.5142 53.361 37.6838 52.9653 37.8873 52.5809C38.4526 51.4841 39.0406 50.3874 39.5946 49.2907C39.7755 48.9402 39.8886 48.5444 40.0243 48.1713C40.1713 47.7756 40.5105 47.6625 40.8157 47.9678C41.0645 48.2278 41.2793 48.4879 41.6637 48.567C41.9351 48.6236 41.969 48.9628 41.8107 49.2794C41.5733 49.7429 41.3358 50.2178 41.0871 50.6701C40.3522 51.959 39.7642 53.3158 38.9275 54.5596C38.6336 54.9892 38.2265 55.2379 37.8647 55.5998Z" fill="#231F20"/>
<path fill-rule="evenodd" clip-rule="evenodd" d="M68.6073 33.8004C68.8448 33.7891 69.0822 33.7439 69.3197 33.7552C71.3322 33.8118 73.3448 33.8909 75.3574 33.9474C76.8725 33.9927 78.3876 34.004 79.914 34.0266C81.7117 34.0605 83.5095 34.1623 85.2846 34.411C85.5899 34.4562 85.9065 34.4449 86.1891 34.7615C86.0874 34.818 85.9856 34.9085 85.8952 34.9085C82.9894 34.7389 80.0836 34.6937 77.1665 34.705C75.12 34.7163 73.0848 34.6032 71.0383 34.558C70.3599 34.5467 69.6815 34.5806 69.0031 34.558C68.6187 34.5467 68.5282 34.3545 68.6073 33.8004Z" fill="#231F20"/>
<path fill-rule="evenodd" clip-rule="evenodd" d="M83.7245 26.1347C83.5888 26.1799 83.4531 26.2365 83.3062 26.2591C82.266 26.44 81.2371 26.6322 80.1968 26.7905C78.2973 27.0732 76.4317 27.5593 74.5774 28.0455C73.0511 28.4526 71.536 28.8709 70.0096 29.2893C69.7382 29.3571 69.4669 29.4249 69.1955 29.4702C69.0485 29.4928 68.8902 29.4815 68.7432 29.4476C68.551 29.4023 68.3701 29.1762 68.3701 28.9614C68.3701 28.7126 68.5849 28.6448 68.7545 28.6335C69.8174 28.5543 70.801 28.1586 71.8299 27.9212C73.492 27.5367 75.1315 27.0732 76.7936 26.7227C78.2747 26.4061 79.7785 26.1799 81.2823 25.9538C81.9494 25.8521 82.6391 25.8747 83.3175 25.8521C83.4532 25.8521 83.6001 25.9086 83.7358 25.9312C83.7132 26.0103 83.7245 26.0669 83.7245 26.1347Z" fill="#231F20"/>
<path fill-rule="evenodd" clip-rule="evenodd" d="M63.6775 18.876C63.5079 18.729 63.3609 18.6047 63.2366 18.4803C63.1687 18.4124 63.1348 18.3333 63.0557 18.2428C63.1009 17.8132 63.4062 17.5305 63.7114 17.2818C64.4464 16.7051 65.1135 16.072 65.7806 15.4162C66.2667 14.9413 66.7416 14.4551 67.2391 13.9916C68.0419 13.2679 68.856 12.5556 69.6587 11.832C69.9075 11.6059 70.1336 11.3458 70.3937 11.131C70.6989 10.8822 71.106 10.9388 71.2869 11.2214C71.4113 11.4136 71.4678 11.6285 71.3095 11.8207C71.1512 12.0129 70.9816 12.1938 70.8007 12.3521C69.7831 13.2114 68.7316 14.0368 67.7592 14.9413C66.4024 16.2077 65.0909 17.5192 63.6775 18.876Z" fill="#231F20"/>
<path fill-rule="evenodd" clip-rule="evenodd" d="M31.9741 37.3511C31.2504 37.6564 30.5947 37.939 29.9389 38.1991C27.8811 39.0018 25.7441 39.5106 23.5959 39.9629C22.4426 40.2003 21.3006 40.4604 20.1473 40.6978C19.876 40.7544 19.5933 40.8222 19.322 40.8335C18.9375 40.8448 18.5418 40.7883 18.1348 40.7657C18.1913 40.5282 18.3722 40.5395 18.5079 40.4943C19.9664 39.9629 21.4928 39.6802 22.9966 39.3184C25.1675 38.787 27.3044 38.1765 29.4075 37.4302C30.018 37.2154 30.5947 36.9101 31.1826 36.6388C31.5896 36.4466 31.714 36.4918 31.8723 36.9101C31.9288 37.0119 31.9288 37.1363 31.9741 37.3511Z" fill="#231F20"/>
<path fill-rule="evenodd" clip-rule="evenodd" d="M18.6885 23.9184C18.7676 23.8958 18.8581 23.8393 18.9259 23.8506C20.3392 24.1785 21.7413 24.5403 23.1546 24.8569C24.534 25.1622 25.9247 25.4674 27.3267 25.7049C28.6609 25.9423 30.0177 26.1006 31.3632 26.2928C31.5102 26.3154 31.6911 26.3154 31.8042 26.3946C31.9511 26.485 32.0981 26.632 32.166 26.7903C32.2564 26.9938 32.1999 27.22 32.0077 27.3443C30.2212 27.0504 28.4574 26.7903 26.7049 26.4624C24.7941 26.1119 22.9058 25.6484 21.0403 25.0943C20.2375 24.8569 19.4912 24.4951 18.7563 24.088C18.7224 24.0654 18.7224 23.9863 18.6885 23.9184Z" fill="#231F20"/>
<path fill-rule="evenodd" clip-rule="evenodd" d="M50.8899 13.0643C50.8334 11.3909 50.5394 9.72885 50.7543 8.05547C50.8673 7.19617 50.9125 6.34817 50.9125 5.48887C50.9125 4.59565 51.0708 3.70243 51.1839 2.8092C51.1952 2.71875 51.3196 2.58307 51.41 2.57176C51.5005 2.56046 51.6701 2.65091 51.6927 2.73006C51.7945 3.08056 51.9188 3.44237 51.9301 3.80418C51.9528 5.44365 51.9528 7.08311 51.9188 8.72257C51.8962 9.61579 51.7945 10.509 51.7379 11.4135C51.7153 11.8432 51.7153 12.2842 51.7266 12.7138C51.7266 13.2452 51.6136 13.3244 51.0369 13.1887C51.003 13.1887 50.9804 13.1548 50.8899 13.0643Z" fill="#231F20"/>
<path fill-rule="evenodd" clip-rule="evenodd" d="M21.7188 44.8699C22.7363 44.1915 23.7652 43.7844 24.7828 43.3548C26.7502 42.5181 28.6158 41.4892 30.4814 40.449C31.1259 40.0872 31.7703 39.7254 32.347 39.2505C32.5279 39.0922 32.7653 38.9904 32.9914 38.9113C33.1724 38.8434 33.3646 38.9226 33.4663 39.1035C33.5794 39.2957 33.5229 39.454 33.3646 39.601C32.754 40.1776 32.0417 40.6299 31.3068 41.0256C30.0517 41.6927 28.7967 42.3598 27.519 42.9704C26.6824 43.3774 25.8231 43.7166 24.9638 44.0558C24.3306 44.3045 23.6861 44.5081 23.0416 44.7455C22.6459 44.8812 22.2389 44.9264 21.7188 44.8699Z" fill="#231F20"/>
<path fill-rule="evenodd" clip-rule="evenodd" d="M36.1577 18.7177C35.9768 18.5141 35.8298 18.2767 35.615 18.1071C33.8963 16.6938 32.3247 15.1108 30.8436 13.4488C30.5948 13.1661 30.3235 12.9174 30.0634 12.6573C29.8825 12.4764 29.7694 12.2503 29.8147 11.9902C29.8373 11.8545 29.939 11.6962 30.0521 11.6397C30.1652 11.5832 30.38 11.5832 30.4818 11.651C30.7079 11.8093 30.9001 12.0128 31.081 12.2164C31.7707 12.9626 32.4604 13.7201 33.1501 14.4664C34.1564 15.5631 35.2079 16.6033 36.429 17.4626C36.5308 17.5305 36.6212 17.6209 36.723 17.6888C36.9604 17.8697 37.1187 18.0732 37.0396 18.4011C36.9491 18.7742 36.6778 18.876 36.3386 18.842C36.282 18.7968 36.2142 18.7629 36.1577 18.7177Z" fill="#231F20"/>
<path fill-rule="evenodd" clip-rule="evenodd" d="M68.2686 35.2139C70.0664 35.3948 71.8189 35.5644 73.5714 35.7453C74.9282 35.881 76.285 36.0166 77.6418 36.141C78.8403 36.2541 80.0162 36.4915 81.1921 36.7742C81.2599 36.7855 81.3165 36.8872 81.4635 37.0229C81.2373 37.0455 81.1016 37.0908 80.9773 37.0795C79.5866 36.9777 78.1958 36.8872 76.8164 36.7742C75.8554 36.695 74.9056 36.6046 73.9446 36.5367C72.2825 36.4124 70.6091 36.2993 68.9357 36.1862C68.8453 36.1749 68.7548 36.1749 68.6531 36.1523C68.133 36.0732 68.0538 35.9262 68.2686 35.2139Z" fill="#231F20"/>
<path fill-rule="evenodd" clip-rule="evenodd" d="M66.5606 22.7201C66.4136 22.5957 66.2666 22.5166 66.1761 22.4035C65.9952 22.1774 66.0744 21.9625 66.3344 21.8156C66.9902 21.465 67.6347 21.1032 68.2792 20.7414C68.7427 20.4814 69.195 20.2213 69.6586 19.9726C71.3772 19.068 73.1071 18.1635 74.837 17.2816C75.4363 16.9763 76.092 16.7615 76.7252 16.5127C76.7817 16.4901 76.9174 16.5693 76.94 16.6258C76.9627 16.6937 76.9287 16.8293 76.8722 16.8633C76.3973 17.1572 75.9224 17.4399 75.4363 17.7113C72.7566 19.1924 70.0769 20.6623 67.4764 22.2791C67.1824 22.46 66.8658 22.5731 66.5606 22.7201Z" fill="#231F20"/>
<path fill-rule="evenodd" clip-rule="evenodd" d="M67.2504 37.091C67.3295 37.0684 67.42 37.0232 67.5104 37.0345C68.7202 37.0797 69.9187 37.125 71.1285 37.2041C72.327 37.2719 73.5368 37.3624 74.7353 37.4641C75.5947 37.5433 76.454 37.6677 77.302 37.7807C78.2517 37.9164 79.1902 38.0634 80.1399 38.2104C80.3208 38.233 80.513 38.2556 80.5696 38.5157C79.9816 38.6513 79.405 38.5496 78.8397 38.5044C77.4489 38.4026 76.0695 38.2782 74.6788 38.1991C72.361 38.0634 70.0544 37.973 67.7365 37.8486C67.2391 37.826 67.1938 37.7355 67.2504 37.091Z" fill="#231F20"/>
<path fill-rule="evenodd" clip-rule="evenodd" d="M80.66 24.7894C80.6148 25.0269 80.4339 25.0495 80.2982 25.0834C79.4276 25.2869 78.557 25.5244 77.6751 25.6714C75.9338 25.954 74.2265 26.4176 72.5305 26.9038C71.2529 27.2656 69.9979 27.7066 68.7315 28.1136C68.528 28.1814 68.3132 28.238 68.1097 28.2832C67.9287 28.3171 67.68 28.0458 67.7026 27.8648C67.7139 27.7857 67.7591 27.6613 67.827 27.6274C68.0757 27.4917 68.3245 27.3674 68.5845 27.2769C71.0494 26.4402 73.5368 25.7166 76.0921 25.2417C76.7931 25.1173 77.5055 25.0382 78.2065 24.959C78.9075 24.8799 79.6198 24.8007 80.3208 24.7329C80.4339 24.7329 80.5356 24.7668 80.66 24.7894Z" fill="#231F20"/>
<path fill-rule="evenodd" clip-rule="evenodd" d="M60.942 6.38217C61.2812 6.7666 61.3038 7.13972 61.0211 7.56937C60.7498 7.98772 60.5349 8.42867 60.3201 8.86963C59.653 10.2264 59.0312 11.6058 58.2284 12.8948C57.957 13.3357 57.7874 13.8445 57.5613 14.3194C57.4595 14.5456 57.2221 14.5908 57.0412 14.4212C56.7924 14.1837 56.7133 13.9124 56.849 13.5845C57.0299 13.1888 57.1995 12.793 57.3804 12.3973C57.9005 11.2779 58.4206 10.1586 58.9633 9.05054C59.1103 8.74526 59.2912 8.46259 59.4608 8.16862C59.6982 7.73897 59.947 7.30932 60.1618 6.86836C60.3088 6.49524 60.5575 6.34825 60.942 6.38217Z" fill="#231F20"/>
<path fill-rule="evenodd" clip-rule="evenodd" d="M66.7988 23.896C66.9458 23.7603 67.0702 23.5794 67.2398 23.4777C68.0539 22.9802 68.8679 22.4601 69.7272 22.0191C71.7964 20.9676 73.8881 19.95 75.9685 18.9211C76.2964 18.7628 76.6469 18.6271 76.9974 18.4914C77.0992 18.4575 77.2235 18.4688 77.3479 18.4575C77.3931 18.7628 77.2009 18.8872 77.02 19.0002C76.3642 19.396 75.7084 19.8143 75.03 20.1874C73.9672 20.7641 72.8818 21.2842 71.819 21.8721C70.4622 22.6184 69.128 23.4098 67.7938 24.1787C67.2624 24.4839 67.2624 24.4839 66.7988 23.896Z" fill="#231F20"/>
<path fill-rule="evenodd" clip-rule="evenodd" d="M25.1113 46.2155C25.4958 45.7745 26.0159 45.4919 26.5133 45.1979C27.6892 44.5082 28.8199 43.762 29.8714 42.88C30.8438 42.066 31.8275 41.2519 32.7998 40.4491C32.8451 40.4039 32.8903 40.37 32.9468 40.3361C33.139 40.2117 33.3991 40.2117 33.5461 40.3474C33.6931 40.4943 33.727 40.7544 33.5913 40.9353C33.4782 41.0823 33.3539 41.2293 33.2182 41.3423C31.8501 42.4956 30.4594 43.6489 28.9669 44.6326C28.345 45.0396 27.7119 45.4353 27.0448 45.7519C26.4681 46.0233 25.835 46.1816 25.2357 46.3851C25.1792 46.3173 25.1452 46.2607 25.1113 46.2155Z" fill="#231F20"/>
<path fill-rule="evenodd" clip-rule="evenodd" d="M60.7377 56.2441C60.7151 56.459 60.7038 56.5494 60.6812 56.6399C60.6473 56.8208 60.3872 56.9225 60.2402 56.8095C60.1611 56.7529 60.082 56.6964 60.0367 56.6286C59.935 56.4703 59.8558 56.3007 59.7767 56.1424C58.9739 54.5821 58.1824 53.0105 57.3571 51.4614C57.097 50.9753 56.7804 50.5117 56.4525 50.0594C56.2603 49.7994 56.1699 49.5167 56.1359 49.2001C56.1133 48.974 56.2716 48.7479 56.4638 48.7026C56.6787 48.6574 56.9161 48.7366 56.9953 48.9627C57.2101 49.5506 57.5493 50.0594 57.9563 50.5343C58.1146 50.7152 58.1938 50.964 58.3068 51.1901C59.0417 52.6486 59.7654 54.1072 60.489 55.5771C60.6134 55.8258 60.6812 56.0859 60.7377 56.2441Z" fill="#231F20"/>
<path fill-rule="evenodd" clip-rule="evenodd" d="M23.4941 19.2602C23.6185 18.9776 23.7768 19.0228 23.9125 19.0793C24.3534 19.2941 24.7944 19.5203 25.2354 19.7464C26.4678 20.3909 27.768 20.8658 29.1022 21.2728C29.8937 21.5102 30.6625 21.8721 31.4314 22.1886C31.861 22.3695 32.2794 22.5504 32.6977 22.754C32.856 22.8331 32.9917 22.9575 33.15 23.0819C33.0822 23.2288 33.0482 23.3419 32.9917 23.4437C32.8673 23.6585 32.6977 23.749 32.449 23.6472C32.2229 23.5567 31.9854 23.4663 31.7706 23.3532C30.4816 22.6861 29.1361 22.1434 27.7567 21.6798C26.8183 21.3633 25.9025 20.9788 25.0771 20.4135C24.5457 20.063 24.0482 19.6673 23.4941 19.2602Z" fill="#231F20"/>
<path fill-rule="evenodd" clip-rule="evenodd" d="M33.9755 21.6573H33.9981C34.0321 21.7477 34.0547 21.8382 34.1112 21.906C34.3373 22.2452 34.213 22.4827 33.8398 22.7088C33.6815 22.641 33.478 22.5844 33.2971 22.494C31.6351 21.6799 29.973 20.8545 28.3109 20.0517C27.2142 19.5203 26.2757 18.7741 25.3373 18.0279C25.2807 17.9826 25.2694 17.8696 25.2129 17.7339C25.3712 17.7452 25.5069 17.7113 25.5973 17.7678C26.3096 18.1296 27.022 18.5027 27.7343 18.8645C28.2883 19.1472 28.831 19.4299 29.3963 19.6786C30.5835 20.1987 31.7933 20.6849 32.9353 21.2955C33.2519 21.4538 33.625 21.5329 33.9755 21.6573Z" fill="#231F20"/>
<path fill-rule="evenodd" clip-rule="evenodd" d="M36.1578 18.7178C36.2143 18.7631 36.2822 18.797 36.3387 18.8422C36.6327 19.1927 36.7344 19.5432 36.2822 19.905C35.8638 19.7354 35.4568 19.5319 35.0837 19.2719C33.6138 18.2429 32.1213 17.248 30.6854 16.1851C29.9505 15.6424 29.2268 15.0545 28.752 14.2517C28.7859 14.0708 28.8989 14.0256 29.0233 14.0934C29.2608 14.2291 29.5095 14.3761 29.7243 14.5457C30.9115 15.552 32.2457 16.3321 33.5573 17.1462C34.2922 17.5985 35.0158 18.0847 35.7394 18.5369C35.8638 18.6161 36.0221 18.6613 36.1578 18.7178Z" fill="#231F20"/>
<path fill-rule="evenodd" clip-rule="evenodd" d="M48.2777 12.9967C48.1421 12.1035 47.9951 11.2555 47.8707 10.3962C47.7463 9.51426 47.6333 8.62104 47.5428 7.72782C47.4184 6.59715 47.3054 5.45519 47.2149 4.32452C47.1923 3.97402 47.2714 3.61221 47.3167 3.04688C47.4637 3.36346 47.5428 3.48783 47.5767 3.61221C48.1647 6.1675 48.5943 8.75672 48.9448 11.3572C48.9901 11.6964 49.0692 12.0243 49.1257 12.3522C49.1936 12.8271 48.9787 13.008 48.2777 12.9967Z" fill="#231F20"/>
<path fill-rule="evenodd" clip-rule="evenodd" d="M43.9818 4.52783C44.2871 4.90095 44.4228 5.36452 44.5585 5.82809C45.0334 7.45625 45.5308 9.0844 45.9944 10.7239C46.1866 11.4023 46.3449 12.1033 46.4806 12.8043C46.5711 13.2452 46.4241 13.3922 45.9266 13.4375C45.87 13.4375 45.8135 13.4035 45.6778 13.3696C45.6213 13.1774 45.5308 12.9513 45.4743 12.7138C45.1577 11.391 44.8298 10.0681 44.5246 8.7452C44.2984 7.78414 44.061 6.82308 43.8688 5.85071C43.7896 5.43236 43.8009 5.00271 43.7783 4.57306C43.8462 4.55045 43.914 4.53914 43.9818 4.52783Z" fill="#231F20"/>
<path fill-rule="evenodd" clip-rule="evenodd" d="M33.2744 10.4185C33.4779 10.4524 33.6136 10.4298 33.6815 10.4863C33.8737 10.6446 34.0433 10.8255 34.2129 11.0064C35.7619 12.7363 37.2996 14.4662 38.8486 16.2074C38.9956 16.3657 39.1426 16.5353 39.2443 16.7162C39.3461 16.8972 39.2782 17.0781 39.1199 17.2137C38.9616 17.3607 38.792 17.372 38.6224 17.225C38.4415 17.0668 38.2606 16.8858 38.1023 16.6936C37.13 15.5743 36.1576 14.4436 35.1965 13.313C34.5294 12.5328 33.9302 11.7187 33.444 10.8142C33.3875 10.7237 33.3536 10.622 33.2744 10.4185Z" fill="#231F20"/>
<path fill-rule="evenodd" clip-rule="evenodd" d="M52.7331 51.8346C52.7218 51.6198 52.6992 51.405 52.6992 51.1901C52.6992 50.9414 52.8688 50.8057 53.0723 50.7153C53.2306 50.6474 53.3776 50.6813 53.4681 50.8396C53.5133 50.9188 53.5585 51.0092 53.5811 51.0884C53.8412 52.366 54.4517 53.5306 54.8588 54.7517C55.1301 55.5658 55.4128 56.3799 55.6616 57.2166C55.8198 57.748 55.8085 58.2907 55.8425 58.856C55.4354 58.8108 55.4467 58.5055 55.3563 58.302C54.9153 57.2166 54.5196 56.1085 54.0786 55.0231C53.6377 53.9489 53.1741 52.8748 52.7105 51.8007L52.7331 51.8346Z" fill="#231F20"/>
<path fill-rule="evenodd" clip-rule="evenodd" d="M44.5353 58.0309C44.5353 57.8387 44.524 57.6351 44.5353 57.4316C44.6371 55.8939 44.7501 54.3449 44.8632 52.8072C44.9197 52.0384 44.9989 51.2695 45.0554 50.5007C45.0667 50.2971 45.1685 50.1615 45.3381 50.0597C45.5077 49.9579 45.6999 49.8901 45.8469 50.0371C45.9486 50.1275 46.0165 50.3084 46.0052 50.4328C45.9486 51.2695 45.8695 52.0949 45.779 52.9316C45.6773 53.9492 45.5755 54.9668 45.4285 55.9731C45.3381 56.5836 45.1572 57.1716 44.9876 57.7708C44.9423 57.9178 44.8406 58.1213 44.5353 58.0309Z" fill="#231F20"/>
<path fill-rule="evenodd" clip-rule="evenodd" d="M52.7102 51.8122C52.7328 52.027 52.7328 52.2419 52.7893 52.4454C53.0268 53.463 53.2868 54.4806 53.513 55.5095C53.6939 56.3236 53.8069 57.1489 53.773 57.9856C53.7617 58.1326 53.7052 58.2683 53.6373 58.5623C53.4904 58.3135 53.3886 58.2118 53.3547 58.0874C53.1398 57.3185 52.9589 56.5384 52.7441 55.7582C52.3484 54.3336 51.9413 52.909 51.5456 51.473C51.5343 51.4391 51.523 51.4165 51.5117 51.3826C51.3082 50.7494 51.3308 50.7042 52.0092 50.3311C52.2692 50.4102 52.2692 50.6476 52.3145 50.8512C52.3936 51.2017 52.4275 51.5748 52.7554 51.8235C52.7328 51.8348 52.7102 51.8122 52.7102 51.8122Z" fill="#231F20"/>
<path fill-rule="evenodd" clip-rule="evenodd" d="M47.6559 50.1614C47.7463 50.7607 47.6559 51.3712 47.588 51.9931C47.4976 52.9202 47.4071 53.8474 47.2828 54.7632C47.1697 55.5886 47.034 56.414 46.887 57.2393C46.8418 57.4768 46.7853 57.7255 46.5139 57.8047C46.333 57.7708 46.333 57.6238 46.333 57.522C46.333 57.0584 46.333 56.5949 46.3669 56.1313C46.4574 54.7067 46.5704 53.2933 46.6722 51.8687C46.7061 51.439 46.7061 50.9981 46.7287 50.5684C46.7514 49.9579 46.9436 49.8448 47.5654 50.0823C47.5994 50.0823 47.622 50.1162 47.6559 50.1614Z" fill="#231F20"/>
<path fill-rule="evenodd" clip-rule="evenodd" d="M47.7238 58.4941C47.5768 58.0871 47.6672 57.7479 47.6899 57.42C47.8142 55.8484 47.9499 54.2767 48.0743 52.7051C48.1195 52.1511 48.1647 51.5971 48.2213 51.043C48.2326 50.93 48.2778 50.8056 48.3456 50.7038C48.4587 50.5229 48.6622 50.5003 48.8431 50.5343C49.0354 50.5795 49.1597 50.7152 49.171 50.93C49.171 50.9865 49.171 51.0544 49.1597 51.1109C48.9675 53.0443 48.8205 54.9891 48.3909 56.8999C48.2891 57.3521 48.1308 57.7931 47.9838 58.2341C47.9612 58.3245 47.8482 58.381 47.7238 58.4941Z" fill="#231F20"/>
<path fill-rule="evenodd" clip-rule="evenodd" d="M60.4551 16.0833C61.337 14.9753 62.1737 13.9011 63.033 12.8609C63.5418 12.2391 64.0958 11.6624 64.6498 11.0745C64.7968 10.9162 64.9664 10.7805 65.136 10.6561C65.283 10.5544 65.4526 10.4752 65.5996 10.3848C65.8257 10.5657 65.724 10.7353 65.6109 10.8823C65.1247 11.4815 64.6498 12.0921 64.141 12.68C63.327 13.6072 62.6486 14.6474 61.9362 15.6537C61.8345 15.8006 61.7327 15.9702 61.6197 16.1059C61.2692 16.5469 61.1109 16.5469 60.4551 16.0833Z" fill="#231F20"/>
<path fill-rule="evenodd" clip-rule="evenodd" d="M39.9564 47.052C39.8094 47.3686 39.6737 47.7078 39.5041 48.0244C38.724 49.4603 37.9212 50.8737 37.1297 52.3096C36.9149 52.7053 36.6323 53.0106 36.1348 53.2028C36.1461 53.0332 36.1235 52.8863 36.1687 52.7732C36.8019 51.4051 37.4463 50.037 38.0908 48.6802C38.3282 48.1827 38.5883 47.6852 38.8484 47.199C39.1762 46.5998 39.2893 46.5772 39.9564 47.052Z" fill="#231F20"/>
<path fill-rule="evenodd" clip-rule="evenodd" d="M40.2958 15.9474C40.1715 16.1057 40.0923 16.2866 39.9453 16.3657C39.8436 16.4222 39.6287 16.4109 39.527 16.3431C39.3008 16.1848 39.1086 15.9813 38.939 15.7551C38.0345 14.6245 37.13 13.4938 36.2481 12.3292C35.9315 11.9222 35.7166 11.436 35.4679 10.9724C35.434 10.9159 35.4792 10.7689 35.5244 10.7463C35.581 10.7124 35.7166 10.735 35.7619 10.7802C36.0671 11.0855 36.395 11.3795 36.6438 11.7187C37.6275 13.0302 38.8373 14.1496 39.8888 15.3933C40.0245 15.5629 40.1375 15.7438 40.2958 15.9474Z" fill="#231F20"/>
<path fill-rule="evenodd" clip-rule="evenodd" d="M64.5481 19.769C64.1636 19.7238 64.0053 19.4977 63.9375 19.1472C65.283 18.107 66.6172 17.0441 67.9853 16.0379C68.5506 15.6195 69.1951 15.2916 69.8056 14.9411C69.9413 14.862 70.1335 14.8733 70.3257 14.8394C70.3031 14.9637 70.3257 15.0429 70.2918 15.0768C68.3697 16.6484 66.4476 18.2087 64.5481 19.769Z" fill="#231F20"/>
<path fill-rule="evenodd" clip-rule="evenodd" d="M47.2155 12.7927C46.5145 11.3568 45.5647 7.17336 46.017 5.8731C46.2205 5.81656 46.2883 5.97486 46.3336 6.11054C46.4466 6.52888 46.5484 6.94722 46.6275 7.37688C46.9667 9.01634 47.3851 10.6332 47.8713 12.2274C48.007 12.6797 47.8487 12.8606 47.2946 12.8493C47.272 12.838 47.2381 12.8154 47.2155 12.7927Z" fill="#231F20"/>
<path fill-rule="evenodd" clip-rule="evenodd" d="M53.1854 13.2112C52.9141 13.3469 52.6653 13.2678 52.4053 13.0755C52.6314 11.1986 52.8349 9.33306 53.0724 7.45616C53.1176 7.06043 53.242 6.676 53.3437 6.28027C53.3776 6.17851 53.4681 6.08806 53.5925 5.91846C53.6829 6.07675 53.7734 6.1672 53.7734 6.26896C53.796 6.51771 53.8073 6.76645 53.796 7.0152C53.6151 9.05039 53.4342 11.0856 53.242 13.1321C53.242 13.1547 53.208 13.1773 53.1854 13.2112Z" fill="#231F20"/>
<path fill-rule="evenodd" clip-rule="evenodd" d="M66.0523 42.2354C66.1315 42.5406 66.4141 42.5406 66.629 42.6085C67.6692 42.9816 68.7207 43.3321 69.7722 43.6939C70.4167 43.92 70.9933 44.2705 71.536 44.6776C71.6265 44.7454 71.6943 44.8472 71.8413 45.0168C71.6265 45.0281 71.5134 45.0733 71.4117 45.0394C70.3601 44.7115 69.3086 44.361 68.2458 44.0444C67.6013 43.8522 66.9342 43.7278 66.2785 43.5808L66.3124 43.6035C66.1767 43.366 65.9393 43.3999 65.7131 43.3886L65.7583 43.4112C65.6114 43.2077 65.2948 43.1399 65.3287 42.7894C65.3626 42.4615 65.4418 42.3484 65.8149 42.2919C65.9053 42.2806 65.9958 42.2693 66.0749 42.258C66.0749 42.2693 66.0523 42.2354 66.0523 42.2354Z" fill="#231F20"/>
<path fill-rule="evenodd" clip-rule="evenodd" d="M34.4392 42.8458C33.6251 43.4224 32.9015 43.9425 32.1778 44.4626C31.6803 44.8245 31.1942 45.2089 30.6741 45.5368C30.267 45.7968 29.8034 45.989 29.3851 46.1926C29.1703 46.0343 29.2042 45.876 29.3286 45.7629C29.9052 45.2428 30.4592 44.7114 31.0585 44.2252C31.7821 43.6373 32.5283 43.0832 33.2633 42.5179C33.4103 42.4048 33.5572 42.2918 33.7155 42.19C34.0547 41.9865 34.3035 42.0883 34.4165 42.4727C34.4505 42.6084 34.4392 42.7327 34.4392 42.8458Z" fill="#231F20"/>
<path fill-rule="evenodd" clip-rule="evenodd" d="M62.1405 54.5256C60.7611 52.6148 59.4834 50.8396 58.1719 49.0193C58.1832 48.7931 58.3302 48.5783 58.6015 48.4766C58.6694 48.4879 58.7485 48.4879 58.7937 48.5218C59.4043 48.9741 59.7322 49.6638 60.1392 50.2743C60.8063 51.2693 61.496 52.2643 61.9935 53.3723C62.1405 53.6889 62.3214 53.9716 62.1405 54.5256Z" fill="#231F20"/>
<path fill-rule="evenodd" clip-rule="evenodd" d="M56.3629 55.9049C56.1367 55.9614 56.035 55.8257 55.9671 55.6901C55.7297 55.2265 55.4923 54.7516 55.2887 54.2654C54.8252 53.1234 54.3729 51.9589 53.9206 50.8169C53.8867 50.7264 53.8415 50.6473 53.8189 50.5568C53.7284 50.2063 53.898 50.0367 54.452 49.9463C54.6103 50.2968 54.7912 50.6473 54.9269 51.0204C55.4131 52.3546 55.888 53.7001 56.3403 55.0456C56.442 55.3169 56.5438 55.6335 56.3629 55.9049Z" fill="#231F20"/>
<path fill-rule="evenodd" clip-rule="evenodd" d="M61.7777 9.34424C61.7664 9.52514 61.8004 9.68344 61.7551 9.7965C61.5742 10.1809 61.3707 10.5654 61.1446 10.9385C60.387 12.1709 59.6408 13.4146 58.8606 14.6357C58.5893 15.0541 58.4536 15.0428 57.9448 14.7262C57.9222 14.7149 57.9109 14.681 57.877 14.6357C57.8996 14.5566 57.8883 14.4548 57.9448 14.3983C58.431 13.8782 58.7815 13.2563 59.1546 12.6571C59.7199 11.7412 60.3305 10.848 60.9297 9.9548C61.122 9.67213 61.3368 9.41208 61.7777 9.34424Z" fill="#231F20"/>
<path fill-rule="evenodd" clip-rule="evenodd" d="M65.803 11.877C65.95 12.0805 65.8822 12.2275 65.803 12.3518C65.5317 12.8041 65.2716 13.2677 64.989 13.7086C64.4236 14.5679 63.8583 15.4159 63.2817 16.2526C63.0895 16.5353 62.852 16.784 62.6033 17.0215C62.2075 17.3946 61.9927 17.3381 61.5518 16.7727C62.4676 16.2074 62.9651 15.2576 63.6096 14.4436C64.1975 13.686 64.7855 12.9285 65.396 12.1822C65.4865 12.0466 65.6561 11.9674 65.803 11.877Z" fill="#231F20"/>
<path fill-rule="evenodd" clip-rule="evenodd" d="M63.3388 52.5809C62.7734 52.1512 62.3438 51.5972 61.8689 51.0884C61.4053 50.5909 60.9418 50.0934 60.4556 49.6185C59.9468 49.1323 59.4267 48.6688 58.8613 48.1487C59.0535 47.9225 59.2118 47.7529 59.3475 47.606C59.4719 47.6399 59.5397 47.6399 59.585 47.6738C60.0372 48.0921 60.5234 48.4766 60.9417 48.9288C61.5749 49.6072 62.1629 50.3309 62.7508 51.0432C62.9882 51.3258 63.1918 51.6424 63.384 51.959C63.4857 52.1399 63.5762 52.3434 63.3388 52.5809Z" fill="#231F20"/>
<path fill-rule="evenodd" clip-rule="evenodd" d="M59.2344 15.1675C60.105 13.9011 60.953 12.6461 61.8236 11.425C62.1063 11.0292 62.4794 10.69 62.8186 10.3282C62.9316 10.2152 63.0899 10.1812 63.2708 10.3735C63.0786 10.724 62.8864 11.1084 62.6603 11.4702C61.948 12.5896 61.2243 13.6976 60.5007 14.817C60.365 15.0205 60.218 15.2353 60.0371 15.3823C59.7997 15.5632 59.5283 15.5519 59.2344 15.1675Z" fill="#231F20"/>
<path fill-rule="evenodd" clip-rule="evenodd" d="M55.6505 7.13972C55.6731 7.2754 55.7297 7.42239 55.7183 7.55807C55.6505 8.07817 55.5827 8.59828 55.4696 9.11838C55.1869 10.3847 54.9156 11.6624 54.8025 12.9626C54.7573 13.5167 54.6216 13.5845 53.9658 13.3697C54.0789 11.1988 54.599 9.11838 55.4583 7.12842C55.5148 7.12842 55.5827 7.13972 55.6505 7.13972Z" fill="#231F20"/>
<path fill-rule="evenodd" clip-rule="evenodd" d="M57.1198 7.70508C57.3007 8.33825 57.2215 8.83574 57.1311 9.29931C56.8597 10.69 56.5431 12.0694 56.2378 13.4601C56.1135 14.0255 55.9891 14.0933 55.2881 13.8785C55.6725 12.1486 55.9665 10.3847 56.5883 8.71137C56.6675 8.48524 56.7693 8.2478 56.871 8.03297C56.9049 7.95382 56.9728 7.88598 57.1198 7.70508Z" fill="#231F20"/>
<path fill-rule="evenodd" clip-rule="evenodd" d="M55.1523 50.0824C55.2202 49.7884 55.3672 49.6188 55.6498 49.5962C55.7064 49.6301 55.7855 49.6414 55.8081 49.6866C55.8873 49.7771 55.9551 49.8902 56.0003 50.0032C56.6109 51.4618 57.2101 52.909 57.8094 54.3676C57.8999 54.5937 57.9564 54.8425 57.9903 55.0799C58.0016 55.1364 57.9112 55.2495 57.832 55.2721C57.7642 55.306 57.6398 55.2834 57.5833 55.2382C57.4928 55.159 57.4363 55.0347 57.3911 54.9329C56.837 53.8249 56.2152 52.7507 55.7855 51.5862C55.6159 51.0661 55.3672 50.5686 55.1523 50.0824Z" fill="#231F20"/>
<path fill-rule="evenodd" clip-rule="evenodd" d="M60.4326 47.7644C60.4892 47.4139 60.6814 47.2103 61.0545 47.1538C61.3258 47.4252 61.6311 47.6852 61.8912 47.9792C62.5809 48.7707 63.2593 49.5621 63.9264 50.3762C64.1977 50.7041 64.4239 51.0659 64.6387 51.439C64.7065 51.5408 64.65 51.7217 64.65 51.9591C64.4691 51.8461 64.3447 51.8121 64.2769 51.733C63.3836 50.7945 62.513 49.8448 61.6198 48.9063C61.258 48.5219 60.8623 48.1714 60.4326 47.7644Z" fill="#231F20"/>
<path fill-rule="evenodd" clip-rule="evenodd" d="M65.0003 50.3083C64.5594 49.8674 64.0958 49.4038 63.6435 48.9515C63.0556 48.3636 62.4676 47.7643 61.891 47.1764C61.7892 47.0633 61.6536 46.9729 61.5857 46.8485C61.484 46.6676 61.5292 46.4867 61.6649 46.3397C61.8006 46.1814 61.9815 46.1362 62.1624 46.2379C62.3207 46.3284 62.4903 46.4301 62.6146 46.5545C63.4965 47.459 64.3219 48.4201 65.0455 49.4603C65.1473 49.6073 65.2152 49.7882 65.283 49.9578C65.3395 50.1387 65.2038 50.2179 65.0003 50.3083Z" fill="#231F20"/>
<path fill-rule="evenodd" clip-rule="evenodd" d="M34.1112 13.7993C34.2356 13.8785 34.3712 13.935 34.4843 14.0254C35.1062 14.5229 35.7506 15.0091 36.3499 15.5405C36.9039 16.0267 37.4014 16.5694 37.9215 17.1008C38.0685 17.2591 38.0007 17.4627 37.865 17.5983C37.7406 17.734 37.571 17.8471 37.3788 17.734C37.2544 17.6549 37.1301 17.5531 37.0283 17.4514C36.2594 16.7051 35.4793 15.9589 34.7104 15.19C34.3825 14.8621 34.1451 14.4664 34.0207 14.0141C33.9981 13.9802 34.0547 13.9124 34.1112 13.7993Z" fill="#231F20"/>
</svg>
