<?xml version="1.0" encoding="utf-8"?>
<!-- Generator: Adobe Illustrator 16.0.0, SVG Export Plug-In . SVG Version: 6.00 Build 0)  -->
<!DOCTYPE svg PUBLIC "-//W3C//DTD SVG 1.1//EN" "http://www.w3.org/Graphics/SVG/1.1/DTD/svg11.dtd">
<svg version="1.1" id="Layer_1" xmlns="http://www.w3.org/2000/svg" xmlns:xlink="http://www.w3.org/1999/xlink" x="0px" y="0px"
	 width="759.1px" height="474.9px" viewBox="0 0 759.1 474.9" style="enable-background:new 0 0 759.1 474.9;" xml:space="preserve"
	>
<style type="text/css">
<![CDATA[
	.st0{fill-rule:evenodd;clip-rule:evenodd;fill:#231F20;}
]]>
</style>
<g>
	<path class="st0" d="M622.6,362.2c-0.1,0.1-0.4,0.2-0.4,0.4c-0.9,9.4-4.6,17.8-8.7,26.1c-1.4,2.8-3,5.7-5.2,7.9
		c-11.3,11.9-24,22.3-37.8,31.3c-10.9,7.1-23.2,11.7-35.8,14.5c-13.9,3.1-28.2,4.6-42.5,3.4c-27.6-2.3-51-12.9-68.5-35.1
		c-1.3-1.6-2.6-3.2-4.3-5.2c-3.4,4-6.4,7.6-9.4,11.2c-1,1.2-1.9,2.6-3.1,3.6c-7,5.7-13.8,11.5-21.1,16.7c-7.1,5-14.8,9.2-22.1,13.9
		c-8.3,5.3-17.4,9-26.3,12.9c-2.9,1.3-5.9,2.4-8.8,3.7c-9.6,4.2-19.8,6-30.1,6.5c-10.8,0.6-21.6,1.3-32.5,0.6
		c-13-0.8-25.9-2.3-38.3-5.8c-17.1-4.8-33.4-11.7-48-22.1c-5.7-4-10.4-9-14.9-14.2c-4-4.6-7.5-9.5-11.5-14.6
		c-3.5,2.4-7.3,4.8-10.8,7.5c-3,2.3-6.3,3.7-9.9,4.8c-21,6.9-41.2,4.5-60.6-5.7c-5-2.6-9.1-6.3-11.6-11.5c-0.8-1.7-1.8-3.3-3-4.7
		c-7.8-8.5-10.8-19.3-13.8-30c-2-7.2-2.5-14.6-0.4-21.9c0.5-2,0.5-4.1,0.8-6.4c-1.2-0.5-2.2-0.9-3.1-1.1
		c-16.3-3.8-27.8-13.3-34.3-28.9c-5.3-12.9-7.6-26.2-6.6-40.2c0.6-9.4,3-18,6.7-26.6c3.6-8.5,9-15.2,15.8-21.3
		c6.4-5.7,13.7-9.7,21-13.8c0.1-1,0.4-1.8,0.3-2.6c-2.6-11.5-2.7-23.1-1.4-34.7c0.4-3.7,1.1-7.3,1.8-10.9c1.2-6.1,3.8-11.3,8.3-15.9
		c4.7-4.6,7.7-10.7,12.9-15c11.8-9.8,24.6-17.4,40.1-19.4c6.6-0.8,13.2-0.2,19.5,2.1c2,0.7,4,1,6.5,1.6c1.6-5.9,3-11.5,4.6-17
		c3.7-12.6,6.9-25.3,13.3-37.1c4.4-8.1,8.2-16.5,13-24.4c3.5-5.7,7.6-10.8,12.7-15c10.1-8.2,21.4-14.6,33.6-19.1
		c10.6-3.9,21.6-6.9,33-7.9c2.1-0.2,4.2-0.5,6.3-1c10.7-2.5,21.5-2.3,32.3-1.2c8.8,0.9,16.9,4.2,24.6,8.3c3.7,1.9,7.2,4.3,10.9,6.5
		c6.1,3.6,12.2,7.5,18.5,10.8c12.6,6.4,21.1,16.7,27.4,28.9c2.3,4.3,2.8,9.5,4.1,14.3c0.2,0.7,0.4,1.4,0.6,2
		c1.8,0.5,2.6-0.7,3.5-1.6c8.6-8.5,17.2-17.1,26-25.5c5.3-5.2,11.4-9.3,18.2-12.5c4.8-2.2,9.3-5,13.9-7.7c5.6-3.2,11.5-5.2,18-5.4
		c1.6,0,3.2,0,4.7-0.3c25.2-5.2,50.5-3.9,75.8-1.2c8.3,0.9,16.5,3.5,24.2,7.2c3.8,1.8,7.8,3.3,11.6,5.2c2.8,1.4,5.7,2.8,8.2,4.7
		c9.3,7,19.2,13.1,27.1,21.8c6.9,4,11,10.5,15.3,16.8c1,1.5,2.2,3,3.3,4.4c10.1,12.1,14.9,26.5,18.7,41.5c1.5,6.1,2.7,12.4,3.9,18.6
		c1.6,7.9,1.9,15.7-0.4,23.6c-0.2,0.7-0.1,1.5-0.2,2.7c1.6,0.3,3,0.8,4.5,0.8c12.3-0.3,24.2,2.4,36,5.3c7,1.7,12.8,6.1,18.9,9.6
		c1.4,0.8,2.6,1.9,4,2.6c9.7,4.9,16.6,12.8,23.5,20.9c2.6,3,5,6.1,7.5,9.2c9.1,11.1,17,23,20.7,37.1c2.3,8.4,3.6,17.1,5.3,25.6
		c-1.1,12.8,0.8,25.9-3.2,38.5c-1.5,4.9-3.8,9.4-7.1,13.1c-8.7,9.6-17.6,19-26.5,28.4c-13.3,14.1-29.8,20.4-48.9,21
		c-2.9,0.1-5.8,0-8.7,0.1c-7.8,0.3-15.3-1.6-22.4-4.5c-6.3-2.6-12.9-4.8-18.2-9.5C623.8,362,623.1,362.2,622.6,362.2z M211,32.1
		c-0.1,0.4-0.3,0.8-0.3,1.2c0,0.2,0.3,0.5,0.5,0.7c0.1-0.2,0.3-0.5,0.2-0.6C211.3,33,211.1,32.6,211,32.1c0.4,0.2,0.8,0.4,1.2,0.4
		c0.2,0,0.5-0.3,0.8-0.4c-0.2,0.1-0.5,0.2-0.7,0.2C211.9,32.2,211.4,32.1,211,32.1z M515.3,56.9c-0.2-0.4-0.4-0.9-0.7-1.1
		c-0.2-0.1-0.7,0.3-1.1,0.5c0.2,0.1,0.4,0.3,0.6,0.3c0.5,0.1,0.9,0.1,1.4,0.1c1.1,1.8,2.6,1.3,4.1,0.6c-0.2,0.8-0.3,1.5-0.5,2.3
		c0.8,0.4,1.4,0.8,2.1,1.2c3.9,2.1,7.9,4.1,11.7,6.5c1.2,0.8,2.4,2.2,0.5,3.9c-3.5-0.1-6.4-1.7-9.2-3.8c-1.2-0.5-2.4-0.9-3.7-1.4
		c-1.4-0.3-2.9-0.5-4.3-0.8c-0.3-0.5-0.7-1.5-1-1.5c-1.4,0-2.8,0.3-4.2,0.6c0.9-2.1-0.7-2.8-2-3.5c-8.1-4.5-17-6.3-26.1-7.6
		c-0.2,0.1-0.4,0.3-0.6,0.3c-0.2,0-0.4-0.1-0.5-0.1c0.4,0,0.8-0.1,1.2-0.1c0,0.3-0.1,0.6,0,0.8c2.6,3.1,7.8,2.7,9.3,7.3
		c0.1,0.5,1.4,0.7,2.1,0.8c2,0.3,4.1,0.4,6.1,0.7c3.6,0.4,7.1,0.9,10.8,1.3c1.8,0.3,3.5,0.6,5.3,0.9c1.2,1.3,2.7,1.3,4.3,0.8
		c0.9,1.1,2.2,1.3,3.4,1.6c-0.9,1.4-0.4,2.6,0.8,3.2c2.2,1,2.8,2.8,3.2,4.8l0.2-0.2c-1.3,0.2-2.6,0.8-3.7,0.5
		c-2.3-0.6-4.5-1.6-6.6-2.7c-4.8-2.5-9.9-3.7-15.2-4.2c-12.9-1.3-25.8-1.5-38.8-0.3c-1.3,0.1-2.7,0.5-3.9,0.2
		c-0.7-0.2-1.2-1.4-2-2.5c7.1-3.9,14.8-2.8,22-5.3c-6.2-3.4-12.2-2.9-18.2-1.4c-6.6,1.7-13.1,3.9-19.7,5.7
		c-13.7,3.7-25.8,10.3-36.6,19.7c-3.9,3.4-8.2,6.5-12.5,9.6c-7.7,5.4-16.6,8.1-24.5,12.9c-1.1,0.7-2.9,0.3-4.3,0.4
		c-0.6-2.6,0.4-4.2,2-5.2c2.4-1.5,4.9-3.2,7.7-4c10.3-3.3,18.9-9.1,26.7-16.4c3.1-2.9,6.3-5.7,9.9-7.9c10-6.4,20.7-11.6,32.3-14.7
		c4.3-1.1,8.5-2.8,13.1-2.9c1.3,0,3.3-0.5,3-2.7c-0.2-0.2-0.4-0.5-0.6-0.4c-8.1,0.9-16.3-0.1-24.2,2.7c-1.7,0.6-3.7,1.2-5.4,1
		c-1.9-0.2-3.7-1.4-5.8-2.2c-8.4,3.7-15.7,9.3-23.1,14.9c-6,4.5-11.4,9.3-14.6,16.3c-0.2,0.4-0.9,0.6-1.3,0.9
		c-1.5-0.3-3-0.7-4.7-1.1c-2.5,2.8-4.8,5.6-7.4,8.3c-1.2,1.3-2.6,2.7-4.2,3.3c-2.2,0.7-3.5,2-4.8,3.8c-5.7,8.3-13.7,12.1-23.8,11.5
		c-1.1-0.1-2.1,0-3.2-0.1c-5.8-0.8-11.5-1.9-15-7.4c-0.5-0.8-1.6-1.2-2.5-1.7l0.3,0.2c-0.7-3.1-1.3-6.1-2-9.1c2-1.7,3.8-2.5,6-1.2
		c0.9,0.5,1.8,1.1,2.6,1.8c2.4,2.5,5,2.4,7.9,1.1c2.7-1.2,5-2.6,7.3-4.6c3.9-3.6,6.1-7.7,6.3-13.3c4,1.2,5,3.8,4.5,6.8
		c-0.4,2.3-1.6,4.4-2.6,6.5c-0.8,1.5-2,2.8-3.5,4.8c1.6-0.2,2.5,0,2.9-0.4c4.9-4.3,8.3-14.9,6.3-20.9c-1.1-3.2-2.5-6.2-2.3-9.8
		c0.1-0.9-0.8-2-1.5-2.7c-1.4-1.5-3.1-2.7-5.3-4.6c0.3,7.4,2.3,14.2-0.7,21c-1.1,0.1-2.3,0.1-3.8,0.2c-0.8-4.3-1.5-8.1-2.2-12
		c-0.7-4.2-1.7-8.3-4.4-11.7c-3.1-3.9-6.3-7.8-9.7-11.5c-1.4-1.5-3.4-2.4-5.1-3.5l0.2,0.2c-1.7-1.6-3.2-3.5-5.2-4.7
		c-6.7-4.2-13.5-8.3-20.4-12c-3.4-1.8-6.2-3.8-7.4-7.9c-5-0.4-9.7-2.8-14.8-1.6c-1.2,3.5-1.3,3.7-4,3.2c-3.3-0.7-6.6-0.8-10.3,0.1
		c14.9,4.4,23,8.8,26.7,14.5c-3.9,0.7-3.8,0.5-6.5-0.8c-5.8-2.6-11.6-5.1-17.6-7.1c-2.7-0.9-5.7-0.7-8.6-0.7c-4.2,0-4.2,0.2-8.7,2.8
		c3,0.7,5.5,1.4,8.1,1.8c4.2,0.7,8.4,1.3,12.6,1.8c5.4,0.6,10,3.1,14.6,5.7c0.5,0.3,0.7,1.5,0.5,2.1c-0.2,0.6-1,1.4-1.6,1.4
		c-1.5,0-3.1-0.2-4.7-0.5c-4.4-0.8-8.8-1.7-13.2-2.5c-3.9-0.7-7.8-1.1-11.7-1.9c-11-2.4-21.5-1.1-31.7,3.5c-6.5,2.9-12.9,6-19.3,9.1
		c-0.2,0.1-0.5,0.3-0.7,0.3c-1.2-0.1-3,0.2-3.6-0.4c-1.1-1.1,0-2.4,1.1-3.3c1.6-1.3,3.4-2.5,5.4-3.9c-1-4.2,1.5-7,4.6-9.1
		c6.9-4.6,14.5-7.7,22.8-8.2c5.1-0.3,9.9-1,14.8-2.5c2.6-0.8,5.3-1.3,7.4-1.8c-3.5-3-7.9-2.9-12.3-1.8c-6.4,1.6-12.9,2.9-19.2,4.9
		c-7.2,2.4-14.6,4.7-20.7,9.6c-2.3,1.8-4.8,3.3-3.3,7c0.3,0.6-0.6,2-1.3,2.7c-2.4,2.5-4.9,4.8-7.3,7.2c-1.4,1.5-2.7,3.1-4.1,4.6
		c-0.5,0.5-1,0.9-1.5,1.4c-1.6-0.2-3.2-0.3-4.3,1.2c-1.7,2.3-3.6,4.5-5,7.1c-2.7,4.8-5.2,9.7-7.6,14.7c-1.1,2.3-2.8,4.5-2.2,7.4
		l0.2-0.4c-1.8,1.3-1.7,3.3-1.8,5.2l0.2-0.3c-0.7,0.7-1.7,1.3-2,2.1c-3.1,12.5-5.7,25.1-9.7,37.4c-1.2,3.5-0.8,7.3-0.2,11
		c0.3,1.7-0.1,3.5-0.2,5.1c-3.6,0.9-5.8,0.4-8.2-2.1c-4.8-4.9-10.9-7.2-17.8-7.3c-5.8-0.2-11.3,0.8-18.6,2.8c4.9,0.2,8,0.3,11.1,0.6
		c0.6,0.1,1.5,1,1.5,1.5c-0.1,0.9-0.6,2-1.2,2.6c-0.5,0.5-1.5,0.5-2.2,0.6c-4.7,0.5-9.4,0.8-14.1,1.3c-1.3,0.1-2.6,0.3-3.8,0.8
		c-0.3,0.1-0.3,1.3-0.5,1.9c-3.3-1.4-6.3-1.4-10.3,1.8c4.3-0.8,7.3-1.3,10.2-1.9c1-0.2,2-0.6,3.1-0.7c7.4-0.1,14.8-0.3,22.2-0.2
		c4.9,0.1,9.1,2.5,13.3,4.8c1,0.6,1.1,2.2,0.3,2.6c-0.6,0.3-1.7,0.6-2.1,0.3c-1.9-1.3-3.7-2.8-5.7-4.4c-4.2,2.3-8.7,2-13.1,2.1
		c-4.5,0.1-9,0-13.4,0.4c-9.9,0.9-18.9,4.8-27,10.3c-2.1,1.4-5.3,0.6-6.3,4c-0.7,2.5-2.5,4.7-3.1,7.3c-1,4.3-1.6,8.8-2.2,13.2
		c-0.1,0.9-0.2,2.2,1.3,2c2.2-3.7,4.3-7.4,6.5-11c0.7-1.1,1.9-1.9,3.4-0.2c-0.3,0.8-0.6,1.8-0.9,2.7c-4.6,13.4-6.3,26.7,0.2,40
		c0.8,1.6,0.7,3.5,0.9,5c-2.2,2.5-4,4.7-6.1,7.1c-1.5-0.8-2.8-1.7-4.2-2.2c-4.4-1.6-9-3.5-13.7-1.5c-3.1,1.4-6.1,3.2-9,5
		c-2.7,1.7-6.1,6.1-8.4,10.3c1.9-1.4,2.9-2,3.8-2.8c3.7-3.3,8.1-4.9,12.8-5.8c2.2-0.4,4.2-0.1,6.1,1.1c0.9,0.6,0.9,3,0,3.5
		c-0.9,0.5-1.9,1.1-2.9,1.1c-6.2,0.4-11.1,2.8-14.8,8c-2.1,3-5.2,4.5-8.9,2.2c-0.3-0.2-1.3,0.6-1.8,1.1c-0.2,0.2-0.1,1.2,0.1,1.3
		c3,2,2.9,4.7,2.3,7.8c-0.8,4.2-1.1,8.4-2.1,12.5c-2,8.2-2.2,16.2,0.9,24.1c0.8,1.9,1.5,3.9,2,5.9c0.2,0.9,0.1,2.6-0.4,2.8
		c-1,0.5-2.5,0.6-3.6,0.1c-1.1-0.5-2.1-1.6-2.9-2.6c-2.7-3.4-4.2-7.3-4.1-11.7c0.1-7.3,0.3-14.6,0.5-22.8
		c-3.2,7.1-4.1,13.6-2.8,20.5c0.4,1.8,1,3.6,1.1,5.4c0.5,12.2,6.7,22,13.8,31.3c0.1,0.2,0.5,0.1,0.8,0.2l-0.3-0.3
		c5,8.1,13,11,21.7,12.6c3.1,0.6,6.2,1.3,9.1,2.3c1.5,0.5,2.4,2.2,1.7,3.9c-0.8,2-1.6,3.9-2.7,5.7c-2.7,4.1-3.5,8.7-3.8,14.4
		c1.6-1.8,2.4-3.1,3.5-4c0.9-0.7,2.1-0.9,3.5-1.5c0.4,4.3,0.5,8,1.2,11.6c2,10.8,7,20.4,12,30c2.8,5.4,7.3,9,12.6,11.6
		c3.7,1.8,7.6,3.1,12.1,3.6c-2.1-3.4-5.1-4.6-7.9-6c-7.5-3.8-13.5-9.2-17.2-16.9c-1.2-2.6-2-5.4-3.3-8c-2.7-5.1-2.8-10.7-2.8-16.2
		c0-2.2,1-2.8,4.6-2.6c0.5,1.7,1,3.4,1.5,5.2c1.5,4.8,3.6,9.3,6.8,13.2c4.3,5.3,9.1,10.3,13.4,15.6c2.3,2.8,5,4.4,8.7,5
		c2.8,0.4,6,0.3,8.1,2.7c1.5,1.7,3.1,1.7,5,1.2c2-0.6,4.1-1,6.1-1.8c2.8-1.1,5.1-0.4,7.2,1.6c-0.2,1.2-0.4,2.4-0.7,4.3
		c7.2-3.4,14.7-5.1,20.5-10.5c-0.6-2.3-1.2-4.4-1.6-6.4c-0.7-3.7-0.5-7.4,1.1-10.9c0.6-1.3,1.2-2.5,2.7-2.5c1.8,0,2.9,1.2,3.4,2.8
		c0.8,2.8,1.4,5.6,2.2,8.4c1.3,4.7,3.9,8.8,7.5,13.3c0.5-3.6-1.2-5.5-2-7.6c-2.3-5.6-2.4-11.1,0.2-17.3c1.1,0.9,2.2,1.4,2.5,2.2
		c0.8,2,1.2,4,1.8,6.1c3.7,13,10.1,24.4,21.2,32.6c3.8,2.8,7.8,5.4,11.7,8.1c0.8,0.6,1.7,1.3,0.6,2.7c-3.2,0.6-6-0.8-8.8-2.3
		c-2.1-1.1-4.1-2.4-6.2-3.5c-0.7-0.4-1.7-0.4-3.3-0.7c2.6,3.6,4.9,5.7,8.7,6.5c2.6,0.5,4.8,3,7.2,4.7c0.9,4.7,4.9,5.7,8.4,7.5
		c5.9,3,12.2,4.9,18.7,6.4c2.4,0.6,4.9,0.9,7.4,1.4c-1.5-1.9-3.2-3-5.1-3.9c-4.3-2-8.6-4-12.9-5.9c-0.7-0.3-1.6-0.6-2.1-1.2
		c-0.6-0.7-1.1-1.7-1.2-2.6c0-0.5,0.9-1.4,1.6-1.6c3.5-1.2,6.7,0.1,9.9,1.6c10.5,5.1,20.8,10.5,32.2,13.2c1,0.2,1.9,0.9,2.7,1.3
		c0.1,1.3,0.2,2.5,0.3,3.6c8.7,1.8,17.3,2.6,25.8,2.3c0.3-0.5,0.6-0.7,0.6-0.9c0.2-2.2-0.7-3.4-3-3.8c-3.9-0.6-7.8-1.3-11.6-2.2
		c-2.1-0.5-3.6-2.1-4-4.4c-0.4-2,1.2-3.9,3.1-3.5c0.8,0.2,1.5,0.5,2.3,0.7c14,3.5,28,5.5,42,0.2c1-0.4,2.1-0.5,3.1-0.7
		c5-0.9,9.6-2.8,13.9-5.5c7-4.3,14.5-7.4,22.6-9c4.4-0.9,8.7-2.2,12.2-5.4c0.8-0.8,1.8-0.9,2.7,0c0,0.3,0.1,0.5,0.1,0.8
		c-0.1,0.5-0.3,1-0.6,1.4c-3.7,5.4-9.4,7.8-15.3,9c-6.9,1.4-12.9,4.3-18.7,8.1c-4.5,2.9-9.3,5-14.5,6c-2.2,0.4-4.3,1.4-6.6,2.1
		c2,3.6,2.4,3.9,4.8,3.3c9.4-2.5,18.9-5.2,27.7-9.6c11.6-5.8,22.8-12.2,34-18.7c6-3.4,10.5-8.7,16.3-14c-5.1,0.7-7.8,5.2-12.4,4
		c-0.6-3.3,1.5-4.7,3.4-6c3.7-2.6,7.6-4.5,12.5-3.6c5.9-6.6,10.4-13.9,13.1-22.4c0.7-2.2,1.4-4.3,0.3-6.9c-1.3-3.1-0.8-6.1,2-8.6
		c0.9-0.8,1.4-2.2,1.6-3.5c1.2-9.6-1.6-17.7-8.8-24.2c-4.6-4.2-10-5.8-16-5.3c-4.5,0.4-8.7,1.7-11.7,5.6c-1.2,1.6-3,2.9-4.8,4
		c-2.4,1.5-5.3-0.1-5.8-3.1c-0.4-1.9,0-3.6,1-5.3c2.8-4.9,6-9.5,11.6-11.4c6.8-2.3,13.6-4.8,20.5,0c0.4,0.3,1,0.4,1.5,0.5
		c7.7,1.8,14,6,19.6,11.5c0.1,0.3,0.2,0.5,0.4,0.8c5.3,6.8,7,14.6,6.3,22.9c-0.5,5.2-1.3,10.4-2.1,15.6c-0.7,4.1-2.1,8.2-1.6,12.4
		c3.3,2.3,6.5,4.4,10.2,7c0.7-3.1,1.2-5.6-0.6-7.9c-0.5-0.6-1.2-1.2-1.3-1.9c-0.2-0.9-0.1-2.3,0.4-2.8c0.6-0.5,2.1-0.6,2.8-0.2
		c2.5,1.5,4.8,3.2,7.2,4.8c4.8,3.2,9.7,6.1,15.2,8l-0.3-0.3c1,1.1,1.9,2.4,3.2,3.1c3.8,2.3,7.7,4.4,11.6,6.7
		c0.7,0.4,1.1,1.4,1.8,2.5c-1.4,0.2-2.3,0.7-2.9,0.4c-7.6-3.9-16.2-6-21.6-12.1c-2.6,0.2-4.4,0.3-6.2,0.5c-0.6-0.4-1.2-0.7-1.8-1.1
		c-0.1-0.1-0.4,0.1-0.6,0.2c0.2,0.3,0.4,0.9,0.6,0.9c0.6,0,1.3-0.2,2-0.3c0.2,1,0,2.3,0.5,2.8c1.3,1.2,2.9,2.3,4.5,3
		c8.9,4,17.8,7.9,26.7,11.8c0.7,0.3,1.5,0.4,2.3,0.5c3.9,0.8,7.8,1.2,11.6-0.4c2.2-0.9,4.5-1.3,7,1.6c-5.1,3.1-11.1,3-16.3,6.1
		c5.4,2,10.3,2.7,15.3,1.9c1.7-5.2,2.9-6.6,6.2-5.5c6.3,2,11.9,0,17.7-2.1c7.4-2.8,14.8-5.4,22.9-5.9c5.4-0.3,10.9-0.8,16.5-1.2
		c0.4,5.1-5,6-6.3,10.2c4.3-0.8,7.5-2.8,10.3-5.7c2.4-2.4,5-4.7,7.4-7.1c0.4-0.3,0.5-0.9,0.8-1.3c-0.3-1.2-0.6-2.5-0.8-3.4
		c3-4.1,6.2-7.1,10.2-9.3c5.4-3.1,9.7-7.4,11.5-13.5c1.7-5.7,4.2-10.8,7.9-15.3c0.7-0.8,1.3-1.7,1.7-2.7c1.1-2.8,0.9-5.4-1.1-8.3
		c-3.6,5.8-4.2,12.5-8.5,17.1c-3.4-0.6-3.6-2.7-2.9-4.9c2.1-6.8,4.7-13.3,10-18.5c1,0.5,1.9,0.9,3.1,1.4c2.5-8.6,2.3-17.2,1-25.9
		c-0.3-1.8-0.8-3.6-0.9-5.4c-0.1-1.8,1.1-3.2,2.7-3.3c1.1-0.1,2.7,0.7,3.2,1.5c1,1.8,1.7,3.9,2,5.9c0.8,5.7,1.1,11.5,0.6,17.3
		c-0.2,1.8-0.9,3.5-1.4,5.2c0.7,3.3-1.7,6.8,0.4,11.4c1.2-4.7,0.5-8.1-0.4-11.4c0.7-0.2,1.8-0.2,2.1-0.7c0.8-1.3,1.3-2.9,1.9-4.3
		c0.7-1.9,1.9-3,4.1-3.1c1,0,2-0.6,3.4-1c-0.9-2.1-1.5-4.2-2.5-5.9c-1.5-2.4-1.5-5-1.2-7.6c0.2-1.7,0.7-3.2,2.5-3.6
		c1.9-0.5,2.9,1,3.5,2.4c0.6,1.4,1,3,1.5,4.5c1.3,3.7,2.6,7.6,5.8,10.1c4.3,3.4,8.7,6.9,13.4,9.7c2.8,1.7,6.3,2.4,9.4,3.5
		c0.8-1.5,1.4-2.6,2.1-4c5.4,0.8,10.5,2,15.5,1.1c0.8-1.5,1.1-3.1,2-3.7c4.8-3.2,9.8-6.1,14.7-9.1c4.9,0,7.9-3.4,11.3-6
		c1.1-0.5,2.3-1.1,3.4-1.7c3-1,5.9-2,8.9-2.9c2.1-0.6,3.6-0.1,3.9,1.4c0.4,1.4,0,2.6-1.3,3.4c-2,1.3-4,2.6-6,3.8
		c-3.7,2-7.6,3.7-11.1,6c-2.7,1.8-4.8,1.3-6.8-0.3c-4.7,3-9.2,5.9-14.2,9.1c4.3,0.6,7.6-0.4,11-1.1c1.6-0.4,3.2,0.1,3.6,2.6
		c-6,5.3-14.1,4.1-21.9,5.9c3.3,2.7,6.7,2.8,10.1,2.4c7.4-0.9,14.4-3.2,20.5-7.5c0.7-0.5,0.8-1.7,1.2-2.5c0.8,0.7,1.5,0.9,2.2-0.1
		c0.1-0.1-0.2-0.5-0.3-0.5c-0.6,0.2-1.2,0.5-1.8,0.8c-3.3,0.3-6.9,2-9.4-1.8c0.4-2.4,1.9-3.6,4.2-4c8-1.4,15.1-4.5,21-10.2
		c1.3-1.3,3-2.2,4.4-3.4c1.4-1.2,2.8-2.4,3.9-3.9c7.1-9.8,12-20.5,12.5-32.8c0.1-3.4,1.3-6.7,1.7-10.1c0.4-2.8,3.2-2.2,4.6-3.5
		c0.8-3.1-0.5-5.8-1.8-8.3c-1.3-0.3-2.5-0.6-4-0.9c-1.8-10.3-5.7-19.8-9.4-29.3c-0.7-1.7-1.3-3.5-1.8-5.3c-0.2-0.9-0.3-2.4,0.2-3
		c2.3-2.6,1.3-4.8-0.3-7.1c-1.6-2.4-3.1-5-4.9-7.2c-6.3-7.9-13.7-14.7-21.1-21.3c-2.3-2-4.6-4.3-8.2-4.6c1.6,4.7,4.9,7.7,8.2,10.6
		c6.9,6.3,12.6,13.5,16.2,22.2c0.3,0.8,0,1.9,0,2.9c-1.1-0.1-1.7,0.1-2.1-0.1c-0.9-0.5-1.8-1.2-2.4-2c-1.6-2.1-2.9-4.5-4.7-6.4
		c-7.2-7.4-14.5-14.6-21.7-21.8c-0.4-0.4-0.8-0.7-1.3-0.9c-6.6-3-12.3-8.4-20.2-8.6c-1,0-2.1-0.4-3-0.8c-4.1-1.9-8.4-3-13-3
		c-2,0-3.9-1-5.7-1.6c-0.2-1.9-0.3-3.1-0.4-4.7c-4.3,0-8.5,0.3-12.7-0.1c-4.1-0.3-8.1,2.1-12.9,0.6c0.6-2,1.1-3.7,1.7-5.3
		c1-2.4,2.6-4.7,3.1-7.3c2.3-12.1,3.1-24.2-1.1-36c-2.2-6.2-4.5-12.4-7.1-18.5c-2-4.9-4.2-9.7-6.9-14.2c-2.7-4.5-6.2-8.5-9.3-12.8
		c-0.3-0.3-0.2-0.9-0.3-1.4c0.9-0.9,1.7-1.8,3-3.2c-1.2-0.6-2.4-1.5-2.9-1.3c-1.9,1-3.5,0.4-5.2-0.2c-0.8-0.3-2,0.3-2.9,0.4
		c0.2-0.8,0.4-1.7,0.6-2.5c0-0.1-0.3-0.3-0.5-0.5c-0.2,0.3-0.5,0.6-0.5,0.9c0.1,0.7,0.3,1.4,0.5,2.1c3.5,1.8,4.6,5.6,7.1,8.3
		c3.1,3.3,5.2,7.2,6.9,11.4c3.5,8.8,7,17.7,11.3,26.1c6.8,13.4,4.9,26.6,0.7,40c-0.3,1-1,1.9-1.6,2.7c-1.7,2.4-4.4,2.3-5.5-0.4
		c-0.7-1.9-1.6-3.4-3-4.9c-1.3,3.2-2,6.1-3.5,8.6c-2.1,3.6-4.7,7-7.3,10.2c-0.7,0.9-2.3,1.4-3.1-0.3c1.3-3.2,2.4-6.5,4-9.5
		c3.6-7.1,3.4-14.2,0.3-21.4c-0.9-2.2-1.8-4.4-2.3-6.7c-0.2-1.1,0.4-2.6,1.1-3.5c1-1.1,2.4-0.6,3.5,0.3c0.4,0.3,0.9,0.3,1.8,0.6
		c-0.3-1.7-0.4-3.3-0.8-4.7c-2.1-6.9-5.7-13-9.2-19.2c-3.4-6-6.8-11.9-10.1-18c-0.8-1.5-0.8-3.1,1.4-3.7c2.7,0.9,4,3.3,5.4,5.5
		c3.9,6.3,7.6,12.6,11.5,18.9c3.7,6.1,6.7,12.5,8.3,19.6c1,4.6,2.1,9.2,3.3,13.8c0.2,1,0.6,2.1,2.6,1.5c0.6-4.5,0.4-9.1-0.1-13.9
		c-0.8-7.2-3.6-13.8-6.3-20.4c-4.5-11.3-9.2-22.5-17.4-31.7c-1.8,1.1-3.5,2.2-4.9,3c-3.5-0.9-5-4.2-9.2-5.1c1.3,2.5,2.1,4.1,2.9,5.7
		c1.1,2.1,0.3,3.5-1.7,4.5c-0.5-0.2-1.2-0.2-1.5-0.6c-3.1-3.6-6.1-7.3-9.1-10.9c-0.3-0.4-0.5-0.9-0.8-1.4c-0.7-1.4,0.1-3,1.7-3.8
		c1.3-0.6,2.9,0.4,4.2-1.3c1.8-2.3,3.2-2.4,5.1-1.2c1.9,1.2,3.7,2.5,5.6,3.8c-0.3-1.9-1.2-3.1-2.3-4c-9.4-7.7-19.6-14.2-30.3-20.1
		c-3-1.7-6-2.9-9.7-2.4c-3.1,0.4-6.3-0.5-9.5-0.8c-0.9-0.2-1.8-0.3-2.7-0.5c0,0.2,0,0.5,0,0.7c0.9-0.1,1.9-0.3,2.8-0.4
		c-0.5,1.2-0.1,2,1.1,2.4c7.6,2.5,14.1,7.2,20.9,11.2c2.5,1.4,4.8,3.3,6.9,5.2c0.9,0.8,1.8,2.1,0.1,3.6c-1-0.4-2.3-0.7-3.4-1.2
		c-11.7-5.3-22.8-12-34.8-16.8C518.2,57.2,516.7,57.1,515.3,56.9z M637,351.5c-0.4,0-0.9-0.1-1.3-0.1c-0.2,0-0.4,0.2-0.6,0.3
		c0.2-0.1,0.5-0.2,0.7-0.2C636.2,351.5,636.6,351.6,637,351.5c0.2,0.3,0.4,0.6,0.5,0.8c-0.2,0-0.4,0-0.6,0.1
		C636.9,352.1,636.9,351.8,637,351.5z M536.4,422.7c-2.7-1.2-5.3-0.3-7.9,0.1c-2.3,0.9-4.6,1.9-6.9,2.8c2.9,0.4,5.8,0.6,6.9-2.8
		c2.6,0.9,5.3,0.9,7.8-0.4c0.2-0.2,0.4-0.3,0.6-0.5c0.2-0.3,1.9-0.3,0.3-1c-0.1,0-0.6,0.6-0.8,1
		C536.2,422.1,536.3,422.4,536.4,422.7z M466.1,422c1.4,3.2,4,3,6.7,2.5c-2.2-1-4-3.3-6.8-2.3c-0.3-0.4-0.5-1.1-0.8-1.2
		c-6.5-1.9-12.5-5-18.3-8.4c-1-0.6-2.3-0.9-4.6-1.8c2.4,3.8,4.8,6,7.6,6.7c3.9,0.9,7.2,2.7,10.9,3.9
		C462.4,422,464.3,421.8,466.1,422z M435.5,43.4c7.7-3.6,16.1-4.8,24.4-5.7c3.6-0.4,7-1,12-2.8c-3.3,0-5-0.4-6.4,0.1
		c-4.4,1.6-8.8,1.2-13.3,1.3c-2.1,0-4.3-0.2-6.3,0.1C441.5,37.1,437.3,38.5,435.5,43.4c-2.2-0.5-2.2-0.5-3.8,0.3
		C433.1,43.6,434.3,43.5,435.5,43.4z M522.1,46.6c0.7,0,1.5,0.1,2.2,0.1c0.2,0,0.5-0.4,0.7-0.6c-0.3,0-0.5-0.1-0.8,0
		C523.4,46.2,522.7,46.4,522.1,46.6c-0.5-0.9-0.9-2.1-1.6-2.4c-9.9-4.3-20.3-5.7-30.9-4.2c-12.2,1.8-24.2,4.3-36.3,6.4
		c6,0.8,12,1.7,17.9,0.4c7.4-1.6,14.6-0.5,21.8,1.7c1.8,0.5,3.5,1.1,5.3,1.4c1,0.2,2.3,0.4,3-0.1c2.6-2.1,5.5-1.1,8.3-1
		c1.1-2.5,2.8-3.8,5.5-3.4C517.4,45.8,519.8,46.2,522.1,46.6z M524.1,37.1c2.7,1.1,5.4,2.1,8,3.2c2.9,1.3,5.7,2.6,8.6,4.1
		c2.6,1.3,5.1,2.8,7.7,4.1c2.6,1.4,5.1,2.7,7.7,4.1c2.5,1.4,5.1,2.7,7.6,4.2c2.7,1.6,5.3,3.4,8,5.1c2.3,1.4,3.9,4.1,8.4,4.2
		c-3.6-3.2-6-5.6-8.6-7.6c-2.9-2.2-6.3-3.9-9.1-6.2c-8.3-6.8-18-10.8-27.6-15.1C531.3,35.7,527.7,36,524.1,37.1z M412.6,50.9
		c5.2-0.8,8.1-1.9,10.8-4.7C418.8,44.7,416,46.5,412.6,50.9z M743.2,289.9c-1,3.2-1.9,5.1-0.3,7.7C744.1,294.9,744,293,743.2,289.9z
		 M600.1,380.2c0.4-0.2,0.8-0.3,1.1-0.6c1-1,0.9-2.3,0-2.1C599.8,377.8,599.4,378.8,600.1,380.2z M583.8,70.4
		c-0.2-0.3-0.4-0.7-0.7-1c-0.1-0.1-0.5,0.1-0.8,0.2c0.3,0.3,0.5,0.7,0.8,0.9C583.2,70.6,583.5,70.4,583.8,70.4z M323.9,32.4
		c0.4,0.2,0.8,0.5,1.2,0.7c0.1-0.4,0.2-0.7,0.3-1.1c-0.5-0.1-0.9-0.1-1.4-0.2C324.1,31.9,324,32.2,323.9,32.4z M628.6,346.7
		l-0.4-0.2l-0.1,0.4L628.6,346.7z M509.6,53.9c-0.4,0.2-0.7,0.3-1.1,0.5c0.2,0.1,0.4,0.4,0.5,0.4c0.4-0.1,0.7-0.3,1.1-0.4
		C509.9,54.2,509.8,54.1,509.6,53.9z M343.2,52c0.1-0.2,0.2-0.4,0.2-0.7c0-0.1-0.3-0.1-0.5-0.2c0,0.2-0.1,0.4-0.1,0.6
		C342.7,51.9,343,51.9,343.2,52z M340,47.7c0.1-0.2,0.1-0.4,0.1-0.6c-0.2,0.1-0.4,0.2-0.6,0.4C339.7,47.6,339.8,47.7,340,47.7z"/>
	<path class="st0" d="M180.2,52.2c1-0.1,2.1-0.2,3.1-0.2c0.5,0,0.9,0.5,1.7,0.9c-0.8,1.3-1.6,2.6-2.4,3.9c-8.3,12.9-16,26-20.1,40.9
		c-1.4,5-2.4,10.2-3.7,15.8c-1.5-0.5-3-1-4.9-1.7c0.2-5.9,1.8-11.2,2.9-16.6c0.5-2.3,0.9-4.6,1.3-6.9l-0.2,0.3
		c2.2-1.2,1.3-3.4,1.8-5.2l-0.2,0.4c0.7-0.7,1.5-1.4,1.9-2.2c3.5-7.4,7.3-14.5,12.4-20.9c1.8-2.2,3.2-4.8,4.8-7.2
		C179.1,53.2,179.7,52.7,180.2,52.2z"/>
	<path class="st0" d="M421.7,341.4c-1.1-5.4-4.3-9.5-8.4-12.9c-3.2-2.7-6.6-5.1-10.3-7.9c0.5-0.9,0.7-2.1,1.4-2.5
		c1-0.6,2.6-1,3.6-0.6c10.2,4.4,17.3,11.5,19.8,22.7c0.1,0.4-0.3,1-0.6,2c-1.6,0-3.4,0-5.1,0C422,342,421.8,341.7,421.7,341.4z"/>
	<path class="st0" d="M204.2,212.9c0.3-1.6,0.9-3,1-4.5c0.3-4,1.5-7.8,3.2-11.4c5.9-13.3,14.4-24.8,26.4-33.1
		c9.1-6.3,18.9-11.7,30.3-12.9c15.1-1.6,29.4,0.3,42.1,9.8c4.9,3.6,9.4,7.6,13.8,11.8c6.3,6,7.6,13.8,7.8,21.8
		c0.1,6.6-0.9,13.2-1.4,19.8c-0.1,1.8-0.3,3.7-0.7,5.5c-0.4,1.8-1.2,3.4-1.8,4.9c-0.5,0.3-0.6,0.6-0.9,0.6c-8.1,2.1-8.1,2-9.6-6.5
		c-2.6,2.4-3.3,5.6-4.9,8.2c-1.7,2.9-4.2,5.4-6.5,7.8c-2,2.1-2.4,6.2-7.1,5.5c0-2.6-0.1-5.1,0-7.7c0.5-7.8-1-15.3-3.6-22.6
		c-1.3-3.7-2.8-7.4-6.5-9.6c-1.1-0.6-1.9-1.8-2.7-2.9c-4-5.4-10.2-7.4-16.1-9.7c-3.4-1.3-6.9,0.3-10,1.5c-3.1,1.2-6,3.2-8.1,6.8
		c2.2,0.3,3.9,0.5,5.6,0.8c4.2,0.7,7.1,3.4,9.4,6.7c0.3,0.5,0.3,1.8-0.1,2.1c-0.7,0.6-1.9,1.4-2.6,1.1c-2-0.7-3.8-1.8-5.7-2.8
		c-3.7-1.9-7.3-1.4-10.3,1.3c-2.6,2.3-4.8,4.9-7.1,7.5c-0.9,1-1.4,2.4-2.4,3.1c-1,0.7-2.5,1.1-3.6,0.8c-1.4-0.4-1.4-2-1.2-3.3
		c0.6-3.3,2.8-5.6,5-7.9c1.6-1.7,3.6-3.1,5.3-4.8c0.7-0.7,1.2-1.7,1.4-2.6c0.8-6.1,5-9.6,9.7-12.7c5.1-3.3,10.6-4.6,16.6-3.6
		c9.3,1.5,16.5,6.2,22.5,13.5c7.1,8.6,10.3,18.3,10.9,29.1c0,0.8,0.2,1.6,0.3,2.3c0,0.1,0.3,0.2,0.5,0.4c2-2.8,4.6-9.2,5.3-12.7
		c1.4-7.1,1.4-14.1-1.6-20.9c-1.2-2.6-2.1-5.4-2.9-8.2c-0.2-0.5,0.4-1.7,0.9-1.9c0.6-0.3,1.7-0.1,2.2,0.3c1,0.8,1.7,2,2.6,2.9
		c1,1.1,2.1,2.2,3.3,3.5c1.7-4,0-6.6-2.2-9c-4.1-4.3-7.7-9.4-15.5-9.8c2.6,3.4,4.8,5.9,6.7,8.6c0.5,0.7,0.5,2.2,0.1,2.9
		c-0.8,1.3-2.2,1.4-3.5,0.6c-1.5-1-3-2.1-4.4-3.4c-2.9-2.7-6.3-4.7-9.9-6.5c-5-2.5-9.9-2.8-15.3-1.7c-5.2,1.1-9.8,3.4-14.5,5.8
		c-0.2-3.7-0.2-3.7,2.9-9.7c-5.8,2.6-10.2,6.2-14.6,10.2c2.4,0.9,4.5,1.7,7.8,3c-3,1.3-4.7,2.3-6.6,2.7c-6.8,1.5-11.1,5.8-13.6,12
		c-2.6,6.3-3.8,13.6-3.4,21.2c-1.7,0.2-3.4,0.3-5.4,0.5c0,2.3,0,4.6,0,6.9c-0.1,5.7-2.3,7.7-8,6.7c-2.3-0.4-5-1.1-6.4-2.7
		c-4.2-4.9-9.4-3.9-14.6-3.3c-2.7,0.3-4.3,1.4-7.8,4.2c5.9,0.4,11.1,2,15.9,4.7c0.7,0.4,1.4,0.7,2.2,0.9c9.7,2.9,13.7,6.2,18.8,15.4
		c-0.2,0.5-0.3,1.1-0.7,1.4c-0.8,0.7-1.7,1.1-3,2c-2.3-1.9-4.5-3.7-6.7-5.5c-1.6-1.3-3.2-2.7-4.8-4.1c-1.3-1.1-2.8-2-4.2-0.8
		c-0.8,0.7-1.2,2.2-1.4,3.3c-0.4,1.7-0.6,3.5-1,5.9c3,5.3,9.2,9.4,10.7,16.3c-1.1,1.8-2.6,2.3-4.1,1.2c-2.7-2.1-5.4-4.3-7.7-6.8
		c-2.6-2.7-4.9-5.5-7.1-8.5c-2.5-3.5-2-5.1,2-7.5c0.4-0.3,1-0.4,1.8-0.7c0.4-2.4,0.8-5,1.2-7.8c-3.5-3-7.7-2.4-12.2-2.4
		c-4.8,5-5.6,10.6-2.6,16.7c1.5,3,3.6,5.8,5.8,8.4c4.2,5,8.7,9.9,12.9,14.6c-0.5,2.2-1.2,3.6-3.2,2.8c-1.4-0.5-2.5-1.5-3.9-2.3
		c-0.5,2.1,2,3.6,0.4,5.4c-1.8,2-4.2,2.1-6.6,1.5c-1.5-0.4-2.9-1.3-4.1-2.3c-1.6-1.3-3.2-2.8-4.6-4.4c-4.2-5.1-8-10.6-12.4-15.5
		c-6.1-6.9-5.9-21.9-0.7-29.9c4.5-6.9,10.6-11.8,17.2-16.1c3.5-2.2,7.8-3.3,12.1-3C197.6,212.5,200.8,212.7,204.2,212.9z
		 M316.4,212.6c-0.1-0.2-0.2-0.4-0.3-0.6c-0.1,0.4-0.3,0.8-0.4,1.2c0,0.2,0.2,0.4,0.3,0.6C316.1,213.4,316.2,213,316.4,212.6z
		 M316.4,198.4c-0.1-0.2-0.1-0.5-0.2-0.7c-0.1,0.3-0.2,0.6-0.3,0.9C316,198.5,316.2,198.5,316.4,198.4z M260.6,167.5
		c0.2-0.1,0.4-0.1,0.6-0.2c-0.2-0.2-0.3-0.4-0.5-0.4c-0.2,0-0.4,0.1-0.6,0.2C260.3,167.2,260.4,167.4,260.6,167.5z"/>
	<path class="st0" d="M549.8,270.6c1.1,0.7,2,1.8,3.2,2c6,1,12,2.1,18,2.7c5,0.4,10,0,14.7-2.2c1.9-0.9,4.1-1.1,6.1-1.8
		c3.2-1.2,6.4-2.4,8.5-5.8c-0.9,0-1.7-0.1-2.5,0c-7,1.3-14,2.7-21,4.1c-4.8,0.9-9.5-0.5-14-1.8c-1.7-0.5-2.3-2-2.2-3.8
		c0.1-1.5,1.7-2.6,3.5-2.5c0.5,0,1.1,0,1.6,0.2c6.5,2.1,13,1.4,19.5-0.4c5.1-1.3,10.4-1.6,15.4-3.7c1.2-0.5,2.5-0.8,3.7-1.4
		c4.4-2.1,8.2-4.5,8.1-10.4c-0.1-3.3,0.9-6.7,4-9c0.7-0.5,0.3-2.5-1.6-3.3c-3.1,4.2-7.1,7.4-11.5,10.3c-2.7,1.8-5.6,3-8.9,2.9
		c-1.4-0.1-2.9-0.6-2.9-2.1c-0.1-1.2,0.6-2.5,1.2-3.6c0.3-0.6,1.3-0.9,2-1.2c1-0.4,2.1-0.4,3-0.9c7-3.6,13.9-7.4,12.2-17.1
		c2.8-1.7,5.3-3.1,7.5-4.5c4.5,0.7,6.9,3.1,7.4,7.3c0.6,5.2,1.2,10.5,1.8,15.7c0.9,7.5-1.8,14.1-6,20c-3.5,4.9-7.4,9.6-11.7,14
		c-7.9,8.1-18.2,11.3-29.2,12.9c-13.8,2-27.4,0.2-40.9-2.1c-7.9-1.3-15.1-4.9-20.7-10.9c-4.8-5.2-9.8-10.4-14.4-15.8
		c-6.3-7.6-11.1-16.1-13.1-25.8c-0.8-4.1-0.6-8.4-0.7-12.6c0-1.2,0.2-2.5,0.3-3.9c-3.6,0-6.7,0.1-9.8,0c-3.2-0.1-6.3-0.5-9.5-0.4
		c-7.4,0.4-13.3-2.7-18.7-7.4c-5.4-4.7-9.9-10.3-13.8-16.3c-3.6-5.5-4.9-11.6-3.5-18.2c2.3-10.5,5.8-20.3,12.9-28.6
		c3.9-4.5,8.4-8,14.1-9.8c0.5-0.2,1-0.4,1.5-0.6c6.7-1.8,9.9-0.4,13.3,6.2c4.2-1.2,8.6-2.3,12.6,0.9c0.3,3-1.4,4.2-3.7,3.9
		c-4.3-0.5-7.7,1.6-10.9,3.8c-3.4,2.3-6,5.2-6.2,9.6c-0.1,1-0.7,1.9-1.2,3.3c-2.1-0.7-4-1.3-5.8-1.9c-7.2,11.5-1.6,24.7,8,30.1
		c4.4,2.5,8.9,4.6,13.5,6.7c2.1,1,4.5,1.6,6.5,2.8c3.9,2.3,7.9,4,12.6,3.5c2.4-0.3,4.5,0.9,5.9,3.1c0.7-0.5,1.4-1,2-1.4
		c1.2-0.8,2.6-1.3,3.5-0.1c0.7,0.9,1.5,2.5,1.2,3.5c-2,6.6-1.2,13.1,0.1,19.6c1.9,9.7,7,17.7,14.7,23.7c7.3,5.7,15,10.8,23.4,14.7
		c1.1,0.5,2.2,1.3,3.3,2c-2.5,2.7-2.5,2.7-6.6,1.4c-0.4,0.1-0.8,0.2-1.3,0.2c-0.2,0-0.3,0-0.5,0c0.2-0.1,0.4-0.3,0.6-0.3
		C549,270.3,549.4,270.5,549.8,270.6z M535.9,266.4c0.3,0.4,0.5,0.9,0.8,1.1c0.3,0.1,0.8-0.1,1.3-0.2c-0.3-0.3-0.5-0.7-0.8-0.7
		c-0.5-0.1-1,0-1.5,0c-1-3.1-4.1-3.8-6.4-5.3c-13-8.8-21-20.5-22.1-36.5c-0.2-2.1-0.4-4.2-0.7-6.3c-0.1-0.6-0.6-1.1-1.1-1.9
		c-1.8,7.7-2,12.3,0.3,17.3c2.7,6,5.6,11.9,9,17.6C519.4,259.6,526.7,264.4,535.9,266.4z M451.3,168.8c-4.6,8.4-1.9,15.8,2.8,22.8
		c3.4,4.9,7.8,8.3,15.5,8C457.1,192.2,450,182.9,451.3,168.8z M452,164.4c2.7-3.1,4-5.6,6-6.8c4.6-2.8,7.3-7.4,11.4-10.7
		c0.6-0.5,1.9-1.1,0.4-3.2C461,147.4,454.7,153.1,452,164.4z M543.1,268.9c-0.2-0.2-0.3-0.5-0.4-0.5c-0.4,0-0.8,0.2-1.2,0.4
		c0.2,0.2,0.3,0.5,0.5,0.5C542.3,269.2,542.7,269,543.1,268.9z M474.8,202.2c0.2,0.1,0.4,0.1,0.6,0.2c-0.1-0.2-0.2-0.4-0.3-0.6
		C474.9,201.9,474.8,202.1,474.8,202.2z"/>
	<path class="st0" d="M315.8,436.9c0.8-0.1,1.6-0.4,2.3-0.2c1.3,0.4,1.5,1.4,0.9,2.5c-0.4,0.7-1,1.3-1.6,1.7
		c-10.5,4.9-21.2,8.1-32.9,5.7c-0.8-0.2-1.6-0.4-2.3-0.7c-0.4-0.2-0.7-0.7-1.3-1.4c3.6-5.4,9.7-2,14.2-4.1c-1.6-1.6-5.9,0.1-5.1-4.9
		c0.9-0.3,2-0.8,3.2-1.1c4.1-0.9,8.3-1.9,12.4-2.4c8.3-0.9,15.7-4.4,23.1-7.8c5.6-2.6,11.3-4.3,17.3-5.1c2.6-0.4,5.1-0.8,7.1-2.7
		c-1-1.2-2-2.3-3.2-3.7c0.9-0.9,1.5-1.8,2.4-2.3c6.9-4.5,13.9-8.7,21.6-11.4c2.3-0.8,4.1-2.1,6.2-3.1c4.1-1.9,7-4.5,8.4-8.9
		c0.2-0.7,0.9-1.3,1.6-1.7c0.6-0.4,1.4-0.5,2.2-0.8c1.5,9.4-2.1,13.7-13.5,16c-4.1,7.1-12.8,7.7-18.2,12.8c0.2,1.6,0.4,3.1,0.5,4.7
		c0.2,0,0.7,0.4,1.1,0.3c3.3-0.9,6.5-2.1,9.3-4.2c1.9-1.4,4.1-2.4,6.2-3.6c1.4-0.8,3-1.8,4.1,0.1c0.9,1.6-0.1,3.1-1.4,4.1
		c-2.8,2.3-5.6,4.9-8.7,6.8c-5.2,3.1-10.7,5.6-16.1,8.5c-2.2,1.2-4.3,2.1-6.8,1.6c-1-0.2-1.9-0.8-2.8-1.3c-0.3-0.2-0.6-1-0.5-1.4
		c0.2-1,0.7-2,1.2-3.3c-2,0-4.2-0.5-5.9,0.1c-8,2.7-16.1,5.2-23.5,9.3c-0.6,0.3-0.7,1.3-1.1,1.9c-4.3-1.9-7.8,0.4-11.5,1.8
		C308.4,439.7,312,437.6,315.8,436.9z"/>
	<path class="st0" d="M238.4,418.5c2.8-0.8,3.8-1.4,4.7-1.2c6.2,1.2,12.6,0.3,18.8,1.3c2.3,0.4,4.7,0.6,7.1,0.6
		c9.2-0.1,18.5-0.3,27.7-0.5c1.7,0,3.8,0.5,4.7-1.8c-12.3-5.6-10.6-5-10.5-8.8c7,3.9,14.9,2.8,22.2,4.3c2.8,0.6,5.7,0,8.5-1.3
		c10.1-4.5,20.4-8.6,30.3-13.4c4-1.9,7.4-4.9,11.9-5.9c1.3-0.3,2.3-2,3.4-3.1c0.9-0.9,1.8-1.7,2.7-2.6c2.8,3.3,3.1,4.5,1.4,6.2
		c-1.5,1.5-3.1,3.1-5,3.7c-4.3,1.4-8,3.7-11.8,6.1c-3.3,2.1-6.9,4-10.5,5.3c-9.8,3.6-18.8,9.8-29.5,10.9c-0.8,0.1-1.8,0.1-2.2,0.6
		c-4.2,4.5-10,5.1-15.3,5.4c-12.6,0.7-25.3,0.9-38,0.5c-5.4-0.2-10.8-2.3-16.1-3.7C241.7,421.1,240.8,420.1,238.4,418.5z"/>
	<path class="st0" d="M721.2,267.5c1.5-1.6,1-3.5,0.6-5.2c-1.3-6.5-3.4-12.7-7.5-18.1c-2.5-3.3-4.7-7-7.1-10.4
		c-1.5-2-3.2-3.8-5.7-6.6c0.4,3.7,1.5,5.8,2.2,8c0.7,2.2,0.9,4.6,1.6,6.9c1.3,4.7,1.2,9.4,0.7,14.2c-0.3,3.2-1.2,6.2-3.7,8.3
		c-2.3-0.3-2.8-1.8-2.3-3.4c2.6-8.8,0.9-17.2-1.9-25.6c-1-3-1.9-6-2.8-9.2c2.2-1.9,2.4-4.6,2.3-7.5c4.7,1,7.1,3.4,9.2,6
		c5,6.1,10.2,12.1,14.9,18.4c3.7,4.9,5.5,10.8,6.6,16.8c0.7,3.6,1,7.3,1.6,11.2c2.2,0.8,5.1,1.3,4.7,4.9c-0.1,0.5,0.2,1.1,0.1,1.6
		c-1.1,11-1.5,22.1-5,32.7c-1,3-2.7,5.1-5.4,6.4c-0.8,0.4-1.9-0.1-3.5-0.2c0.4-1.7,0.6-2.9,1-4c0.9-2.5,2.3-4.8,2.7-7.4
		c1.7-9.6,3-19.2,4.6-29.3c-1.4-0.1-2.9-0.2-4.3-0.3c-2.9-2.1-0.5-6.4-3.6-8.3L721.2,267.5z"/>
	<path class="st0" d="M702.7,328.4c-1.1,0.5-2.2,1.1-3.2,1.6c-3.6-0.3-6.6,1.5-9.7,2.9c-8,3.7-16.3,5.8-25.1,6.4
		c-1.7,0.1-3.6,0.7-5.2,1.5c-7.5,3.7-18.3,2.5-24.5-3c-1.3-1.2-2.4-2.9-2.8-4.6c-0.3-1.3,0.5-2.9,0.9-4.6c-1.8-1.9-3.8-4-5.8-6.1
		c-1-1.1-1-2.3-0.3-3.6c0.9-1.5,2.6-2.2,4.1-1.3c1.8,1.1,3.5,2.3,5.1,3.7c10.6,9.7,22.9,13.8,37.1,10.9c9.9-2,19.1-6.1,27.8-11.1
		c4.9-2.9,8.5-7.1,10.3-12.6c1.3-4,2.5-8,3.8-12.1c0.3-1,0.8-2,1.5-2.7c0.4-0.4,1.5-0.4,2.2-0.3c0.3,0,0.6,0.7,0.9,1.2
		c0.1,0.2,0.1,0.5,0.1,0.8c-1.4,5.9-2.8,11.7-4.3,17.6c-1.1,4.3-4.2,7.2-7.3,10.1C706.4,324.9,704.6,326.7,702.7,328.4z"/>
	<path class="st0" d="M492.1,103.2c4.3-3.2,7.7-2.3,10.9-1.6c5.9,1.3,11.8,2.9,17.6,4.6c3.5,1,6.8,2.5,9.9,4.7
		c5.1,3.7,10.8,6.6,16,10.1c9.2,6.1,16.4,14.1,21.8,23.7c6.7,12,7.5,25,5.2,38.3c-3.3,0-3.9-0.3-4-2.3c-0.4-4.5-0.5-9-1-13.4
		c-0.7-6.3-2.6-12.4-5.1-18.2c-4.3-9.8-12-16.6-20-23.1c-2.6-2.2-5.6-3.9-8.4-5.9c-7.4-5.2-15.1-9.5-24.2-11.2
		C504.8,107.8,499.2,105.4,492.1,103.2z"/>
	<path class="st0" d="M160.3,185.4c3.5-4.6,4.7-8.9,5.8-13.2c2.3-8.4,4.1-16.9,6.6-25.2c3.3-11,10.5-19.4,19.7-26.1
		c1-0.7,2.7-0.5,5.8-1c-3.1,2.7-5,4-6.5,5.7c-6,6.8-11,14.1-13.4,23c-1.6,6.1-3.5,12.2-4.9,18.3c-1.9,8.1-5.2,15.5-9,22.8
		c-1.8,3.6-4.2,6.7-7.4,9.2c-0.7,0.5-1.8,0.4-3,0.7c0.1-4.7,3.5-7.4,5-10.8c-1.4-1.8-2.5-0.4-3.3,0.3c-2.4,1.9-9.1,11.3-10.4,14.7
		c-0.9,2.5-1.9,5-4.2,6.5c-0.7,0.5-2.2,0.7-2.9,0.3c-0.6-0.3-1-2-0.6-2.6c4.8-9.1,8.8-18.6,17-25.4c1.6-1.3,2.1-3,1.4-5
		c-0.5-1.5-0.1-2.9,1.4-3c1,0,2.3,1.1,2.9,2.1c0.6,1.1,0.7,2.5,0.7,3.8C161,181.8,160.7,183,160.3,185.4z"/>
	<path class="st0" d="M225.8,418.5c-10-5.5-19.4-11.4-30.8-15.3c1.7,3.3,4.1,4.8,6.2,6.4c2.5,1.9,5.1,3.8,7.6,5.6
		c2.4,1.7,4.8,3.2,7.1,5c2.2,1.7,5.1,2.8,6.2,6c-4.8,1.4-8.6-0.7-12.1-2.9c-4.5-2.8-8.9-5.7-13.1-8.9c-7.8-5.9-15.1-12.4-20.3-20.8
		c-2.2-3.5-3.5-7.1-2.7-11.2c0.2-0.9,0.9-1.7,1.8-3.3c0.8,1.4,1.3,2.2,1.8,3c1.8,2.9,3.5,5.9,5.3,8.8c1.7,2.8,3.9,4.4,7.4,5.1
		c6.4,1.3,12.7,3.3,18.8,5.6c5.1,2,9.9,4.9,14.8,7.5c2.4,1.2,3.2,3.5,3.5,5.9C227.5,416.1,226.4,417.2,225.8,418.5z"/>
	<path class="st0" d="M551.7,116c-2.5-1.4-3.9-2-5.2-2.9c-9-6.6-19.2-11.1-29.7-14.7c-2.7-0.9-5.6-1.3-8.4-1.9
		c-1.3-0.3-2.7-0.4-3.9-0.9c-6.4-2.7-13.5-2.5-20.1-4.4c-1.4-0.4-3.1-0.1-4.6,0.2c-4.3,1.1-8.6,2.4-12.9,3.8
		c-4.7,1.5-9.3,3.5-14.3,3.2c-0.9-2.1,0.6-2.7,1.6-3.2c4.7-2.3,9.6-4.5,14.4-6.6c0.7-0.3,1.7-0.2,2.3-0.6c6.8-4.5,14.1-3.5,21.4-1.9
		c8.5,1.9,17.1,3.4,25.5,5.9c10.1,3,20.1,6.4,28.6,13.2c2.6,2.1,4.2,4.6,6.1,7.1C552.7,112.8,552,114.1,551.7,116z"/>
	<path class="st0" d="M190.7,67c1,0.1,2.2,0.7,2.9,0.3c6.6-3.3,13.1-6.8,19.7-10c2.8-1.3,5.8-2.2,8.6-3.2c1.3,1.9,1.6,3.4-0.1,4.5
		c-1.5,1.1-3.1,2-4.7,2.8c-8.5,4.7-17.1,9.4-25.5,14.2c-2.3,1.3-4.5,2.8-6.2,4.7c-3.5,4-6.6,8.2-9.8,12.4
		c-4.7,6.3-6.6,13.7-8.5,21.1c-0.3,1.3-0.4,2.7-1,3.8c-0.4,0.7-1.6,1.5-2.4,1.4c-0.8-0.1-2.1-1-2.3-1.7c-0.4-1.5-0.4-3.2-0.1-4.7
		c1.8-10,4.8-19.4,12.3-26.9c2.4-2.4,4.8-4.8,3.8-8.8c-0.3-1.2,1-2.9,1.8-4.3c2.4-4.2,6-7.4,9.7-10.3c1-0.8,2.4-1.3,3.6-0.1
		c1.1,1.1,0.7,2.5,0,3.6c-0.4,0.6-1.3,0.8-1.9,1.2c0.1,0.3,0.3,0.6,0.4,0.9c-0.2,0-0.4,0-0.6,0C190.5,67.7,190.6,67.3,190.7,67z"/>
	<path class="st0" d="M97.1,348.7c-2.9,0.5-4.2,1.2-5.2,0.9c-7.3-2.4-12.7-7.3-16.6-13.9c-4.3-7.2-5.9-15.2-7.6-23.2
		c-2.2-10.6-1.7-21,2.5-31.1c2.8-6.8,4.5-14,8.4-20.4c0.5-0.9,1.1-1.8,1.9-2.4c0.5-0.4,1.5-0.4,2.1-0.2c0.6,0.3,1.4,1.1,1.3,1.7
		c-0.3,2.1-0.5,4.2-1.3,6.1c-3.5,8-5.9,16.3-8.5,24.6c-1.4,4.5-0.2,8.9-0.3,13.3c-0.1,8.9,2.4,17.1,5.9,25.2
		c2.3,5.5,5.6,10.1,10.6,13.5C92.1,344.1,93.8,345.8,97.1,348.7z"/>
	<path class="st0" d="M458.5,400.2c-1.9-2.1-3.7-4.3-5.7-6.4c-2.6-2.7-3-6.1-2.9-9.5c0-0.6,0.9-1.1,1.8-2c0.9,1.2,1.7,2.1,2.5,3.2
		c5.5,7.8,13.2,12,22.3,13.9c10.4,2.1,20.8,3.7,31.4,3.7c1.2,0,2.4,0.3,4.1,0.6c-0.8,1.4-1.4,2.3-1.9,3.1c0.3,0.1,0.7,0.4,1,0.4
		c6.3-1.8,13-2.1,19.1-5.1c1.5-0.7,3.5-1.4,5.7-0.2c-0.3,0.9-0.3,2-0.9,2.6c-1.3,1.3-2.8,2.4-4.3,3.4c-5.9,3.7-12.6,5.4-19.4,6.5
		c-5.5,0.9-6.9-0.3-9.4-6.5c-5-0.5-10.2-1.2-15.4-1.5c-9.3-0.6-18.4-1.9-26.7-6.4c-0.4-0.2-1-0.1-1.5-0.1
		C458.2,399.9,458.5,400.2,458.5,400.2z"/>
	<path class="st0" d="M279.7,346.6c-7.2,5.1-13.7,8.9-21.2,10.9c-4.4,1.2-8.7,1.6-13.2,0.1c-3.2-1.1-6.6-1.7-10-2.4
		c-14.5-3.2-26.7-11-38.8-19.5c0-2.6,0-5.2,0-8.5c1.6,0.8,2.8,1.3,3.7,2c11.4,9.2,23.9,16.1,38.2,20.1c19.1,5.3,18.3,3.8,33.4-2.3
		c1.7-0.7,3.4-1.4,5.2-1.8C277.4,345,278.1,345.7,279.7,346.6z"/>
	<path class="st0" d="M67.4,332.4c2.2,4.5,4,8.6,6.2,12.4c2.2,3.6,4.9,6.9,7.3,10.3c1.2,1.7,2.4,3.5,3.6,5.2c3.5,4.7,6.5,9.6,8,15.3
		c2,7.8,6.7,12.9,14.7,14.8c0.8,0.2,2,1.7,1.9,1.9c-0.6,1-1.5,2.4-2.5,2.5c-6.8,0.8-12.4-1.9-16.5-7.2c-1.7-2.2-2.7-5.1-3.7-7.8
		c-3.6-10.7-9.7-19.9-17.2-28.1c-3.2-3.5-5-7.4-6.2-11.7C62,336.6,63.2,333.9,67.4,332.4z"/>
	<path class="st0" d="M642.4,304.8c1-2.7,2.6-3.3,4.6-2.8c2.3,0.6,4.6,1.3,6.7,2.3c14.4,6.6,33.3,0.7,42-13.8
		c4.3-7.2,8.9-14.4,10.3-22.9c0.1-0.5,0.2-1.1,0.5-1.5c0.8-0.9,1.6-2,2.7-2.5c0.9-0.5,2,1.5,2,3.6c0,5.7-1.9,10.9-4.4,15.9
		c-2.6,5.2-5.1,10.5-8.8,14.9c-6.8,8.1-15.4,13.8-26.3,14.4C661,313.1,658.2,314.7,642.4,304.8z"/>
	<path class="st0" d="M250.5,44.3c-9-0.7-17.1,0.3-25.1,1.9c-5.5,1.1-10.3,3.9-15.4,6.1c-1.9,0.8-3.9,1.7-5.9,2.2
		c-1.8,0.5-3.7,0-5.1-2c0.6-0.8,1-1.9,1.8-2.3c6.1-3.1,12.2-6.3,18.5-8.9c4.4-1.8,9.1-2.6,14-2.4c2.4,0.1,4.7-0.2,7.1-0.3
		c7.3-0.3,14.2,1.2,20.6,4.4c2.7,1.4,5.2,2.2,8.2,2.4c2.9,0.2,5.8,0.7,8.1,2.7c0.4,0.4,0.5,1.4,0.5,2.1c0,0.4-0.5,1-1,1.1
		c-1,0.3-2,0.6-3,0.6c-6.3,0-12.6,0.1-19-0.1c-3.6-0.1-4.3-1.1-4.4-4.9C250.3,46.3,250.4,45.5,250.5,44.3z"/>
	<path class="st0" d="M645.8,200.9c-0.6-2.3,0.3-3.2,1.5-3.9c3.6-2.1,7.2-1.3,10.7,0.2c14.4,6.1,24.8,16.5,32.1,30.2
		c2.5,4.7,4.7,9.4,6.1,14.5c0.6,2,0.9,4.1,1.2,6.2c0.4,2.5-0.9,4-3.7,5c-0.6-0.9-1.4-1.9-1.8-3c-1.2-3.2-2.1-6.5-3.2-9.7
		c-4.4-12.3-12.6-22-22-30.5C661.1,204.7,654,201.5,645.8,200.9z"/>
	<path class="st0" d="M297.1,405.1c-8.1-0.5-18.1-1.2-28.1-1.8c-4.6-0.3-8.8-1.7-12.8-3.8c-0.5-0.3-1-1.3-0.9-1.9
		c0.1-0.6,0.9-1.3,1.5-1.7c0.7-0.3,1.6-0.3,2.3-0.2c6,0.5,12.1,1.3,18.1,1.7c7.1,0.4,14.2,0.5,21.4,0.6c5.3,0.1,10.6-0.2,15.8-0.1
		c4.3,0.1,8.4,0,12.4-1.8c1.7-0.8,3.1-0.2,4.1,1.3c1.1,1.7,0.7,3.7-0.7,5c-1.7,1.5-3.7,2-5.8,2.1
		C315.9,404.6,307.5,404.8,297.1,405.1z"/>
	<path class="st0" d="M517.3,85.4c-2.7,1.7-4.3,1.1-6,0.1c-2.9-1.7-6-3.2-9-4.9c-6.5-3.5-13.7-3.6-20.7-4.6c-1.8-0.3-3.7,0-5.5,0.2
		c-3.7,0.5-7.3,1.3-10.9,1.7c-5.9,0.6-11.2,2.6-16.3,5.5c-2.9,1.7-6.2,3-9.3,4.2c-0.8,0.3-1.9-0.3-2.9-0.5c0.2-0.9,0.2-2.3,0.8-2.7
		c5.3-3.4,10.7-6.7,16.2-9.8c1.6-0.9,3.5-1.4,5.3-1.5c6.4-0.1,12.6-1.4,18.8-2c3.9-0.4,7.8-0.1,11.7,1.2c4,1.2,8.3,1.2,12.4,2.2
		C508.2,76.2,513.4,79.5,517.3,85.4z"/>
	<path class="st0" d="M366.7,256.2c-0.9,2.1-2.6,2.7-4.5,1.6c-4.2-2.3-8.7-3.9-13.4-4.6c-2-0.3-4.2-0.4-6.2,0
		c-8,1.6-16,3.3-23.8,5.8c-7.2,2.4-14.8,3.9-22.2,5.5c-2.3,0.5-4.7,0.5-7.1,0.3c-0.9-0.1-1.7-1.4-2.8-2.4c1.2-0.7,1.9-1.3,2.6-1.4
		c9.5-0.9,18.7-3.6,27.5-6.9c8.5-3.2,17-5.6,25.8-7.1c8.3-1.5,16.2,0.4,22.6,6.6c0.4,0.4,0.7,0.8,1,1.2
		C366.5,255.1,366.6,255.7,366.7,256.2z"/>
	<path class="st0" d="M133.6,223.9c-0.2,3.5-2.7,5.3-4.7,7.2c-5.1,5-6.7,11.3-7.2,17.9c-0.6,7.8,0.8,15.3,3.7,22.5
		c1.7,4.1,3.6,8.2,5.3,12.1c-0.6,1.9-1.5,2.9-3.5,2.3c-2.7-0.8-4.7-2.7-5.7-5.1c-2.6-6-5.8-11.8-6.6-18.5
		c-0.7-6.1-0.3-12.2,0.6-18.1c1.3-9.2,7.2-15.7,15.1-20.2C131.3,223.5,132.5,223.9,133.6,223.9z"/>
	<path class="st0" d="M654.4,286.4c0.9-3.1,2.8-5.7,4.9-7.9c5.2-5.4,6.1-12.2,6-19.1c-0.2-10.1-1.2-20.1-6.9-28.9
		c-0.6-0.9-1-1.9-1.1-3c-0.1-0.7,0.4-1.6,0.9-2c0.5-0.4,1.7-0.7,2.1-0.3c1.7,1.2,3.5,2.5,4.7,4.2c1.8,2.6,3.5,5.4,4.4,8.3
		c3.5,11.6,4.3,23.4,0.5,35c-2,6.2-6,11-11.9,14.1c-0.7,0.3-1.5,0.4-2.3,0.4C655.5,287.3,655,286.8,654.4,286.4z"/>
	<path class="st0" d="M506.4,384.7c0.5-0.7,0.6-1,0.8-1.1c8.6-3.1,17.3-6.2,25.9-9.3c8.7-3.2,16.9-7.5,24.4-12.8
		c4.2-2.9,6.8-7.2,9.1-11.8c1.7-3.4,2.6-7.5,6.2-9.8c1.7,0.6,1.9,1.8,1.7,3.2c-1.6,10.9-7.5,19.1-16.8,24.7
		c-8.3,5.1-17,9.5-26.5,12.1c-5.8,1.6-11.4,4-17.2,6C511,387,510.9,386.9,506.4,384.7z"/>
	<path class="st0" d="M394.3,149.7c-1.1,0.5-2.1,1.4-3.2,1.4c-3.7-0.1-7.4-0.4-11-0.7c-6.2-0.5-12,0.6-17.6,3.5
		c-6.5,3.4-13.6,5.7-20.8,7.2c-5.2,1.1-10,0-14.6-2.2c-1.5-0.7-2.7-2.4-3.8-3.8c-0.4-0.4-0.3-1.6,0.1-2.2c0.4-0.5,1.4-1.1,2-0.9
		c2,0.6,4,1.3,5.9,2.3c2.7,1.5,5.4,1.7,8.4,1.4c6.1-0.5,11.9-2.3,17.4-4.8c3.6-1.6,7.1-3.5,10.8-4.8c8.6-3,17.1-2.7,25.2,1.8
		C393.5,148.1,393.7,148.7,394.3,149.7z"/>
	<path class="st0" d="M110.9,290.7c0.8,1.7,1.8,3.1,2.2,4.8c0.9,3.7,3,6.5,5.6,9.3c9,10,20,17.1,32.1,22.6c1.7,0.8,3.3,1.6,4.9,2.5
		c0.2,0.1,0.3,0.4,0.7,1.2c-1.5,0.5-2.9,1.4-4.2,1.2c-3.4-0.6-6.8-1.2-9.9-2.6c-12.6-5.4-23.6-12.9-31.9-24
		c-0.6-0.8-1.4-1.8-1.4-2.7c0-3.7,0.2-7.3,0.4-11C109.3,291.7,110.1,291.4,110.9,290.7z"/>
	<path class="st0" d="M721.1,267.3c0.9,2.6,0.8,4.9-0.6,7.5c-4.7,9.1-8.9,18.5-13.3,27.8c-0.1,0.2-0.2,0.5-0.3,0.7
		c-8.1,8.5-15.8,17.8-28.7,19.1c-0.4,0-0.8-0.5-1.4-1c2.1-2.9,5.3-4.2,8.2-5.7c3.9-2,6.6-5,9.6-8c5.4-5.6,8.9-12.1,12.2-19.1
		c3-6.4,7.2-12.3,11.1-18.2c0.8-1.2,2.3-1.9,3.5-2.9C721.2,267.5,721.1,267.3,721.1,267.3z"/>
	<path class="st0" d="M585.3,248.4c-1.1,1.2-1.9,2.7-3.1,3.2c-10.6,4.6-20.9,4.5-31-1.7c-6-3.7-12.5-6.8-17.6-12
		c-2.5-2.5-3.5-5.2-1.9-8.5c0.1-0.2,0.4-0.3,1.1-0.8c1,0.7,2.5,1.3,3.5,2.4c6.3,6.7,14.5,10.5,22.4,14.7c5.4,2.9,11.6,3.3,17.7,2.4
		c2.3-0.4,4.7-0.5,7.1-0.6C583.9,247.5,584.3,247.9,585.3,248.4z"/>
	<path class="st0" d="M110.3,202.4c-4.2-3.8-2.3-8.3-3.8-11.9c-2.1-0.8-3.1,0.9-3.4,2.1c-0.8,2.7-2.2,5.4-1.4,8.4
		c0.4,1.4-0.2,2.7-1.7,3c-1.6,0.3-2.5-1-2.9-2.1c-2.9-7.6-0.5-12.7,5.4-16.1c1.1-0.7,2.6-0.8,3.6-1.5c2.1-1.6,4.2-3.2,5.8-5.1
		c3.4-4.2,7-7.7,12.4-9.3c2.2-0.6,4.2-2.3,6.4-3c1.3-0.5,3-0.1,4.4-0.1c0.8,2.5-0.4,3.9-2,4.9c-2.4,1.6-5,2.8-7.5,4.4
		c-2.4,1.5-4.9,3.1-7.2,4.8c-4,3.1-5.8,7.3-5.9,12.4c-0.1,2.1,0,4.2-0.3,6.3C112,200.4,111.1,201.2,110.3,202.4z"/>
	<path class="st0" d="M167.4,211.6c-2.8,2.1-5.2,4.1-7.9,5.7c-6.4,4-9.1,10.1-9.4,17.3c-0.2,5.5,0.3,11,0.6,16.5
		c0.3,4.2,0.8,8.3,1.2,12.5c-2.6,0.9-4-0.2-4.5-2.1c-2.7-9.7-4.7-19.5-3.6-29.6c0.8-6.6,3.3-12.7,9.4-16.5c2.9-1.8,5.7-3.8,8.7-5.4
		C163.6,209.3,165.5,209.1,167.4,211.6z"/>
	<path class="st0" d="M151.8,360.2c1.8,4.7,1.6,7-0.7,8.9c-3.8,3.1-8,5.1-13,5.1c-5.9,0.1-11.6-1-17.1-2.8
		c-4.2-1.4-8.4-3.2-12.4-5.1c-1.6-0.7-2.8-2.3-4.3-3.6c0.8-1.1,1.3-2,1.9-2.8c0.7-0.7,1.6-1.2,2.6-2c3.5,1.5,7,2.7,10.1,4.6
		c5.9,3.6,12.2,4.9,18.9,4.4c0.8-0.1,1.6-0.1,2.4-0.2C144.6,366.2,149.5,367.5,151.8,360.2z"/>
	<path class="st0" d="M435.8,97.7c-1,0.9-1.6,1.7-2.2,1.8c-4.9,0.7-9.9,1.4-14.9,1.8c-5.1,0.4-9.7,1.7-13.4,5.6
		c-1.2,1.3-2.9,2.2-4.6,3c-2.9,1.3-5.5,3-7.7,5.4c-1,1.1-2.4,2.1-3.8,2.6c-4.2,1.5-8.5,2.9-12.8,4c-1.4,0.3-3-0.3-4.5-0.6
		c-0.4-0.1-0.7-0.8-0.8-1.2c0-0.4,0.2-1.1,0.6-1.3c0.9-0.5,1.8-0.9,2.8-1.2c4-1.2,8.1-2.3,12.1-3.6c1-0.3,2.1-0.8,2.7-1.6
		c4.1-5.4,10.7-7.4,15.6-11.9c4.4-4.1,10.7-4,16.4-4.8C425.9,94.9,430.8,94.4,435.8,97.7z"/>
	<path class="st0" d="M607.7,207.1c-0.1-3.5,2-5.2,4.7-5.5c9.1-1.1,17.1,0.5,22.7,9c3.8,5.8,6.8,11.8,9.1,18.2
		c0.3,0.7-0.3,2.2-0.9,2.6c-0.7,0.4-2.1,0.4-2.9-0.1c-1.1-0.7-1.9-1.8-2.6-2.8c-2.5-3.7-5-7.4-7.2-11.3c-3.3-5.9-8.3-8.5-14.9-8.5
		c-1.8,0-3.7,0.1-5.5-0.2C609.3,208.4,608.5,207.6,607.7,207.1z"/>
	<path class="st0" d="M206.5,78.9c-1.5,2.9-2,4.4-3,5.4c-1.5,1.5-3.3,2.6-5,3.8c-5.1,3.5-9.3,7.8-11.7,13.6
		c-3.3,7.8-6.3,15.6-9.6,23.4c-1.1,2.7-2.3,5.3-3.8,7.7c-0.6,0.9-2.2,1.9-3.1,1.8c-1.7-0.3-1.2-2-0.8-3.2c1.9-5.5,3.8-10.9,5.9-16.4
		c1.2-3.2,2.5-6.4,3.8-9.5c2.3-5.4,4.8-10.5,8.6-15C192.3,85.1,197.6,81.1,206.5,78.9z"/>
	<path class="st0" d="M453.2,300c3.2,0.2,3.6,2,4.3,3.2c3.8,6.9,7.6,13.9,11.3,20.9c3.6,6.7,8.9,11.7,15.3,15.6
		c3.8,2.3,7.8,4.5,11.6,6.8c0.5,0.3,1,1.6,0.8,1.9c-0.5,0.7-1.7,1.8-2.3,1.6c-11.6-3.6-22.2-8.9-28.3-20
		c-4.4-8.1-7.8-16.7-11.6-25.1C453.8,303.5,453.7,302,453.2,300z"/>
	<path class="st0" d="M517.4,389.5c-0.8,0.9-1.5,2.2-2.5,2.6c-6.8,2.9-13.8,5.4-21.3,5.5c-8.2,0.1-15.7-2.2-22.3-6.8
		c-1.7-1.1-2.9-3-4-4.7c-0.4-0.6,0.1-2,0.6-2.7c0.3-0.4,1.5-0.7,2.1-0.4c2.7,1.1,5.3,2.4,7.8,3.8c4.7,2.7,9.8,3.9,15.2,3.6
		c6-0.3,12.1-1.1,18.1-1.6C513,388.6,515.1,387.2,517.4,389.5z"/>
	<path class="st0" d="M528.4,75.3c5.5,1.2,10.1,3.9,14.3,7.6c4.5,4,9.5,7.4,14.3,11.1c5.2,4,8.3,9.3,10,15.7c-1.2,0.6-2.1,1-2.9,1.4
		c-0.7-0.4-1.3-0.5-1.5-0.9c-5.6-8.2-13-14.3-21.1-19.9c-4.1-2.8-7.7-6.3-11.6-9.4c-1.9-1.6-1.9-3.6-1.3-5.7
		C528.5,75.1,528.4,75.3,528.4,75.3z"/>
	<path class="st0" d="M245.1,131.4c-1.6,1-2.3,1.7-3.2,1.9c-2.3,0.7-4.6,1.2-6.9,1.7c-8,1.9-14.3,6.2-19.7,12.4
		c-4.8,5.6-9.2,11.5-12.6,18.1c-1,2-2.6,3.8-4.3,6.3c-0.9-1.6-1.9-2.7-1.7-3.2c4.9-9.6,8.9-19.8,16.6-27.6c8-8.1,18-11.8,29.4-11.1
		C243.1,130,243.5,130.5,245.1,131.4z"/>
	<path class="st0" d="M114.3,219.5c0.5,6.9-1.6,12.4-5.6,17.2c-4.6,5.5-6.9,12.3-10.2,18.5c-1.3,2.4-1.4,5.6-2,8.4
		c-0.6,2.8-0.3,5.8-2.3,8.1c-2.8,0.1-4-1.4-4.3-3.7c-0.7-5.6,0.2-11.1,3.2-15.9c3.3-5.4,6.8-10.7,10.3-15.9
		c2.9-4.2,5.4-8.3,5.6-13.6C109,219.8,110.1,219.4,114.3,219.5z"/>
	<path class="st0" d="M265.6,100.6c-2.8,1.3-4.1,2.4-5.5,2.4c-2.6,0.1-5.2-0.4-7.8-0.9c-2.1-0.4-4-1.2-6.1-1.7
		c-8.5-1.8-16.2-0.6-23,5.2c-3.2,2.7-6.9,4.9-10.4,7.2c-0.8,0.5-1.8,0.6-2.6,0.8c-1.5-2.2-0.1-3.5,0.9-4.4c3.9-3.6,7.9-7,12-10.4
		c3-2.5,6.7-3.2,10.3-3.7C243.9,93.7,254.2,95.1,265.6,100.6z"/>
	<path class="st0" d="M151.7,165.3c-0.6,5-2,9.2-6.1,12.2c-1.9,1.4-3.8,2.8-5.8,4.1c-5,3.2-8.6,7.8-11.6,12.7
		c-1.1,1.7-1.4,3.9-2,5.9c-0.3,1-0.3,2.1-0.8,3c-0.3,0.6-1.2,1.1-1.9,1.2c-0.6,0-1.7-0.5-1.9-1c-1.9-4.9-1.9-9.9,1.4-14.2
		c3.9-5.3,7.8-10.5,14-13.6c3.6-1.8,6.5-5.2,9.7-8C148,166.3,148,166.3,151.7,165.3z"/>
	<path class="st0" d="M284.2,409.7c-1.5,1.8-2.1,3.4-3.3,4c-3.6,1.8-7.5,2.5-11.5,2.3c-9.2-0.4-18.3-2.2-27.1-5
		c-3.3-1-6.4-2.4-9.5-3.7c-1.8-0.8-2.3-2.3-1.6-3.9c0.7-1.6,1.9-2.5,3.7-2.2c0.8,0.1,1.5,0.5,2.2,0.8c9.1,4.4,19,6.1,28.9,7.8
		c4.1,0.7,8.3,1.1,12.5-0.1C280,409.4,281.7,409.7,284.2,409.7z"/>
	<path class="st0" d="M543.9,163.8c-1.9-0.8-3.3-1-4-1.9c-1.3-1.6-2.2-3.6-3.3-5.4c-4.6-7.5-10.6-13.6-18.4-17.9
		c-2.1-1.1-4.1-2.4-6-3.7c-0.9-0.6-1.9-1.2-2.4-2c-0.5-0.8-0.6-2-0.4-2.9c0.5-1.4,2-1.9,3.2-1.2c5.4,2.7,10.7,5.6,16,8.4
		c0.9,0.5,1.8,1.2,2.6,1.8C538.7,144.6,542.9,152.4,543.9,163.8z"/>
	<path class="st0" d="M494.5,187.2c-4.3,4.2-6.1,4.6-9.4,2.5c-8-5.2-11.2-13.1-12.1-22c-0.6-5.9,3.5-11.2,9.4-13
		c0.6-0.2,1.7,0.1,2,0.6c0.4,0.4,0.3,1.4,0.1,2.1c-0.1,0.4-0.6,0.8-1.1,1.1c-3.1,2-3.6,5.1-3,8.4c1.3,7.5,4,14.2,11.2,18.1
		C492.5,185.4,493.2,186.2,494.5,187.2z"/>
	<path class="st0" d="M477.6,297.1c1.7,0.8,3.1,1.2,4.3,2c2.9,1.9,5.6,3.9,8.4,5.9c6.7,4.9,14.2,7.9,22.3,9.2
		c2.6,0.4,5.2,0.9,7.7,1.7c0.7,0.2,1.7,1.5,1.6,2.2c-0.1,0.8-1.2,1.9-2,2.1c-7.7,1.2-15.2-0.2-22.3-3.3c-6.3-2.8-11.7-7-16.7-11.7
		C478.8,303,478.9,303,477.6,297.1z"/>
	<path class="st0" d="M47.9,314.7c-2.5,0.1-4.1,0.6-4.8,0.1c-5.5-4.5-11-8.9-13.8-15.8c-2.9-7.2-2-13.9,1.8-20.4
		c1.2-2.1,2.9-3.6,5.7-3.4c1,3.3-0.1,6.4-0.9,9.4c-1.7,6-0.7,11.4,2.8,16.4c1.5,2.2,3,4.3,4.5,6.5C44.4,309.4,45.7,311.3,47.9,314.7
		z"/>
	<path class="st0" d="M361.5,337.3c0.7-5.1,0.7-10.3,4.6-14.6c5.2-5.7,10.5-11.1,18.4-13c5.2-1.2,9.9,0.2,14.2,3.2
		c0.3,0.2,0.5,1.1,0.4,1.4c-0.3,0.6-0.9,1.4-1.4,1.5c-1,0.2-2.1-0.2-3.1-0.3c-11.5-1.7-20.6,3.6-24.7,14.5c-0.7,2-1.2,4-2.1,5.9
		C366.6,338.3,365.6,338.5,361.5,337.3z"/>
	<path class="st0" d="M281,388.9c-3.2,2.9-6.2,2.9-8.9,2.5c-5.5-0.8-10.9-1.9-16.3-3.1c-1.5-0.3-3.2-0.7-4.5-1.5
		c-3.2-2.2-6.7-3-10.3-3.6c-0.4-0.1-0.7-0.7-1.3-1.4c0.4-2.3,1.5-4.3,4.4-4.1c3.4,0.2,6.9,0.3,10.2,1
		C263.2,380.7,271.5,384.9,281,388.9z"/>
	<path class="st0" d="M359.9,284.6c0.5-3.4,2.4-5.2,4.7-6.5c1.1-0.7,2.4-1,3.6-1.7c9.8-5.5,19.2-4,28.4,1.6c2.9,1.8,5.8,3.6,8.7,5.5
		c1.7,1.2,3.2,2.6,4.7,3.8c-1,2.7-2.8,3.2-4.6,2.1c-2.9-1.7-5.8-3.7-8.5-5.8c-4.3-3.4-9.2-4.9-14.6-5.1c-4.1-0.2-7.8,0.6-11.3,2.8
		c-2,1.3-4.1,2.4-6.3,3.2C363.3,285,361.7,284.6,359.9,284.6z"/>
	<path class="st0" d="M242.9,309c0.8-0.1,1.5-0.3,2.3-0.3c15.3,1.6,29.2-3.1,42.6-9.5c1.5-0.7,3.2-1.1,6.1-2.1c-0.9,2-1.1,3-1.7,3.6
		c-6.1,6.3-14.1,9.2-22.3,11.4c-5.6,1.5-11.4,2.1-17.2,2.7c-2.3,0.2-4.7-0.3-7-1C243.5,313.3,242.3,311.7,242.9,309z"/>
	<path class="st0" d="M162.3,354c1,1.8,1.9,3.3,2.6,4.9c0.2,0.6,0,1.6-0.4,2.1c-0.4,0.5-1.5,0.8-2.1,0.6c-5.7-1.7-11.4-3.5-17.2-5.2
		c-1.7-0.5-3.6-0.8-5.4-1.1c-7.3-1.2-14.5-2.9-21-6.6c-1.1-0.6-1.7-2.2-2.5-3.4c2.2-1.7,3.9-1.1,5.7-0.4c4.6,1.8,9.1,4.1,14.2,4.6
		c2.1,0.2,4.2,0.4,6.2,0.6c1,0.1,2.1-0.1,3.1,0.2C151.2,351.4,156.8,352.7,162.3,354z"/>
	<path class="st0" d="M282.3,281.9c-2.2,6-5.8,8-10.6,8.4c-8.2,0.7-16.2-0.5-24.2-2.4c-4-1-8.1-2-12.6-3.1c1.5-3.6,4.3-5,7.8-4.5
		c4.2,0.5,8.3,1.5,12.4,2.4c6.2,1.3,12.3,2.7,18.7,1.6C276.3,283.8,278.7,282.9,282.3,281.9z"/>
	<path class="st0" d="M284.8,42.4c1.3-1.1,1.7-1.7,2-1.7c8.5,0.5,16.9,1.9,23.6,7.4c5.2,4.3,7.9,10.4,8.8,17.2
		c0.2,1.5-0.9,2.4-2.2,2.9c-1.4,0.5-2.7,0.1-3.4-1.2c-0.9-1.6-1.7-3.3-2.5-4.9c-3-6.4-7.3-11.5-14.2-14.1
		C293,46.4,289.3,44.5,284.8,42.4z"/>
	<path class="st0" d="M326.5,356c-0.7,1.6-0.8,3.2-1.6,3.8c-2.4,1.6-4.9,3.2-7.6,4.2c-12.6,4.9-25.6,8.1-39.3,7
		c-0.5,0-1-0.3-1.5-0.4c-0.7-1.7,0.4-2.5,1.6-3c1.2-0.5,2.5-0.9,3.8-1.1c13.5-1.3,26.4-4.8,38.8-10c1-0.4,2-0.7,3-0.9
		C324.2,355.5,324.8,355.7,326.5,356z"/>
	<path class="st0" d="M573.5,362.8c-0.3-2.6,1.5-3.9,3-5.3c1.9-1.8,3.9-3.5,5.7-5.4c5.6-5.9,6.5-13.5,7.9-21
		c0.5-2.8,0.8-5.7,1.4-8.6c0.3-1.4,1.6-2.3,3-1.9c0.8,0.2,1.8,1.4,1.8,2.1c-0.2,6.8,0.2,13.7-2.1,20.3c-0.9,2.4-1.8,5-4.8,5.9
		c-2,0.7-2.2,2.7-2.6,4.5c-1.4,5.8-5.9,8.3-11.2,9.9C575,363.5,574.2,363,573.5,362.8z"/>
	<path class="st0" d="M566.3,396.5c-5,1-9,3.8-13.1,6.6c-3.1,2.1-6.2,4.2-10.6,2.4c0.5-1,0.8-2.1,1.5-2.6c3.6-2.7,7-5.7,11-7.6
		c8.8-4.3,15.1-11.1,20.6-18.9c1.3-1.9,2.3-4.1,5.4-4.9c0.1,4.8-1.8,8.4-3.9,12c-1,1.8-2.2,3.5-3.3,5.3l0.3-0.2
		c-1.9,0.4-3.1,1.5-3.5,3.5l0.3-0.3c-2.7,0.7-4.5,2.3-5,5.1L566.3,396.5z"/>
	<path class="st0" d="M302.8,326.2c-0.1-2.6,1.5-3.2,2.8-4c7.4-4.2,13.1-9.7,15.6-18.1c0.5-1.8,1.3-3.5,2.2-5.1
		c3.7-6.9,9.1-9.8,16.9-9c0.6,0.1,1.5,0.7,1.6,1.3c0.2,0.5-0.2,1.7-0.7,1.9c-1.6,0.8-3.4,1.5-5.1,2c-4.5,1.2-7.3,4-8.6,8.5
		c-2.6,8.4-8.1,14.7-15,19.9C309.7,325.7,306.8,327.6,302.8,326.2z"/>
	<path class="st0" d="M224.5,88.2c0.4-1.6,0.4-2,0.5-2.1c7.4-5.5,15.6-9.6,24.4-12.5c1.2-0.4,2.7-0.3,3.8-0.9
		c8.3-3.9,16.9-3,25.5-1.8c3.4,0.5,5.8,2.1,7,5.6c-4.8,0.7-9-0.7-13.1-2.1c-4-1.4-7.7-1.5-11.4,0.5c-0.2,0.1-0.5,0.3-0.7,0.3
		c-9.3,2.1-18,5.6-26.3,10.3C231.6,87.1,228.3,87.2,224.5,88.2z"/>
	<path class="st0" d="M459.6,235.4c0.8,0.3,1.7,0.3,2.3,0.8c3.2,2.3,6.7,4.3,9.3,7.2c6.1,6.5,11,14.1,15,22.1
		c0.3,0.7,0.3,1.5,0.4,2.3c0.1,0.9-1.4,2.1-2.1,1.7c-0.9-0.5-1.9-0.9-2.6-1.7c-2.9-3.4-5.9-6.8-8.4-10.4
		c-3.9-5.7-7.8-11.2-13.3-15.5c-1-0.8-1.9-1.8-2.6-2.9c-0.3-0.5-0.3-1.6,0.1-2.2C458.1,236.2,459,235.9,459.6,235.4z"/>
	<path class="st0" d="M61.9,274.3c-0.1,0.8,0,1.1-0.1,1.3c-7.9,9.1-7,19.2-3.4,29.7c0.1,0.2,0.2,0.5,0.3,0.7c0.7,1.5,1.3,3.1-0.6,4
		c-1.7,0.8-3.2-0.3-4-1.7c-4.8-8.3-6.9-17-3.9-26.5c0.5-1.5,0.9-3,1.5-4.5c1.4-3.1,4.8-4.7,8.5-4.1C61,273.3,61.6,274,61.9,274.3z"
		/>
	<path class="st0" d="M361.3,312.1c-5.5,8.9-7.6,17.3-9.2,25.8c-0.9,4.7-1.3,9.5,0.7,14c0.6,1.4,0.4,2.6-1.1,3.1
		c-1.5,0.5-2.4-0.3-3.2-1.5c-2-2.8-2-6-2.2-9.1c-0.5-8.3,0.8-16.3,3.9-23.9c1.4-3.4,2.9-6.9,6.5-8.6
		C357.6,311.5,358.9,312,361.3,312.1z"/>
	<path class="st0" d="M300.7,200.6c-12.1-13.6-12.5-12.3-26.4-21.5c-0.5-2.1,0.9-3.2,2.5-3.1c2.3,0,4.7,0.4,6.9,1.2
		c5.4,2.2,10.2,5.6,14.6,9.4c2.9,2.5,4.8,5.6,5.9,9.2c0.3,0.9,0.2,2.3-0.4,3C303.1,199.6,301.7,200,300.7,200.6z"/>
	<path class="st0" d="M91.5,169.3c-4.6,2.9-8,7.6-13,9.9c-2.3-1.7-2.8-3.6-1.3-5.6c1.4-1.9,3.1-3.5,4.7-5.2
		c-0.7-1.1-1.3-2.1-2.2-3.6c6.1-7.2,14.2-10,23-11.3c1.7,2,0.9,3.3-0.6,4.1c-3.2,1.7-6.6,3.1-9.7,4.6c-0.2,2.4-0.4,4.4-0.5,6.3
		C91.7,168.7,91.6,169,91.5,169.3z"/>
	<path class="st0" d="M400.2,218.4c-0.2-2.8,0.8-4,2.5-4.3c7-1.3,14-2,21,0.8c3.7,1.5,6.4,3.6,8.2,7c1.2,2.1,2.2,4.2,3.1,6.4
		c0.8,1.8,0.4,3.9-0.6,4.2c-1.9,0.6-3-0.7-4.1-1.8c-0.9-0.9-1.6-2.1-2.3-3.2c-4-6.6-10.1-8.8-17.5-8.7
		C407.2,218.9,403.8,219.6,400.2,218.4z"/>
	<path class="st0" d="M446.8,325.6c-1.5-2.4-3.1-4.5-4.2-6.7c-4.7-9.1-11.2-16.5-20.6-21c-2-1-2.5-2.3-1.9-3.7
		c0.8-1.8,2.6-2.7,4.6-1.8c2.9,1.3,5.9,2.5,8.3,4.4c7.5,5.9,12.5,13.5,15.2,22.6c0.4,1.5,0.5,3.1,0.5,4.7
		C448.7,324.4,447.7,324.9,446.8,325.6z"/>
	<path class="st0" d="M438.7,339.8c-3.6-0.3-4.8-2.5-5.7-4.6c-3.8-8.6-9-16.1-16.3-22.1c-2.5-2.1-4.5-4.5-5.5-7.6
		c-0.1-0.4,0-1.2,0.3-1.4c0.6-0.4,1.4-0.7,2.1-0.6c0.7,0.1,1.5,0.6,2.1,1.1c8.5,6.9,16,14.7,21.1,24.4
		C438.4,332.2,440,335.6,438.7,339.8z"/>
	<path class="st0" d="M395.4,163.5c5.1-0.3,10,0.7,14.7,2.4c3.4,1.3,5.8,3.6,7.8,6.4c1,1.3,1.1,3-0.1,4.4c-0.9,1.1-2.9,1.1-4.2-0.3
		c-3.4-3.7-7.8-5.7-12.5-6.2c-5.2-0.6-10.5-0.2-15.8-0.1c-0.8,0-1.6,0.5-2.3,0.5c-0.7-0.1-1.8-0.6-1.9-1c-0.1-0.9,0-2.4,0.6-2.7
		c2.6-1.3,5.2-2.4,8-3.2C391.6,163.2,393.6,163.5,395.4,163.5z"/>
	<path class="st0" d="M254.5,222.8c-1.1,0.8-1.9,1.9-3,2.2c-2.5,0.8-5.1,1.1-7.6,1.9c-6,2.1-9.3,6.5-9.9,12.9c-0.1,1,0,2.2-0.4,3.1
		c-0.6,1.1-1.5,2.1-2.6,2.7c-2.1,1.2-4.4-0.2-4.5-2.6c-0.3-5.5,1.2-10.5,4.7-14.6c5.5-6.4,12.6-9.2,21.1-7.3
		C253,221.2,253.6,222.1,254.5,222.8z"/>
	<path class="st0" d="M469.6,279.9c-2.6,1.5-4.2,0.3-5.5-0.8c-7.1-5.9-14.2-11.9-21.2-17.9c-1.4-1.2-2.8-2.6-2.4-4.7
		c0.2-1,0.6-2.2,1.3-2.7c0.7-0.4,1.9-0.1,2.9,0c0.2,0,0.5,0.2,0.7,0.4c6.3,5.6,12.7,11.1,18.9,16.7
		C467.8,274.2,467.7,274.3,469.6,279.9z"/>
	<path class="st0" d="M637.2,192.6c-1.3,0.7-2.4,1.5-3.5,1.7c-1.8,0.3-3.7,0.1-5.5,0.2c-8.7,0.2-17.4,0.3-25.9,3
		c-2.1,0.7-4.2,0.8-5.5-1.8c0.3-0.6,0.5-1.5,1-1.9c1-0.9,2.1-1.6,3.3-2.2c7.4-3.6,26.5-4.1,34.2-0.9
		C636,190.9,636.4,191.7,637.2,192.6z"/>
	<path class="st0" d="M379.1,353.2c0.7-3.4,3-4.5,5.6-4.9c2.8-0.4,5.7-0.5,8.6-0.5c9-0.1,17.3,7.1,18.5,16.1
		c0.1,0.7,0.2,1.7-0.2,2.3c-0.5,0.8-1.4,1.7-2.3,1.8c-0.8,0.2-2.1-0.3-2.7-0.9c-0.7-0.7-1-1.8-1.3-2.8c-1.2-3.3-3.6-5.7-6.1-8
		c-1.8-1.7-4-2.4-6.4-2.5C388.3,353.6,383.9,353.4,379.1,353.2z"/>
	<path class="st0" d="M70.6,189.1c2.2-0.6,3.7-0.9,5.3-1.4c2.3,3.8,1.4,7.9,2.4,11.7c1.1,3.8,2.3,7.6,2.8,11.5
		c0.5,3.8,3.2,7.3,2.4,11c-2.1,1.6-3.4,0.5-4.5-0.5c-0.6-0.5-1-1.3-1.3-2c-3.4-8-5.7-16.4-7-25C70.4,193,70.6,191.4,70.6,189.1z"/>
	<path class="st0" d="M216.2,399.8c-1.2-0.1-2.6,0.1-3.7-0.2c-4.1-1.2-7.6-3.7-10.9-6.2c-4-3-7.9-6.2-12.1-8.8
		c-4.5-2.8-7.3-6.6-8.8-11.8c0.8-0.5,1.5-1.3,2-1.2c1.2,0.4,2.5,1,3.4,1.8c8.2,7,16.4,14.1,24.6,21.1c1.7,1.5,3.8,2.5,5.8,3.7
		C216.4,398.8,216.3,399.3,216.2,399.8z"/>
	<path class="st0" d="M194.9,312.3c-2.4,0.8-3.6,1.6-4.7,1.4c-3.3-0.7-6.6-1.6-9.7-3c-2.9-1.2-5.4-3.3-8.3-4.7
		c-4.8-2.3-8-5.8-9.9-10.7c-0.7-1.7-1.8-3.3-2.3-5c-0.3-0.8,0.3-1.9,0.5-2.9c0.9,0.3,2.1,0.3,2.6,0.9c2.3,2.5,4,5.6,6.5,7.8
		c5.9,5.2,12.3,9.9,19.7,13C190.9,309.8,192.3,310.8,194.9,312.3z"/>
	<path class="st0" d="M487.8,372.9c-0.8,0.5-1.5,1.5-2.3,1.5c-1.5,0.1-3.2-0.1-4.6-0.6c-8-2.9-15-7.5-20.9-13.6
		c-1.2-1.3-2.3-2.9-2.8-4.6c-0.3-1,0.4-2.6,1.1-3.4c1-1.2,2.4-0.6,3.5,0.3c3.7,3.3,7.2,6.8,11.1,9.9c2.6,2.1,5.7,3.7,8.6,5.5
		C483.5,369.3,486.1,370.1,487.8,372.9z"/>
	<path class="st0" d="M141.8,392.8c-1.2,4.2-3,6.8-7,7.3c-2.6,0.3-5.2,0.9-7.8,1c-3.4,0.2-6.9,0.2-10.3,0.3c-1.3,0-2.6-0.1-3.9-0.4
		c-1.8-0.3-3-1.8-2.7-3.3c0.3-1.4,1.2-2.3,2.6-2.6c2.3-0.4,4.7-0.9,7-1.1C126.8,393.6,133.9,393.3,141.8,392.8z"/>
	<path class="st0" d="M318.6,103.1c-0.8,1.8,0.3,3,1.1,4.3c4,6.6,9.3,11.3,17.4,12.2c0.9,0.1,1.8,0.7,3.3,1.2
		c-2.2,3.6-5,4.2-8.2,3.5c-6.6-1.5-12.3-4.5-16.5-10c-3.7-4.8-3.9-5.2-2.4-12.3c2.5-1.9,3.6,1.3,5.6,1.4
		C318.9,103.3,318.6,103.1,318.6,103.1z"/>
	<path class="st0" d="M28,327c-0.6-2-1.5-3.9-1.7-5.9c-0.3-2.9,3.4-5.1,5.5-3.3c6.1,5.5,14.1,8.3,19.6,14.5c0.6,0.6,0.9,2.1,0.5,2.7
		c-0.4,0.6-1.8,1.2-2.6,1c-6.1-1.6-12-4-17.4-7.4c-1.3-0.8-2.7-1.3-4.1-2C27.7,326.8,28,327,28,327z"/>
	<path class="st0" d="M342.3,213.3c1.1-1.5,1.7-2.9,2.7-3.4c6.3-3.2,7.8-8.8,8.3-15.1c0.2-2.6,0-5.3,0.4-7.9
		c0.3-2.2,0.6-4.9,3.9-5.6c0.5,0.7,1.4,1.5,1.6,2.4c1.2,7.9,1.4,15.9-3.3,22.9c-1.7,2.6-4.3,4.6-6.7,6.6
		C347.5,214.7,345.4,214.9,342.3,213.3z"/>
	<path class="st0" d="M394,242c12.5,0.8,22.8,6,30.8,15.6c0.3,0.3,0.3,1.3,0,1.5c-0.6,0.4-1.6,0.9-2,0.6c-4.8-3.4-9.9-5.9-15.1-8.5
		c-4.8-2.4-9.9-3.6-15.3-3.8c-1.3,0-2.7,0-3.9-0.4c-0.8-0.3-1.8-1.4-1.8-2.2c0-0.8,1-2.1,1.8-2.3C390.3,242.1,392.2,242.2,394,242z"
		/>
	<path class="st0" d="M303.3,119.7c3.9,2.8,6.6,4.9,9.4,6.7c6.5,4.1,13.9,6.3,21.4,7.7c1.4,0.3,3.2,0.3,3.2,3.2
		c-3.3,1.3-7,0.8-10.4,0.6c-7.3-0.5-13.7-3.5-19.6-7.6c-2.2-1.5-4.1-3.4-4.6-6.2C302.4,123,302.9,121.8,303.3,119.7z"/>
	<path class="st0" d="M248.1,56.8c0.4,0.3,1.3,0.6,1.6,1.1c0.5,1.1-0.1,2-1.3,2.4c-5.9,2.2-11.8,4.6-17.7,6.6
		c-4.8,1.6-9.4,3.3-13.1,7c-0.5,0.5-1.4,0.8-2.1,1.1c-0.8,0.4-2.3-0.7-2.1-1.7c0.4-1.5,0.6-3.2,1.6-4.2c1.6-1.7,3.6-3.2,5.7-4.1
		c8-3.5,16-6.7,24.7-7.9C246.3,57,247.1,56.9,248.1,56.8z"/>
	<path class="st0" d="M565.2,382.1c-1.4,1.1-2.1,1.8-2.9,2.2c-11,5.5-22.8,9.3-34.3,13.5c-1.2,0.4-2.7,0-5.8,0
		c4.3-3.1,7.2-5.2,10.5-6.6c8.2-3.4,16.6-6.6,24.8-9.9C559.6,380.4,561.9,380,565.2,382.1z"/>
	<path class="st0" d="M540.2,339.7c0.6,0.4,1.1,0.9,2.1,1.6c-1.4,3.5-3.3,6.7-6.6,8.3c-5.1,2.6-10.4,4.9-15.8,6.8
		c-2.3,0.8-5.2,0.3-7.7,0.1c-0.6-0.1-1.6-1.5-1.6-2.3c0-0.8,0.8-1.8,1.5-2.5c0.5-0.5,1.4-0.7,2.2-0.7
		C524.3,350.7,532.5,346,540.2,339.7z"/>
	<path class="st0" d="M216.8,370.3c-1.4,2.2-3.1,1.9-4.5,1.5c-3-1-6-1.9-8.7-3.4c-4.7-2.8-9.2-6-13.8-9c-0.2-0.1-0.4-0.3-0.6-0.5
		c-1.2-1.4-2.5-2.8-1.7-4.8c0.5-1.3,2.5-1.4,4.8,0.1c5.7,3.7,11.3,7.5,17,11.3C211.8,366.9,214.1,368.5,216.8,370.3z"/>
	<path class="st0" d="M312.2,385.8c0.2-1.1,0.1-1.7,0.3-2c0.5-0.6,1.2-1.3,1.8-1.4c8.5-0.6,15.1-5.9,22.5-9.1
		c3.9-1.7,6.2-1.8,6.3-0.2c0.2,2.6-1.9,3.5-3.7,4.6c-3.8,2.3-7.6,4.8-11.6,6.8C322.2,387.3,319.3,387.5,312.2,385.8z"/>
	<path class="st0" d="M663.9,324.7c-12.3,1.3-21.2-2.3-28.6-9.9c-0.9-1-1.2-2.8-1.4-4.3c-0.1-0.5,0.8-1.2,1.4-2.1
		c4.6,2.8,9.1,5.4,13.4,8.2C653.1,319.4,658.7,319.7,663.9,324.7z"/>
	<path class="st0" d="M240.3,395.1c-6.4,0.1-11.5-2.9-16.9-4.6c-3.7-1.2-7.2-2.8-10.1-5.4c0.7-0.8,1-1.5,1.3-1.5
		c7.1-0.2,14.1,0.3,20.9,2.9C239.3,388.1,241,390.2,240.3,395.1z"/>
	<path class="st0" d="M296.9,72.8c-3.6-5-8.9-7.9-14.4-10.4c-1.2-0.5-2.4-1.2-3.5-1.8c-1.9-1.1-2.5-2.3-1.9-3.7
		c0.8-1.7,2.5-2.3,3.9-2c7.6,1.4,13.6,5.5,18.4,11.4C301.8,69.2,301.4,70.2,296.9,72.8z"/>
	<path class="st0" d="M319.6,40.4c0.1,0.5,0,1.2,0.3,1.5c7.5,5.4,9.9,14.1,13.8,21.8c1,1.9,1,4.1-0.2,6.1c-0.4,0.6-1.1,1.2-1.8,1.3
		c-0.6,0-1.7-0.5-1.9-1c-2.1-4.3-3.9-8.6-6-12.9c-1.9-3.8-4-7.4-6.1-11c-1.9-3.2-1.7-3.8,2.2-5.5C319.8,40.6,319.6,40.4,319.6,40.4z
		"/>
	<path class="st0" d="M575.3,124.3c8.8,7.9,11.9,16.3,10,27.1c-1.8,1.1-3.2,0.3-3.8-1.3c-2.8-7.4-5.4-14.8-8-22.2
		C572.9,126.2,573.3,124.8,575.3,124.3z"/>
	<path class="st0" d="M268.8,432.7c-5.9,4-12.7,3.7-19.4,3.8c-5.3,0.1-10.4-0.7-15-4.6c0.6-1,0.9-2.3,1.6-2.5
		c1.4-0.5,3.2-0.9,4.6-0.5c8.2,2.6,16.5,2.3,24.9,1.8C266.8,430.6,268.1,430.8,268.8,432.7z"/>
	<path class="st0" d="M462.6,123c-1.7,0.8-2.8,1.7-3.9,1.8c-2.1,0.2-4.2-0.1-6.3-0.2c-7.1-0.1-14.2,0.2-20.6,3.8
		c-0.8,0.5-1.9,0.4-2.6,0.6c-1.5-1.2-0.9-2.1-0.3-3c2.2-3.3,5.5-4.7,9.1-5.7c7.6-2.2,15.1-1.2,22.5,0.7
		C460.9,121.2,461.2,121.8,462.6,123z"/>
	<path class="st0" d="M89.9,306.6c0.3,7.8,2.4,15.1,6.1,21.9c0.7,1.3,1.2,2.9,1.3,4.5c0.1,0.8-0.8,2.1-1.5,2.4
		c-0.8,0.3-2-0.1-2.9-0.4c-0.4-0.1-0.9-0.6-1.1-1.1c-2.4-6.4-6.4-12.2-6.8-19.2c-0.1-2.3-0.1-4.8,0.4-7
		C85.7,306,87.2,305,89.9,306.6z"/>
	<path class="st0" d="M444.3,385.9c-3.5,1.3-5.1,0.1-6.5-1.6c-3.1-4.1-4.6-8.8-5.3-13.8c-0.4-2.8-0.3-5.7-0.3-8.5c0-1,0.5-2.1,1-2.9
		c0.4-0.5,1.3-1,2-0.9c0.7,0.1,1.7,0.7,1.8,1.2c0.4,1.2,0.3,2.6,0.4,3.9c0.5,5.2,1.2,10.3,3.9,15.1
		C442.8,380.5,443.3,383.1,444.3,385.9z"/>
	<path class="st0" d="M521.9,198.1c2-1.8,3.3-1.1,3.9,0c3,5.5,7.8,9.3,12.6,12.9c3.1,2.4,6.7,4.2,10,6.3c0.8,0.5,1.6,1.1,2.4,1.6
		c-1,2.3-2.8,1.7-4.2,1.6c-2-0.2-4.4-0.4-6-1.5C533,213.4,525.7,207.4,521.9,198.1z"/>
	<path class="st0" d="M198.8,147.5c-1.8-3.1-1.7-5.2,0.1-6.8c6.7-5.7,12.6-12.5,20.2-16.9c1.8,0.7,1.7,1.8,1.2,2.7
		C214.7,134.9,207.5,141.6,198.8,147.5z"/>
	<path class="st0" d="M573.8,388.7c1.3,0.1,2.6,0.3,3.8,0.4c-1.7,6.6-5.3,12.1-10.7,15.7c-2.6,1.7-5.5,3.1-8.4,4.3
		c-0.9,0.4-2.9-0.2-3.3-1c-0.4-0.9,0-2.7,0.7-3.5c1.2-1.3,3-2.1,4.4-3.2c2.1-1.5,4.8-2.2,5.9-4.9l-0.3,0.3c2.8-0.6,4.6-2.1,5-5.1
		l-0.3,0.3c2.1-0.2,3.4-1.2,3.5-3.5L573.8,388.7z"/>
	<path class="st0" d="M262.6,226.7c0.5-3.4,2.4-4.8,5-4.2c7.4,1.6,14.1,4.5,17.3,12.7c-0.8,0.7-1.7,1.6-2.8,2.7
		c-3.4-2.1-6.7-4.2-10-6.1C269,229.9,265.8,228.3,262.6,226.7z"/>
	<path class="st0" d="M306,107.7c-0.9-0.5-1.3-0.6-1.3-0.8c-1.6-6.6-5.8-11.5-10.2-16.3c-1.1-1.1-1.9-2.5-2.6-3.9
		c-0.3-0.6-0.3-1.9,0.1-2.1c0.8-0.5,2.2-1,2.8-0.7c5.8,3.7,11,8,13.4,14.8C309.2,102.1,308.7,105,306,107.7z"/>
	<path class="st0" d="M130.3,159.5c-1.8,0.9-3.3,2.1-5,2.5c-6,1.5-11.5,3.7-16.3,7.6c-0.8,0.6-1.9,1.2-2.9,1.1
		c-1.1-0.1-2.2-0.8-3.5-1.3c3-7.1,9.1-9.1,15.1-11C124.9,156.2,125.3,156.4,130.3,159.5z"/>
	<path class="st0" d="M337.1,393.4c-1.3-0.2-2.7-0.1-3.9-0.5c-0.9-0.3-2.1-1.4-2.1-2c0.1-1.1,0.8-2.6,1.7-3.2c1-0.7,2.5-0.8,3.8-0.7
		c5.2,0.8,9.1-1.3,12.9-4.6c1.6-1.4,2.9-4.1,5.8-3c1.7,0.6,0.8,2.9-2.4,6.5C348.7,390.6,343.7,393.6,337.1,393.4z"/>
	<path class="st0" d="M173.4,191.2c-2.7-2.3-1.7-4.5-0.9-6.3c1.2-2.9,3-5.5,4.5-8.3c2.1-4,4-8,6.1-12c0.4-0.9,1.2-1.6,2-2.5
		c2.3,1.4,2.2,3.2,1.6,4.9c-2.2,5.6-4.5,11.3-7.1,16.8C178.2,186.5,176.4,189.2,173.4,191.2z"/>
	<path class="st0" d="M367.7,302.9c0.4-0.9,0.5-1.8,1-2.2c7.3-5.6,20.2-6.1,27.6-0.9c0.6,0.4,1.1,1.2,1.4,1.9
		c0.2,0.4,0.2,1.1-0.1,1.5c-0.2,0.4-0.8,0.9-1.1,0.9c-2.1-0.3-4.2-0.6-6.2-1.2c-6.8-1.9-13.5-2.6-20.1,0.5
		C369.6,303.5,368.7,303,367.7,302.9z"/>
	<path class="st0" d="M685.5,285.3c-0.7-10.9-1.4-21.3-2.1-31.7c0.8-0.1,1.6-0.3,1.7-0.2c4.4,8.9,5.9,18.4,5,28.3
		c-0.1,0.9-0.7,2-1.4,2.7C687.9,285,686.8,285,685.5,285.3z"/>
	<path class="st0" d="M244.8,442.4c-6.9,1.4-12.6-1.1-18.3-2.6c-4.6-1.3-8.7-4.5-13-7.1c-0.4-0.2-0.3-1.4-0.5-2.6
		c1.4,0,2.8-0.4,3.8,0.1c8.2,4.1,16.8,7.1,25.6,9.7C243.3,440.2,243.8,441.3,244.8,442.4z"/>
	<path class="st0" d="M606.4,287.3c-1.3,0.1-2.6,0.3-3.9,0.1c-0.9-0.1-2.1-0.7-2.4-1.4c-0.7-1.6,0.8-2.4,2-2.7c3-0.8,6.1-1.9,9.2-2
		c5.3-0.1,9.7-1.6,13-6c0.3-0.4,0.8-0.8,1.3-0.9c0.7,0,1.5,0.1,2,0.5c0.3,0.2,0.5,1,0.4,1.4c-1.8,4.2-4.5,7.8-9.1,9.1
		c-4,1.1-8.2,1.6-12.3,2.3C606.4,287.5,606.4,287.4,606.4,287.3z"/>
	<path class="st0" d="M136,379.9c-0.4,3-0.1,4.4-0.7,5.3c-2,2.8-5.1,3.8-8.3,3.9c-5.7,0.2-10.7-2.4-15.8-4.6c-0.4-0.2-0.8-1-0.6-1.3
		c0.2-0.7,0.7-1.6,1.2-1.8c1.2-0.4,2.6-0.8,3.8-0.7c1.8,0.2,3.7,0.5,5.4,1.2C125.6,383.9,130.1,383.9,136,379.9z"/>
	<path class="st0" d="M150.8,129.8c1.8,1.4,3.7,2.2,3.9,3.3c0.8,5.2,1.2,10.4,1.5,15.7c0.1,1.9-0.6,3.6-3.1,4.6
		c-0.9-0.9-2.5-1.8-2.8-3C148.7,144,147.9,137.5,150.8,129.8z"/>
	<path class="st0" d="M545.3,316.7c-4.2-0.9-9.3-1.9-14.3-3.1c-0.6-0.1-1.3-1.1-1.3-1.7c0.1-0.9,0.5-2.1,1.1-2.7
		c0.7-0.6,1.9-1.2,2.8-1c5.4,0.8,10.9,1.1,16,3.3c0.5,0.2,1,0.5,1.3,0.9c0.4,0.6,0.8,1.5,0.7,2.1c-0.1,0.6-0.8,1.5-1.4,1.6
		C548.9,316.5,547.6,316.5,545.3,316.7z"/>
	<path class="st0" d="M442.8,344.9c3.2,1.7,4.8,4.2,5.2,7.1c0.4,3.9,0.4,7.8,0.3,11.7c-0.1,1.8-1.4,2.7-3.8,2.2
		c-0.5-1.4-1.2-3.1-1.7-4.8c-1-3.5-1.9-7.1-3-10.6C439,347.9,439,347.7,442.8,344.9z"/>
	<path class="st0" d="M281.7,97.5c2.7-1.4,4.9-1.3,7,0.1c2.5,1.7,4.7,3.8,4.9,6.8c0.4,5.1-0.6,9.9-4.6,13.6c-0.3,0.3-1,0.1-2,0.2
		c0.2-1.8,0.1-3.6,0.5-5.3c1-4.5-0.1-8.2-3.2-11.6C283.4,100.2,282.7,98.9,281.7,97.5z"/>
	<path class="st0" d="M334.9,77.7c1.9,0.2,2.7,1.5,2.5,3.2c-0.2,2.8-1.6,5.3-3.8,6.5c-3.9,2.3-8.3,3.3-12.8,1.6
		c-0.8-0.3-1.6-1.5-1.7-2.3c-0.1-0.8,0.6-2,1.4-2.5c0.8-0.6,1.9-0.7,2.9-1C330.6,81.6,330.6,81.6,334.9,77.7z"/>
	<path class="st0" d="M628.1,299.2c1.8-4.9,6.6-6.8,9.3-10.6c2.5-3.6,4.1-8,7.6-10.7c2.2,0.2,2.1,1.7,2.1,3c0,0.8-0.2,1.6-0.5,2.3
		c-2.8,6.5-7.3,11.6-12.9,15.7C631.9,300.1,630.2,300.1,628.1,299.2z"/>
	<path class="st0" d="M386.8,405.1c1.6-1.2,3-2.2,4.4-3.4c2.4-2,4.9-4,7.1-6.3c3.2-3.3,5.4-7,4.7-12c-0.4-2.6,1-4.2,2.6-3.9
		c1.7,0.3,2.8,1.8,2.9,4.1c0.2,4.2-0.9,7.9-4,10.7c-4.8,4.5-10.2,8.2-15.9,11.5C388.2,406,387.6,405.5,386.8,405.1z"/>
	<path class="st0" d="M77.4,244.9c-1.5,6.9-6,11.9-9.7,17.2c-1.2,1.8-2.2,1.6-6.3-0.2c0.1-0.7,0.1-1.6,0.5-2.2
		c3.5-4.9,7-9.8,10.7-14.7C73.6,243.7,75.2,243.6,77.4,244.9z"/>
	<path class="st0" d="M361.2,367.2c0.8-3.6,3.3-5.1,6-6.3c3.5-1.5,7.2-1.1,10.9-0.4c0.8,0.1,1.4,0.6,2.2,0.9
		c3.9,1.5,5.5,3.1,4.4,4.4c-1.8,2.3-4,0.8-5.8,0.2c-4.4-1.5-8.2-1.1-11.8,2C365.3,369.6,363.3,369.5,361.2,367.2z"/>
	<path class="st0" d="M91.5,169.3c0.1-0.3,0.3-0.5,0.4-0.8c1.3,0,2.6,0,4,0c0.1,0.9,0.5,1.7,0.3,2.3c-1.9,5.7-3.9,11.4-5.9,17.1
		c-0.2,0.5-0.4,1.1-0.8,1.3c-0.8,0.5-2,1.2-2.7,0.9c-0.8-0.3-1.5-1.5-1.7-2.4c-0.2-1,0.1-2.1,0.5-3c1.3-3.4,2.7-6.8,4-10.3
		C90.3,172.7,90.9,171,91.5,169.3z"/>
	<path class="st0" d="M96.7,230.5c-2.6,0.4-4.5,0.8-6.7,1.1c-1.7-6.1-1.2-11.9-1.7-17.5c-0.1-0.7,0.9-1.9,1.7-2.3
		c1.4-0.8,2.5,0.2,3.2,1.4c0.5,0.9,0.9,1.9,1.1,2.9C95.1,220.5,95.8,224.9,96.7,230.5z"/>
	<path class="st0" d="M211.9,93.5c-0.4,1.7-0.5,3.6-1.3,5.1c-2.4,4.7-5.3,9-9.4,12.6c-0.3,0.3-1.1,0.5-1.4,0.4
		c-0.6-0.4-1.2-1-1.5-1.7c-0.2-0.7-0.3-1.6,0-2.3c2.7-6.1,7.1-10.7,11.9-14.9C210.8,92.9,211.4,93.2,211.9,93.5z"/>
	<path class="st0" d="M66.9,246.6c-1.9,4.6-6.4,5.7-10.1,7c-3.2,1.1-6.5,1.8-9.6,3.2c-1.8,0.8-3.7,0.2-4.4-2
		c0.8-3.4,3.7-4.4,6.5-4.9c5.2-0.9,10.3-1.7,15.2-3.8C65.1,245.8,65.9,246.4,66.9,246.6z"/>
	<path class="st0" d="M577.1,108.6c-9.1-6.4-15.3-13.1-17.1-18.4c1.2,0.1,2.4-0.2,3,0.3c4.1,3.2,8.1,6.5,11.9,10
		c1.1,1,1.6,2.7,2.1,4.1C577.3,105.5,577.1,106.6,577.1,108.6z"/>
	<path class="st0" d="M652.7,298.7c5.5-4.7,13.5-4.1,18.6-10c0.8,1.5,1.4,2.5,2.1,3.7c-2.5,4.7-7.1,5.8-11.6,7.2
		C658.8,300.7,655.8,301.2,652.7,298.7z"/>
	<path class="st0" d="M344.5,122.4c1.5-3.1,3.4-3.6,5.7-3.4c0.6,0,9.4-1.7,10.1-1.7c0.7,0,1.6,0.1,2,0.6c0.4,0.5,0.6,1.5,0.4,2.1
		c-0.5,2.2-2,3.8-4,4.6C353.7,126.5,349,126.3,344.5,122.4z"/>
	<path class="st0" d="M279.9,22.6c5-1.6,7.7,1.4,10.8,3.9c2.8,2.3,4.5,5.1,4.7,8.7c0,0.8-0.8,2-1.5,2.3c-0.7,0.3-1.9-0.2-2.8-0.5
		c-0.4-0.2-0.8-0.7-1-1.2c-2.1-4.7-5.2-8.4-9.5-11.3C280.3,24.3,280.3,23.6,279.9,22.6z"/>
	<path class="st0" d="M252.1,88.1c3.6-3.8,8-3.1,12.1-3.1c1.8,0,3.7,0.5,5.4,1c1.4,0.4,2.4,2.5,1.8,3.8c-0.6,1.3-1.5,2.2-3,2
		c-2.9-0.4-5.7-0.8-8.6-1.1c-1.8-0.2-3.7-0.1-5.5-0.4C253.6,89.9,252.9,88.9,252.1,88.1z"/>
	<path class="st0" d="M555.7,79.7c-1.7,1.8-2.7,2.9-4,4.3c-4.9-2.2-8.3-5.6-10.6-10.2c-0.2-0.4-0.1-1.2,0.2-1.4c0.6-0.5,1.3-1,2-1
		c0.7,0,1.5,0.4,2.2,0.8C549.1,73.9,551.9,76.5,555.7,79.7z"/>
	<path class="st0" d="M584.2,130.6c-4.2-5-7.8-9.1-8.3-15.4c1.4,0,3-0.5,3.7,0.1c3.3,2.9,6.3,6.2,8.6,10.5
		C587,127.2,585.9,128.5,584.2,130.6z"/>
	<path class="st0" d="M265.7,60.2c2.7-0.1,5.3,0.1,7.2,2.2c0.5,0.5,0.4,2.2,0,2.6c-0.9,0.8-2.2,1.6-3.4,1.6
		c-3.4,0.1-6.8-0.1-10.1-0.5c-1.1-0.1-2.3-1.3-2.9-2.2c-0.3-0.5,0.3-2.5,0.7-2.5C260,60.7,262.8,60.5,265.7,60.2z"/>
	<path class="st0" d="M579.7,323c-0.1-0.2-0.4-0.5-0.3-0.6c2.5-5.1,5.1-10.2,7.7-15.3c0.2-0.5,1.4-0.8,2-0.6
		c0.5,0.2,1.1,1.2,1.1,1.7c-0.5,5-2.5,9.5-4.9,13.8C584.4,323.7,583.9,323.7,579.7,323z"/>
	<path class="st0" d="M135.3,145.3c-1.2,0.7-2.3,2-3.2,1.8c-5.4-0.9-10.5-2.8-14.7-7.7c1.4-0.6,2.2-1.4,3.1-1.4
		C124.6,138.1,130.2,140.9,135.3,145.3z"/>
	<path class="st0" d="M611.3,305.4c-0.7,0.6-1.5,1.6-2.6,2c-0.8,0.2-2.2-0.3-2.7-0.9c-1.6-2.1-3.1-4.3-4.3-6.6
		c-0.4-0.7-0.2-2.2,0.3-2.9c0.5-0.7,2.1-1.4,2.7-1.1c3.5,1.6,5.8,4.4,6.7,8.2C611.5,304.4,611.4,304.7,611.3,305.4z"/>
	<path class="st0" d="M644.7,245.4c2.7,4.2,2.8,7,0.4,9.4c-1.3,1.2-3,2.1-4.6,2.8c-0.7,0.3-1.9-0.3-2.6-0.9c-0.4-0.3-0.2-1.5,0-2.1
		c0.3-0.7,1.1-1.1,1.5-1.8c1-1.5,1.9-3,2.9-4.5C643,247.3,643.8,246.4,644.7,245.4z"/>
	<path class="st0" d="M276.4,437.8c-7,4.7-10.8,4.8-15.3,1c3.4-1.8,7-1.9,10.5-2.3C272.7,436.4,273.9,437.1,276.4,437.8z"/>
	<path class="st0" d="M185.3,411.1c4.5,1.5,6.7,4.7,9.1,8.4c-1.1,0.4-2,1-2.4,0.8C188,418.1,186.2,415.7,185.3,411.1z"/>
	<path class="st0" d="M90.9,198.5c-0.8,1.3-1.4,2.4-2.2,3.3c-0.2,0.2-1.8-0.2-1.9-0.5c-0.3-0.9-0.3-2.1,0-3c0.3-0.8,1.2-1.4,1.9-2.1
		C89.4,196.8,90,197.5,90.9,198.5z"/>
	<path class="st0" d="M199.9,423.1c0.4,0.2,0.9,0.4,1.1,0.8c0.1,0.3-0.2,0.8-0.4,1.2c-0.4-0.2-1-0.3-1.1-0.6
		C199.4,424,199.7,423.5,199.9,423.1z"/>
</g>
</svg>
