<?xml version="1.0" encoding="utf-8"?>
<!-- Generator: Adobe Illustrator 16.0.0, SVG Export Plug-In . SVG Version: 6.00 Build 0)  -->
<!DOCTYPE svg PUBLIC "-//W3C//DTD SVG 1.1//EN" "http://www.w3.org/Graphics/SVG/1.1/DTD/svg11.dtd">
<svg version="1.1" id="Layer_1" xmlns="http://www.w3.org/2000/svg" xmlns:xlink="http://www.w3.org/1999/xlink" x="0px" y="0px"
	 width="838.4px" height="502.3px" viewBox="0 0 838.4 502.3" style="enable-background:new 0 0 838.4 502.3;" xml:space="preserve"
	>
<style type="text/css">
<![CDATA[
	.st0{fill-rule:evenodd;clip-rule:evenodd;fill:#231F20;}
]]>
</style>
<g>
	<path class="st0" d="M195.5,186.6c-3.2-0.2-5,2.1-8.8,4.1c3,0.6,4.6,0.9,6.4,1.3c1,2,0.2,3.6-1.6,4.5c-5.7,3-9.3,8.6-14.5,12.1
		c-1.1,0.7-1.8,1.9-0.9,3.5c5.8-3,11.5-6.1,17.3-9.1c3.5-1.8,7.1-3.3,11.3-2.2c1.4,0.4,3.1-0.1,4.6-0.5c4.1-1.1,8.1-2.4,12.1-3.7
		c2.1-0.6,4.2-0.9,5.9,0.9c1.4,1.5,3.1,1.8,5,1.9c8.2,0.6,15.9,2.5,23.6,5.7c7.7,3.2,16.1,4.6,24.2,6.8c1.6,0.5,3.2,1.2,5,1.8
		c-2.4,4.2-6.4,0.5-9.1,2.9c0,1.2,0,2.7,0,4.3c-0.8,0.1-1.6,0.4-2.4,0.4c-0.5,0-1.1-0.3-1.4-0.6c-4.7-5.5-11.3-6.2-17.9-7
		c-1.3-0.2-2.6-0.3-4.2-0.5c-0.2-1.6,0.2-3.5-0.6-4.3c-1.2-1.2-3.1-2.2-4.8-2.4c-5-0.6-10-0.7-15-0.9c-2.6-0.1-5.2,0-7.7,0
		c-4.2,2.2-8.3,4.4-12.4,6.5l0.2-0.2c-4,1-4.5-3.6-6.8-4.6c-5.1,0.8-9.4,2.4-12.5,6.3l0.2-0.1c-3.4-0.3-6.2,0.7-8.4,3.4
		c-1.5,1.9-3.4,3.5-4.4,5.6c-1.5,3.4-3.7,6.2-6.5,8.6c-0.6,0.5-1.4,1-1.6,1.7c-2.7,7.1-8.1,13-9.6,20.7c-0.6,2.8-1.5,5.7-2.9,8.1
		c-3.3,5.3-1.8,10.5-0.5,15.8c0.1,0.5,0.5,0.9,0.6,1.4c1.1,7.6,4.6,13.9,9.9,19.4c0.7,0.7,1.1,1.8,1.3,2.8c0.1,0.6-0.2,1.7-0.7,2
		c-0.5,0.4-1.6,0.6-2.2,0.3c-5.8-3.5-9.8-8.7-12.9-14.6c-0.8-1.6-1.4-3.4-2.1-5.1c-1.9-0.2-3.6-0.4-5.8-0.7
		c1.7,4.8,3.1,9.3,4.8,13.6c1.5,3.9,4.3,6.6,7.9,8.5c1.3,0.7,2.5,1.6,4.1,2.7c-7,4.1-11.3-0.9-16.4-3.9c-1,3.7-0.4,6.2,2.6,7.8
		c0.5,0.3,0.9,0.6,1.4,0.7c5,1.1,8.2,4.3,10.6,8.7c0.2,0.3,0.9,0.4,1.5,0.6c3.6-3.6,0-8.8,2.7-12.6c2-1,3.2,0.5,3.8,1.8
		c1.1,2.3,1.6,4.9,2.8,8.5c0.4-2.7,0.3-4.5,1-5.7c0.5-0.9,2.1-1.5,3.2-1.5c0.8,0,2.1,0.9,2.3,1.7c2.8,7.7-0.7,17.8-7.6,22.3
		c-4.2,2.7-8,2-10.8-2.2c-1.8-2.7-3.4-5.3-6.8-6.2c-3.8-6.2-11.3-7.5-16.2-12.4c-2-2-5.4-2.7-7.9-4.9c-1.6-1.4-4.2-2.2-6.1,0.7
		c-0.4,0.6-2.5,0.6-3.7,0.2c-3.5-1-6.8-0.4-10.2,0.3c-12.2,2.4-23.6,6.9-34.9,12c0.9,1.8,2,1.1,2.8,0.8c2.3-0.6,4.5-1.4,6.8-2.2
		c3.7-1.2,7.3-2.1,9.6,2.3c5.1-2,9.8-2,14.6-1.6c3.4,0.3,6.9-0.1,10.3-0.2c0.8,0,1.6,0.2,2.3,0.5c0.4,0.2,0.8,0.8,0.8,1.2
		c0.1,0.4-0.2,1.2-0.5,1.3c-4.1,2.2-8.6,2.3-13.1,2.1c-5.9-0.3-11.5,0.6-16.3,4.4l0.2-0.2c-1.2,0.6-2.3,1.2-3.5,1.8l0.3-0.2
		c-1.4,0.1-3.1-0.2-3.5,1.8l0.3-0.2c-1.6-0.1-3-0.1-3.5,1.8l0.3-0.3C75,337.5,70.8,342,66,345c-4.5,2.8-8.6,6-12.8,9.3
		c-3,2.4-6,4.2-10.3,3.3c-1.4,2.6-3.1,4.7-3.9,7.2c-2.6,8.8-5.8,17.5-5.9,26.9c0,5-1,9.9-1.4,14.9c-0.1,1.5,0.3,3,0.6,4.8
		c1.1-0.6,1.8-1,2.4-1.3c2.3-1.1,4.5-0.3,4.7,1.9c0.2,2.1,0,4.2,0.2,6.3c0.6,9.2,1,18.4,2,27.6c0.9,8.2,4.4,15.8,8.4,22.9
		c1.8,3.2,4.4,5.9,7.8,7.7c1.6,0.8,2.9,1.9,4.3,2.9c-1,2.8-2.9,2.7-4.7,2.1c-5.3-1.9-9.9-4.9-13.1-9.8c-5.5-8.3-8.7-17.4-9.8-27.3
		c-0.3-2.4-0.4-4.7-0.7-7.1c-0.5-4.7-1.2-9.2-5.1-12.7c-1.6-1.4-2.7-4.2-2.8-6.3c-0.3-7.8-2.2-15.8,0.8-23.5
		c0.5-1.2,0.5-2.6,0.6-3.9c0.7-11.5,5-22,9-32.6c0.9-2.4,2.3-4.8,4-6.7c1.1-1.3,3.2-2.6,4.7-2.4c2.7,0.3,4.4-0.8,6.4-2.2
		c3.4-2.4,7.2-4.4,10.6-6.9c1.7-1.2,4.8-2,3.6-5.3c1.4,0.2,3,1.4,4-0.8c1.5-0.3,3.1-0.6,4.6-0.9c0.9-0.7,1.7-1.3,2.6-2
		c1.3-0.6,2.6-1.3,4-1.9c1.6-0.2,3.1-0.4,4.7-0.6c-0.1-0.2-0.2-0.5-0.2-0.7c0-0.2,0.3-0.4,0.4-0.6c-0.1,0.4-0.1,0.8-0.2,1.2
		c-1.5,0-3.4-1.5-4.5,0.8c-1.4,0.4-3.3-0.3-4,1.7c-0.9,0.6-1.9,1.2-2.8,1.8c-0.7,0.1-1.4,0.1-2,0.3c-0.8,0.2-1.6,0.6-2.4,1
		c-1.4,0.2-2.8,0.4-4.2,0.6c-5.2,5.2-11.4,7.9-18.6,8.1c-1.3-3.2,2.7-4.8,1.1-8.1c-1.2,0.8-2.6,1.4-3.5,2.5
		c-7.1,8.5-11,18.5-14.1,28.9c-3.6,11.7-5.9,23.5-7.1,35.6c-0.2,2.6-1.1,5.1-1.6,7.6c-2.3-0.1-2.3-0.1-4.1-1.3
		c-2.3,5.1-3.3,10.3-3.2,15.7c1.7,1.2,2.4-0.6,3.6-0.7c1-0.1,2,0,2.7,0c0.6,0.8,1,1.2,1.1,1.7c0.2,1.6,0.4,3.2,0.2,4.7
		c-1.1,12.2,2.2,23,9.9,32.5c0.3,0.4,0.7,0.8,0.8,1.3c0.1,0.4,0,1.1-0.2,1.4c-0.3,0.4-0.9,0.7-1.3,0.6c-1-0.2-2.2-0.4-2.9-1.1
		c-3.1-3.2-6.8-6.2-8.8-10c-2.1-4-5.1-7.2-8.2-11.5c0.3,5.7,2.4,10.1,3.7,14.8c0.3,1.1,1.6,2.2,2.7,2.7c4.6,2,7.1,5.7,8,10.2
		c1,4.9,4,7.9,7.7,10.5c2.8,2,5.7,3.7,8.7,5.5c0.3,0.2,1-0.1,1.9-0.3c-2.2-4.3-6.6-6.6-9.7-10.5c0.8-0.9,1.4-2,2.2-2.2
		c1.1-0.3,2.7-0.3,3.6,0.3c2.2,1.3,4.5,2.9,6.3,4.7c3.3,3.4,6.3,7.1,9.7,11.1c-1.1,1-2.2,1.9-3.4,3c0.2,3.9,0.8,8.3-5.2,10
		c-8.4-6.1-18-10.6-25.9-17.8c-8.8-8.1-14.8-17.9-18.4-29.1c-4.1-12.8-4.1-26-2.3-39.2c0.2-1.3,0.5-2.6,0.5-3.9
		c0-15.5,4.7-30.2,7.7-45.2c1.7-8.5,5.1-16.6,8.1-24.8c1.7-4.8,4.6-9,8.6-12.2c4.9-4,9.9-7.9,14.9-11.8c1.7-1.3,3.6-2.3,5.1-3.7
		c8.1-7.3,18.1-10.7,28.2-13.7c7.6-2.3,15.3-4.1,22.8-6.5c7.5-2.5,15.1-2.2,22.7-2.1c1.3,0,2.5,0,4.3,0c-0.3-3.7-0.4-7.1-0.8-10.4
		c-0.6-4.5-0.6-8.9,0.2-13.4c0.6-3.4,0.5-6.9,1.1-10.2c1.3-6.7,2.7-13.4,6-19.6c2.3-4.4,3.8-9.3,5.6-14c4.6-12.3,11.6-23.1,21-32.3
		c0.6-0.6,1.2-1,1.7-1.6c7.4-8.9,17.1-14.9,26.4-21.4c7.2-5,15.2-7.1,23.9-7.3c10.7-0.3,21.1,1.1,31.2,4.4c2.7,0.9,5.4,1.6,8.2,2.4
		c1.1-3.4,0.4-6.3,0-9.1c-1-6.2-0.2-12.2,1.2-18.1c2.5-10.8,5.5-21.5,10.1-31.7c2.4-5.2,5.6-10.2,9-14.9c3.7-5.1,7.8-10,12-14.7
		c3.4-3.7,7.2-7,11-10.3c4.8-4.1,10-7.8,14.7-12c12.4-11,27-17.3,42.9-21c5.1-1.2,10.3-2.2,15.4-3.4c9.1-2.2,17.8-0.6,26.6,1.7
		c4.3,1.1,8.6,2.7,13,3.6c14.3,3,26.7,9.8,38.5,18c9.1,6.3,17.9,13.1,26.7,19.8c2.5,1.9,5,3.9,7.1,6.3c7.9,8.9,16.2,17.4,23.2,27.1
		c1.5,2.1,3.3,4.1,5,6.2c2.7-1,3.1-3.7,4.8-5.2c8.7-7.7,17.1-15.7,27.9-20.7c9.5-4.4,19.7-5.6,30-6.6c12.9,1.9,25.6,4.3,34.4,15.6
		c1.9,2.5,4.2,4.6,6.5,7.1c2.1-1.1,2.4-2.9,2.9-4.5c2.6-8.6,5.3-17.1,8-25.7c1.8-5.6,5.1-10.4,8.6-15.1c2.6-3.6,5.6-7,8.2-10.6
		c4.3-6.1,9.4-11.2,15.3-15.9c10-8,20.9-14.5,32-20.4C694.2,8.6,706,5.3,718,2.8c11-2.3,22.1-2.8,33.1-2.8c9.4,0,19,0.8,28.2,3.4
		c1.8,0.5,3.6,1.1,5.4,1.3c5.7,0.5,10.7,2.9,15.6,5.3c5,2.5,10,4.9,14.5,8.1c11.1,7.8,19.3,17.9,22.9,31.3c0.5,1.7,0.7,3.8,0.1,5.4
		c-0.4,1.2-2,2.4-3.4,2.9c-1.6,0.5-3.4-0.3-3.8-2c-1-4.1-4.2-6.7-6.5-9.8c-2.2-3-5.2-5.2-9-6c-1.7-1.9-3.4-3.8-5.1-5.7
		c-7.8-8.2-17.4-13.7-27.4-18.6c-3.7-1.8-8-2.7-12.2-3.2c-14.4-1.8-28.9-3.3-43.2,0c0.2,0.1,3.3,3.1,3.7,3.6c-0.7,0.4-1.3,0.9-2,1.1
		c-9.5,2.1-19.1,3.9-28.5,6.4c-8.9,2.4-17.5,5.6-25.8,10c-8.8,4.6-16.5,10.3-23.4,17.3c-2.2,2.3-3.6,4.9-5,7.8
		c2.1,0.7,2.8-0.7,3.6-1.5c3.5-3.3,6.8-6.7,10.3-9.9c5.5-5,12.1-8.4,18.8-11.6c6.6-3.2,12.7-7.5,19.8-9.7c5.7-1.8,11.3-2.4,17.1-0.9
		c0.6,0.1,1.3,1.1,1.3,1.7c0,0.5-0.8,1.5-1.3,1.6c-4.9,0.8-9.9,1.4-14.6,3.2c-10.2,3.8-19.1,10.1-29.1,14.4
		c-9.8,7.7-19.9,15-27.2,25.2c-4.4,6.2-8.6,12.6-10.9,20.1c-0.2,0.7-0.7,1.3-1.4,2.5c-1.2-1.2-2.2-2.2-3.3-3.3
		c-2.3,1.9-1.9,4.7-1.8,7.7c1.6,0.7,3.2,1.3,4.9,2c-0.5,8.6-6.3,15.7-6.4,25.4c4.2-9.6,7.8-18.1,11.5-26.5c0.6-1.5,1.2-2.9,1.9-4.3
		c0.7-1.5,2.6-2.1,4-1.4c1.4,0.6,1.8,1.9,1.4,3.3c-1,3.3-1.9,6.6-3.2,9.8c-4.2,9.7-8.7,19.2-13,28.9c-0.7,1.4-1.3,2.7-3.1,3.2
		c-2.6,0.7-1.4,3-2,4.6c1.7,0.7,3.1,1.3,4.4,1.9c1.4,2.9-0.5,4.9-1.8,6.6c-3.4,4.5-8,7.7-13.4,9.4c-1.3,0.4-3.1-0.2-4.3-0.9
		c-0.7-0.3-1-1.8-1.1-2.7c0-0.5,1-1.6,1.5-1.6c4.4-0.1,7.1-3.1,10.4-6c-0.6-2.9-1.1-5.8-1.9-9.6c-1.2,2.1-1.9,3.5-2.7,4.8
		c-0.9,1.4-2.2,2.4-4,1.8c-1.5-0.4-1.8-1.7-2-3.1c-0.7-4.7-1.3-9.4-2.2-14c-0.2-1-1.4-1.8-2.7-3.2c-0.3,3.2-0.4,5.5-0.8,7.9
		c-0.1,0.5-1.1,1.3-1.7,1.3c-0.6,0.1-1.4-0.5-1.9-1.1c-0.4-0.6-0.6-1.5-0.7-2.2c-0.8-6.1-3.8-10.9-8.4-14.8
		c-5.6-4.7-10.9-10-18.2-12.3c-4.5-1.4-8.9-0.7-13.3-0.1c-0.6,0.1-1.5,0.9-1.6,1.5c-0.4,2.7-3.3,2.3-4.6,3.9l0.3-0.2
		c-6.1-1.6-11.7,0.7-16.4,3.8c-5,3.3-9.5,7.3-13.1,12.5c-5.3,7.5-6.7,16-8.3,24.5c-1,5.4-1.6,11-2.3,16.5c-0.1,1,0.1,2.1,0.3,4.5
		c1.3-2.4,2.3-3.6,2.7-4.9c1.2-5.1,2.3-10.3,3.3-15.5c1-5,2.9-9.6,6.4-13.4c1.8-2,3.7-1.4,5.4,0.3c0,0.6,0.2,1.3,0,1.6
		c-3.9,6.5-5.6,13.6-6.5,21c-0.3,2.9-1.2,5.7-2,8.5c-1.4,4.8-3.3,9.5-3.4,14.6c0,0.7-1.2,1.9-2,2c-0.8,0.1-2.2-0.8-2.4-1.5
		c-0.9-3.2-1.5-6.6-2.3-10.1c-2.1-0.6-2.9,1.4-3.9,2.7c-1.9,2.6-4.4,3.7-7.9,3.2c-0.5-1-1.4-2.1-1.5-3.2c-0.8-9.2-1.6-18.4-2.1-27.6
		c-0.3-5.8,0.3-11.6,0.1-17.4c-0.3-7.3-3.1-13.6-8.7-19.7c0,1.7-0.1,2.4,0,3.1c0.2,1.5,1.2,3.3-0.9,4c-1.9,0.7-3.1-1.1-3.6-2.4
		c-3.8-9.5-12.7-12.7-20.7-18c0.2,1.1,0.1,1.6,0.3,1.8c6,6,11.3,12.6,15.6,19.9c0.8,1.4,1.6,2.8,2.8,3.9c3.3,3.1,4.6,7,5.3,11.2
		c0.8,4.7,1.9,9.3,4.1,13.6c0.4,0.8,0.3,2,0.4,2.8c-1.8,1.5-3.3,1.3-4.4-0.1c-3.2-4-5.1-8.7-5.8-13.7c-0.5-3.5-1.8-6.5-3.9-9.3
		c-2.7-3.6-4.8-7.6-7.5-11.2c-3.2-4.2-6.1-9-10.2-12c-7-5-14.4-9.8-22.5-13c-1.7-0.7-3.6-0.9-5.2-1.7c-9.3-4.8-19.3-6.8-29.6-7.2
		c-2-0.1-3.3-0.7-4.7-2.2c-2.6-2.8-10-3.8-11.3-1.2c-1.5,2.9-4.6,2.9-6.6,5.4c2.2-0.1,4-0.3,6.1-0.4c0.5,1.9,1,3.5,1.5,5.3
		c6.1,0.9,12.5,0.6,18.3,2.5c0.5,2.6-1,3.4-2.5,3.7c-2.1,0.4-4,0.7-4.8,3.2c-0.3,0.9-2,1.5-3.2,1.8c-3.6,0.9-7.2,1.6-10.8,2.5
		c-3.6,0.8-7.3,1.3-10.5,3.5c-0.8,0.6-2,0.7-3,0.9c-2.2,0.6-3.6,0.2-4-1.2c-0.4-1.7,0.7-2.5,1.9-3c2.1-1.1,4.3-1.9,6.5-2.9
		c1.2-0.5,2.4-1.1,4.3-2.1c-2.1-1.1-3.6-1.8-5.1-2.6c-1-2.4-2.1-4.7-3-7.1c-0.6-1.7-1.7-2.4-3.5-2.6c-0.8-0.1-2-1.2-2.1-1.9
		c-0.1-0.7,0.8-2,1.6-2.4c3.4-1.4,6.9-2.5,10.4-3.6c-0.3-1.9-1.6-2.8-3.3-2.2c-6.5,2.2-12.9,4.5-19.4,6.8c-0.4,0.2-0.7,0.7-1.5,1.6
		c1.5,1.7,3.1,3.5,5.1,5.8c-8,5-15.7,9.8-24.4,15.2c6.6-1.2,11.6-3.9,16.9-5.7c5.1-1.6,9.5-5.7,16.3-4.7c-1.4,1.4-2.2,2.5-3.3,3.1
		c-4,2.1-8,4-12.1,5.8c-5,2.3-10.3,4.1-15.2,6.6c-10.7,5.5-20.2,12.5-26.3,23.3c-0.7,1.1-1.5,2.2-2.3,3.4c0.6,2.8,1.2,5.6,1.9,9
		c4.2-5.2,6.2-11.3,10.3-16.5c1.1,0.3,2.6,0.7,4.4,1.2c2.2-4.9,6.5-7.2,11.6-8.3c2.1-0.4,4.2-1.1,5.9,1.6c-1.5,1.3-2.8,3.3-4.5,3.9
		c-4.1,1.6-6.2,4.7-7.6,8.5c-0.5,1.4-1.5,2.6-2.5,4.2c-1.7-0.8-3.1-1.5-4.9-2.4c-1.2,2.2-2.5,4.4-3.6,6.2c0.4,2.4,2.1,1.6,3.2,2.1
		c1.9,0.9,2.7,2.6,2.6,4.5c-0.2,3.1-0.6,6.3-1,9.5c1.8,0.9,3.7,1.7,5.3,2.9c5.8,4.2,8,9.9,5.8,16.6c-1.8,5.5-3.6,11.2-9.2,14.3
		c-0.7,0.4-1.1,1.1-1.7,1.7c-10.6,10.7-23.5,12.1-37.4,9c-7.9-1.7-15.8-3.7-23.7-5.6c-1.6-0.4-3.1-0.8-2.9-3.6
		c1.5-0.7,3.4-1.5,5.4-2.4c-0.5-0.6-1-1.5-1.6-1.6c-3.5-1-6.2,0-7.6,4.2c-4.8-0.8-9.5-1.6-14.2-2.4c-6-1-12-2-17.9-2.8
		c-5.6-0.8-11-0.4-16.4,1.4c-3.9,1.3-4.4,0.8-5.4-4.1c-2.2,0.4-4.5,0.8-7.1,1.2c-0.2-1.9-0.3-3.4-0.5-4.9c1.7-0.5,3.5-1,5.1-1.7
		c0.5-0.2,0.7-1.1,1-1.7c1.1,0,2.1,0,3.9,0c-2-1.4-3-1-3.8,0.2C198.9,183,196.7,184,195.5,186.6z M540.5,104.4
		c2.8-0.4,5.7-0.8,8.5-1.4c1-0.2,2-0.7,1.1-2.6c-2.6,0.6-5.4,1.2-8.1,2c-0.6,0.2-0.9,1.1-1.3,1.7c-0.4,0.1-0.8,0.1-1.2,0.2
		c0-0.2,0-0.4,0-0.6C539.8,104,540.2,104.2,540.5,104.4z M155,228.2c1.2,0.4,2.4,1.2,3.5,1.1c1.4-0.2,2.3,2.8,3.9,0.6
		c-0.8-2.1-1.5-4.1-2.5-6.7c-1.8,1.9-3.3,3.5-4.8,5.3c-0.5,2-1,4-1.6,6.5C156.2,232.7,155.1,230.4,155,228.2z M247,189.4
		c1.3-0.1,2.5-0.1,3.7-0.4c0.8-0.2,1.4-0.9,2.5-1.5c-3.4-1.5-4.8,0.5-6.4,2.1c-0.1-1.8-1-2.8-2.9-3c-6-0.6-12-0.2-17.7-2.1
		c-1.2-1.4-0.8-4-3.5-3.8c-2.4,0.2-2.5,2.3-3.2,3.9c-0.2,0.4,0.1,0.9,0.2,1.5c5.4,0.7,10.8,1.4,16.3,2
		C239.6,188.7,243.3,189.1,247,189.4z M325.5,111.7c-0.6-0.7-1.8-1.6-1.8-2.2c0.4-2.4,1.5-4.4,3.7-5.8c3.8-2.4,7.6-4.8,11.4-7.2
		c1.1-0.7,2.4-1.3,3.3-2.2c0.9-1,3-1,2.9-3.5c-3.7,1.3-7.4,2-10.5,3.8c-6.8,4.1-13.2,8.7-18.3,14.9c-8.3,10-15.2,20.9-21.3,32.3
		c-0.8,1.6-1.5,3.3-2.3,5.2c3.5,4.5,7.3,8.4,11.9,11.5c-0.1,1.2-0.2,2.5-0.3,3.7c3.5,1,4.2,1.6,4,3.7c-0.1,0.8-0.1,1.6-0.4,2.3
		c-2,4.8-5.4,8.6-10,10.9c-3.1,1.6-6.7,1.8-9.9-0.1c-1.1-0.6-2.2-1.8-1.5-3.3c0.4-0.8,1.4-1.6,2.3-1.9c1.2-0.4,2.7,0,3.9-0.3
		c3.1-0.6,5.9-1.7,7.4-6c-3.3,0.9-5.7,1.7-8.2,2.2c-4.3,0.9-7.9-0.3-10.4-4c-5.2-7.6-7.2-15.8-3.9-24.8c1-2.7,1.9-5.5,2.6-8.3
		c3.7-15.4,13.6-26.8,25-36.7c4.7-4.1,9.9-7.8,15-11.5c0.8-0.6,1.8-1.1,2.8-1.5c0.4-0.1,1.1,0.1,1.4,0.4c0.5,0.6,1,1.4,0.9,2
		c-0.2,1-0.8,2-1.6,2.6c-3,2.6-5.9,5.3-9.2,7.6c-8.1,5.8-14.6,13.1-20,21.2c-6,8.8-8.9,19.2-11.7,29.3c-1.8,6.6-0.6,13.1,5.6,17.9
		c2.8-1.5,6.5-0.3,8.5-3.9c-0.7-0.8-1.5-1.5-2.1-2.3c-8.6-10.3-9.1-9.2-3.9-21.5c3.4-8.1,8.5-15.2,13.4-22.4
		c7.4-11,16.9-19.5,28.2-26.2c0.7-0.4,0.9-1.6,1.4-2.4c5.4,1,10.4-1.3,16.1-1.5c-0.5-1.6-0.6-2.9-1.2-3.4c-0.7-0.5-2.1-0.7-2.9-0.3
		c-2.2,0.9-4.1,2.2-6.2,3.2c-1.9,0.8-3.8,1.4-5.7,2c0.1-1-0.3-2.5,0.3-3c4.9-4,9.7-8.1,15.8-10.1c6.8-2.2,13.5-4.4,20.3-6.7
		c5.3-1.8,10.7-2.7,16.3-1.7c1.5,0.3,3.1,0.1,4.6-0.1c5.3-0.4,10.5,0.4,15.6,2.1c2.5,0.8,3.9,2.5,3.2,5.7c-1.3,0.3-2.5,0.9-3.7,0.8
		c-2.1-0.2-4.1-1-6.2-1.4c-9.4-1.6-18.7-2.3-28.1,1.3c4.7,2.5,4.7,2.5,7.4,2c1.8-0.3,3.7-0.6,5.4-1.2c6.7-2.1,12.4-0.9,17.2,4.6
		c4.1-1.2,8-0.6,11.7,1c1.2,0.5,2.5,0.7,3.8,1c5.7,1.2,11.3,2.5,16.2,5.9c1.3,0.9,2.8,1.5,4.3,1.9c6.8,1.6,12.2,6,18.2,9.1
		c0.7,0.1,1.4,0.2,2.1,0.2c0.2,0,0.4-0.4,0.6-0.7c-0.2,0-0.5-0.2-0.6-0.1c-0.7,0.2-1.4,0.4-2,0.6c0.8-1.3,0.8-2.5-0.6-3.4
		c-2.2-1.4-4.7-2.5-6.8-4.1c-9.9-7.6-20.9-12.3-33.6-12.3c-1.1,0-2.7,0.2-3-2.2c1.1-0.4,2.2-1.1,3.4-1.2c3.1-0.3,6.3-0.4,9.5-0.6
		c1-0.1,2.2,0.3,2.3-1.8c-2.2-1.4-4.4-3.5-7-4.3c-8.9-2.6-17.8-5.1-26.8-6.9c-4.6-0.9-9.5-0.6-14.2-0.1c-5.2,0.5-10.4,1.8-15.6,2.7
		c-10.8,1.8-21,5-29.6,12.3c-1.8,1.5-3.8,2.8-5.7,4.2c-0.9,0.6-1.7,1.4-2.6,1.8c-0.9,0.3-1.9,0.2-2.9,0.3c0-0.9-0.4-2,0-2.8
		c0.5-1.2,1.5-2.1,2.4-3.2c2.6-3.2,5.3-6.4,7.9-9.6c1.2-0.5,2.4-0.9,3.7-1.4c-0.2-0.3-0.4-0.7-0.6-1c-1,0.8-2,1.7-2.9,2.5
		c-5.3,1.3-9.3,4.8-13,8.5c-5.8,5.7-11.3,11.8-16.9,17.7c-4.2,4.4-8.2,8.9-12.5,13.2c-9.2,9.1-15.4,20-20.4,31.7
		c-2,4.7-2.7,9.1-0.1,14.3c1.9,3.8,1.6,8.7,2.8,13c0.9,3.3-1.4,4.4-3.3,5.7c0.3,1.7,0.5,3.1,0.8,4.8c-2.1-0.1-3.8-0.2-5.9-0.4
		c2.4,7.9,6.5,13.2,14.1,15.2c1,0.3,2,0.7,3,1c0.2,0,0.5-0.1,0.7-0.1c0.1,0,0.2-0.2,0.4-0.3c-0.4,0.2-0.8,0.4-1.3,0.6
		c0.9-1.4,0.4-2.3-0.7-3.4c-3.4-3.3-6.2-7-6.9-11.6c1.6-1.8,3.2-2,4.5-0.9c1.2,1,2.2,2.3,3,3.6c3,4.7,7.6,6.8,12.7,6.6
		c9.4-0.2,13.6,0.7,15.1-12.3c0.1-1,0.1-2.1,0.4-3.1c0.3-1.2,0.8-2.3,1.3-3.5c1.2,0.2,2,0.2,2.7,0.3c0.9,0.1,1.8,0.3,2.7,0.4
		c1.6-10,1.6-10-0.1-13.6c-0.9,2.1-1.7,4.2-2.5,6.1c-1.1-0.1-1.8,0.1-2-0.2c-2.4-2.6-3-6.6-6.7-8.1c-0.5-0.2-0.8-1.4-0.9-2.1
		c-0.5-2.6-1-5.2-1.2-7.8c-0.1-1.5,0.3-3.2,0.9-4.5c6.4-13.7,6.5-13.7,19.5-22.8c0.6-0.4,1.1-1,1.6-1.5c0.1-0.1-0.1-0.5-0.1-0.7
		c0.6-0.1,1.2-0.3,1.8-0.4c-0.2-0.1-0.4-0.4-0.5-0.3C326.2,111.1,325.8,111.4,325.5,111.7z M475,99.2c-0.9-3.8-3.5-6-6.4-7.7
		c-6.4-3.8-12-8.6-16.7-14.5c-4.4-5.4-10.5-8.7-16.3-12.4c-0.6-0.4-2.1,0.7-3.8,1.3c2.7,2.1,4.9,3.5,6.6,5.3c1.8,1.9,3,4.3,4.6,6.4
		c0.6,0.8,1.4,1.6,2.3,2.2c3.1,2.1,6.1,4.1,9.3,6c4.6,2.6,9.1,5.2,13.2,8.8C470,96.4,472.6,97.7,475,99.2z M296.4,191.7
		c6,3.2,8.4,3.4,11.9,1.9c6.2-2.6,10.8-7.1,14.6-12.4c1.1-1.5,1.8-3.2,2.4-4.9c0.8-2.2-0.9-4.9-3.3-5.2c-1.9-0.3-3.9-0.3-6.6-0.6
		c0.6,8,0,15.5-7.4,20.5C304.9,191.2,301.5,191.4,296.4,191.7z M422.6,62.1c-5.2-5-10.8-7.5-18.7-8.9c-3.4-0.6-6.7-0.9-9.7-3
		c-2-1.4-4.8-2-7.3-0.8c-0.3,2.1,0,3.4,2.1,3.8C400.3,55.2,411.7,57.3,422.6,62.1z M354.6,51.8c-7,0.9-7,0.9-10.4,8.6
		c6.4-1.5,13-3,19.6-4.5c0-0.2,0-0.4,0-0.5c-2.5,0-5,0-7.6,0C355.6,54.1,355.1,52.9,354.6,51.8z M152.2,262c0.4-3.5,1-6.6,1.2-9.7
		c0.1-2.1-1.1-3.4-3.5-3.5c-2.5,4.6-2.8,9.9-3.6,15c0,0.3,0.5,0.7,0.7,0.9C148.7,263.9,150.3,263.1,152.2,262z M142.2,275.9
		c0.2,0,0.5-0.1,0.7-0.1c-0.2-0.9-0.3-1.8-0.5-2.7c-0.2,0-0.3,0.1-0.5,0.1C142.1,274.1,142.2,275,142.2,275.9z M507.5,157.2
		c0.1-0.5,0.3-0.9,0.3-1.4c0-0.3-0.3-0.5-0.5-0.8c-0.1,0.2-0.2,0.5-0.1,0.7C507.2,156.3,507.4,156.8,507.5,157.2z M335.5,58.3
		c-1.4,0-2.2-0.1-2.8,0.1c-0.3,0.1-0.5,0.8-0.7,1.2c0.4,0.2,0.9,0.6,1.2,0.4C333.8,59.7,334.3,59.2,335.5,58.3z M219.2,174.7
		c-0.2-0.1-0.4-0.3-0.6-0.4c-0.2,0-0.5,0.1-0.7,0.2c0.2,0.1,0.4,0.3,0.6,0.4C218.7,174.9,219,174.8,219.2,174.7z M140.3,293.6
		c-0.4,0.7-0.7,1.3-0.9,1.9c0,0.1,0.5,0.5,0.5,0.4c0.5-0.4,0.9-0.8,1.3-1.2C141.3,294.6,140.8,294.1,140.3,293.6z M169.5,326.4
		c-0.1-0.2-0.1-0.4-0.2-0.6c-0.1,0.3-0.2,0.5-0.3,0.8C169.2,326.5,169.4,326.5,169.5,326.4z M373.7,54.1c-0.1-0.2-0.1-0.5-0.2-0.5
		c-0.2,0-0.4,0.1-0.7,0.2c0.1,0.2,0.1,0.5,0.2,0.5C373.2,54.3,373.4,54.2,373.7,54.1z M17,401.6c-0.2,0-0.5,0-0.5,0.1
		c-0.1,0.2-0.1,0.5-0.1,0.7c0.3-0.1,0.6-0.1,0.9-0.2C17.2,402.1,17.1,401.8,17,401.6z"/>
	<path class="st0" d="M498.8,320c4.7-1.6,9.4-3.2,14.2-4.6c5.8-1.8,11.9-2,17.6-2.1c-0.6-6.1-1.8-11.9-1.4-17.6
		c0.5-8.4,1.7-16.8,3.2-25.1c0.7-3.8,2.6-7.5,4.4-11c7.1-13.6,15.9-26.2,26.4-37.4c3-3.2,7.1-5.5,10.5-8.4c4-3.5,8.6-6.3,13.5-8.1
		c10.2-3.7,20.4-7.3,31-9.4c6.7-1.3,13.6-2,20.4-3c7-1.1,13.7,0,20.2,2.6c4.6,1.8,9.2,3.7,14.4,5.8c0.5-3.7,1.2-6.7,1.4-9.8
		c0.7-9.3,3-18.2,7.1-26.6c1.8-3.8,3.7-7.6,5.6-11.4c5.8-11.9,15.3-20.2,26.3-26.7c6.8-4,14.1-7.4,21.5-9.9
		c17.9-6,36.2-7.1,54.5-1.7c14.3,4.2,24.9,13.4,33.4,25.3c6.1,8.6,9.1,18.5,11.5,28.5c1.3,5.2-0.7,10.4-2.1,15.4
		c-0.6,2-1.6,3.9-2.6,6.1c-3.5,1.3-7.1,2.7-10.8,4c-5.7,2-11.5,1.6-17.3,0.8c-1-0.1-2-0.6-2.9-1.1c-1.9-1.1-2.1-2.9-2-4.8
		c0.1-1.9,1.3-2.7,3.1-2.9c1-0.1,2-0.4,2.9-0.6c0.1-0.8,0.4-1.3,0.3-1.8c-0.9-2.8,0.1-5,2.7-5.7c4-1,5.3-4,6.5-7.3
		c0.4-1.2,0.4-2.7,1.1-3.8c3.5-5.3,1.9-10-1.4-14.6c-1.2-1.7-2.7-3.2-3.8-5c-0.9-1.5-1-3.6-2.1-4.9c-1.8-2.2-4.1-4-6.4-6.2
		c-1.2,1.1-2.1,1.9-3,2.7c-0.5-0.1-1.1,0-1.4-0.3c-7.4-6-16.2-7.7-25.2-7.9c-5.8-0.1-11.6,0.7-17.3,1.7c-3.8,0.7-7.5,2.5-11.2,3.9
		c-3.1,1.2-6.1,2.9-10.4,2.4c1-2,1.7-3.4,2.5-5.2c-2.8,0.3-4.8,1.4-6.1,3.7c0.9,1.2,1.8,2.5,3,4.1c-1.2,1-2.2,2.1-3.5,2.9
		c-1.1,0.7-2.6,0.7-3.6,1.4c-10.7,7.8-21,16.1-26.2,28.9c-2.8,6.8-5.5,13.7-8.4,20.8c-1.3,0.2-2.8,0.3-4.6,0.6
		c0.4,1.8,0.7,3.4,1.1,5.6c2.4-1,4.3-1.6,5.4-3.6c0.6-1.1,1.5-2.3,2.5-3c0.7-0.5,2-0.7,2.9-0.5c1.4,0.4,2.1,1.7,1.7,3.1
		c-0.6,2-1.5,3.9-2.2,5.9c-0.5,1.2-0.9,2.5-1.3,3.7c1.5,4.6,4.3,8,8.1,10.7c6.4,4.5,12.6,9.3,18.4,15.4c1.3-1.8,2.3-3.2,3.4-4.6
		c4.2,0,8.4,0,12.6,0c1.4,0,1.4,0.1,2.5,3.5c-2.5,1.8-5,3.6-7.9,5.6c0.3,1.5,0.6,3,0.8,4.4c0.4,3.7-0.8,5.6-4.3,6.3
		c-1.3,0.3-2.7,0.5-3.9,0.2c-5.4-1.2-10.8-2.6-16.1-4c-10.8-2.9-18.1-10.4-24.6-18.9c-1.3-1.7-2.9-3.3-3.6-5.2
		c-1.5-3.8-4.8-5.4-7.8-7.5c-1.1-0.7-2.6-1-3.4-1.9c-3.5-4.2-8.5-5.1-13.4-6.3c-10.8-2.5-21.6-1.3-32.3,0.3
		c-4.2,0.6-8.3,1.7-12.4,2.8c-1.9,0.5-3.7,1.4-6.8,2.6c4.4,0.4,7.4,0.6,11.7,1c-1.7,1.3-2.3,2.1-3.2,2.5
		c-17.6,7.4-30.6,20.3-42.7,34.5c-3.3,3.8-6.7,7.5-10.3,11c-8.1,7.8-12.4,17.5-14.6,28.3c-0.1,0.3,0.4,0.8,0.9,1.8
		c1-2,1.6-3.7,2.6-5.2c0.7-1.1,1.6-2.1,2.6-2.9c0.5-0.4,1.7-0.6,2.2-0.3c0.8,0.5,1.8,1.6,1.7,2.3c-0.2,2.3-0.7,4.7-1.5,6.9
		c-2,5.7-2,11.3-0.5,17.1c2.4,9.5,11,16.8,20.9,17.8c0.7,0.1,1.4-0.3,2.1-0.5c-1.4-3.2-2.8-6.3-3.9-9.5c-0.2-0.7,0.5-2.2,1.2-2.5
		c0.7-0.3,2.2,0.2,2.7,0.8c0.8,0.9,1.1,2.4,1.7,3.5c0.8,1.4,1.7,3,3.5,2.6c2.1-0.4,1.8-2.3,1.7-3.8c0-1,0-2,0-2.8
		c1.3-1.5,2.6-1.2,3.8-0.6c1.4,0.8,2.8,0.8,4.4,0.7c7-0.3,14.4,6,14.8,12.7c0.1,2.5-1.1,5.1-1.7,7.8c1.1,1.3,2.3,0.4,2.9-0.7
		c1.9-3.5,3.9-6.9,5.2-10.6c0.6-1.8-0.5-4.1-0.5-6.1c0-0.9,0.6-2.2,1.3-2.5c0.7-0.4,2.2-0.2,2.9,0.3c2.7,2.1,3.7,5.3,3.2,8.5
		c-1,6.1-3.7,11.6-7.8,16.2c-1.8,2-4.9,3.5-7.6,3.8c-7.8,1-15.7,1.4-23.6,1.9c-11.1,0.7-20.8-3-29.6-9.4c-6.5-4.7-13.3-8.4-21.6-8.7
		c0.1,3.1,2,4.9,4.2,6.4c2.8,1.9,5.8,3.6,8.7,5.5c0.5,0.3,1,1.4,0.8,1.9c-0.1,0.6-1,1.3-1.6,1.3c-5,0-9.1-2.4-12.9-5.3
		c-3.1-2.4-5-5.4-4.6-9.5c0-0.4-0.4-0.9-0.6-1.3c-21.4-1.8-46.5,27-37.6,50.7c-0.2,0.5-0.4,1-0.7,1.4c-1.8,2.5-4,4.6-7.2,3.4
		c-3.1-1.2-5.4-3.8-5.5-7.1c-0.1-5.5,0-11.1,0.8-16.6c1.1-7.1,4.1-13.6,8-19.7c1.3-2,2.7-3.9,4.3-6.3c-2.2-0.5-4.1-1-6.5-1.6
		c0.4-1.4,0.4-2.9,1.1-3.7c2.6-2.9,5.3-6,8.4-8.4c5-3.9,10.4-7.3,15.5-10.9c2.6-1.8,5.2-3.7,7.5-5.8c3.6-3.4,5.8-7.5,5.4-12.6
		c-0.4-5.1,0.3-10,2.6-14.7c1-2,2.4-2.6,4.6-1.9c0.2,0.6,0.7,1.4,0.7,2.1c-0.4,5.5-0.9,11-1.2,16.5c-0.3,5.6-3.1,10.1-7.1,13.7
		c-3.5,3.2-7.5,5.7-11.2,8.7c-2.2,1.8-4.1,4-6.2,5.9c-1.9,0.1-3,1.2-4.1,2.9C497,322.9,498.1,321.8,498.8,320z M695.7,223
		c0.2-2.1-0.8-3-4.4-3.1c2.2,1.7,3.2,2.5,4.3,3.2c0.2,0.7,0.1,1.9,0.5,2.1c4,2.5,8,4.9,12.1,7.1c0.7,0.4,1.9-0.1,4.3-0.2
		C706,228.6,701.5,224.6,695.7,223z M593.2,217.4c-1-0.1-2.2-0.5-2.9-0.1c-8.6,4.8-15.5,11.4-21,19.6c-0.1,0.1,0.1,0.4,0.4,1.2
		c1.9-1.9,3.7-3.6,5.5-5.3c5.9-5.2,11.9-10.3,17.7-15.5c0.8-0.8,1.7-1.6,2.5-2.4C594.2,215.2,591.5,214.7,593.2,217.4z M821.3,168.4
		c-2.3,2-3.1,4-3.5,6.3c-0.8,4.3-3.1,7.7-7,9.8c-0.6,0.3-1.3,0.6-3.3,1.6c6.6,1.1,9.4-2.1,11.5-5
		C821.5,177.7,823.1,173.5,821.3,168.4z"/>
	<path class="st0" d="M242.4,393.1c0.4-2.5,0.7-4.1,0.8-5.6c0.8-16.9,7.4-31.7,16.4-45.7c5.5-8.4,12.3-15.9,18.8-23.5
		c2-2.4,4.4-4.5,7-6.4c6.8-4.9,13-10.8,21-14.1c8.9-3.7,18.2-5.7,27.7-6.4c12.1-0.8,24.3-0.6,36.3,2.3c1,0.2,2.1,0.5,3.1,0.7
		c12.6,1.8,24.2,7.7,33.2,16.8c1.1,1.1,2.2,2.3,3.4,3.4c12.2,11.4,13.7,25.5,10.3,40.8c-0.5,2.1-1.4,3.9-3.4,5
		c-1.8,1-3.8,0.5-4.4-1.5c-0.4-1.5-0.6-3.1-0.5-4.6c0.3-5,1.1-9.9,1.2-14.9c0-6.3-2.2-11.9-6.3-16.7c-6.3-7.3-13.9-13-22.9-16.5
		c-2.2-0.9-4.5-1.8-6.8-2.2c-13.3-2-26.6-4.7-40.2-3.2c-13.5,1.5-26.7,4.4-37.5,13.3c-12,10-23.1,20.8-31.2,34.4
		c-5.7,9.6-10.6,19.5-13,30.5c-2,9.4-3,18.8-1.5,28.3c0.3,1.8,0.5,3.7,0.5,5.5c0,3.4-3.8,5.6-6.8,3.8c-1.1-0.6-2.1-1.6-2.8-2.7
		c-1.2-1.8-2.2-3.6-3-5.6c-4.2-9.7-12.6-12.4-21.9-12.7c-7.6-0.3-14.6,1.9-20.5,7.1c-2.9,2.6-6.1,5.1-8.9,7.8
		c-6.9,6.6-9.3,15.2-10.4,24.2c-0.3,2.2,0.7,4.6,0.9,6.9c0.3,3.1,0.7,6.3,0.7,9.4c0,1.6-0.8,3.1-2.6,3.6c-2,0.5-3.7,0-4.9-1.7
		c-0.8-1.1-1.6-2.2-2-3.4c-2.2-7-3.5-14-2.1-21.6c2.3-13.4,9.9-22.9,19.6-31.5c7.4-6.6,16-9.8,25.7-10.7c7.1-0.7,13.6,0.8,20,3.7
		C237.3,390.3,239.3,391.5,242.4,393.1z"/>
	<path class="st0" d="M209.7,212c6.1,0,12.1-0.2,18.2,0c5.7,0.2,10.8,2,14.8,6.9c3.5,0.3,7.5-2.1,11,0.1c0.2,2.5-1.5,3.1-2.9,3.6
		c-6.6,2.5-13.4,4.8-20,7.3c-2.7,1-5.3,2.3-8,3.3c-0.9,0.4-2,0.6-3,0.6c-0.4,0-1.1-0.4-1.3-0.8c-0.3-0.7-0.5-1.7-0.2-2.1
		c2.2-3.3,5.7-4.6,9.1-5.9c2.7-1,5.5-1.6,7.6-3.9c-4.8-1.9-8.2-2.1-13.6-0.7c-5.1,1.4-10.2,2.4-14.9,5.1c-2.9,1.7-4.4,0.7-6.3-3.2
		c-12.1,2.3-20,8.4-21.1,19.9c2.8-0.7,5.3-1.9,5.6-4.7c0.4-3.5,2.6-5.1,5.2-6.3c2.6-1.2,5.4-2.1,7.5-2.9c2.5,1,4.3,2,6.2,2.4
		c2,0.4,4.1,0.2,5.9,0.3c0.8,2.3-0.7,2.7-1.7,3.4c0.3,1.9,0.6,3.9,0.9,5.9c0,0,0.2-0.1,0.2-0.1c-10.8,3.7-19.6,9.9-25,20.3
		c-1.1,2.1-2,4.3-3.2,6.3c-0.8,1.3-1.9,2.4-2.8,3.5c-2.7-1.1-3.7-2.8-3.1-5.1c0.8-3,1.8-5.9,2.3-9c-3.3,3.1-6.8,6-6.9,11.2
		c-0.1,3.9,0,7.9-1.4,11.7c-1.2,3.2-0.2,6.3,2.3,8.7c4.1,4,6,9.2,8.3,14.2c0.4,0.9,0.9,2,0.8,3c-0.1,1-0.5,2.1-1.2,2.8
		c-1.1,1-2.5,0.8-3.6-0.2c-0.9-0.8-1.8-1.9-2.4-3c-2.8-5.1-5.5-10.2-8.2-15.3c-1.9-3.5-2.8-6.9-1.7-11.2c1.3-5,0.7-10.5,0.9-15.7
		c0.1-2.1,0.1-4.2,0.3-6.3c0.1-0.7,0.6-1.4,1.1-2.5c1.6-0.1,3.4-0.2,5.2-0.5c1.9-0.3,3.2-2.7,1.9-4.1c-1.8-1.9-1.8-3.7-1.2-5.8
		c2.7-9.8,6.5-18.9,14.8-25.5c1.6-1.3,3.1-2.8,4.7-4.2l-0.2,0.1c3.4-2.2,6.2-0.6,8.7,1.8c3.8-1.3,7.2-2.4,10.6-3.5L209.7,212z"/>
	<path class="st0" d="M810.1,34.2c1.7,1.9,3.4,3.8,5.1,5.7c2.2,2.3,4.4,4.5,6.5,6.9c2.4,2.8,3.2,6,2,9.6c-0.2,0.6-1.1,1.4-1.7,1.4
		c-0.6,0.1-1.8-0.5-1.9-0.9c-3.2-10.9-11.7-16.3-21.2-20.6c-8.9-4.1-17.7-8.3-27.3-10.6c-16.1-3.8-31.9-3.6-47.4,4.3
		c0.2,1.4,0.5,2.8,0.8,4.7c-3.5,1.4-7,3.1-10.7,4.4c-12.6,4.3-24.4,10.3-34.6,18.8c-5.6,4.7-11.1,9.7-15.1,16.1
		c-2.5,4-5.3,7.9-8.1,11.7c-0.7,1-1.9,1.6-3.5,2.8c-0.6-2-1.5-3.5-1.4-4.8c0.3-2,1-4.2,2.2-5.8c7-10.3,14.5-20,24.3-27.9
		c9.9-8,21.1-12.8,33.1-16.3c2.5-0.7,5.1-1.3,7.7-1.9c0.3-2,0.7-3.6,2.4-5.3c7.4-7.2,16.8-8.8,26.2-9.3c14.4-0.7,28.3,1.7,41.4,8.4
		C795.8,28.9,802.6,32.5,810.1,34.2z"/>
	<path class="st0" d="M793.9,69.2c4.7,6.6,11.7,9.5,19.2,11.5c3.8,1,7.7,1.8,11.5,2.9c2.3,0.7,4.5,1.6,6.5,2.7
		c0.6,0.3,0.8,1.6,1.5,3.2c-2.4-0.3-3.9-0.3-5.3-0.6c-5.7-1.1-11.4-2.2-17.1-3.5c-6.5-1.6-12.4-4.1-17.5-8.8
		c-2.7-2.4-6.1-4.2-9.5-5.5c-10.7-4.1-21.9-6.1-33.4-5.1c-3.4,0.3-5.6-0.6-5.3-1.8c0.5-2.3,2.7-2.4,4.3-2.9c2.3-0.6,4.7-1.2,7-1
		c8.4,0.4,16.9,0.5,25,3.4c0.7,0.3,1.5,0.2,3.3,0.3c-1.5-1.3-2.3-2.3-3.3-2.8c-6.4-3.1-12.9-6.1-19.3-9.1c-2.6-1.2-5.6-1.7-7-4.6
		c1.7-2.6,4.2-2.4,6.5-1.7c4.5,1.4,9.2,2.7,13.3,4.9c7.9,4.2,15.5,9,23.3,13.6c2.3,1.3,4.6,2.6,6.7,4.1c0.7,0.5,1,1.5,2.3,3.4
		c-5-1.2-8.8-2-12.5-2.9c-0.5-0.4-1-0.8-1.5-1.1c-0.1,0-0.5,0.5-0.7,0.8C792.6,68.7,793.3,69,793.9,69.2z"/>
	<path class="st0" d="M332.2,316.3c-1.6,0.9-2.6,1.8-3.8,2.1c-11.1,2.7-20.2,8.5-28.6,16.3c-4.7,4.3-9.2,8.6-13.2,13.5
		c-6.5,8-12.7,16.2-16.2,26.1c-0.6,1.7-1.2,3.6-2.2,5.1c-3.7,5.3-6.4,10.9-8,17.1c-0.2,0.9-1.1,1.8-2,2.3c-0.4,0.3-1.6,0-2-0.4
		c-0.5-0.5-0.7-1.4-0.7-2.2c-0.2-3.8,0.5-7.3,2.1-10.8c3-6.5,6-12.9,8.6-19.6c2.4-6,6.4-10.9,10.1-16c9.4-13,20.9-23.7,34.5-32.2
		c4.1-2.6,8.7-3.8,13.4-4.4C327,312.9,329.7,313,332.2,316.3z"/>
	<path class="st0" d="M552.8,110.3c0.8,0,1.6,0.1,2.4-0.1c9.6-2,17.6,1.6,25,7.2c1.4,1.1,2.8,2.2,4.1,3.2c-0.6,2.1-1.8,2.4-3.2,1.9
		c-3.2-1.3-6.3-2.6-9.5-4c-4-1.7-8.2-2.1-12.4-1.6c-1.2,0.2-2.4,0.9-4,1.5c1.1,0.7,1.9,1,2.4,1.6c1.9,1.9,1.8,2.8-0.4,4.2
		c-0.8,0.5-2.1,0.2-2.1,2c6.2-0.7,11.9,1.2,17.6,3.4c1.8,0.7,3.1,2,2.5,4.3c-1.6,1.3-3,0.1-4.4-0.2c-2.6-0.6-5-1.7-7.6-1.9
		c-4.9-0.5-9.4,0.9-12.8,4.7c-3.3,3.7-6.7,7.4-9.9,11.2c-0.7,0.8-1,1.8-1.3,2.3c-2.7-0.9-2.7-2.1-2.6-3.5c0.3-3,1.8-5.5,3.6-7.8
		c2-2.5,4-4.9,5.8-7.1c-0.1-2.1-1.5-1.2-2.3-1.5c-2.2-0.9-2.8-2.8-1.2-4.2c1.4-1.2,3-2.1,4.5-3.2c0.8-0.6,1.5-1.2,3.1-2.6
		c-4.9,0.8-8.1,2.1-10.6,5c-0.7,0.8-1.3,1.7-2.1,2.2c-0.6,0.3-1.6,0.3-2.2,0c-0.6-0.3-1.1-1.3-1-1.9c0.2-3.4,2-5.9,4.7-7.9
		c3.4-2.5,7.1-4.5,11.2-5.7c1.2-0.3,2.2-1.2,3.3-1.8C553.1,110.1,552.8,110.3,552.8,110.3z"/>
	<path class="st0" d="M748.7,31.9c13.4,0.4,26,4,38.3,9.1c5.9,4.6,13.1,6.7,19.4,10.5c9,5.5,17.8,11.3,26.7,17
		c0.4,0.3,1.1,0.5,1.3,0.9c0.3,0.6,0.4,1.4,0.4,2.1c0,0.3-0.9,0.6-1.3,0.6c-0.8,0-1.6-0.1-2.3-0.5c-6.3-3.3-12.9-6.2-18.8-10
		C803.9,56.1,795,51.4,786,47c-14.8-7.1-30.7-9.6-47.1-7.8c-2.3,0.3-4.4,1.5-6.6,2.3c-1.7,0.6-3.3,0.1-4.1-1.3
		c-0.9-1.6-0.6-3.2,0.7-4.3c2.4-2.3,5.6-3,8.7-3.3C741.3,32.2,745,32.2,748.7,31.9z"/>
	<path class="st0" d="M715.9,173.2c-1-0.1-2.3-0.7-2.9-0.3c-4.4,3.2-7.2,7.7-9.1,12.7c-0.6,1.6-0.2,3.7-0.2,5.5c0,1.6,0.1,3.2,0,4.7
		c0,0.4-0.6,1.1-0.9,1.1c-0.7,0.1-1.5-0.2-2.2-0.4c-0.2-0.1-0.4-0.4-0.5-0.6c-3.1-6-4-11.8-0.1-17.9c3.5-5.4,7-10.6,12.4-14.2
		c0.9-0.6,1.6-1.4,2.7-2.3c-1.2-3.5,0.8-6.1,3.5-7.8c3.1-2,6.4-3.7,9.8-5c1.3-0.5,3.1,0.1,4.5,0.5c0.6,0.2,0.9,1.2,1.5,2.2
		c-4.6,4.1-11.3,4.4-16.2,9.5c1.2,0.9,2.4,1.9,3.8,2.9c5.5-3.7,11-7.3,16.4-10.9l0,0c3-1.1,6-2.4,8.9-0.2c0.9,0.7,1.7,1.9,1.9,3
		c0.1,0.6-1.1,1.9-1.9,2.1c-10.5,3.2-19.1,9.5-27.4,16.5c-1,0.8-2.1,1.5-3.2,1.9c-0.4,0.1-1.4-0.6-1.7-1.2
		C714.9,174.5,715.6,173.8,715.9,173.2c-0.1-0.5-0.1-0.9-0.3-1.3c-0.1-0.2-0.4-0.3-0.7-0.5c0,0.2-0.1,0.5,0,0.7
		C715.2,172.5,715.6,172.8,715.9,173.2z"/>
	<path class="st0" d="M240.1,420.9c-2.8,0.3-3.7-3.7-6.8-3.1c-2.3,0.4-4.7,0.4-7.1,0.5c-0.8,0-1.6,0.1-2.4,0c-1.4-0.2-2.4-1-2.7-2.4
		c-0.3-1.6,0.7-3.5,2.1-3.9c1.3-0.3,2.6-0.5,3.9-0.7c1.8-0.3,3.5-0.6,5.4-0.8c-0.1-2.4-1.8-2.8-3.1-3.2c-2.3-0.6-4.7-1.1-7-0.8
		c-13.7,1.6-23.4,8.8-28.5,21.8c-1.1,2.7-1.9,5.5-2.8,8.2c-0.9,2.8-2.2,5.3-4.7,6.8c-2-0.1-2.5-1.6-2.2-2.8c2-8.1,3.5-16.5,8.2-23.7
		c1-1.5,2.3-2.9,3.3-4.4c5-7.5,12.8-10.9,21.1-12.7c7.8-1.7,14.5,1.3,20.2,6.7c2,1.9,4.5,9.9,4.2,13.2
		C241.1,420.1,240.5,420.5,240.1,420.9z"/>
	<path class="st0" d="M143,454.6c-4.1-1.9-5.3-4.5-4.7-8.1c0.3-1.8,0.4-3.7,0.9-5.5c1.8-6,3.8-12.1,5.8-18c0.8-2.2,1.7-4.5,2.9-6.5
		c6-10.1,13.2-19,22.8-26c7.6-5.5,16.2-7.5,25.3-7.6c0.8,0,2.1,0.8,2.3,1.5c0.2,0.6-0.6,2-1.3,2.3c-2.2,0.9-4.4,1.7-6.7,2.2
		c-11.9,2.7-20.7,10-28.4,18.9c-1.9,2.2-3.9,4.3-5.4,6.8c-2.6,4.3-5.3,8.4-6.3,13.5c-0.9,4.6-3.1,8.9-4.5,13.5
		c-0.8,2.7-1.1,5.6-1.7,8.5C143.8,451.5,143.5,452.7,143,454.6z"/>
	<path class="st0" d="M215.3,337.4c0.6,1.7,1.4,2.9,1.3,4.1c-0.3,8-2.7,14.9-10.2,19.3c-10.1,5.9-20.6,10.7-31.8,14
		c-11.3,3.2-21.8,7.9-31.4,14.6c-0.8,0.6-1.8,0.9-2.6,1.2c-2.1-0.9-2.9-2.5-1.5-3.8c6.3-5.6,12.9-11,20.9-14
		c8.2-3,16.5-5.5,24.6-8.8c6.6-2.7,12.9-6.1,19.1-9.5c1.7-0.9,3.2-2.8,4.2-4.6c1.5-2.8,2.4-5.8,3.6-8.8c0.4-1,0.9-1.9,1.5-2.8
		C213.3,338.2,213.9,338.1,215.3,337.4z"/>
	<path class="st0" d="M505.2,278.9c0.5-1.7,1.1-4.6,2.4-7.2c4.1-8,8.3-15.9,13.6-23.2c5.5-7.5,11.3-14.6,18-21
		c3.3-3.1,6.1-6.6,9.4-9.6c3.8-3.6,7.9-7,11.9-10.4c0.6-0.5,1.5-0.9,2.2-0.9c0.9,0.1,1.9,0.6,2.6,1.3c0.4,0.4,0.5,1.7,0.2,2.1
		c-0.9,1.3-2.1,2.3-3.2,3.4c-8.5,8.3-17.1,16.5-25.4,25c-2.9,3-5.2,6.7-7.5,10.2c-5.5,8.1-11.3,15.9-14.8,25.2c-1,2.7-2,5.4-3.1,8.1
		c-0.6,1.5-1.3,3-3.3,2.8c-1.7-0.1-3.2-2.1-3.1-4C505,280.5,505.1,280.3,505.2,278.9z"/>
	<path class="st0" d="M136.2,367.6c-1.3,2.2-3.4,2.5-5.4,3c-7.5,1.7-14.9,3.2-22.4,5c-2.3,0.5-4.6,1.3-6.7,2.4
		c-5.8,3-11.8,6-17.3,9.6c-6.6,4.2-11.3,10.3-14.8,17.2c-3,5.9-5.1,12.1-7.7,18.2c-0.3,0.6-1.2,1.5-1.6,1.4
		c-0.9-0.2-2.1-0.8-2.4-1.6c-0.5-1.4-0.8-3.2-0.4-4.6c2.5-9.8,6.4-18.8,13.2-26.6c5.5-6.4,12.4-10.5,19.6-14.3
		c3-1.6,6.1-3.2,9.2-4.5c3.9-1.6,7.8-3.1,12.1-3.7c6.8-0.9,13.5-2.3,20.3-3.4C133.8,365.2,135.5,365.4,136.2,367.6z"/>
	<path class="st0" d="M727.6,183.2c1.8-1.1,3.5-2.2,5.7-3.5c1,1.3,2,2.6,3.4,4.4c1.2-0.6,2.6-1.1,3.8-2c2.8-2,5.4-4.3,8.3-6.1
		c8.2-5,15.6-4.1,22.3,0.5c0.7,0.5,0.9,1.7,1.5,3.2c-1.6,0.1-2.5,0.3-3.4,0.3c-1.3-0.1-2.6-0.4-3.9-0.5c-5.9-0.3-11.6,0.3-16.3,4.4
		c-2,1.7-4.3,3.1-6.4,4.6c-8.1,6-11.9,14.5-13.7,24.1c-0.4,2.3-0.7,4.6-1.2,7.9c-1.6-1.6-2.7-2.3-3.2-3.3c-1.8-3.6-1.1-7.2,0.4-10.7
		c0.7-1.7,1.7-3.3,2.3-5c0.6-2,1-4,1.6-7.1c-5.3,4.6-5.6,10.8-8.5,15.5c-2.8-1.6-2.9-3.7-2.3-5.7c0.9-3,2.1-6,3.5-8.8
		c2-4.3,4.3-8.5,6.4-12.7L727.6,183.2z M730.7,189.7c1.3-0.2,3-0.6,1.8-2.4C731.9,188.2,731.3,188.9,730.7,189.7z"/>
	<path class="st0" d="M197.1,261c2.1,0.1,4.3-0.2,5.5,3c-1.5,2.3-3.2,4.9-4.9,7.5c-6.5,9.6-10.5,20-9.3,31.9c0.2,2.3,1,4.6,1.5,6.9
		c0.9,3.9,1.9,7.7,2.5,11.6c0.6,3.8-0.5,7.4-2.7,10.5c-0.6,0.9-2.1,1.6-3.2,1.7c-0.8,0.1-1.7-1-2.3-1.4c-0.1-0.9-0.3-1.5-0.1-1.8
		c2.6-5,2.4-10.1,1.2-15.4c-1.4-6.1-2.4-12.4-3.8-20c-0.5-0.4-2.8-1.5-3.4-3.2c-1.4-3.9-2.1-8.1-3-12.2c-0.5-2.3-0.9-4.7,0.2-6.9
		c4.8-0.5,5.2-0.1,6,3.6c0.6,3,1.3,6,2.2,10.2c2.6-8.7,6.5-15.2,11-21.3c0.6-0.8,0.7-1.9,1.1-2.9C196,262.1,196.6,261.6,197.1,261z"
		/>
	<path class="st0" d="M475.5,208.1c-9.9-0.4-18.6-0.9-27.3-1.1c-4.5-0.1-8.9,0-13.4,0.1c-11.7,0.3-22,4.9-31.8,10.7
		c-2.9,1.7-5.7,3.7-8.8,5.4c-2.3,1.2-4.7,2.4-7.2,3c-2.4,0.6-3.9-0.8-4.7-3.5c9.3-5.4,18.4-11.3,27.9-16.1
		c8.3-4.1,17.6-5.7,26.9-5.6c10,0.1,20,0.9,30,1.6c2.3,0.2,4.6,1.2,6.7,2.1C474.5,204.9,474.7,206.2,475.5,208.1z"/>
	<path class="st0" d="M738.5,152.8c0.6-1.1-0.2-1.8-0.5-2.8c-0.6-1.6-0.6-3.4-1-5.4c11.1-5.1,21.9-8.6,33.9-7.7
		c2.4,0.2,4.8,0.6,7.1,0.4c4.5-0.3,8.2,1.4,11.9,3.5c2.8,1.6,2.9,2.1,1.2,6.9c6.2,5.7,13.3,11.4,11,22.1c-0.9,1.2-2.2,1.2-3.3-0.6
		c-0.1-0.2-0.2-0.5-0.3-0.7c-1.2-7.7-6.3-12.4-12.5-16.4c-0.9-0.6-1.6-1.2-2.6-2c0.3-1.6,0.6-3.1,1-4.9c-7.3-1.7-14.7-2.3-21.9-1.1
		c-6.7,1.1-13.2,3.5-19.7,5.6C741.2,150.1,740,151.7,738.5,152.8C738.5,152.8,738.5,152.8,738.5,152.8z"/>
	<path class="st0" d="M352.6,328.8c-2.3,2.4-5.7,2.1-8.6,3c-1.2,0.4-2.6,0.3-3.9,0.2c-8.7-0.5-16,2.7-22.4,8.2
		c-7.8,6.7-15.8,13.2-23.6,19.9c-1.8,1.5-3.1,3.5-4.8,5.1c-0.5,0.5-1.8,0.8-2.1,0.5c-0.7-0.6-1.4-1.7-1.3-2.4
		c0.4-3.5,1.5-6.7,4.5-8.9c0.6-0.5,1.2-1.1,1.8-1.5c5.1-3.8,10.9-6.8,15-11.5c4.1-4.7,9.4-7.6,13.8-11.8c1.4-1.4,3.6-2.3,5.5-2.9
		c8-2.3,16.2-2.3,24.3-0.3c0.7,0.2,1.2,0.9,1.7,1.4C352.5,327.9,352.5,328.2,352.6,328.8z"/>
	<path class="st0" d="M336.7,270.9c1.3-0.5,2.7-1.3,4.1-1.6c9.9-1.9,19.9-1.7,29.9-1.3c14.7,0.6,28.3,5.8,42.1,9.9
		c4,1.2,7.7,3.3,11.4,5.2c0.5,0.2,0.8,1.4,0.6,2c-0.2,0.5-1.2,1.2-1.8,1.1c-4.6-1-9.3-2-13.8-3.2c-4.3-1.2-8.6-2.5-12.8-3.8
		c-13-4.2-26.3-5.4-39.8-4.9c-5.3,0.2-10.5,0-15.8-0.1C339.1,274.1,337.1,273.9,336.7,270.9z"/>
	<path class="st0" d="M671.5,269.1c-7.6-2.4-14.1-3.9-20.1-6.4c-18.2-7.7-34-3-48.7,8.6c-0.6,0.5-1,1.4-1.7,1.6
		c-0.9,0.4-2.2,0.7-2.8,0.4c-1.4-0.9-0.9-2.3-0.1-3.4c0.9-1.3,2.2-2.3,3.1-3.6c7.9-10.4,28.9-17.3,41.7-13.1
		c6.5,2.2,13,4.2,19.6,6.1c3.5,1,6,3.2,8.3,5.8C671.4,265.7,671.2,266.9,671.5,269.1z"/>
	<path class="st0" d="M333.6,320.1c4.4-3.8,9.3-6.2,14.2-7.3c7.9-1.9,16-2,24.2,0.7c7.1,2.3,13.7,5.5,20.3,8.7
		c5.4,2.6,9.1,7,11.3,12.7c2.2,5.4,1,10.3-2.4,14.7c-0.2,0.3-0.9,0.2-2,0.3c-1.2-1.9-1.1-4.1-0.8-6.5c1-8.6-0.8-11.6-8.6-15.6
		c-1.4-0.7-2.7-1.6-4.1-2.4c-11.2-6.3-23.2-8.4-35.8-6.9c-3.6,0.4-7.1,2-10.6,3C337.5,322,335.7,322.6,333.6,320.1z"/>
	<path class="st0" d="M90.6,332.7c2.8-0.1,5.8-0.9,8.5,1.9c-0.8,0.8-1.4,1.7-2.2,2.1c-10.3,4.3-19.5,10.4-27.7,18
		c-4.4,4.1-8.7,8.2-12.9,12.5c-3.4,3.4-5.7,7.6-7.3,12.1c-1.8,4.9-3.3,10-5,14.9c-0.2,0.6-1.2,1.6-1.5,1.5c-0.9-0.2-2.2-1-2.2-1.6
		c-0.1-3.4-0.5-6.9,0.2-10.2c1.6-7.8,5.1-14.9,10.1-21.2c3.1-3.9,6.8-6.5,12-6.9c3.7-6,9.4-9.8,14.6-14.2c1.5-1.3,3.7-2.1,4-4.5
		c0,0-0.3,0.3-0.3,0.3c1.7,0.3,2.9-0.1,3.5-1.8l-0.3,0.2c1.5,0,2.8-0.2,3.5-1.8l-0.3,0.2c1.2-0.6,2.3-1.2,3.5-1.8L90.6,332.7z"/>
	<path class="st0" d="M684.7,243.8c-1.9-0.4-3.1-0.2-3.7-0.8c-1.9-1.8-3.7-3.8-5.4-5.7c-1.2-1.4-2.3-2.9-3.4-4.3
		c-2.7-3.6-6.2-5.4-10.7-5.8c-6.6-0.6-13.2,0.1-19.6,0.9c-8.8,1.1-17.8,1.7-25.9,6c-1.8-4.4-1.7-5.1,0.7-6.9
		c2.7-2.2,5.7-3.8,9.2-4.2c7.6-1,15.1-1.9,22.7-2.7c2.6-0.3,5.3-0.1,7.9-0.1c9.6-0.2,16.7,3.7,21.3,12.3c1.2,2.3,2.9,4.3,4.3,6.6
		C682.8,240.2,683.5,241.6,684.7,243.8z"/>
	<path class="st0" d="M149,335.9c-1,2.5-2.7,2.9-4.6,2.9c-4.2,0.1-8.5,0.3-12.7,0.3c-13.9,0-26.5,4-38.1,11.5
		c-4.6,3-9.4,5.8-14.1,8.7c-0.4,0.3-1,0.2-1.5,0.3c-1,0.2-2.1-1-1.8-2c0.9-3.2,3.1-5.5,5.6-7.4c10.6-7.6,21.5-14,34.8-16.1
		c9.8-1.5,19.5-0.9,29.2,0C146.9,334.4,147.9,335.4,149,335.9z"/>
	<path class="st0" d="M706.8,93.2c1-1.3,1.8-2.6,2.9-3.5c3.3-2.6,6.7-5.1,10.1-7.5c4.8-3.4,10.2-5.3,15.7-7.2
		c7.1-2.5,14.4-3.1,21.8-1.9c6.5,1,13,2.2,19.4,3.6c2,0.4,4,1.3,5.8,2.3c0.7,0.4,1.6,1.6,1.5,2.4c-0.2,1.6-1.7,1.7-3.1,1.5
		c-8.6-1.2-17.2-2.4-25.7-3.7c-8.7-1.3-16.8,0.7-24.5,4.4c-5.9,2.9-11.7,6.1-17.5,9.1C711.3,93.8,709.4,94.9,706.8,93.2z"/>
	<path class="st0" d="M595.4,233.5c0.7-1,1.3-2.2,2.2-3c5.6-5.6,11.5-10.8,18.9-14.1c2.9-1.3,5.9-2.1,9-2.8c5.6-1.3,11.5-2,16.9-3.7
		c5-1.6,9.8-1.6,14.7-0.1c2.7,0.8,5.9,0.4,8,2.8c0.4,0.5,0.8,1.5,0.6,2.1c-0.2,0.6-1,1.4-1.6,1.4c-2.1,0-4.2-0.1-6.3-0.4
		c-4.7-0.8-9.4-0.6-14.1,0.6c-6.6,1.7-13.4,2.9-20,4.4c-6,1.3-11.4,3.7-16.3,7.6c-2.7,2.1-5.6,4-8.5,5.8c-0.8,0.5-1.8,0.5-2.7,0.8
		C596,234.4,595.7,233.9,595.4,233.5z"/>
	<path class="st0" d="M450.6,344.2c-2.9-0.6-3.4-2.6-2.3-4.3c6.7-10.1,12.6-20.8,21.9-28.9c6.3-5.5,13.7-8.9,21.3-11.9
		c2.7-1.1,5.5-2,8.3-2.6c0.7-0.2,2.2,0.6,2.5,1.2c0.3,0.7-0.1,2.3-0.8,2.7c-1.9,1.4-4,2.8-6.2,3.4c-14.7,4.4-24.7,14.6-33.5,26.5
		c-2.7,3.6-5.3,7.2-8,10.8C452.8,342.3,451.5,343.3,450.6,344.2z"/>
	<path class="st0" d="M107.6,401.6c1.5,2,0.1,3.5-1,4.9c-4.3,5.6-8.6,11.4-13.1,16.9c-3.6,4.4-5.4,9.4-6.4,15
		c-1.3,6.7-1,13,1.1,19.5c0.9,2.8,0.2,4.7-1.2,4.7c-1.9,0.1-2.9-1.3-3.6-2.6c-2.9-6-5-12.2-3.2-19.1c0.5-1.8,0.8-3.6,1-5.4
		c0.7-5.1,2.7-9.4,5.7-13.6c4-5.5,8-11.1,12.8-16.1C101.9,403.4,104,401.1,107.6,401.6z"/>
	<path class="st0" d="M371.9,243.7c-3.2-1.6-5.4-2.6-7.4-3.7c-3.2-1.8-6.3-4-9.7-5.4c-5.8-2.5-11.9-3.9-18.4-3.7
		c-10,0.4-20,1-29.7,3.8c-3.2,0.9-6.6,1.5-10,2.2c1.7-3.8,2.4-4.7,6.1-5.7c6.1-1.6,12.2-3.2,18.5-4.4c4.9-0.9,9.9-1.5,14.9-1.6
		c14-0.4,25.8,4.5,35.2,14.9C371.8,240.5,371.6,241.5,371.9,243.7z"/>
	<path class="st0" d="M249.3,248.5c1,2.7-0.4,3.8-2,4.7c-2.5,1.4-5.2,2.6-7.6,4.1c-11.4,7.2-19.7,17.3-25.8,29.3
		c-1.1,2.1-2.2,4.2-3.4,6.3c-0.2,0.4-0.8,0.6-1.3,1c-2,0.2-2.9-1.1-2.9-2.7c0-1.8,0.2-3.8,0.9-5.4c4.5-10.5,10.5-20,19.6-27.3
		c5.9-4.7,12.8-7.1,19.6-9.9C247.4,248.2,248.5,248.5,249.3,248.5z"/>
	<path class="st0" d="M693.9,70.4c-1.8,1-3.5,2.2-5.4,2.9c-4.4,1.6-7.9,4.4-10.8,7.8c-4.5,5.2-8.7,10.6-12.8,16.1
		c-3.5,4.6-6.8,9.4-10.2,14.1c-0.7,1-1.7,1.9-3.1,3.4c-0.6-1.5-1.4-2.5-1.2-3.1c1.5-3.9,2.8-8.1,5-11.6c4.6-7.1,9.5-14,14.7-20.6
		c2.6-3.3,5.9-6.1,9.2-8.7C683.5,67.2,688.5,67.2,693.9,70.4z"/>
	<path class="st0" d="M444,177.2c0.3,2.5-0.9,3.1-2.2,3.3c-4.2,0.7-8.4,1.1-12.5,1.9c-10.4,2.1-20.3,5.8-29.8,10.5
		c-4.5,2.2-9,4.3-13.6,6.4c-1.2,0.5-2.4,1.1-3.7,1.3c-0.6,0.1-1.7-0.5-1.9-1c-0.4-0.9-0.5-2-0.2-2.9c0.2-0.6,1-1.3,1.6-1.6
		c14-7.4,28.1-14.8,43.9-17.4C431.7,176.7,437.7,176.1,444,177.2z"/>
	<path class="st0" d="M494.7,236.9c-0.5,1.2-0.7,2.1-1.2,2.7c-1.6,1.7-3.3,3.4-5,5c-9.4,8.6-17.7,18.2-24.7,28.8
		c-1.3,2-2.8,3.9-4.3,5.6c-0.6,0.7-1.8,1-2.7,1.3c-1.2,0.3-2.9-1.2-2.6-2.3c0.4-1.2,0.8-2.5,1.5-3.6c4.2-7.3,9.2-14,14.7-20.5
		c5.2-6.1,10.8-11.6,17.2-16.3c1.4-1,3.3-1.6,5-2C493,235.4,493.9,236.4,494.7,236.9z"/>
	<path class="st0" d="M520.6,339.6c-3.4,0.8-6.3,1.4-9,2.3c-2.2,0.7-4.4,1.7-6.5,2.8c-9.4,4.9-11.1,14.1-12.6,23.3
		c-0.3,2.1,0,4.2-0.2,6.3c-0.1,0.8-0.9,1.6-1.7,2.9c-3.4-4.2-4.2-8.5-3.9-13c0.8-10.6,5.6-19.1,14-25.6c4.4-3.4,9.6-4.3,15-3.8
		C518,334.9,520.1,336,520.6,339.6z"/>
	<path class="st0" d="M380.2,161.5c0.3-0.8,0.3-1.5,0.6-1.7c6.6-4.4,13.5-8.2,20.8-11.3c3.2-1.4,6.5-2,10-1.8c5,0.3,9.9-0.2,15-0.8
		c6.5-0.8,13.2-0.3,19.7,0.1c4.5,0.3,8.7,1.7,11.1,7.4c-2.9-0.6-5.2-1-7.4-1.7c-3.6-1.1-7.2-1.7-10.9-1.3c-1,0.1-2.1,0.4-3.2,0.2
		c-17.4-2-33.4,2.8-49.1,9.5C384.8,161,382.8,162.5,380.2,161.5z"/>
	<path class="st0" d="M649.9,145.7c-0.6-0.9-1.4-1.6-1.3-2.1c0.1-1,0.5-2.1,1.1-2.8c2.3-2.9,4.7-5.7,7.2-8.4
		c5.5-5.7,11-11.4,16.6-17c2.6-2.6,5.4-5,8.2-7.4c1.8-1.6,4.1-2.8,6.5-2.3c1.4,0.3,3.2,1.1,3.9,2.3c1,1.7-0.7,3.1-2.1,3.6
		c-5.4,2.1-8.9,6.4-12.9,10.2c-8.1,7.6-16.2,15.1-24.4,22.6C652,145,650.9,145.2,649.9,145.7z"/>
	<path class="st0" d="M250.3,278c2.5-3.8,5.9-6.7,9.9-8.7c13.4-6.8,27.6-10,42.6-9.6c1,0,1.9,0.6,2.9,1c0.2,0.1,0.2,0.5,0.4,1
		c-1.7,1.6-4,1.8-6.2,2.4c-7.9,1.9-15.9,3.9-23.7,6c-6.6,1.8-12.9,4.4-18.4,8.7C254.4,281.3,253.8,281,250.3,278z"/>
	<path class="st0" d="M535.5,209c7.9-7.4,15.5-15,23.8-21.9c4.1-3.5,9.4-5.5,14.3-8.1c0.8-0.4,2.1-0.5,3-0.1
		c0.9,0.3,1.7,1.2,2.1,2.1c0.2,0.5-0.3,1.6-0.7,2.1c-0.7,0.8-1.6,1.5-2.5,1.8c-8.5,2.9-14.4,9.4-20.9,15.1
		c-3.8,3.3-7.5,6.6-11.3,9.9c-1,0.8-2.1,1.6-3.3,2.2C537.9,213,536.5,212.4,535.5,209z"/>
	<path class="st0" d="M312.7,213.4c0.8-1.1,1.2-1.8,1.8-2.3c0.8-0.6,1.9-1,2.8-1.5c15-8.1,15-8.1,25.3-20.7c1.5-1.8,2.4-4,3.6-6.1
		c1.9-3.2,3.6-3.3,7.8,0c-1,2-1.8,4.2-3.2,6.1c-6.7,8.8-12.8,18.1-23.3,23c-3.6,1.7-7.4,2.9-11.4,2.8
		C315.2,214.8,314.1,214,312.7,213.4z"/>
	<path class="st0" d="M634.3,238.4c5.3-2.5,10.5-4.8,16.9-3.1c7.9,2.1,15.5,5,22.6,9.1c6.5,3.8,11.5,9,14.8,15.8
		c-1.6,1.6-2.8,0.9-4.1-0.3c-3.1-2.8-6.1-5.9-9.5-8.2c-8-5.3-17-8.4-26.2-10.7c-3.7-0.9-7.8-0.1-11.8-0.2
		C635.7,240.9,634.5,240.6,634.3,238.4z"/>
	<path class="st0" d="M560.6,146.9c4.1-3.6,8.8-5.7,14.4-4.8c5.3,0.8,10,3.2,14.1,6.5c2.1,1.7,3.4,4,3.3,6.9
		c-0.1,2.3-0.9,4.1-3.8,4.7c-1.9-1.3-0.8-3.7-1.7-5.9c-1.2-0.8-2.7-1.9-4.2-2.8c-7.5-4.2-14.8-2.4-20.1,3c-2.8,2.8-5.6,5.5-8.5,8.2
		c-0.6,0.6-1.8,0.5-2.7,0.7c-0.1-1-0.7-2.2-0.3-2.9c1.9-3.4,4.1-6.6,6.2-9.9c0.4-0.6,0.3-1.5,0.4-2.3l-0.3,0.3
		c1.2-0.6,2.3-1.2,3.5-1.7L560.6,146.9z"/>
	<path class="st0" d="M473.1,288.9c0.9-2.5,1.5-6.1,3.3-8.9c5.8-9.1,12-18,18-27c0.4-0.7,0.9-1.3,1.5-1.9c1-1,2.2-1.5,3.6-0.8
		c1.1,0.5,1.6,2.9,0.8,4.3c-3.7,6.1-7.3,12.3-11.1,18.2c-3.7,5.8-7.6,11.4-9.8,18.1c-0.2,0.7-0.6,1.6-1.2,2.1
		c-0.7,0.6-1.8,1.4-2.6,1.2c-0.8-0.2-1.6-1.3-2-2.2C473.2,291.3,473.3,290.5,473.1,288.9z"/>
	<path class="st0" d="M359.8,346.3c-2,0.2-3.6,0.5-5,0.5c-8.6-0.3-15.9,2.8-22.2,8.5c-5.7,5.1-11.8,9.6-19.3,13.8
		c0.2-1.8-0.1-3.4,0.5-4c6.6-6.4,12.2-13.9,20.1-18.9c3.5-2.2,7.5-3.7,11.5-5.1c3.1-1.1,6.2-0.2,9.3,0.7
		C356.6,342.4,358.7,342.8,359.8,346.3z"/>
	<path class="st0" d="M677.7,278.9c-0.3,0.1-0.6,0.3-0.7,0.2c-7.6-3.9-15.9-3.1-24-3.5c-4.3-0.2-8.3,1.1-12.3,2.7
		c-3.9,1.6-7.9,3-11.9,4.3c-0.7,0.2-2.2-0.4-2.6-1c-0.4-0.7,0.3-1.9,0.5-2.8c0.1-0.2,0.3-0.5,0.6-0.5c5-1.2,8.4-5.3,12.8-7.4
		c1.6-0.8,3.4-1.6,5.2-1.8c10.7-1,21.1,0.4,30.7,5.5C677.8,275.6,679.3,276.8,677.7,278.9z"/>
	<path class="st0" d="M765.3,162.9c10.7,1.9,10.7,1.9,12.9,6.7c-2.3-0.1-4.2-0.3-6.2-0.4c-3.2-0.1-6.4-0.3-9.5-0.1
		c-2.9,0.2-5.1-0.9-6.8-2.7c-5-0.1-8.4,4.7-14.2,4c0.9-1.6,1.3-2.9,2.1-3.7c6.1-5.8,13.6-9,21.5-11.3c3.3-1,6.3,0.1,8.7,2.4
		c0.6,0.6,0.9,1.8,0.8,2.7c-0.1,0.5-1,1.3-1.7,1.4C770.4,162.4,767.8,162.6,765.3,162.9z"/>
	<path class="st0" d="M727.9,183c-6.7,3.4-10.3,9.4-13.6,15.8c-0.6,1.2-0.9,2.5-1.4,3.7c-2.4,5.6-2.6,10.8,2.5,15.2
		c0.3,0.3,0.3,1,0.5,1.5c-1.1,1.9-2.8,1.4-4,0.5c-6.1-4.7-8.1-8.6-6.1-16.4c2-7.6,5.5-14.2,10.7-20c1.2-1.3,2.6-2.7,4.2-3.5
		c3.1-1.6,5.2-0.4,7,3.6C727.6,183.2,727.9,183,727.9,183z"/>
	<path class="st0" d="M263.7,405.4c0.3-1.5,0.3-2.3,0.6-3c4.5-11.4,10.1-22,20.4-29.4c1.5-1,3.3-1.6,5.1-2c0.6-0.2,1.6,0.4,2,1
		c0.4,0.5,0.6,1.6,0.3,2.1c-1,1.5-2,3.1-3.4,4.3c-8.4,7.2-14.2,16.2-18.4,26.2c-0.3,0.7-0.5,1.5-0.9,2.2c-1,2-2.5,2.9-3.6,1.9
		C264.7,407.7,264.2,406.2,263.7,405.4z"/>
	<path class="st0" d="M87.7,487.3c-5.9,0.2-9.5-2-12-6.2c-1.3-2.2-2.8-4.6-4.8-6.2c-4.3-3.5-5.6-8.8-8.3-13.3
		c-0.9-1.5-1.1-3.6-1-5.4c0.2-4.5,0.7-8.9,1.3-13.3c0.1-0.8,1.2-1.8,2-2c1.7-0.4,2.2,1.2,2.4,2.4c0.2,1.3,0.3,2.6,0.1,3.9
		c-1.1,10.2,2.7,18.5,9.7,25.7c3.4,3.6,6.1,7.9,10.2,11C87.7,484.4,87.5,485.8,87.7,487.3z"/>
	<path class="st0" d="M326.3,247.3c-1.3,1.9-1.7,3.2-2.4,3.3c-6.4,1.4-13,3.5-19.4,2.2c-9.6-1.9-18.8-0.1-28.2,1.1
		c-1.6,0.2-3.1,0.5-4.7,0.4c-0.9-0.1-1.7-1-2.9-1.7c4.1-2.8,8.3-4.3,12.7-5.1c6.2-1,12.4-1.6,18.8-0.8c5.5,0.7,11,0.4,16.5,0.6
		C319.4,247.3,322,247.3,326.3,247.3z"/>
	<path class="st0" d="M587.9,250c-4.3,5.1-8.5,9.1-11.5,13.8c-3,4.8-6.6,9.5-8.1,15.2c-1.5,5.6-3.2,11.1-4.8,16.8
		c-3.5-1-4.5-3.3-4-6.1c1.2-7,2.5-14,6.1-20.3c2.9-5.1,6.1-9.9,10.3-13.9c2.2-2.2,5-3.8,7.6-5.4C584.4,249.6,585.9,250,587.9,250z"
		/>
	<path class="st0" d="M741.5,49.5c-1.3,0.5-2.7,1.3-4.1,1.5c-2.6,0.3-5.3,0.1-7.9,0.5c-5.2,0.9-10.4,1.7-15.5,3.2
		c-6.8,2.1-13.3,4.9-20,7.4c-1.8-0.8-1.5-2.3-0.4-3.1c3.1-2.4,6.3-4.7,9.8-6.6c9.9-5.4,20.5-8.4,31.9-7.5
		C738.1,45.3,740.5,45.9,741.5,49.5z"/>
	<path class="st0" d="M433.6,254.3c1.3-5,5.1-8.4,8.4-12c5.1-5.7,10.5-11.2,17-15.4c2.6-1.7,5.2-2.6,8.2-2.5c0.9,0,2.2,0.6,2.6,1.2
		c0.3,0.6-0.2,2.2-0.8,2.6c-11.6,7.2-21,16.8-30.1,26.8c-0.3,0.4-0.7,0.8-1.2,1C435.8,256.7,434.5,256.1,433.6,254.3z"/>
	<path class="st0" d="M151.3,342.5c-4.7,5.2-10.3,7.2-15.7,8.8c-9,2.8-18.4,4.5-27.6,6.6c-0.7,0.2-1.7,0.1-2.3-0.2
		c-0.9-0.5-2-1.2-2.2-2c-0.2-0.8,0.4-2,1-2.7c0.6-0.7,1.7-1.2,2.7-1.5c3-0.9,6.1-1.7,9.2-2.3c8.8-1.6,17.5-3.6,26-6.3
		c2-0.6,4-1.1,6.1-1.5C149,341.3,149.8,341.9,151.3,342.5z"/>
	<path class="st0" d="M657.1,168.3c6.5-15.7,17.2-26.6,30.8-35c1.4-0.8,3-1,4.2,0.8c0.4,2-1.2,2.7-2.4,3.7
		c-6.4,5.2-12.2,10.9-17.4,17.3c-3.4,4.1-6.4,8.4-8.6,13.2c-0.4,0.9-1.3,1.6-2.1,2.2c-0.3,0.3-1.1,0.2-1.5,0
		C659.2,170,658.4,169.3,657.1,168.3z"/>
	<path class="st0" d="M247.9,324.3c-3.2-0.6-4.2-1.8-3.8-3.6c0.4-1.8,1-3.7,2.1-5.1c7-9.4,15.2-17.6,25.5-23.5
		c0.2-0.1,0.5-0.3,0.7-0.3c1,0.1,2.2-0.2,2.9,0.4c1.3,1,0.7,2.5-0.1,3.5c-1.4,1.6-2.8,3.2-4.4,4.5c-8.1,6.2-14.6,13.8-20.9,21.6
		C249,322.6,248.4,323.5,247.9,324.3z"/>
	<path class="st0" d="M646.1,302c-1.9-1.1-2.3-2.7-1.1-4c7.7-7.8,16.7-13.5,27.6-15.7c4.1-0.8,8.5-1.4,11.9,2.1
		c0.6,0.6,1.2,1.9,1,2.7c-0.2,0.7-1.5,1.4-2.4,1.5c-2.6,0.4-5.3,0.4-7.9,0.7c-5.3,0.7-10.2,2.1-14.9,4.9
		C656,297.1,651.2,299.3,646.1,302z"/>
	<path class="st0" d="M415.7,110.2c-4.1,0.7-7.4,1.4-10.7,2c-1.8,0.3-3.1-0.3-4-1.8c-1.1-1.8-0.5-4,1.4-4.6
		c5.2-1.6,10.4-1.2,15.5,0.5c0.9,0.3,1.2,2.1,2,3.7c6.1-0.9,12.2,0.3,17.9,3.4c0.7,0.4,1.5,0.7,2,1.2c0.4,0.5,0.8,1.4,0.7,2
		c-0.2,0.6-1,1.3-1.6,1.4c-1.3,0.1-2.6-0.1-3.9-0.5c-5.2-1.6-10.4-1.3-15.7-0.3c-1,0.2-2.1,0.7-3.1,0.6c-2.1-0.2-5.2,2-6.2-1.1
		c-0.8-2.5,2.7-2.7,4-4.2C414.3,112,414.7,111.5,415.7,110.2z"/>
	<path class="st0" d="M466,121.3c-7.3-3.4-14.9-6.3-21.4-11.3c-2.7-2.1-5.5-4.2-8.3-6.1c-4.5-2.9-9.2-5.2-14.7-5.3
		c-1.5,0-3.2-0.3-4.6-1c-1-0.4-1.6-1.7-2.9-3.1c7.1-2.1,13.3-1.4,19,1.6c3.7,1.9,7.4,4.2,10.5,6.9c4.4,3.8,9.2,7.1,14.3,9.8
		c2.5,1.4,4.9,3.1,7.2,4.8c0.8,0.6,1.2,1.6,1.8,2.3C466.7,120.5,466.4,120.9,466,121.3z"/>
	<path class="st0" d="M405,140.4c-5.6,5.1-13,6.7-19.3,10.5c-6.3,3.8-12.4,7.9-18.8,12.1c-1.5-1-2.9-2-4.8-3.3c1.8-1.7,3-3,4.5-4
		c9.8-7.2,20.7-12.5,32-17C401.2,137.6,401.3,137.7,405,140.4z"/>
	<path class="st0" d="M629.8,181.3c-0.7,0.6-1.4,1.6-2.2,1.7c-7.9,0.9-15.3,3.5-22.8,6.2c-5.7,2.1-11.4,3.9-17.2,5.6
		c-1.1,0.3-2.5,0.2-3.7-0.1c-1.2-0.3-1.6-1.6-0.9-2.5c0.7-1,1.8-2,3-2.5c9.8-4.5,19.9-8.3,30.7-9.6c2.3-0.3,4.7-0.9,7-1.1
		C625.9,179,628.1,179,629.8,181.3z"/>
	<path class="st0" d="M600,349c-0.8,1.3-1.2,2.6-2.1,3.2c-7.8,4.9-16.1,7.5-25.5,4.8c-6.6-1.9-12.8-4.6-18.9-7.8
		c-0.8-0.4-1.4-1.4-2-2c0.9-2.3,2.6-2.1,4-1.6c3.7,1.3,7.3,2.9,11,4.3c7.7,2.8,15.5,3.1,23.1-0.2C592.8,348.4,596,347.9,600,349z"/>
	<path class="st0" d="M106.8,431.3c-5.8,11.9-5,24.3-4.3,36.7c0.1,1.2-0.1,2.5-0.2,3.6c-2.9,0.8-3.9-0.9-4.4-2.7
		c-0.9-3.3-1.6-6.7-2-10.1c-0.7-6.8-0.5-13.7,0.7-20.5c0.5-3,1.6-5.6,3.8-7.6C102.3,429,104.2,429,106.8,431.3z"/>
	<path class="st0" d="M239.3,333.1c1.9,5.2,1,9.7-1.2,14c-3,5.9-6.4,11.5-11.6,15.8c-3.1,2.5-7.8,1.9-10.5-1.3
		c-0.8-0.9-0.5-2,0.4-2.8c0.4-0.4,0.9-0.9,1.3-0.8c4.5,0.6,6.5-2.6,8.8-5.5c4-5,6.3-10.9,8.4-16.9
		C235.6,333.7,236.6,332.4,239.3,333.1z"/>
	<path class="st0" d="M401.5,293.3c5.9-0.9,11.5,0.8,17,2.1c3.3,0.8,6.5,2.1,9.7,3.4c6.8,2.8,13.3,6.3,20.5,6.3c0.9,2,0.5,3.2-1,3.6
		c-4,1.2-7.9,0.5-11.6-0.8c-4.5-1.5-8.8-3.5-13.3-5c-5.7-2-11.5-3.7-17.3-5.5C403.4,296.9,401.3,296.4,401.5,293.3z"/>
	<path class="st0" d="M456,138.1c-2,2-4.1,0.8-6,0.6c-4.7-0.5-9.4-1.3-14.1-1.7c-4.2-0.4-8.3,0.2-12.4,1.7
		c-3.4,1.3-6.8,2.5-10.7,1.5c1.5-5.7,6.5-7,10.7-8.4c7-2.4,14.4-2.5,21.5,0.4c3.1,1.3,6.3,2.7,9.3,4.1
		C455.1,136.6,455.4,137.4,456,138.1z"/>
	<path class="st0" d="M133.6,413.9c-7.1,10.9-14.3,21.7-21.7,33.1c-0.4-0.1-1.7-0.1-2.2-0.7c-0.7-0.9-1.3-2.3-1.2-3.5
		c0.1-1.5,0.7-3.1,1.4-4.4c3.7-7,7.7-13.7,12.9-19.6c1.9-2.1,4.2-3.9,6.5-5.7C130.7,411.9,130.8,412,133.6,413.9z"/>
	<path class="st0" d="M270.3,228c-4.2,1.6-7.4,3-10.6,4c-9.1,2.8-18.2,5.4-27.3,8c-0.7,0.2-1.7,0.4-2.3,0.2
		c-0.9-0.3-2.1-0.9-2.4-1.7c-0.3-0.7,0.3-2.2,0.9-2.5c3.3-1.7,6.6-3.5,10.1-4.5c7.8-2.3,15.8-4.4,23.7-6.3
		C265.6,224.3,265.7,224.5,270.3,228z"/>
	<path class="st0" d="M697.5,83.7c-2.7,4.8-6.5,5.8-9.5,7.8c-3.9,2.6-7.9,5.1-11.7,7.8c-3.2,2.3-5.9,5.1-7.8,8.7
		c-1.3,2.4-2.4,5.1-5.3,6.9c-1.3-2.3-1.3-4.3-0.7-6.2c2.3-7,6.2-12.7,12.8-16.2c5.7-3.1,11.9-5.2,17.5-8.6
		C693.6,83.2,695.2,83.7,697.5,83.7z"/>
	<path class="st0" d="M371.1,327.5c0.9,0.3,2.2,0.3,2.8,0.9c2.9,2.6,6.3,5,8.3,8.3c4.8,7.5,8.9,15.4,13.3,23.2c0.2,0.4,0,1,0,1.6
		c-1.5,2-3,0.5-3.8-0.6c-4-5.2-8.1-10.3-11.7-15.8c-2.5-3.8-4.9-7.4-8.2-10.5C369.4,332.1,369.5,332,371.1,327.5z"/>
	<path class="st0" d="M741.8,90.6c-0.9,0.7-1.6,1.5-2.5,1.9c-4.6,1.9-9.3,3.6-13.9,5.6c-4.1,1.8-8,4-11.9,6c-0.7,0.3-1.5,1-2.1,0.9
		c-1.2-0.2-2.8-0.5-3.5-1.4c-0.6-0.8-0.4-2.6,0-3.6c0.5-1.1,1.6-2.2,2.7-2.8c8.5-4.3,17.3-7.7,26.7-9.2c1-0.1,2.1,0.1,3,0.5
		C740.9,88.8,741.2,89.7,741.8,90.6z"/>
	<path class="st0" d="M445.6,188.3c2.5-2.4,5.8-2,8.9-1.7c3.1,0.3,6.2,0.9,9.2,1.4c1.2-1.9-0.9-2.8-1.1-4.2c-0.2-1.4,0-2.9,0-4.5
		c4.5,1.3,6.5,2.9,12.5,9.8c-1,0.5-1.8,0.9-3.2,1.6c0.8,0.7,1.5,1.3,2,1.9c0.5,0.6,1.1,1.7,0.9,1.9c-0.6,0.7-1.5,1.3-2.3,1.5
		c-0.7,0.2-1.6,0-2.3-0.2c-7-1.4-13.9-2.8-20.9-4.2C447.4,191.3,445.7,190.9,445.6,188.3z"/>
	<path class="st0" d="M94.1,393.7c-0.8,1.5-1.4,3-2.4,4.1c-4.4,4.8-6.7,10.6-8.6,16.7c-1,3.3-2.3,6.4-3.5,9.6
		c-0.4,0.9-0.9,1.9-1.7,2.6c-0.5,0.4-1.5,0.7-2.1,0.5c-0.6-0.2-1.4-1.2-1.3-1.7c1.3-6.2,2.6-12.3,4.1-18.4
		c1.5-5.9,5.5-10.1,9.7-14.1C89.8,391.8,91.7,391.3,94.1,393.7z"/>
	<path class="st0" d="M541.3,358.5c-5.3-1.8-9-2.8-12.6-4.3c-4.9-2-9.1-1-13.3,1.9c-2.9,2.1-5.7,4.7-9.9,5.8
		c0.1-1.7-0.4-3.5,0.3-4.5c3.4-4.7,7.7-8.6,12.9-11.3c1.1-0.5,2.7-0.9,3.7-0.5c5.7,2.6,11.4,5.4,16.9,8.3
		C540.2,354.4,540.4,356.1,541.3,358.5z"/>
	<path class="st0" d="M405.7,234.2c0.8-2.9,2.8-4,5.2-4.6c2-0.5,4.1-1,6.2-1.2c3.5-0.2,6.5-1.6,9.6-3.2c3.7-1.9,7.6-3.5,11.5-5.1
		c1.3-0.5,1.4-0.3,3.5,2.5c-7.6,6-15.5,11.7-25.6,12.6C412.7,235.7,408.8,237,405.7,234.2z"/>
	<path class="st0" d="M769,85.5c3.3-1.5,6.1-1.4,9-0.8c8.2,1.6,15.2,5.8,21.9,10.5c1.7,1.2,3.8,2,4,5c-0.9,0.1-1.9,0.5-2.7,0.3
		c-2-0.6-4-1.4-5.9-2.2c-7.3-3.1-14.5-6.4-22.2-8.2C770.8,89.6,769.5,88.2,769,85.5z"/>
	<path class="st0" d="M572.4,302.8c-2.6-0.5-3.8-1.9-3.8-3.9c0-2.9,0-5.8,0.8-8.6c1.8-6.4,5.9-11.7,9.5-17.2c0.6-1,2.1-1.6,3.3-1.8
		c0.8-0.2,1.9,0.6,3.3,1.1c-0.4,1.4-0.5,2.7-1.1,3.8c-1,1.9-2,3.7-3.3,5.4c-4.6,5.7-7,12.3-7.9,19.4
		C573.2,301.5,572.8,301.9,572.4,302.8z"/>
	<path class="st0" d="M739.2,258.7c-0.5,2.4-2.4,3.8-4.4,5.1c-3.6,2.2-7.3,4.2-11.1,6.1c-1.6,0.8-3.4,1.6-5.2,1.7
		c-5.2,0.3-10.5,0.4-15.8,0.4c-2,0-3.5-1.1-3.3-3.9c0.9-0.2,1.8-0.6,2.7-0.6c2.4,0,4.7,0.1,7.1,0.3c6.3,0.4,11.9-1.1,17.1-4.9
		c2.9-2.2,6.3-3.8,9.6-5.5C737.2,256.7,738.5,256.9,739.2,258.7z"/>
	<path class="st0" d="M704,76.8c-0.6-1.3-1.1-2.5-1.7-4c2.2-1.6,4.1-3.6,6.4-4.7c5.2-2.4,10.7-4.5,16-6.6c1.6-0.6,3.1-0.3,4.2,1.1
		c1.4,1.6,1.3,3.8-0.4,4.8c-1.3,0.8-2.8,1.4-4.3,2C717.7,71.9,711.1,74.3,704,76.8z"/>
	<path class="st0" d="M723.4,256.4c-1.3,0.7-2,1.3-2.7,1.3c-5.2,0-10.5,0.4-15.7-0.2c-6.2-0.7-12.6-7.6-13.6-13.7
		c-0.1-0.8,0.6-1.8,0.9-2.6c3.2-0.1,4.8,1.9,5.9,3.9c2.9,5.2,7.5,7,12.9,7.7C715,253.2,718.8,253.9,723.4,256.4z"/>
	<path class="st0" d="M557.6,148.3c-1.6,0.9-3.3,1.5-4.6,2.6c-2.7,2.5-5.1,5.3-7.7,7.9c-0.9,0.9-2,1.7-3.2,2.2
		c-0.6,0.3-1.6,0-2.2-0.5c-0.5-0.4-1.1-1.4-1-2c0.4-1.5,1.1-2.9,1.8-4.3c0.8-1.6,2.4-2.8,1.7-4.9c-0.5-1.9,1-3.2,2.4-3.6
		c2.8-0.8,5.3-2,7.6-3.9c1.5-1.2,3.3-1.6,5.2-0.8c2.5,1.2,3.3,3.2,2.9,5.8l0.1-0.2c-1.4,0.1-3.1-0.4-3.5,1.7L557.6,148.3z"/>
	<path class="st0" d="M565.8,164.1c0.7,0.4,1.9,0.8,2.3,1.5c0.7,1.3,0.1,2.5-1.1,3.3c-6.7,4.3-12.6,9.3-16.3,16.6
		c-0.5,1-2.7,0.8-3.5,0c-1.2-1.3-1.5-2.9-0.8-4.3c3.2-6.8,7.9-12.4,14.6-15.9C562.3,164.5,564,164.5,565.8,164.1z"/>
	<path class="st0" d="M623.2,310.3c-0.9-0.8-1.7-1.5-2.6-2.4c0.6-1.3,0.9-2.3,1.5-3.1c4.1-5.6,9.2-10.1,14.4-14.6
		c1.6-1.4,3.5-2.3,5.4-3.3c1.7-0.8,2.3-0.4,4.9,2.7C639.2,296.3,631.5,303,623.2,310.3z"/>
	<path class="st0" d="M637.9,159c-7.5,5.7-15.8,10.3-25.4,11.9c-1.7-1.6-1.1-2.8-0.4-3.9c0.3-0.4,0.7-0.8,1.2-1
		c7.1-4.1,14.1-8.1,21-12C636.8,154.7,638.5,155.7,637.9,159z"/>
	<path class="st0" d="M410.6,255.7c-7.4-2.3-14.6-2.3-21.6-2.7c-1.8-0.1-3.7-0.1-5.5-0.5c-1.2-0.3-2.4-1.1-2.1-3.2
		c2.6-1.5,5.8-1.2,8.8-1.6c5.8-0.7,11.6-0.7,17.3,0.8C410.6,249.3,411.3,250.8,410.6,255.7z"/>
	<path class="st0" d="M600.3,294.4c2.6-5.7,4.1-11.7,7.6-17.1c2.4-3.5,5.5-5.6,9.4-6.7c1.4-0.4,2.7-0.2,3.4,1.1
		c0.7,1.3,0.4,2.8-1,3.3c-4.8,2-7.1,6.2-9.5,10.2c-1.8,2.9-3.4,6-5.2,8.9C603.9,295.8,603.5,295.8,600.3,294.4z"/>
	<path class="st0" d="M52.6,418.9c0.3,7.8,0.6,15.1,0.8,22.4c0,1.3,0,2.6-0.3,3.9c-0.2,0.6-1.1,1.7-1.4,1.6
		c-0.9-0.2-2.2-0.8-2.4-1.5c-1.9-7.9-3.7-15.8-2.8-24C46.8,418.2,48,417.8,52.6,418.9z"/>
	<path class="st0" d="M197.1,261c-0.5,0.6-1.1,1.1-1.6,1.7c-1.8,1.4-3.5,2.8-6,4.8c-0.4-2-1.2-3.6-0.7-4.3c1.8-2.9,3.8-5.7,6.1-8.2
		c4.5-5.1,9.3-9.9,14-14.9c0,0-0.2,0.1-0.2,0.1c3,5.1,3,5.2-0.3,8.8C204.7,253.1,200.9,257,197.1,261z"/>
	<path class="st0" d="M525.2,181.3c1.1-4.1,2.5-9.7,4.1-15.2c0.4-1.4,1.5-2.8,2.6-3.8c0.6-0.6,2-0.9,2.8-0.6
		c0.8,0.3,1.5,1.4,1.9,2.3c0.3,0.7,0.4,1.6,0.1,2.3c-2.3,6.4-4.6,12.8-7.1,19.1c-0.3,0.7-1.8,1.4-2.5,1.2c-0.8-0.2-1.4-1.3-1.9-2.2
		C525,184,525.2,183.3,525.2,181.3z"/>
	<path class="st0" d="M168.2,353c-5.5,4.8-11.8,7.9-18.1,11.1c-0.2,0.1-0.5,0.1-0.8,0.1c-1.8,0.2-3.3-0.7-3.7-2.2
		c-0.3-1,0.1-2.8,0.9-3.5c4.4-3.9,9.7-6.3,15.3-7.9C164.1,350,166.3,350.6,168.2,353z"/>
	<path class="st0" d="M352,151.9c-0.2,1.1-0.1,1.7-0.4,2c-4.8,4.8-7.7,10.5-8.5,17.3c-0.1,0.5-0.3,1-0.5,1.5
		c-0.5,1.2-2.5,1.5-3.3,0.4c-0.8-1-1.6-2.2-1.9-3.4c-1.8-7.2,3.3-16.1,10.4-18.2C349.1,151.3,350.6,151.8,352,151.9z"/>
	<path class="st0" d="M601.1,152.4c-3,0.3-5.5-0.9-7.1-3.5c-1.6-2.4-3.3-4.8-4.3-7.5c-1.6-4.1-2.6-8.5-3.8-12.8
		c-0.1-0.5,0.5-1.6,1-1.9c0.6-0.3,1.7-0.3,2.2,0.1c1.2,1,2.4,2.1,3.1,3.5c0.8,1.6,1.3,3.4,1.7,5.2c1.2,4.6,3,8.9,6.3,12.5
		C601.3,149.1,602.3,150.5,601.1,152.4z"/>
	<path class="st0" d="M197.5,433.7c1.8,0.7,3.2,1.3,5.1,2c-0.7,2.3-1.3,4.2-2,6.1c-1.1,3-2.7,5.8-3.3,8.8c-0.6,2.7-0.1,5.6-0.1,8.2
		c-2.6,1.8-4,0.3-4.9-1.3c-2-3.7-2.1-7.6-0.5-11.4C193.5,441.9,195.5,438,197.5,433.7z"/>
	<path class="st0" d="M776.5,207.1c-2.1,4.9-6.9,5.8-10.3,8.5c-3.2,2.6-6.6,5-9.9,7.4c-1.7-0.2-2.2-1.5-1.8-2.8
		c0.5-1.7,1.1-3.7,2.3-4.8c3.6-3.4,7.5-6.4,11.5-9.4C770.9,204,773.6,204.3,776.5,207.1z"/>
	<path class="st0" d="M234.5,283.5c-0.9,2.4-1.3,3.9-2,5.2c-3.7,6.1-7.6,12.1-11.3,18.1c-1.6,2.6-1.6,2.6-5.7,1.4
		C220.4,293.1,225.7,285.8,234.5,283.5z"/>
	<path class="st0" d="M248.5,442c-0.9,1-1.4,2.2-2.1,2.4c-0.8,0.2-1.9-0.4-2.7-1c-0.5-0.4-0.6-1.4-0.9-2.1c-1.6-3.7-4.7-5.6-8.4-6.5
		c-1.5-0.4-3.1-0.3-4.7-0.5c-2.1-0.4-3.3-2-2.9-3.9c0.4-1.9,1.9-2.3,3.5-2.4c7-0.4,12.2,2.6,15.9,8.3
		C247.5,437.9,247.8,440,248.5,442z"/>
	<path class="st0" d="M144.3,393.4c0.8,2.7-0.9,3.9-2.4,4.8c-5.5,3.6-11.1,7.1-16.7,10.6c-0.7,0.4-1.6,0.9-2.2,0.7
		c-1.2-0.3-2.6-0.8-3.3-1.7c-1-1.1-0.4-2.7,0.8-3.4c6.7-4.2,13.3-8.5,20.9-11.1C142.3,393.1,143.4,393.4,144.3,393.4z"/>
	<path class="st0" d="M495.1,189.9c-1.4-0.5-2.8-0.6-3.2-1.2c-4.5-6.6-6.6-14.2-8.3-21.8c-0.2-0.7,0.1-1.7,0.5-2.3
		c0.5-0.8,1.3-1.9,2.1-1.9c1.2,0,2.4,0.6,3.5,1.2c0.4,0.2,0.6,0.9,0.7,1.3c0.2,7.2,3.4,13.7,4.7,20.6
		C495.3,186.9,495.1,188.2,495.1,189.9z"/>
	<path class="st0" d="M748.8,206.8c1.2-6.4,4.2-11.4,10.2-13.8c3.7-1.4,7.4-2.8,11.1-4c0.9-0.3,2.1-0.5,3-0.2
		c1.7,0.5,3.6,1.1,4.1,3.3c0.3,1.2-1.4,2.1-4.2,2.4c-2.3,0.2-4.7,0.4-7,0.8c-4.3,0.7-8,2.5-11,5.7
		C753.1,203,750.9,204.8,748.8,206.8z"/>
	<path class="st0" d="M482.2,180.4c-1.3-0.8-3-1.2-3.8-2.3c-3.9-5.3-7.5-10.8-9.5-17.2c-0.1-0.3-0.1-0.5-0.2-0.8
		c-0.3-1.3-0.3-2.9,1.1-3.4c1.1-0.3,2.4,0.3,3.7,0.5c0.2,0,0.4,0.3,0.6,0.5c4.2,6.7,7.2,13.9,9.5,21.3
		C483.2,179.5,482.7,179.9,482.2,180.4z"/>
	<path class="st0" d="M384.4,134.7c-0.9,0.8-1.4,1.7-2,1.8c-5.6,0.9-10.1,3.9-14.2,7.7c-0.5,0.5-1.4,0.9-2.1,0.9
		c-0.7,0.1-1.6,0-2.1-0.5c-0.5-0.4-0.8-1.5-0.6-2c3-6.5,7.5-11.3,14.8-12.5C381.2,129.7,383.1,131.4,384.4,134.7z"/>
	<path class="st0" d="M485.1,158.4c-1.8,1.6-3.2,1.3-4.6,0.3c-2.8-1.9-4.2-4.7-5.3-7.7c-1.8-5-2-10.2-2.2-15
		c2.2-1.7,3.5-0.5,4.6,0.5c0.7,0.7,0.9,1.9,1.2,2.9C480.5,145.9,481.3,152.7,485.1,158.4z"/>
	<path class="st0" d="M312.7,219c-0.1,0.8-0.1,1.2-0.2,1.3c-6.3,4.9-13.5,6.7-21.3,5.6c-1.2-0.2-2.3-1-3.3-1.8
		c-0.5-0.4-0.9-1.4-0.7-2.1c0.1-0.6,1-1.6,1.5-1.6c7.1-0.1,14-1.6,21-2.7C310.6,217.5,311.8,218.6,312.7,219z"/>
	<path class="st0" d="M75.1,370c-1.4,1.8-2.8,3.6-4.1,5.5c-2.4,3.4-4.6,7-7.1,10.3c-0.7,0.9-2,1.6-3.2,1.9c-0.8,0.2-1.8-0.7-2.7-1.1
		c2-8.4,6.1-14.8,11.6-18.1C71.8,367.3,72,367.3,75.1,370z"/>
	<path class="st0" d="M486.8,193.7c3,0.9,5.5,2.4,6.9,5.1c2,4,5.1,5.8,9.5,5.8c1.1,0,2.2,1,3.4,1.6c-1.2,3.5-3.8,4-6.5,3.8
		c-4.1-0.3-7.8-1.9-10-5.5c-1.6-2.6-2.8-5.6-4-8.5C485.8,195.5,486.5,194.7,486.8,193.7z"/>
	<path class="st0" d="M629.5,333.5c-0.8-2.9-1.9-4.7-1.4-5.8c2-4.9,4.2-9.7,8.3-13.4c1.3-1.1,2.7-1.8,4.3-0.5
		c1.9,1.5,2.6,3.9,1.5,5.6c-0.6,0.9-1.3,1.6-2,2.4C636.9,325.3,633.7,328.8,629.5,333.5z"/>
	<path class="st0" d="M752.9,188.9c-1,1.6-1.3,2.7-2,3.2c-6.4,3.8-10.2,9.6-12.6,16.5c-1,2.9-2.4,4-3.5,3.2
		c-1.7-1.2-0.5-2.8-0.4-4.2c0.7-6,3.6-10.9,7.7-15.1c1.6-1.6,3.7-3,5.8-3.9C749.1,188,750.8,188.7,752.9,188.9z"/>
	<path class="st0" d="M415.4,125.8c-0.6,0.8-0.8,1.4-1.2,1.6c-5.8,1.6-11.7,3.1-17.5,4.6c-2.3,0.6-3.9-0.8-4.3-3.3
		c-0.2-1.5,0.3-2.8,1.7-3.2c6.4-1.7,12.8-3.1,19.4-1.5C414.3,124,414.8,125.2,415.4,125.8z"/>
	<path class="st0" d="M838.1,102.2c-6.5,0.7-12.1-2.2-17.9-4.6c-1.5-0.6-2.5-2.1-2.3-3.8c0.1-1.1,0.7-2.2,1.3-3.8
		c6,2.7,11.4,5.1,16.9,7.5C838,98.4,839,99.8,838.1,102.2z"/>
	<path class="st0" d="M470.4,138.1c-2.3-0.3-3.6-0.2-4.7-0.6c-5.9-2.5-11.2-5.9-16-10c-0.9-0.8-1.4-2.2-1.7-3.4
		c-0.5-1.7,1.1-3.1,2.8-2.6c0.5,0.2,1.1,0.2,1.5,0.5c5.2,4,10.5,8,15.6,12.1C468.8,134.9,469.2,136.2,470.4,138.1z"/>
	<path class="st0" d="M817.8,215.1c1.8,0.2,2.5,0.1,2.9,0.4c0.6,0.4,1.3,1,1.4,1.6c0.1,0.6-0.2,1.8-0.7,2.1c-3,1.6-6,3.1-9.1,4.4
		c-1.7,0.7-3.5,0.9-5.4,1.1c-2.1,0.2-3.2-0.8-3.8-3.1c-0.3-1.5,0.1-2.8,1.4-3.2C809.4,217,814.2,215.9,817.8,215.1z"/>
	<path class="st0" d="M112.1,385.4c5.7-2.7,11.6-4.8,17.6-6.6c2-0.6,4.1-0.5,6.2-0.5c0.3,0,0.7,0.7,1,1c-0.1,0.4-0.1,1.1-0.4,1.3
		c-5.9,2.9-11.7,5.7-17.7,8.4C115.8,390.4,114.8,389.7,112.1,385.4z"/>
	<path class="st0" d="M752.3,232.2c1.4,1.3,2.7,2.4,4.1,3.7c-2.4,5-5.1,9-9.8,11.4c-0.9,0.5-2.1,1-2.9,0.8c-1.2-0.3-2.6-1.1-3-2
		c-0.4-1-0.1-3.2,0.5-3.5C746,240.5,748.4,235.9,752.3,232.2z"/>
	<path class="st0" d="M595,256.7c-1.2-3.9-0.2-6.8,1.8-9.3c3.5-4.5,8.3-7.4,13.5-9.4c1.8-0.7,3.7-0.4,5,2c-0.9,0.7-1.7,1.8-2.8,2.3
		c-6.5,2.8-12,6.6-15.4,13C596.9,255.5,596.3,255.7,595,256.7z"/>
	<path class="st0" d="M382.3,169.5c0.8,1.3,1.4,2.2,2.2,3.5c-6,3.5-12,6.5-18.8,8.9c-0.7-1.1-1.9-2.2-1.9-3.2c0-1.1,0.9-2.4,1.9-3.1
		C370.4,171.9,376,170.6,382.3,169.5z"/>
	<path class="st0" d="M815.6,204.4c-5.3,2.5-10.8,3.6-16.6,2.4c-3.1-0.7-3.7-2.4-2.5-6.9c2.7,0.2,5.5,0.3,8.3,0.6
		c2.9,0.2,5.7,0.3,8.5,0.8C814.6,201.5,816.6,201.9,815.6,204.4z"/>
	<path class="st0" d="M405.6,354.1c2.9,0.8,4,2.6,3.4,4.9c-1.4,5.3-3.9,10.3-7.5,14.5c-0.3,0.4-1.4,0-2.6,0
		C398.5,366,401.4,359.8,405.6,354.1z"/>
	<path class="st0" d="M225.9,252.7c-0.3,0.9-0.3,1.8-0.7,2.4c-4.5,5.4-9.1,10.7-13.7,16.1c-0.3,0.4-0.8,0.9-1.2,0.9
		c-1,0-2,0-2.8-0.4c-0.3-0.2-0.3-1.4-0.2-2.1c0.1-0.5,0.4-1,0.7-1.4c4.7-5.3,9.4-10.6,14.1-15.8c0.5-0.5,1.4-0.8,2.1-0.8
		C224.6,251.7,225.2,252.3,225.9,252.7z"/>
	<path class="st0" d="M391.5,117c-2.8,0.9-5.2,2-7.7,2.4c-4.2,0.7-8.1,2.2-11.6,4.5c-0.6,0.4-1.4,1-2.1,1c-1,0-2.3-0.2-2.8-0.8
		c-0.4-0.6-0.2-2.1,0.3-2.7c2.4-2.9,5.6-4.9,9.2-5.8c4.6-1.1,9.3-1.5,13.9-0.3C390.9,115.3,390.9,115.7,391.5,117z"/>
	<path class="st0" d="M332.3,273.6c-5.6,3.4-10.6,3.5-15.6,3.2c-1.4-0.1-2.8-1.2-4.1-2.1c-0.5-0.3-0.7-1.4-0.5-2.1
		c0.2-0.7,1-1.6,1.5-1.6c5.2,0,10.5,0.1,15.7,0.4C330.1,271.5,330.8,272.5,332.3,273.6z"/>
	<path class="st0" d="M373.4,283.4c-1.1,0.6-1.7,1.3-2.4,1.3c-5.2-0.3-10.5-0.7-15.7-1.2c-1.5-0.1-1.5-0.3-3.6-3.4
		c4.2-2.1,6.6-2.4,13.3-1.4C368.1,279.2,371.4,279.4,373.4,283.4z"/>
	<path class="st0" d="M611.7,305.5c-3.1-1.8-3.9-3.8-2.8-5.8c1.8-3.2,4-6.2,6.2-9.2c0.8-1.1,2.4-1.4,3.5-0.5
		c0.9,0.8,1.7,2.1,1.7,3.2c0,1.2-0.5,2.6-1.3,3.6C616.8,299.7,614.3,302.4,611.7,305.5z"/>
	<path class="st0" d="M636.4,130.3c2.3-4.2,3.6-7.9,7-10.3c2.1-1.5,4.2-2.1,6.5,0.5c0.4,6.5-7.2,7.4-8.6,12
		C638.3,133.5,638.1,131.4,636.4,130.3z"/>
	<path class="st0" d="M428,349.5c0.9-2.9,3.2-3.6,5.1-2.7c3.7,1.6,7,1.7,10.5-0.1c0.5-0.2,1.9,0.3,2,0.7c0.3,0.9,0.3,2.1-0.2,2.8
		c-2.1,2.9-4.9,4.7-8.7,4.6C432.7,354.7,429.8,352.8,428,349.5z"/>
	<path class="st0" d="M348.4,208.3c0.4-1.1,0.4-2.2,0.9-2.5c4.2-2.7,8.4-5.4,12.7-7.9c0.8-0.4,2.1-0.3,3,0c0.6,0.2,1.3,1,1.5,1.6
		c0.2,0.6-0.1,1.8-0.5,2.1c-4.6,2.6-9.1,5.2-13.9,7.5C351.3,209.5,349.8,208.6,348.4,208.3z"/>
	<path class="st0" d="M456.5,160.6c2.4-0.3,4.4,0.4,5.7,2.3c2.8,4.2,6.7,7.8,8.2,13.2c-3.5,0.3-5.6-1.2-7.3-3.2
		c-2.7-3.2-6.2-5.8-7.3-10.1C455.7,162,456.2,161.3,456.5,160.6z"/>
	<path class="st0" d="M449.3,167c-5.3,1.9-10.8,1.8-16.3,2.1c-1.9,0.1-3.5-0.7-4.3-2.6c0.1-0.3,0.2-0.7,0.4-0.7
		c5.3-1.6,10.6-3,16.1-2.9C447.6,163,449.2,164.2,449.3,167z"/>
	<path class="st0" d="M757.2,237.1c0.5-2,0.4-3.4,1.1-4.3c3.4-4.3,7-8.5,8.9-13.7c0.1-0.4,0.9-0.8,1.3-0.7c0.6,0.2,1.6,0.7,1.7,1.3
		c0.7,4,0.4,7.8-2.9,10.8C764.6,232.9,762.5,236.1,757.2,237.1z"/>
	<path class="st0" d="M392.2,173.2c-0.7-1.3-1.8-2.5-1.8-3.8c0-0.9,1.4-2.3,2.5-2.6c3.2-1,6.6-1.6,9.9-2.3c2.5-0.6,4.6,0.3,6.9,2.4
		C403.8,169,398.2,171,392.2,173.2z"/>
	<path class="st0" d="M517.5,193.6c-2.8,2.7-6.4,3-10.1,2.9c-3.3-0.1-5.2-2.2-6.5-4.9c-0.3-0.6-0.2-1.6,0.2-2.1
		c0.4-0.5,1.3-0.6,2-0.8c0.2-0.1,0.6,0,0.7,0.2c2.9,2.2,6.1,2.3,9.5,1.3C515.7,189.6,516.2,190.2,517.5,193.6z"/>
	<path class="st0" d="M492.2,216.2c-3,4.4-6.7,7.9-12.2,8.6c-1.3,0.2-2.9-0.9-4.1-1.8c-0.5-0.4-0.4-2.5,0-2.7
		c4.9-2.2,9.4-5.8,15.3-5C491.5,215.5,491.7,215.7,492.2,216.2z"/>
	<path class="st0" d="M777.9,151.2c-2.3,0.3-3.8,0.7-5.3,0.8c-3.7,0.2-7.4,0.4-11.1,0.5c-2.3,0.1-3.4-1-3.4-3.3
		c5.1-2.7,13.2-3.4,17.4-1.4C776.5,148.2,776.9,149.7,777.9,151.2z"/>
	<path class="st0" d="M586.8,301c-1-0.9-1.8-1.5-2.7-2.3c2.1-3.9,3.8-7.5,5.8-10.8c2-3.1,3.9-3.2,8.3-0.8
		C595.1,292.2,591.3,296.7,586.8,301z"/>
	<path class="st0" d="M509.4,224.4c-0.8-0.3-1.7-0.5-2.2-1c-0.8-0.6-1.3-1.5-2.1-2.5c2.4-3.8,5.9-6.1,9.3-8.5
		c0.6-0.4,2.1-0.2,2.8,0.3c1.2,0.8,1.5,2.3,0.5,3.4C515.1,219.2,513,222.5,509.4,224.4z"/>
	<path class="st0" d="M136.2,324.6c-4.9-1.6-9.6-3-14.3-4.6c-1.8-0.6-3.2-1.9-2.5-4.6c0.8-0.2,1.8-0.5,2.8-0.5
		c5.2,0.3,9.5,2.9,13.8,5.5C137,321,137.8,322.3,136.2,324.6z"/>
	<path class="st0" d="M212.2,251.5c3-4.7,5.1-8,7.2-11.3c0.6-0.9,1.2-1.7,1.4-2c3.1-0.3,3.9,1.1,3.5,2.8c-0.9,4.6-3.4,8.2-7.4,10.6
		C216.1,252.2,214.6,251.7,212.2,251.5z"/>
	<path class="st0" d="M618.3,245.9c5.8-1.3,11.7-2.2,17.6-0.7c0.9,0.2,1.5,1.7,2.7,3.1c-6.3,0.5-11.8,1-17.3,1.2
		C619.4,249.6,617.6,248.9,618.3,245.9z"/>
	<path class="st0" d="M363.1,115.9c-3.3,1.9-6.4,3.9-9.6,5.5c-1.1,0.5-2.5,0.5-3.7,0.5c-1.2,0-2.1-2.1-1.4-3
		c2.7-3.4,6.1-5.6,10.3-6.5C360.7,112,362.2,112.8,363.1,115.9z"/>
	<path class="st0" d="M354.3,130.3c0.2,4-4,4.4-5.8,6.8c-1.7,2.2-3.7,4.2-5.6,6.2c-2.2-1.1-1.7-2.8-1.6-4.2c0.1-1.2,0.6-2.6,1.5-3.5
		c2.7-3,5.9-5.2,9.9-6C353.2,129.5,353.7,130,354.3,130.3z"/>
	<path class="st0" d="M838.4,81c-4.7,1.1-8.8,0-12.7-1.3c-0.9-0.3-1.9-1.1-2.4-1.9c-0.5-0.8-0.7-2.2-0.3-2.9
		c0.3-0.7,1.8-1.4,2.5-1.2c4,1.3,7.9,2.7,11.8,4.3C837.8,78.4,838,79.8,838.4,81z"/>
	<path class="st0" d="M49,398.3c0.6,4.9-1.9,9.1-2,13.9c-3.4,0.3-4.6-2.1-4.8-4.2c-0.4-3.7,0.6-7.3,4.2-9.4
		C47,398.3,47.9,398.4,49,398.3z"/>
	<path class="st0" d="M206.8,435.4c-0.4-1.5-1-2.8-0.8-3.9c0.6-3.6,2.9-6.1,6-7.8c1.4-0.7,2.7-0.1,3.4,1c0.5,0.7,0.6,2.2,0.2,2.8
		C213.6,430.7,211.5,434.1,206.8,435.4z"/>
	<path class="st0" d="M788.7,178.7c-3.4-4.5-6.1-8.5-4.2-14.3c3.2,0.8,4,3.5,4.5,5.8C789.6,172.7,792.1,175.3,788.7,178.7z"/>
	<path class="st0" d="M565.5,317c-1.9-2.2-3.9-4.3-5.5-6.5c-0.4-0.5,0.1-1.9,0.5-2.7c0.3-0.4,1.7-0.6,2.1-0.3
		c1.8,1.5,3.6,2.9,4.9,4.8C568.7,314,567.7,315.6,565.5,317z"/>
	<path class="st0" d="M291.5,281.4c5.6-3.6,5.6-3.6,11.5-4.1c-0.1,0.7,0,1.5-0.3,2c-2.7,3.5-6.4,3.9-10.4,3.4
		C292,282.6,291.7,281.8,291.5,281.4z"/>
	<path class="st0" d="M733.2,172.2c-0.4,0.1-0.9,0.4-1.1,0.2c-0.4-0.2-0.5-0.7-0.8-1.1c0.4-0.1,1-0.4,1.3-0.3
		C732.9,171.2,733,171.8,733.2,172.2z"/>
</g>
</svg>
