<?xml version="1.0" encoding="utf-8"?>
<!-- Generator: Adobe Illustrator 16.0.0, SVG Export Plug-In . SVG Version: 6.00 Build 0)  -->
<!DOCTYPE svg PUBLIC "-//W3C//DTD SVG 1.1//EN" "http://www.w3.org/Graphics/SVG/1.1/DTD/svg11.dtd">
<svg version="1.1" id="Layer_1" xmlns="http://www.w3.org/2000/svg" xmlns:xlink="http://www.w3.org/1999/xlink" x="0px" y="0px"
	 width="895.4px" height="925.8px" viewBox="0 0 895.4 925.8" style="enable-background:new 0 0 895.4 925.8;" xml:space="preserve"
	>
<style type="text/css">
<![CDATA[
	.st0{fill-rule:evenodd;clip-rule:evenodd;fill:#231F20;}
]]>
</style>
<g>
	<path class="st0" d="M691.1,785.4c-16.9-9.1-27.7-22.3-39-34.8c-25.5-28.2-51-56.5-79.8-82.6c-2.1,0.9-4.9,1.3-6.7,2.9
		c-7.7,6.7-17.2,10.2-25.9,15.1c-7.4,4.2-15.5,3.3-23.3,3.5c-12.7,0.3-24.6,4.4-37.5,4.3c-0.9,7-2.8,12.8-2.3,18.4
		c1.5,16.5-1.8,32.6-1.8,49c0,13.7-1.9,27.4-3,41.1c-0.7,8.9-0.5,18.1-2.5,26.7c-2.2,9.8-2,19.1-1.2,29c1,13.1,0.3,26.5-4.3,39.2
		c-3.2,8.8-7.1,17.4-11,25.9c-1.3,2.9-5.7,3.5-8.4,1.7c-3.6-2.4-6.5-5.4-6.9-10.1c-0.1-1.6-0.3-3.2-0.2-4.8
		c2-21.3-3.2-42.1-3.5-63.3c0-3.1-1-6.2-1.5-9.4c-0.9-6.3-2.1-12.5-2.6-18.8c-0.7-9.5-0.9-19-1.3-28.5c-0.2-3.7-1-7.5-0.5-11.1
		c3.3-24.9-1.3-49.5-2.4-74.2c-0.2-4.1,0-8.3,0-13.2c-3.2-0.4-5.7-1.2-8.2-1.1c-13.1,0.6-25.1-2.9-36.4-9.1
		c-5.6-3-11.2-6.1-16.3-9.7c-7.8-5.5-16-10.1-25.2-13.1c-15.6-5-27.3-15.8-38.8-26.8c-2.6-2.5-5-5.3-7.9-8.4
		c-9.3,6.9-18.1,13.6-27.1,20c-8.2,5.8-16.5,11.4-24.9,17c-7.4,5-14.7,10.4-22.5,14.6c-10.2,5.5-21,9.9-31.4,15
		c-12.3,6-24.5,12.3-36.8,18.5c-2.4,1.2-16.9,3.9-19.4,3.1c-1.4-0.4-2.5-1.9-3.7-2.9c2.7-9.6,8.1-17,15.2-23.8
		c13.1-12.3,25.3-25.5,38.5-37.7c22.2-20.4,44.8-40.3,67.2-60.5c3.9-3.5,7.6-7.2,11.2-10.6c-12.6-27.2-20.9-54.8-25.3-84.1
		c-11.2-1.3-22.2-2.6-33.2-3.7c-10-1-20.1-1-29.6-4.9c-1.4-0.6-3.1-0.9-4.6-0.9c-23.3,0-46.2-5.7-69.6-3.7
		c-3.7,0.3-7.6,0.6-11.1-0.4c-13.1-3.9-26.2-1.3-39.3-0.7c-6.3,0.3-12.7,0.8-19,1C14.5,479,6,472.6,0,459.5
		c4.3-2.2,8.6-4.5,12.9-6.8c-0.7-0.9-1.5-1.8-2.2-2.6c14.7-1.1,29.5-2.3,44.2-3.4c14.8-1,29.6-1.2,44.3-2.9
		c15.2-1.8,30.5-2.6,45.7-3.4c14.7-0.8,29.9-0.6,44-4.3c14.5-3.8,29.7,0.9,44.3-5.5c0.4-6.1,0.9-11.8,1-17.6
		c0.3-10.7,3.4-20.6,6.6-30.8c8-25.4,21.1-48.4,33.1-71.9c3.3-6.4,9.1-11.5,14-17.1c2.7-3.1,5.8-6,9.1-9.3
		c-4.7-6.4-9.4-12.1-13.4-18.2c-11.9-18.1-24-36.1-35.1-54.7c-9-15-12.2-32.1-15.6-49c2-1.3,3.4-2.1,5.7-3.5
		c12.6,8.1,22.1,20.3,33.4,30.2c11.8,10.4,21.9,22.9,32.6,34.5c10.3,11.2,20.5,22.5,31.2,34.2c3.9-1.4,7.4-2.4,10.6-3.9
		c7.2-3.3,14.4-6.6,21.3-10.5c21.8-12.3,45.6-15.9,70-17.7c1.5-0.1,2.9-0.6,5.1-1.1c0.3-4.2,1-8.4,0.8-12.5
		c-0.7-13.8-0.1-27.4,1.9-41.1c1.5-10.4,1-21.1,2.2-31.6c2.6-23.6,5.8-47.1,8.6-70.7c0.6-5.2,1.1-10.6,0.6-15.8
		c-1.6-15.6,2.3-30.3,5.9-45.2c1.3-5.6,4.5-7.9,11-7.7c0.6,2.4,1.6,4.8,1.6,7.2c0,11.1,1.4,22,4.8,32.6c0.8,2.5,0.8,5.2,1.2,7.8
		c1.2,8.3,2.6,16.6,3.7,25c1.5,11.9,1.9,23.9,1.6,36c-0.2,10.5,0.2,21.3,2.9,31.4c4.9,18.2,3.7,36.5,4.2,54.8
		c0.3,11-1.3,22.1,1.2,34c4.7,0.6,9.3,1.5,14,1.7c18,0.7,35.7,3.5,53.3,7.1c5.1,1,10.1,3,14.7,5.5c12.5,6.8,24.5,14.3,34.6,24.8
		c7.9,8.3,17.2,15.2,26.3,22.9c12.2-7.6,22.9-16,33.7-24.3c13.4-10.3,27-20.4,40.5-30.4c2.1-1.6,4.5-2.9,6.9-3.8
		c14.2-5.3,27.5-13.1,43.8-16.3c1.6,3.1,3.4,6.6,5.3,10.4c-4.8,6.3-8.8,12.5-13.7,17.9c-10.3,11.3-21,22.3-31.5,33.4
		c-13.7,14.6-27.4,29.2-41.1,43.9c-1.4,1.5-2.5,3.3-3.2,4.2c3.3,14.2,6.4,27.4,9.6,40.7c1,4.1,1.7,8.4,3.6,12.1
		c8.3,16,10.4,33,9.1,50.7c-0.2,3,0.3,6.1,0.5,10.1c14,2.4,27.6,3.9,41.2,5.3c14.7,1.5,29.4,2.9,44.2,4.2c7.4,0.6,14.8,1.5,22.2,1.2
		c18.6-0.6,36.9,1.2,55.3,3.3c7.3,0.8,14.4,2.9,21.6,4.8c6.9,1.8,11,6.1,9.5,14.7c-0.6,0.3-1.8,1.7-3.1,1.7
		c-12.1,0.4-23.7,4.7-36,3.3c-4.6-0.5-9.5,0.3-14.2,1c-12.4,1.8-24.7,4.1-37.1,5.9c-3.1,0.5-6.3-0.2-9.5-0.1
		c-6.3,0.3-12.5,0.5-18.4,3.5c-8.7,4.3-18.5,3.8-28,3.9c-15.8,0.1-31.6,1-47.4,4.4c-1,2.6-2.4,4.9-2.8,7.4
		c-3.1,22.3-12.2,42.4-22.5,62.1c-4.4,8.4-10.6,15.6-17.4,22.4c-13.1,13-25.8,26.5-38.7,39.8c-0.7,0.7-1,1.8-2.1,3.8
		c1.1,2.1,2.6,4.7,4,7.4c9.7,18.7,19.4,37.4,29.1,56.2c6.6,12.7,12.7,25.7,21.9,36.6c10,11.9,14.8,26.7,22.7,39.8
		c1.4,2.3,0.9,6.1,0.3,9C695.3,782.6,692.9,783.7,691.1,785.4z M547.1,333.9c5.5-0.9,7.5-5.5,9.6-9.6c3.8-7.3,9.2-12.6,16.7-15.9
		c1.5,3.2,3.5,6.2,4.3,9.5c0.9,3.6,0.9,7.4,1.4,12.7c7.8-5.5,14.4-10.3,20.9-14.8c-0.8-2.1-0.9-3.4-1.6-4
		c-11.1-9.6-21-20.7-34.4-27.4c-1.8-0.9-3-2.8-4.5-4.2c-2.8-1.2-5.8-2.2-8.5-3.7c-13.7-7.4-28.3-11.3-43.6-12.9
		c-3.4-0.4-7,0.5-9.9,0.8c-2.3,5.2-1.2,9.2-0.1,13.3c2.8,11,6.4,22,4.8,33.7c-0.2,1.7,1.9,3.7,3.5,6.6c1.9-7.2,3-12.9,4.9-18.3
		c1.3-3.9,3.6-7.5,5.7-11.1c2.2-3.7,5.6-3.8,10.2-2.4c-0.8,4.5-1.6,8.5-2,12.5c-0.5,4.4,0.2,8.5,4.6,10.9h-0.1c-0.8,1-1.9,2-2.4,3.1
		c-0.8,1.7-1.1,3.7-1.6,5.5c0,0.7,0.1,1.4,0.1,2.1c0.1-0.8,0.2-1.5,0.3-2.3c4.2,0.5,4.8-3.4,6.3-5.7c4.7-7.4,9.4-15,13.5-22.8
		c3.2-6.2,7.8-9.5,14.6-9.3c-2,7.8-6.7,15.5-1,23.8c0.6,0.8-0.2,3.2-1.1,4.4c-4.7,6.1-5.7,13.5-7.8,20.5c-0.6,1.9-2,3.5-2.9,5.3
		c0.5,0.7,1,1.3,1.5,2c-0.4,0.1-0.9,0.1-1.3,0.2C547,335.5,547,334.7,547.1,333.9z M413.9,595c-1.9-0.2-4.7-1.2-5.4-0.4
		c-2.8,3.1-5.4,6.5-7.3,10.2c-3,5.8-7.2,10.2-13,13.8c-1.2-2-2.3-3.7-3.6-5.8c-1.8,0.6-3.7,1.5-5.7,1.8c-1.8,0.3-3.8,0.1-6.6,0.1
		c1.4-4.7,2.9-8.1,3.4-11.6c0.3-2.3,0.2-5.4-4.6-6c-5.3,9.9-12.7,17.7-26.7,16.7c1.5-3.3,2.4-5.7,3.6-7.9c1.5-2.8,3-5.6,4.9-8.1
		c3.2-4.2,6.7-8.2,9.9-12.3c1.3-1.7,2.2-3.5-0.5-5.7c-1.6,0.8-3.7,1.4-5.1,2.7c-3.3,3.2-5.5,6.1-11.7,5.5
		c-6.2-0.6-16.2,8.6-21.2,15.1c4.6,6.4,10.6,12.5,17.9,14.2c9.6,2.2,15.7,7.6,21.2,14.8c1.9,2.5,4.1,5.1,6.8,6.5
		c9.2,5.1,18.7,9.7,28.1,14.5c1.8,0.9,3.7,1.5,6.7,2.8c0.2-6,0.5-10.5,0.3-15.1c-0.6-16,2.3-31.3,8.1-46.3c0-2,0-4,0-6
		c-0.6,0.1-1.1,0.2-1.7,0.3C412.5,591,413.2,593,413.9,595z M317.8,320.9c-6.4,8.8-11.9,15.2-16.1,22.5
		c-11.3,19.7-21.2,40.1-28.5,61.7c-2.4,7.1-3,14.2-1.7,22.3c11.8-1.8,22.4-5,32.2-10.8c-0.9-1.9-1.2-3-1.8-3.7
		c-2.2-2.8-6.1-4.7-4.7-9.3c1.7-5.2,6.6-6.5,10.9-8.2c1.3-0.5,3.1,0.1,4.7,0.3c7.3,0.8,14.5,1.5,21.9,2.3c-2.1-6.8-4.1-13.7-12.2-17
		c-3.2-1.3-6-4.4-8.1-7.3c-1.9-2.7-1.9-6.1,1.9-7.9c14.1,1.2,25.3,9.1,37.5,17.3c0.8-9.2-2.9-15.3-8.7-20.2
		c-6.4-5.4-11.8-12-19.9-15.4c-4.2-1.8-5.9-5.7-5-10.5c2.3-0.6,4.6-1.3,8-2.2C324.8,330.3,322,326.6,317.8,320.9z M615.6,427.2
		c0.2,1.1,0.4,2.2,0.6,3.3c8.8,0.5,17.7,1.2,26.5,1.5c9.2,0.3,18.3,3.3,28.8,2.4c-1.2-4.1-2.1-7-2.8-10c-1.2-5.1-3-10.2-3.2-15.4
		c-0.4-7.8,1-15.9-7.7-20.7c-0.8-0.4,0-3.1-0.6-4.4c-3.2-7.5-5.8-15.5-14-20.5c-5.5,3.2-9.9,7-13.8,11.9c4.2,2.6,7.9-6,11.3,0.7
		c-1.2,8.6-6.7,13.8-13.5,18.3c-13.3,8.6-26.2,17.8-40.9,24c-2.3,1-4.8,2.4-2.5,6.8c18.7-3.7,37.8-6.7,55.4-19.7
		c0,3.5,0.8,6.2-0.1,6.9c-3.9,3.4-8.2,6.6-12.6,9.3C623.1,424,619.2,425.4,615.6,427.2z M598.4,597.3c24.4-16.4,59.1-75.3,57.7-98.4
		c-18.6-1.3-27,0-35.5,5.7c3.9,5.1,7.5,9.9,15.1,9.6c4.2-0.2,6.3,3.1,6,8.3c-6.3,1.5-12.7,3.1-19,4.7c0.3,3,0.6,5.6,0.8,7.9
		c-3.3,3.5-6.4,6.7-10.4,11c3.8,1.5,6.2,2.2,8.3,3.5c1.2,0.7,2.4,2.3,2.4,3.5c0,1.2-1.3,2.7-2.4,3.6c-3.2,2.6-7.1,2.3-10.6,1
		c-6.9-2.5-13.6-5.5-20.5-8c-2-0.7-4.4-0.5-7.9-0.8c5.2,10.3,15.7,13,20.8,21.9c-4,5.2-8,10.3-12.4,16
		C593.1,590,595.5,593.3,598.4,597.3z M289.1,553.3c12.7-9.6,21.7-19.5,34.5-30.9c-8.5,2.1-13.5,3.7-18.5,4.4
		c-2.8,0.4-6.5,0.7-7.4-3.6c1.9-8.7,12.5-4.4,15.7-10.4c-0.3-4.1-0.7-7.8-1-11.4c-8.7,0.3-8.6-0.1-18.6-3.5
		c-6.8-2.3-13.7-5.3-21.4-2.5c-0.3,1.8-1,3.4-0.6,4.7C277.4,517,281.4,534.4,289.1,553.3z M516,627.8c-4.3,3.9-7.3,6.7-10.9,9.9
		c-3.2-3.7-6.1-7.2-9.1-10.8c-2.3,3.7-4.4,7-7,11.2c-2.4-3.8-4-6.3-6.6-10.5c-0.4,12.2-1,22.7,0.5,33c21.5,1.3,34.6-3.2,44.5-15.1
		C523.9,640.1,520.3,634.4,516,627.8z M397.8,321.5c-2.1-14-12.9-19-18.1-30c3.8,0.6,6.1,0.3,7.4,1.3c5.3,4.3,10.2,9.1,15.2,13.7
		c1.8,1.6,2.8,4.5,6.9,3.1c0.2-3.9,0.4-8,0.7-12.1c0.3-4.7,0.5-9.4,1.2-14.1c0.6-3.8,1.8-7.5,2.8-11.4c-19-0.6-33,7.6-46.4,19.7
		C377.1,301.2,386.4,310.3,397.8,321.5z M548.1,637.1c-6.4-7.5-11.2-16.9-21.2-23.1c-1,8.9,1.5,15.8,4.8,22.3
		c1.3,2.6,3.9,5.2,6.5,6.2C541.9,643.7,545.2,641.6,548.1,637.1z M424.4,659.1c-1.2-9.5-2.1-17.2-3.1-25c-0.1-0.5-0.3-1.1-0.7-1.4
		c-0.3-0.2-0.9-0.1-2.5-0.2c-5.4,8.5-6.6,17.4-1.8,27.4C418.8,659.7,420.8,659.5,424.4,659.1z M429.8,287.9c4.9-9.7,6.7-19.1,3.4-22
		c-2.1,0.2-5,0.6-8.5,0.9C424.9,274.8,421.6,282.6,429.8,287.9z M603.5,520.4c6,7,6,7,11.8,3.3C610.9,522.5,607.2,521.5,603.5,520.4
		z M541.3,357.3c-2.1-1.3-3-2.2-3.5-2.1c-0.8,0.3-1.6,1.3-1.7,2.1c-0.1,0.7,0.7,1.6,1,2.4C538.4,359,539.7,358.2,541.3,357.3z"/>
	<path class="st0" d="M528.8,309.6c-1.1-2.6-2.1-5.2-3.2-7.8c1.5,0.6,3,6,3.1,7.8C528.8,309.6,528.8,309.6,528.8,309.6z"/>
</g>
</svg>
