<?xml version="1.0" encoding="utf-8"?>
<!-- Generator: Adobe Illustrator 16.0.0, SVG Export Plug-In . SVG Version: 6.00 Build 0)  -->
<!DOCTYPE svg PUBLIC "-//W3C//DTD SVG 1.1//EN" "http://www.w3.org/Graphics/SVG/1.1/DTD/svg11.dtd">
<svg version="1.1" id="Layer_1" xmlns="http://www.w3.org/2000/svg" xmlns:xlink="http://www.w3.org/1999/xlink" x="0px" y="0px"
	 width="927.3px" height="1011.6px" viewBox="0 0 927.3 1011.6" style="enable-background:new 0 0 927.3 1011.6;"
	 xml:space="preserve">
<style type="text/css">
<![CDATA[
	.st0{fill-rule:evenodd;clip-rule:evenodd;fill:#231F20;}
]]>
</style>
<path class="st0" d="M425.3,341c2.8-3.3,4.9-4.8,5.5-6.6c12.8-42.5,26.7-84.7,30.8-129.4c1.8-19.4,4.2-38.8,7.8-57.9
	c6.6-35.5,4.6-71.5,7.6-107.1c1-11.8,2.9-23.5,4.6-36.4c8.6-1.4,15.7-2.6,22.2-3.6c9.4,10.5,11,21.5,11,34c0,43.4,1,86.9,2.4,130.3
	c0.3,9.6,3.6,19.2,5.5,28.7c3.8,19.2,9.5,38.2,11,57.5c2.8,37.6,13.4,72.3,31.9,106.5c11.8,1.2,22.5-4.7,32.3-10.4
	c39.7-23,76.1-50.4,106.5-84.9c16.1-18.2,37-29.9,56.3-43.6c5.6-4,12.5-0.6,16.5,5.3c-3.7,22.1-15.9,38.1-32.8,50.8
	c-28.2,21.1-50.1,48.4-71.2,75.9c-10.3,13.5-15.2,31-24,45.8c-13.8,23.2-18.8,48.4-19.6,74.8c-0.1,2.1,1,4.2,2,7.7
	c15.1,10.8,33.1,17.5,51.7,23.7c39.4,13,80.6,17.4,121,25.3c10.4,2,21.5-0.3,32.4-0.2c22.8,0.2,45.6-0.3,68.2,1.4
	c15.4,1.2,21.4,10.8,22.5,30.6c-6.2,0.5-12.5,1.3-18.8,1.4c-26.1,0.1-52.2-0.6-78.2,0.1c-16.2,0.4-32.4,3-48.6,4.2
	c-7.5,0.6-15.8,2.5-22.5,0.2c-17.5-5.9-34.5-3.2-51.6-0.3c-25.5,4.4-51.4,7.4-74.5,17.1c-10.5,18-8.8,35.5-1.6,51.7
	c12,26.7,25.7,52.6,39.4,78.4c13,24.5,33.5,42.5,55,60.1c2.4,10.3,4.9,20.9,7.4,31.5c-8.7,7.5-16.8,6.1-22.9-1.3
	c-41-49.5-95.7-81.1-148.8-114.8c-9-5.7-17.9-11.5-27.2-17.5c-9.4,7.9-13.6,16-15.5,25.8c-3.8,19.2-9,38.1-12.2,57.4
	c-7.9,47.1-13.2,94.6-14.4,142.5c-0.8,30.4-3.1,60.7-5.5,91c-0.5,6.2-2.9,13-6.6,17.9c-2.6,3.5-8.7,4.6-13.7,6.9
	c-9.6-14.9-11.6-30-9.7-45.1c5.6-45-0.9-88.7-10.5-132.5c-8.9-40.3-16.1-80.9-24.3-121.3c-1-5-4-9.6-6.6-15.8
	c-6.3,2.2-11.2,4-16,5.7c-17.5,5.9-34.7,12.3-52.4,17.4c-24,6.9-48.5,12.3-70.6,24.4c-17,9.3-33.6,18.8-47.3,33.7
	c-13.8,15-31.3,26.7-47,40c-6.4,5.5-14.6,7.7-21.2,4.3c-5.8-3-9.1-10.6-14.2-16.9c32.4-37.6,69.8-67.6,97.6-106.8
	c27.6-38.8,56.7-76.5,83.4-118.3c-6.8-4.8-11.4-9.1-16.9-11.8c-41.1-20.3-85-33.1-129.2-44.3c-25.2-6.4-51.2-9.4-76.5-15.5
	C73.6,500.9,42.3,491.8,11,483c-3.9-1.1-7.3-4-10.4-5.7c-2.5-10.8,3.2-16.5,10.8-17.9c10.2-1.8,20.2-5.8,31.6-0.1
	c9.2,4.5,20.9,5.2,31.5,5.1c59.8-0.8,119-6.9,178.1-16.9c23.9-4.1,46.9-7.4,67.2-24.7c0.7-24.7-7.3-48.4-20.6-69.5
	c-29.5-46.8-52.8-97.5-88.9-140.2c-4.9-5.8-9.5-12.4-11.7-19.4c-1.3-4,1.4-10.4,4.3-14c1.5-1.9,8.6-1.5,11.4,0.5
	c5.3,3.6,9.3,9,13.9,13.6c32.8,33.2,65.5,66.4,98.4,99.5c21.2,21.3,49,31.9,75.1,45.1C408.6,341.8,418.2,340.3,425.3,341z"/>
</svg>
