<?xml version="1.0" encoding="utf-8"?>
<!-- Generator: Adobe Illustrator 16.0.0, SVG Export Plug-In . SVG Version: 6.00 Build 0)  -->
<!DOCTYPE svg PUBLIC "-//W3C//DTD SVG 1.1//EN" "http://www.w3.org/Graphics/SVG/1.1/DTD/svg11.dtd">
<svg version="1.1" id="Layer_1" xmlns="http://www.w3.org/2000/svg" xmlns:xlink="http://www.w3.org/1999/xlink" x="0px" y="0px"
	 width="694.4px" height="863.7px" viewBox="0 0 694.4 863.7" style="enable-background:new 0 0 694.4 863.7;" xml:space="preserve"
	>
<style type="text/css">
<![CDATA[
	.st0{fill-rule:evenodd;clip-rule:evenodd;fill:#231F20;}
]]>
</style>
<path class="st0" d="M322.5,179c-1.9-52.9-4.5-88.4-4.2-123.9c0.4-41.4,7.7-52.4,30.4-54.7c24.6-2.5,33.8,8.9,40.6,46.5
	c6.9,37.9,14.4,75.7,23.2,113.3c4.1,17.3,10.9,34,17.9,50.4c28.1,66.4,67.5,116.1,149.2,119c34.3,1.2,68.6,16.9,102,28.5
	c14.9,5.1,17.5,36.6,5,46.6c-9.1,7.4-20,12.5-30,18.7c-15.1,9.3-32.4,16.2-44.7,28.4c-90.1,88.9-112.8,83.9-102.1,238.3
	c2.2,32.7,3.5,65.4,5,98.1c0.7,14.9,1.7,29.8,0.7,44.6c-1.1,15.8-9.4,31.3-25.6,31.1c-12.7-0.2-32.1-7.9-36.5-17.6
	c-18.1-40.3-32.4-82.5-46.6-124.4c-5.6-16.7-8.7-34.5-10.9-52.1c-6.4-49-35.8-80.2-76.7-103.1c-18.6-10.5-35.8-11.5-58.6-6.5
	c-72.6,16-146.9,19.6-221,7.8c-18.2-2.9-34.2-11.2-38.6-31.2c-4-18.2,8.8-42.6,28.2-51.2c48.3-21.5,96.3-44.3,146.3-61.3
	c36.1-12.2,61.9-33.3,84.2-62.4C304.8,302.6,314.5,231.9,322.5,179z"/>
</svg>
