<?xml version="1.0" encoding="utf-8"?>
<!-- Generator: Adobe Illustrator 16.0.0, SVG Export Plug-In . SVG Version: 6.00 Build 0)  -->
<!DOCTYPE svg PUBLIC "-//W3C//DTD SVG 1.1//EN" "http://www.w3.org/Graphics/SVG/1.1/DTD/svg11.dtd">
<svg version="1.1" id="Layer_1" xmlns="http://www.w3.org/2000/svg" xmlns:xlink="http://www.w3.org/1999/xlink" x="0px" y="0px"
	 width="668.8px" height="950.7px" viewBox="0 0 668.8 950.7" style="enable-background:new 0 0 668.8 950.7;" xml:space="preserve"
	>
<style type="text/css">
<![CDATA[
	.st0{fill-rule:evenodd;clip-rule:evenodd;fill:#231F20;}
]]>
</style>
<path class="st0" d="M385.8,0c38.4,5.2,57.6,21.1,58.3,52.7c0.5,26.1-4.2,52.5-2.8,78.5c2.3,44.3,4.8,88.9,12.9,132.3
	c4.2,22.6,24,42,30.1,64.6c10.4,38.7,37.2,62.3,63.9,88.8c18.4,18.2,38.2,27.8,61.5,33.4c28.3,6.8,44.4,25.7,59.2,55.7
	c-6.8,4.4-13.2,12.1-19.8,12.2c-49.6,0.9-84.7,31.4-115.4,62.7c-38.8,39.6-71,85.6-105.4,129.6c-22.1,28.3-35.7,63-28.9,96.8
	c8.1,40.2-10.6,72.6-17,108.4c-3.8,21.2-16.8,32.4-37.8,34.4c-22.7,2.1-44.2-2.4-53.6-25.2c-13.1-31.7-28.4-64.1-32.8-97.6
	C248,750.9,200.7,691.7,172,623.9C136,597.3,110,557.8,65,542.7c-22.2-7.4-43.6-17.1-64.8-25.5c-2.2-24.4,9.3-37.7,30.6-39.9
	c105-10.8,173.2-71.3,220-161c29.4-56.4,59.7-112.5,86.1-170.3c14.2-31,21.1-65.3,31.7-98C373.5,33.1,379.2,18.6,385.8,0z"/>
</svg>
