<?xml version="1.0" encoding="utf-8"?>
<!-- Generator: Adobe Illustrator 16.0.0, SVG Export Plug-In . SVG Version: 6.00 Build 0)  -->
<!DOCTYPE svg PUBLIC "-//W3C//DTD SVG 1.1//EN" "http://www.w3.org/Graphics/SVG/1.1/DTD/svg11.dtd">
<svg version="1.1" id="Layer_1" xmlns="http://www.w3.org/2000/svg" xmlns:xlink="http://www.w3.org/1999/xlink" x="0px" y="0px"
	 width="758.9px" height="756.1px" viewBox="0 0 758.9 756.1" style="enable-background:new 0 0 758.9 756.1;" xml:space="preserve"
	>
<style type="text/css">
<![CDATA[
	.st0{fill-rule:evenodd;clip-rule:evenodd;fill:#231F20;}
]]>
</style>
<path class="st0" d="M439.8,533.9c-17.9,15.6-30.4,26.4-42.8,37.3c-41.8,36.6-83.6,73.2-132,101.2c-24.6,14.2-43,33-53.7,61.1
	c-10.8,28.3-56.5,30.2-72.4,4.7c-2.6-4.2-3.1-11.3-1.5-16c2.3-6.7,7.9-12.2,11.4-18.7c9.7-17.8,26.2-35.5,26.8-53.7
	c1.2-35.9,21.5-61.6,35.5-90.9c27.2-56.7,54-113.4,82.1-172.5c-10.1-9.4-18.1-19.8-28.6-26c-44.4-26.7-88.7-53.7-134.6-77.6
	c-44.6-23.3-87.1-49-123.8-83.6c-11-10.4-6.7-28.3,7.7-29.7c29.4-3,59.4-7.1,88.5-4.5c49.7,4.4,99,12.9,148.3,20.9
	c41.9,6.8,83.2,18.3,129.4,13.4C411.6,135.3,443.5,70.9,476,4.9c6.4-1.7,13.4-4.8,20.4-4.9c8.7-0.2,17.5,2.2,27.5,3.7
	c-1.6,37.4-9,72.9-2.9,105.9c6.1,33.1-10.1,66.7,9.3,102c18.1,3,39.8,7.5,61.7,10.2c44.1,5.4,88.3,9.7,132.4,15
	c7,0.8,14.3,3.1,20.5,6.4c14.7,8,18.7,25.4,7.9,37.5c-8.5,9.5-18.9,17.4-29.1,25.2c-55.7,42.7-111.6,85.1-167.4,127.7
	c0.8,58.1,10.9,112.4,22.5,166.7c8.5,39.8,17.2,79.6,25.3,119.6c1.4,7.1,1.1,14.6,0.7,21.9c-0.6,9.5-10,15.6-20,14
	c-17.9-2.8-28.2-12.6-36.6-29.4c-26.6-52.9-55.6-104.6-84.1-156.6C458,558.8,450,548.8,439.8,533.9z"/>
</svg>
