<svg width="106" height="36" viewBox="0 0 106 36" fill="none" xmlns="http://www.w3.org/2000/svg">
<path d="M53 0.614746C75.0028 0.614746 88.234 9.23935 95.9602 17.8869C99.8194 22.2063 102.3 26.5256 103.817 29.7662C104.575 31.3867 105.093 32.7383 105.421 33.6866C105.586 34.1607 105.702 34.5342 105.779 34.7901C105.817 34.918 105.845 35.0166 105.863 35.0837C105.873 35.1171 105.879 35.1428 105.884 35.1604C105.886 35.1692 105.888 35.1764 105.889 35.1811C105.89 35.1833 105.89 35.1852 105.891 35.1864L105.891 35.1877C105.891 35.1882 105.89 35.1888 105.561 35.2731L105.891 35.1884L106 35.6147H0L0.108657 35.1884L0.439295 35.2731C0.109006 35.1887 0.108541 35.1882 0.108657 35.1877L0.109324 35.1864C0.109645 35.1852 0.110085 35.1833 0.110657 35.1811C0.111875 35.1764 0.11366 35.1692 0.11599 35.1604C0.120648 35.1428 0.127428 35.1171 0.136655 35.0837C0.155164 35.0166 0.183222 34.918 0.221314 34.7901C0.297522 34.5342 0.414354 34.1607 0.578616 33.6866C0.907136 32.7383 1.42476 31.3867 2.18314 29.7662C3.69971 26.5256 6.18062 22.2063 10.0398 17.8869C17.766 9.23935 30.9972 0.614746 53 0.614746ZM53 1.29795C31.2023 1.29795 18.1531 9.83176 10.5491 18.3426C6.74328 22.6022 4.29648 26.8619 2.80175 30.0557C2.05451 31.6524 1.54553 32.9823 1.22389 33.9107C1.07444 34.3422 0.965563 34.6869 0.891921 34.9315H105.108C105.034 34.6869 104.926 34.3422 104.776 33.9107C104.454 32.9823 103.945 31.6524 103.198 30.0557C101.704 26.8619 99.2567 22.6022 95.4509 18.3426C87.8469 9.83176 74.7978 1.29795 53 1.29795Z" fill="black"/>
<path d="M53 5.61475C74.9736 5.61475 88.193 12.7259 95.9211 19.8684C99.7817 23.4365 102.265 27.0064 103.784 29.687C104.544 31.0273 105.063 32.1459 105.392 32.9313C105.557 33.3241 105.675 33.6336 105.751 33.8461C105.79 33.9523 105.817 34.0345 105.836 34.0905C105.845 34.1185 105.853 34.1402 105.857 34.155C105.86 34.1624 105.861 34.1682 105.863 34.1722C105.863 34.1742 105.864 34.1756 105.865 34.1768V34.1781C105.865 34.1785 105.865 34.179 105.539 34.2775L105.865 34.1787L106 34.6147H0L0.134599 34.1787L0.461101 34.2775C0.134831 34.179 0.13513 34.1785 0.135265 34.1781V34.1768C0.135626 34.1756 0.136631 34.1742 0.137264 34.1722C0.138528 34.1682 0.140227 34.1624 0.142595 34.155C0.147356 34.1402 0.154557 34.1185 0.163918 34.0905C0.182638 34.0345 0.210248 33.9523 0.248542 33.8461C0.325197 33.6336 0.442924 33.3241 0.607694 32.9313C0.937237 32.1459 1.45595 31.0273 2.21555 29.687C3.73481 27.0064 6.21834 23.4365 10.0789 19.8684C17.807 12.7259 31.0264 5.61475 53 5.61475ZM53 6.28916C31.1913 6.28917 18.1411 13.3409 10.5454 20.3611C6.74418 23.8742 4.30203 27.386 2.81125 30.0163C2.06592 31.3314 1.55838 32.426 1.23804 33.1895C1.1099 33.4949 1.01305 33.748 0.941526 33.9403H105.058C104.987 33.748 104.89 33.4949 104.762 33.1895C104.442 32.426 103.934 31.3314 103.189 30.0163C101.698 27.386 99.2558 23.8742 95.4546 20.3611C87.8589 13.3409 74.8087 6.28916 53 6.28916Z" fill="black"/>
<path d="M53 11.6147C74.9368 11.6147 88.1359 17.2122 95.8596 22.8419C99.7195 25.6555 102.206 28.4728 103.729 30.5923C104.49 31.6518 105.011 32.5367 105.342 33.1594C105.508 33.4708 105.626 33.7167 105.704 33.8861C105.742 33.9707 105.77 34.0366 105.79 34.0816C105.799 34.1041 105.807 34.1217 105.812 34.1338C105.814 34.1398 105.816 34.1443 105.818 34.1477C105.818 34.1493 105.818 34.1507 105.819 34.1517L105.82 34.153C105.82 34.1534 105.82 34.1539 105.502 34.2765L105.82 34.1536L106 34.6147H0L0.180449 34.1536L0.498065 34.2765C0.180325 34.1539 0.180279 34.1534 0.180449 34.153L0.181115 34.1517C0.181509 34.1507 0.181811 34.1493 0.182446 34.1477C0.183787 34.1443 0.186017 34.1398 0.188439 34.1338C0.193379 34.1217 0.200881 34.1041 0.210413 34.0816C0.229507 34.0366 0.257605 33.9707 0.296309 33.8861C0.373766 33.7167 0.492234 33.4708 0.657872 33.1594C0.989156 32.5367 1.50988 31.6518 2.27126 30.5923C3.79433 28.4728 6.28047 25.6555 10.1404 22.8419C17.8641 17.2122 31.0632 11.6147 53 11.6147ZM53 12.2912C31.1854 12.2912 18.1334 17.8556 10.5439 23.3876C6.74754 26.1548 4.31142 28.9185 2.82659 30.9847C2.08407 32.0179 1.57929 32.8771 1.26114 33.4752C1.16638 33.6533 1.08907 33.8088 1.02609 33.9383H104.974C104.911 33.8088 104.834 33.6533 104.739 33.4752C104.421 32.8771 103.916 32.0179 103.173 30.9847C101.689 28.9185 99.2525 26.1548 95.4561 23.3876C87.8666 17.8556 74.8146 12.2912 53 12.2912Z" fill="black"/>
<path d="M53 17.6147C74.8882 17.6147 88.0544 21.7023 95.7614 25.8146C99.6148 27.8707 102.101 29.9321 103.627 31.487C104.39 32.2641 104.913 32.9143 105.247 33.3736C105.413 33.6033 105.534 33.7854 105.612 33.9115C105.652 33.9745 105.681 34.0235 105.701 34.0576C105.711 34.0746 105.718 34.088 105.723 34.0974C105.726 34.102 105.728 34.106 105.729 34.1087C105.73 34.1101 105.731 34.1118 105.731 34.1127L105.732 34.1134C105.732 34.1138 105.732 34.1144 105.432 34.2747L105.733 34.1147L106 34.6147H0L0.267321 34.1147L0.56789 34.2747C0.267651 34.1144 0.267755 34.1138 0.267986 34.1134L0.268651 34.1127C0.269139 34.1118 0.269884 34.1101 0.270646 34.1087C0.272156 34.106 0.274069 34.102 0.27663 34.0974C0.281902 34.088 0.289402 34.0746 0.29924 34.0576C0.318995 34.0235 0.348332 33.9745 0.387682 33.9115C0.466466 33.7854 0.586508 33.6033 0.753419 33.3736C1.08724 32.9143 1.60986 32.2641 2.37264 31.487C3.8991 29.9321 6.38524 27.8707 10.2387 25.8146C17.9456 21.7023 31.1118 17.6147 53 17.6147ZM53 18.2947C31.195 18.2947 18.145 22.3672 10.5592 26.4149C6.76661 28.4386 4.33686 30.4575 2.8594 31.9625C2.1205 32.7152 1.61875 33.3403 1.30402 33.7734C1.26273 33.8302 1.22596 33.8847 1.19097 33.9347H104.809C104.774 33.8847 104.737 33.8302 104.696 33.7734C104.381 33.3403 103.88 32.7152 103.141 31.9625C101.663 30.4575 99.2334 28.4386 95.4408 26.4149C87.8551 22.3672 74.805 18.2947 53 18.2947Z" fill="black"/>
<path d="M53 23.6147C74.8005 23.6147 87.9048 26.1953 95.571 28.7885C99.4046 30.0852 101.88 31.3859 103.404 32.3696C104.165 32.8615 104.689 33.2743 105.025 33.5674C105.193 33.7139 105.314 33.8308 105.395 33.9125C105.435 33.9531 105.465 33.9851 105.486 34.0078C105.496 34.0192 105.504 34.0287 105.51 34.0353C105.513 34.0385 105.515 34.0414 105.517 34.0434L105.52 34.0468C105.52 34.0471 105.521 34.0475 105.263 34.271L105.521 34.0474L106 34.6147H0L0.479227 34.0474L0.737069 34.271C0.479198 34.0475 0.479557 34.0471 0.47989 34.0468L0.483204 34.0434C0.484955 34.0414 0.487025 34.0385 0.489832 34.0353C0.495633 34.0287 0.503978 34.0192 0.514357 34.0078C0.535085 33.9851 0.565104 33.9531 0.605165 33.9125C0.68569 33.8308 0.807025 33.7139 0.975025 33.5674C1.31105 33.2743 1.83466 32.8615 2.59631 32.3696C4.1197 31.3859 6.59535 30.0852 10.429 28.7885C18.0952 26.1953 31.1995 23.6147 53 23.6147ZM53 24.3022C31.2482 24.3022 18.2209 26.878 10.6437 29.441C6.85597 30.7223 4.4317 31.9999 2.96087 32.9497C2.361 33.3371 1.92016 33.6707 1.60935 33.9272H104.391C104.08 33.6707 103.639 33.3371 103.039 32.9497C101.568 31.9999 99.144 30.7223 95.3563 29.441C87.7791 26.878 74.7518 24.3022 53 24.3022Z" fill="black"/>
<path d="M53 29.6147C74.6105 29.6147 87.5887 30.7089 95.1711 31.8059C98.9625 32.3545 101.408 32.904 102.91 33.319C103.661 33.5265 104.178 33.7007 104.509 33.8243C104.675 33.8862 104.794 33.9356 104.874 33.9702C104.914 33.9875 104.944 34.0008 104.965 34.0105C104.975 34.0153 104.983 34.0192 104.989 34.0221C104.992 34.0235 104.994 34.0248 104.996 34.0258C104.997 34.0262 104.998 34.0266 104.999 34.027L104.999 34.0276C105 34.0278 105 34.0279 104.839 34.3022L105 34.0282L104.839 34.6147H1.16108L1 34.0282L1.16108 34.3022C0.999887 34.0279 1.00029 34.0278 1.00066 34.0276L1.00131 34.027C1.00198 34.0266 1.00301 34.0262 1.00394 34.0258C1.0058 34.0248 1.00828 34.0235 1.01118 34.0221C1.01707 34.0192 1.02521 34.0153 1.0355 34.0105C1.05627 34.0008 1.08641 33.9875 1.12623 33.9702C1.20598 33.9356 1.32546 33.8862 1.49112 33.8243C1.82249 33.7007 2.33874 33.5265 3.09005 33.319C4.59238 32.904 7.03749 32.3545 10.8289 31.8059C18.4113 30.7089 31.3896 29.6147 53 29.6147ZM53 30.2397C31.4114 30.2397 18.4701 31.3331 10.9328 32.4236C7.16451 32.9688 4.74962 33.513 3.28202 33.9183C3.19556 33.9422 3.1128 33.9669 3.03285 33.9897H102.967C102.887 33.9669 102.804 33.9422 102.718 33.9183C101.25 33.513 98.8355 32.9688 95.0672 32.4236C87.5299 31.3331 74.5886 30.2397 53 30.2397Z" fill="black"/>
<path d="M34 25.6147C34 27.2716 32.8807 28.6147 31.5 28.6147C30.1193 28.6147 29 27.2716 29 25.6147C29 23.9579 30.1193 22.6147 31.5 22.6147C32.8807 22.6147 34 23.9579 34 25.6147Z" fill="black"/>
<path d="M73 13.6147C73 15.2716 71.6569 16.6147 70 16.6147C68.3431 16.6147 67 15.2716 67 13.6147C67 11.9579 68.3431 10.6147 70 10.6147C71.6569 10.6147 73 11.9579 73 13.6147Z" fill="black"/>
<path d="M24 8.61475C24 10.2716 22.8807 11.6147 21.5 11.6147C20.1193 11.6147 19 10.2716 19 8.61475C19 6.95789 20.1193 5.61475 21.5 5.61475C22.8807 5.61475 24 6.95789 24 8.61475Z" fill="black"/>
<path d="M90 30.6147C90 32.2716 88.6569 33.6147 87 33.6147C85.3431 33.6147 84 32.2716 84 30.6147C84 28.9579 85.3431 27.6147 87 27.6147C88.6569 27.6147 90 28.9579 90 30.6147Z" fill="black"/>
<path d="M57 18.1147C57 19.4955 55.8807 20.6147 54.5 20.6147C53.1193 20.6147 52 19.4955 52 18.1147C52 16.734 53.1193 15.6147 54.5 15.6147C55.8807 15.6147 57 16.734 57 18.1147Z" fill="black"/>
<path d="M46 6.11475C46 7.49546 44.8807 8.61475 43.5 8.61475C42.1193 8.61475 41 7.49546 41 6.11475C41 4.73403 42.1193 3.61475 43.5 3.61475C44.8807 3.61475 46 4.73403 46 6.11475Z" fill="black"/>
</svg>
