<svg width="158" height="52" viewBox="0 0 158 52" fill="none" xmlns="http://www.w3.org/2000/svg">
<path d="M79 1C14.8333 1 2 51.2295 2 51.2295H156C156 51.2295 143.167 1 79 1Z" stroke="black"/>
<path d="M79 9C14.8333 9 2 51 2 51H156C156 51 143.167 9 79 9Z" stroke="black"/>
<path d="M79 18C14.8333 18 2 51 2 51H156C156 51 143.167 18 79 18Z" stroke="black"/>
<path d="M79 27C14.8333 27 2 51 2 51H156C156 51 143.167 27 79 27Z" stroke="black"/>
<path d="M79 36C14.8333 36 2 51 2 51H156C156 51 143.167 36 79 36Z" stroke="black"/>
<path d="M79 44C14.8333 44 2 51 2 51H156C156 51 143.167 44 79 44Z" stroke="black"/>
<circle cx="47" cy="38" r="4" fill="black"/>
<circle cx="104" cy="20" r="4" fill="black"/>
<circle cx="33" cy="13" r="4" fill="black"/>
<circle cx="129" cy="45" r="4" fill="black"/>
<circle cx="81" cy="27" r="4" fill="black"/>
<circle cx="65" cy="9" r="4" fill="black"/>
</svg>
