<svg width="24" height="22" viewBox="0 0 24 22" fill="none" xmlns="http://www.w3.org/2000/svg">
<path d="M4.11841 0H19.5982V3.09052H24L23.0775 6.18179H22.2964V18.6873C22.6881 18.6873 23.0061 19.0012 23.0061 19.3892V20.2321H23.1481C23.5406 20.2321 23.8587 20.5468 23.8587 20.9348V21.7778H15.9053V20.9348C15.9053 20.5468 16.2233 20.2321 16.6157 20.2321H16.7578V19.3892C16.7578 19.0519 16.9984 18.7702 17.3187 18.7024L17.3037 11.8021C17.0526 9.0451 14.7107 6.88443 11.8583 6.88443C9.00593 6.88443 6.66403 9.0451 6.41293 11.8021L6.3979 18.6963C6.7768 18.7521 7.24293 19.0412 7.24293 19.3892V20.2321H7.38502C7.77671 20.2321 8.09473 20.5468 8.09473 20.9348V21.7778H0.142092V20.9348C0.142092 20.5468 0.460107 20.2321 0.8518 20.2321H0.993892V19.3892C0.993892 19.0012 1.31191 18.6873 1.70436 18.6873V6.18179H0.923221L0 3.09052H4.11841V0Z" fill="black"/>
</svg>
