<svg width="384" height="384" viewBox="0 0 384 384" fill="none" xmlns="http://www.w3.org/2000/svg">
<circle cx="192" cy="192" r="191.5" stroke="#B18500" stroke-opacity="0.35"/>
<circle cx="192" cy="192" r="168.5" stroke="#B18500" stroke-opacity="0.35"/>
<circle cx="192" cy="192" r="143.5" stroke="#B18500" stroke-opacity="0.35"/>
<circle cx="192" cy="192" r="111.5" stroke="#B18500" stroke-opacity="0.35"/>
<path d="M384 192H194" stroke="#B18500" stroke-opacity="0.35"/>
<path d="M6.19888e-06 192L194 192" stroke="#B18500" stroke-opacity="0.35"/>
<path d="M328 327L194 192" stroke="#B18500" stroke-opacity="0.35"/>
<path d="M56 56L194 192" stroke="#B18500" stroke-opacity="0.35"/>
<path d="M327.5 55.5L192.5 189.5" stroke="#B18500" stroke-opacity="0.35"/>
<path d="M56.5 327.5L192.5 189.5" stroke="#B18500" stroke-opacity="0.35"/>
<path d="M193 384L194 192" stroke="#B18500" stroke-opacity="0.35"/>
<path d="M193 -3.7795e-06L194 192" stroke="#B18500" stroke-opacity="0.35"/>
<circle cx="299" cy="352" r="5" fill="#E4D3A2" fill-opacity="1"/>
<circle cx="48" cy="192" r="5" fill="#E4D3A2" fill-opacity="1"/>
<circle cx="130" cy="348" r="9" fill="#E4D3A2" fill-opacity="1"/>
<circle cx="239" cy="90" r="9" fill="#E4D3A2" fill-opacity="1"/>
<circle cx="151" cy="55" r="6" fill="#E4D3A2" fill-opacity="1"/>
<circle cx="347" cy="124" r="6" fill="#E4D3A2" fill-opacity="1"/>
</svg>
